<?xml version="1.0" encoding="us-ascii" standalone="no"?><svg xmlns="http://www.w3.org/2000/svg" xmlns:xlink="http://www.w3.org/1999/xlink" contentStyleType="text/css" height="669px" preserveAspectRatio="none" style="width:365px;height:669px;background:#FFFFFF;" version="1.1" viewBox="0 0 365 669" width="365px" zoomAndPan="magnify"><defs/><g><text fill="#000000" font-family="sans-serif" font-size="14" font-weight="bold" lengthAdjust="spacing" textLength="127" x="112.0317" y="25.1074">Use Case Diagram</text><!--entity Customer--><g id="elem_Customer"><ellipse cx="36.5" cy="493.6211" fill="#FF0000" rx="8" ry="8" style="stroke:#181818;stroke-width:0.5;"/><path d="M36.5,501.6211 L36.5,528.6211 M23.5,509.6211 L49.5,509.6211 M36.5,528.6211 L23.5,543.6211 M36.5,528.6211 L49.5,543.6211 " fill="none" style="stroke:#181818;stroke-width:0.5;"/><text fill="#000000" font-family="sans-serif" font-size="14" lengthAdjust="spacing" textLength="61" x="6" y="560.2285">Customer</text></g><!--entity Support--><g id="elem_Support"><ellipse cx="36.5" cy="124.6211" fill="#0000FF" rx="8" ry="8" style="stroke:#181818;stroke-width:0.5;"/><path d="M36.5,132.6211 L36.5,159.6211 M23.5,140.6211 L49.5,140.6211 M36.5,159.6211 L23.5,174.6211 M36.5,159.6211 L49.5,174.6211 " fill="none" style="stroke:#181818;stroke-width:0.5;"/><text fill="#000000" font-family="sans-serif" font-size="14" lengthAdjust="spacing" textLength="50" x="11.5" y="191.2285">Support</text></g><!--entity Admin--><g id="elem_Admin"><ellipse cx="36.5" cy="290.6211" fill="#008000" rx="8" ry="8" style="stroke:#181818;stroke-width:0.5;"/><path d="M36.5,298.6211 L36.5,325.6211 M23.5,306.6211 L49.5,306.6211 M36.5,325.6211 L23.5,340.6211 M36.5,325.6211 L49.5,340.6211 " fill="none" style="stroke:#181818;stroke-width:0.5;"/><text fill="#000000" font-family="sans-serif" font-size="14" lengthAdjust="spacing" textLength="39" x="17" y="357.2285">Admin</text></g><g id="elem_UC1"><ellipse cx="242.8518" cy="240.5914" fill="#F1F1F1" rx="112.8518" ry="24.9704" style="stroke:#181818;stroke-width:0.5;"/><text fill="#000000" font-family="sans-serif" font-size="14" lengthAdjust="spacing" textLength="187" x="149.3518" y="244.3883">UC1 - Login to the application</text></g><g id="elem_UC2"><ellipse cx="243.0317" cy="483.7274" fill="#F1F1F1" rx="116.0317" ry="25.6063" style="stroke:#181818;stroke-width:0.5;"/><text fill="#000000" font-family="sans-serif" font-size="14" lengthAdjust="spacing" textLength="194" x="146.0317" y="487.5243">UC2 - Browse available movies</text></g><g id="elem_UC3"><ellipse cx="242.7968" cy="565.5804" fill="#F1F1F1" rx="92.7968" ry="20.9594" style="stroke:#181818;stroke-width:0.5;"/><text fill="#000000" font-family="sans-serif" font-size="14" lengthAdjust="spacing" textLength="141" x="169.2968" y="570.3842">UC3 - Purchase movie</text></g><g id="elem_UC4"><ellipse cx="243.0732" cy="642.8357" fill="#F1F1F1" rx="91.5732" ry="20.7146" style="stroke:#181818;stroke-width:0.5;"/><text fill="#000000" font-family="sans-serif" font-size="14" lengthAdjust="spacing" textLength="138" x="171.0732" y="647.6394">UC4 - Request refund</text></g><g id="elem_UC5"><ellipse cx="242.7583" cy="70.7728" fill="#F1F1F1" rx="113.7583" ry="25.1517" style="stroke:#181818;stroke-width:0.5;"/><text fill="#000000" font-family="sans-serif" font-size="14" lengthAdjust="spacing" textLength="189" x="148.2583" y="74.5696">UC5 - View requested refunds</text></g><g id="elem_UC6"><ellipse cx="243.142" cy="155.5495" fill="#F1F1F1" rx="110.142" ry="24.4284" style="stroke:#181818;stroke-width:0.5;"/><text fill="#000000" font-family="sans-serif" font-size="14" lengthAdjust="spacing" textLength="181" x="152.642" y="159.3464">UC6 - Handle refund request</text></g><g id="elem_UC7"><ellipse cx="242.9801" cy="321.4171" fill="#F1F1F1" rx="91.9801" ry="20.796" style="stroke:#181818;stroke-width:0.5;"/><text fill="#000000" font-family="sans-serif" font-size="14" lengthAdjust="spacing" textLength="139" x="170.4801" y="326.2208">UC7 - Manage movies</text></g><g id="elem_UC8"><ellipse cx="242.9414" cy="400.5094" fill="#F1F1F1" rx="99.9414" ry="22.3883" style="stroke:#181818;stroke-width:0.5;"/><text fill="#000000" font-family="sans-serif" font-size="14" lengthAdjust="spacing" textLength="158" x="162.8178" y="404.7165">UC8 - Manage user roles</text></g><!--link Customer to UC1--><g id="link_Customer_UC1"><path d="M41.89,484.7911 C49.78,431.7711 71.14,338.2511 127,282.6211 C137.39,272.2711 145.0339,266.835 158.6839,260.925 " fill="none" id="Customer-to-UC1" style="stroke:#181818;stroke-width:1.0;"/><polygon fill="#181818" points="164.19,258.5411,154.3416,258.4463,159.6016,260.5277,157.5202,265.7877,164.19,258.5411" style="stroke:#181818;stroke-width:1.0;"/></g><!--link Customer to UC2--><g id="link_Customer_UC2"><path d="M67.24,518.6611 C90.72,513.9511 118.837,508.3103 150.617,501.9403 " fill="none" id="Customer-to-UC2" style="stroke:#181818;stroke-width:1.0;"/><polygon fill="#181818" points="156.5,500.7611,146.8894,498.6079,151.5975,501.7438,148.4616,506.4519,156.5,500.7611" style="stroke:#181818;stroke-width:1.0;"/></g><!--link Customer to UC3--><g id="link_Customer_UC3"><path d="M67.24,530.5811 C94.82,536.1111 131.0271,543.3716 166.9871,550.5816 " fill="none" id="Customer-to-UC3" style="stroke:#181818;stroke-width:1.0;"/><polygon fill="#181818" points="172.87,551.7611,164.832,546.0699,167.9676,550.7782,163.2593,553.9137,172.87,551.7611" style="stroke:#181818;stroke-width:1.0;"/></g><!--link Customer to UC4--><g id="link_Customer_UC4"><path d="M67.3,556.9711 C83.63,573.1311 104.99,591.8911 127,604.6211 C143.56,614.2011 157.1664,619.9395 175.1964,625.7195 " fill="none" id="Customer-to-UC4" style="stroke:#181818;stroke-width:1.0;"/><polygon fill="#181818" points="180.91,627.5511,173.5607,620.9946,176.1487,626.0247,171.1185,628.6127,180.91,627.5511" style="stroke:#181818;stroke-width:1.0;"/></g><!--link Support to UC1--><g id="link_Support_UC1"><path d="M61.57,167.5611 C79.45,176.2811 104.53,188.1711 127,197.6211 C144.88,205.1411 158.9564,210.6595 176.9164,217.3395 " fill="none" id="Support-to-UC1" style="stroke:#181818;stroke-width:1.0;"/><polygon fill="#181818" points="182.54,219.4311,175.499,212.5446,177.8537,217.6881,172.7102,220.0427,182.54,219.4311" style="stroke:#181818;stroke-width:1.0;"/></g><!--link Support to UC5--><g id="link_Support_UC5"><path d="M61.57,143.6811 C79.45,134.9611 104.53,123.0711 127,113.6211 C144.78,106.1411 158.736,100.6616 176.626,94.0116 " fill="none" id="Support-to-UC5" style="stroke:#181818;stroke-width:1.0;"/><polygon fill="#181818" points="182.25,91.9211,172.4203,91.3076,177.5633,93.6632,175.2077,98.8063,182.25,91.9211" style="stroke:#181818;stroke-width:1.0;"/></g><!--link Support to UC6--><g id="link_Support_UC6"><path d="M61.76,155.6211 C79.85,155.6211 99.97,155.6211 126.72,155.6211 " fill="none" id="Support-to-UC6" style="stroke:#181818;stroke-width:1.0;"/><polygon fill="#181818" points="132.72,155.6211,123.72,151.6211,127.72,155.6211,123.72,159.6211,132.72,155.6211" style="stroke:#181818;stroke-width:1.0;"/></g><!--link Admin to UC1--><g id="link_Admin_UC1"><path d="M56.22,313.0711 C74.23,304.9311 102.29,292.5011 127,282.6211 C144.76,275.5111 158.612,270.2636 176.412,263.7836 " fill="none" id="Admin-to-UC1" style="stroke:#181818;stroke-width:1.0;"/><polygon fill="#181818" points="182.05,261.7311,172.2246,261.0512,177.3516,263.4415,174.9613,268.5685,182.05,261.7311" style="stroke:#181818;stroke-width:1.0;"/></g><!--link Admin to UC7--><g id="link_Admin_UC7"><path d="M56.01,321.6211 C77.64,321.6211 109.02,321.6211 144.62,321.6211 " fill="none" id="Admin-to-UC7" style="stroke:#181818;stroke-width:1.0;"/><polygon fill="#181818" points="150.62,321.6211,141.62,317.6211,145.62,321.6211,141.62,325.6211,150.62,321.6211" style="stroke:#181818;stroke-width:1.0;"/></g><!--link Admin to UC8--><g id="link_Admin_UC8"><path d="M56.22,329.9511 C74.24,337.8811 102.31,349.9911 127,359.6211 C146.55,367.2511 162.5224,373.1131 181.6924,379.8831 " fill="none" id="Admin-to-UC8" style="stroke:#181818;stroke-width:1.0;"/><polygon fill="#181818" points="187.35,381.8811,180.1957,375.1124,182.6354,380.2161,177.5317,382.6558,187.35,381.8811" style="stroke:#181818;stroke-width:1.0;"/></g><!--SRC=[NP8xRuCm58LtViKL39qoDEybbL8wT6YbAbMwEt13B1bCh-tax_U2xTHXGJv7dyzzO8Ld2rO3oUPYePQ4bPMwop8hhKB8ZmQX5Fnvaw8XqURP4-nsEzXNLfCPZfaOZb0wOtMB10LX7Rnlr_UQB1GdvJ1u-xgL7HGD8N8L7nQB-3ndi1egviVo6MRmeHk-m2tQ2uBeUoKhCRIOWp30IChFcNybVMCbha8gSU8PMdsLQ08-J_45ur-EgikWHonGYvHQCdN0NuV60k7PTNMWbYcrOkf7uesH4SKwmB7oAgNNJB-BhkRsF1Ml1NYTmXk6FqKdciaicnJQ_aFi4f1MTt0R5tt_IOHgNABV-DsUpLx6bKwC-THOJ8rbh73mqvoLletHyGd4v4UzckXrZF6lvB5BxyMWL6qUr3Rx0m00]--></g></svg>