<?xml version="1.0" encoding="us-ascii" standalone="no"?><svg xmlns="http://www.w3.org/2000/svg" xmlns:xlink="http://www.w3.org/1999/xlink" contentStyleType="text/css" height="911px" preserveAspectRatio="none" style="width:2368px;height:911px;background:#F9F9F9;" version="1.1" viewBox="0 0 2368 911" width="2368px" zoomAndPan="magnify"><defs/><g><rect fill="#F9F9F9" height="911" style="stroke:none;stroke-width:1.0;" width="2368" x="0" y="0"/><!--cluster Refund Flow--><g id="cluster_Refund Flow"><rect fill="none" height="480" rx="2.5" ry="2.5" style="stroke:#181818;stroke-width:1.0;" width="1514" x="111" y="250"/><text fill="#000000" font-family="sans-serif" font-size="14" font-weight="bold" lengthAdjust="spacing" textLength="88" x="824" y="266.5332">Refund Flow</text></g><g id="elem_Request refund"><ellipse cx="200.7427" cy="499.1485" fill="#FFFFFF" rx="73.7427" ry="17.1485" style="stroke:#000000;stroke-width:0.5;"/><text fill="#000000" font-family="sans-serif" font-size="14" lengthAdjust="spacing" textLength="98" x="148.7427" y="503.6651">Request refund</text></g><g id="elem_Select own completed order"><ellipse cx="440.3456" cy="499.1691" fill="#FFFFFF" rx="106.3456" ry="23.6691" style="stroke:#000000;stroke-width:0.5;"/><text fill="#000000" font-family="sans-serif" font-size="14" lengthAdjust="spacing" textLength="175" x="352.8456" y="502.8976">Select own completed order</text></g><g id="elem_Submit refund reason"><ellipse cx="696.105" cy="499.221" fill="#FFFFFF" rx="89.105" ry="20.221" style="stroke:#000000;stroke-width:0.5;"/><text fill="#000000" font-family="sans-serif" font-size="14" lengthAdjust="spacing" textLength="136" x="628.105" y="502.9495">Submit refund reason</text></g><g id="elem_Send refund request"><ellipse cx="942.9506" cy="499.0496" fill="#B0B0B0" rx="97.9506" ry="26.5496" style="stroke:#808080;stroke-width:0.5;"/><text fill="#000000" font-family="sans-serif" font-size="14" font-style="italic" lengthAdjust="spacing" textLength="93" x="890.3609" y="493.5514">&#171;Vulnerability&#187;</text><text fill="#000000" font-family="sans-serif" font-size="14" lengthAdjust="spacing" textLength="130" x="871.8609" y="511.1608">Send refund request</text></g><g id="elem_Application/Server"><ellipse cx="1181.2827" cy="498.9565" fill="#FFFFFF" rx="80.2827" ry="18.4565" style="stroke:#000000;stroke-width:0.5;"/><text fill="#000000" font-family="sans-serif" font-size="14" lengthAdjust="spacing" textLength="115" x="1122.9192" y="502.9341">Application/Server</text></g><g id="elem_Validate JWT and role"><ellipse cx="1465.2618" cy="312.8847" fill="#B0B0B0" rx="103.2618" ry="26.3847" style="stroke:#808080;stroke-width:0.5;"/><text fill="#000000" font-family="sans-serif" font-size="14" font-style="italic" lengthAdjust="spacing" textLength="93" x="1412.5415" y="307.1032">&#171;Vulnerability&#187;</text><text fill="#000000" font-family="sans-serif" font-size="14" lengthAdjust="spacing" textLength="139" x="1389.5415" y="324.7126">Validate JWT and role</text></g><g id="elem_Validate ownership and 14-day window"><ellipse cx="1465.674" cy="405.2348" fill="#B0B0B0" rx="139.174" ry="30.2348" style="stroke:#808080;stroke-width:0.5;"/><text fill="#000000" font-family="sans-serif" font-size="14" font-style="italic" lengthAdjust="spacing" textLength="93" x="1414.4764" y="394.1076">&#171;Vulnerability&#187;</text><text fill="#000000" font-family="sans-serif" font-size="14" lengthAdjust="spacing" textLength="244" x="1338.9764" y="411.7169">Validate ownership and 14-day window</text></g><g id="elem_Prevent duplicate refund requests"><ellipse cx="1465.7459" cy="498.9492" fill="#B0B0B0" rx="130.2459" ry="28.4492" style="stroke:#808080;stroke-width:0.5;"/><text fill="#000000" font-family="sans-serif" font-size="14" font-style="italic" lengthAdjust="spacing" textLength="93" x="1413.9604" y="489.8122">&#171;Vulnerability&#187;</text><text fill="#000000" font-family="sans-serif" font-size="14" lengthAdjust="spacing" textLength="214" x="1353.4604" y="507.4216">Prevent duplicate refund requests</text></g><g id="elem_Apply rate limiting and request size limits"><ellipse cx="1465.3835" cy="594.0767" fill="#B0B0B0" rx="143.3835" ry="31.0767" style="stroke:#808080;stroke-width:0.5;"/><text fill="#000000" font-family="sans-serif" font-size="14" font-style="italic" lengthAdjust="spacing" textLength="93" x="1416.0647" y="581.8991">&#171;Vulnerability&#187;</text><text fill="#000000" font-family="sans-serif" font-size="14" lengthAdjust="spacing" textLength="254" x="1335.5647" y="599.5084">Apply rate limiting and request size limits</text></g><g id="elem_Log refund request outcome"><ellipse cx="1465.4911" cy="687.1982" fill="#B0B0B0" rx="121.4911" ry="26.6982" style="stroke:#808080;stroke-width:0.5;"/><text fill="#000000" font-family="sans-serif" font-size="14" font-style="italic" lengthAdjust="spacing" textLength="93" x="1412.8438" y="680.077">&#171;Vulnerability&#187;</text><text fill="#000000" font-family="sans-serif" font-size="14" lengthAdjust="spacing" textLength="179" x="1369.8438" y="697.6864">Log refund request outcome</text></g><!--entity Customer--><g id="elem_Customer"><ellipse cx="36.5" cy="468.5" fill="#F1F1F1" rx="8" ry="8" style="stroke:#181818;stroke-width:0.5;"/><path d="M36.5,476.5 L36.5,503.5 M23.5,484.5 L49.5,484.5 M36.5,503.5 L23.5,518.5 M36.5,503.5 L49.5,518.5 " fill="none" style="stroke:#181818;stroke-width:0.5;"/><text fill="#000000" font-family="sans-serif" font-size="14" lengthAdjust="spacing" textLength="61" x="6" y="534.5332">Customer</text></g><!--entity Attacker--><g id="elem_Attacker"><ellipse cx="2335" cy="361.5" fill="#F1F1F1" rx="8" ry="8" style="stroke:#181818;stroke-width:0.5;"/><path d="M2335,369.5 L2335,396.5 M2322,377.5 L2348,377.5 M2335,396.5 L2322,411.5 M2335,396.5 L2348,411.5 " fill="none" style="stroke:#181818;stroke-width:0.5;"/><text fill="#000000" font-family="sans-serif" font-size="14" lengthAdjust="spacing" textLength="52" x="2309" y="427.5332">Attacker</text></g><g id="elem_Unauthenticated request or forged token"><ellipse cx="2105.0627" cy="37.2125" fill="#000000" rx="144.0627" ry="31.2125" style="stroke:#000000;stroke-width:0.5;"/><text fill="#000000" font-family="sans-serif" font-size="14" font-style="italic" lengthAdjust="spacing" textLength="58" x="2075.3911" y="23.7406">&#171;Threat&#187;</text><text fill="#FFFFFF" font-family="sans-serif" font-size="14" lengthAdjust="spacing" textLength="256" x="1976.3911" y="41.3499">Unauthenticated request or forged token</text></g><g id="elem_Submit refund for another user's order"><ellipse cx="2104.7573" cy="187.9515" fill="#000000" rx="137.7573" ry="29.9515" style="stroke:#000000;stroke-width:0.5;"/><text fill="#000000" font-family="sans-serif" font-size="14" font-style="italic" lengthAdjust="spacing" textLength="58" x="2072.608" y="175.8876">&#171;Threat&#187;</text><text fill="#FFFFFF" font-family="sans-serif" font-size="14" lengthAdjust="spacing" textLength="242" x="1980.608" y="193.497">Submit refund for another user's order</text></g><g id="elem_Tamper order ID in API body"><ellipse cx="2104.8542" cy="279.1708" fill="#000000" rx="118.8542" ry="26.1708" style="stroke:#000000;stroke-width:0.5;"/><text fill="#000000" font-family="sans-serif" font-size="14" font-style="italic" lengthAdjust="spacing" textLength="58" x="2069.8901" y="271.1898">&#171;Threat&#187;</text><text fill="#FFFFFF" font-family="sans-serif" font-size="14" lengthAdjust="spacing" textLength="179" x="2009.3901" y="288.7991">Tamper order ID in API body</text></g><g id="elem_Bypass 14-day refund window"><ellipse cx="2105.0848" cy="392.117" fill="#000000" rx="121.0848" ry="26.617" style="stroke:#000000;stroke-width:0.5;"/><text fill="#000000" font-family="sans-serif" font-size="14" font-style="italic" lengthAdjust="spacing" textLength="58" x="2070.3561" y="383.6538">&#171;Threat&#187;</text><text fill="#FFFFFF" font-family="sans-serif" font-size="14" lengthAdjust="spacing" textLength="188" x="2005.3561" y="401.2632">Bypass 14-day refund window</text></g><g id="elem_Submit duplicate refund requests"><ellipse cx="2104.9603" cy="499.1921" fill="#000000" rx="126.4603" ry="27.6921" style="stroke:#000000;stroke-width:0.5;"/><text fill="#000000" font-family="sans-serif" font-size="14" font-style="italic" lengthAdjust="spacing" textLength="58" x="2070.6983" y="489.5792">&#171;Threat&#187;</text><text fill="#FFFFFF" font-family="sans-serif" font-size="14" lengthAdjust="spacing" textLength="208" x="1995.6983" y="507.1886">Submit duplicate refund requests</text></g><g id="elem_Flood refund endpoint"><ellipse cx="2104.9723" cy="657.0846" fill="#000000" rx="100.4723" ry="25.5846" style="stroke:#000000;stroke-width:0.5;"/><text fill="#000000" font-family="sans-serif" font-size="14" font-style="italic" lengthAdjust="spacing" textLength="58" x="2069.9703" y="650.1158">&#171;Threat&#187;</text><text fill="#FFFFFF" font-family="sans-serif" font-size="14" lengthAdjust="spacing" textLength="140" x="2028.9703" y="667.7251">Flood refund endpoint</text></g><g id="elem_Avoid detection and accountability"><ellipse cx="2104.9778" cy="809.0956" fill="#000000" rx="128.4778" ry="28.0956" style="stroke:#000000;stroke-width:0.5;"/><text fill="#000000" font-family="sans-serif" font-size="14" font-style="italic" lengthAdjust="spacing" textLength="58" x="2070.8638" y="799.0546">&#171;Threat&#187;</text><text fill="#FFFFFF" font-family="sans-serif" font-size="14" lengthAdjust="spacing" textLength="215" x="1992.3638" y="816.664">Avoid detection and accountability</text></g><g id="elem_AuthMiddleware JWT validation"><ellipse cx="1784.9339" cy="37.0868" fill="#FFFFFF" rx="115.9339" ry="25.5868" style="stroke:#000000;stroke-width:0.5;"/><text fill="#000000" font-family="sans-serif" font-size="14" lengthAdjust="spacing" textLength="196" x="1686.9339" y="40.8153">AuthMiddleware JWT validation</text></g><g id="elem_Server-side ownership check"><ellipse cx="1785.0226" cy="193.8045" fill="#FFFFFF" rx="109.5226" ry="24.3045" style="stroke:#000000;stroke-width:0.5;"/><text fill="#000000" font-family="sans-serif" font-size="14" lengthAdjust="spacing" textLength="182" x="1694.0226" y="197.533">Server-side ownership check</text></g><g id="elem_Server-side timestamp check"><ellipse cx="1785.0226" cy="420.8045" fill="#FFFFFF" rx="109.5226" ry="24.3045" style="stroke:#000000;stroke-width:0.5;"/><text fill="#000000" font-family="sans-serif" font-size="14" lengthAdjust="spacing" textLength="182" x="1694.0226" y="424.533">Server-side timestamp check</text></g><g id="elem_Unique constraint + transaction"><ellipse cx="1784.9339" cy="578.0868" fill="#FFFFFF" rx="115.9339" ry="25.5868" style="stroke:#000000;stroke-width:0.5;"/><text fill="#000000" font-family="sans-serif" font-size="14" lengthAdjust="spacing" textLength="196" x="1686.9339" y="581.8153">Unique constraint + transaction</text></g><g id="elem_Rate limiter + payload limit"><ellipse cx="1784.8449" cy="732.769" fill="#FFFFFF" rx="101.8449" ry="22.769" style="stroke:#000000;stroke-width:0.5;"/><text fill="#000000" font-family="sans-serif" font-size="14" lengthAdjust="spacing" textLength="165" x="1702.3449" y="736.4975">Rate limiter + payload limit</text></g><g id="elem_Immutable audit logging"><ellipse cx="1784.7514" cy="883.8503" fill="#FFFFFF" rx="94.7514" ry="21.3503" style="stroke:#000000;stroke-width:0.5;"/><text fill="#000000" font-family="sans-serif" font-size="14" lengthAdjust="spacing" textLength="149" x="1710.2514" y="887.5788">Immutable audit logging</text></g><!--link Customer to Request refund--><g id="link_Customer_Request refund"><path d="M67.35,499 C84.23,499 99.94,499 120.91,499 " fill="none" id="Customer-to-Request refund" style="stroke:#181818;stroke-width:1.0;"/><polygon fill="#181818" points="126.91,499,117.91,495,121.91,499,117.91,503,126.91,499" style="stroke:#181818;stroke-width:1.0;"/></g><!--link Request refund to Select own completed order--><g id="link_Request refund_Select own completed order"><path d="M274.14,499 C293.02,499 307.7,499 327.88,499 " fill="none" id="Request refund-to-Select own completed order" style="stroke:#181818;stroke-width:1.0;"/><polygon fill="#181818" points="333.88,499,324.88,495,328.88,499,324.88,503,333.88,499" style="stroke:#181818;stroke-width:1.0;"/></g><!--link Select own completed order to Submit refund reason--><g id="link_Select own completed order_Submit refund reason"><path d="M547,499 C566.86,499 581.42,499 600.69,499 " fill="none" id="Select own completed order-to-Submit refund reason" style="stroke:#181818;stroke-width:1.0;"/><polygon fill="#181818" points="606.69,499,597.69,495,601.69,499,597.69,503,606.69,499" style="stroke:#181818;stroke-width:1.0;"/></g><!--link Submit refund reason to Send refund request--><g id="link_Submit refund reason_Send refund request"><path d="M785.17,499 C804.52,499 819.08,499 838.76,499 " fill="none" id="Submit refund reason-to-Send refund request" style="stroke:#181818;stroke-width:1.0;"/><polygon fill="#181818" points="844.76,499,835.76,495,839.76,499,835.76,503,844.76,499" style="stroke:#181818;stroke-width:1.0;"/></g><!--link Send refund request to Application/Server--><g id="link_Send refund request_Application/Server"><path d="M1041.04,499 C1060.95,499 1075.68,499 1094.91,499 " fill="none" id="Send refund request-to-Application/Server" style="stroke:#181818;stroke-width:1.0;"/><polygon fill="#181818" points="1100.91,499,1091.91,495,1095.91,499,1091.91,503,1100.91,499" style="stroke:#181818;stroke-width:1.0;"/></g><!--link Application/Server to Validate JWT and role--><g id="link_Application/Server_Validate JWT and role"><path d="M1182,480.49 C1182,433.44 1182,313 1182,313 C1182,313 1274.96,313 1355.95,313 " fill="none" id="Application/Server-to-Validate JWT and role" style="stroke:#181818;stroke-width:1.0;"/><polygon fill="#181818" points="1361.95,313,1352.95,309,1356.95,313,1352.95,317,1361.95,313" style="stroke:#181818;stroke-width:1.0;"/></g><!--link Application/Server to Validate ownership and 14-day window--><g id="link_Application/Server_Validate ownership and 14-day window"><path d="M1251.48,489.75 C1291.18,489.75 1333,489.75 1333,489.75 C1333,489.75 1333,441.93 1333,420.07 " fill="none" id="Application/Server-to-Validate ownership and 14-day window" style="stroke:#181818;stroke-width:1.0;"/><polygon fill="#181818" points="1333,414.07,1329,423.07,1333,419.07,1337,423.07,1333,414.07" style="stroke:#181818;stroke-width:1.0;"/></g><!--link Application/Server to Prevent duplicate refund requests--><g id="link_Application/Server_Prevent duplicate refund requests"><path d="M1262.12,499 C1284.92,499 1304.33,499 1329.25,499 " fill="none" id="Application/Server-to-Prevent duplicate refund requests" style="stroke:#181818;stroke-width:1.0;"/><polygon fill="#181818" points="1335.25,499,1326.25,495,1330.25,499,1326.25,503,1335.25,499" style="stroke:#181818;stroke-width:1.0;"/></g><!--link Application/Server to Apply rate limiting and request size limits--><g id="link_Application/Server_Apply rate limiting and request size limits"><path d="M1251.4,508.25 C1289.92,508.25 1330,508.25 1330,508.25 C1330,508.25 1330,554.59 1330,577.49 " fill="none" id="Application/Server-to-Apply rate limiting and request size limits" style="stroke:#181818;stroke-width:1.0;"/><polygon fill="#181818" points="1330,583.49,1334,574.49,1330,578.49,1326,574.49,1330,583.49" style="stroke:#181818;stroke-width:1.0;"/></g><!--link Application/Server to Log refund request outcome--><g id="link_Application/Server_Log refund request outcome"><path d="M1182,517.71 C1182,565.27 1182,687 1182,687 C1182,687 1260.79,687 1337.63,687 " fill="none" id="Application/Server-to-Log refund request outcome" style="stroke:#181818;stroke-width:1.0;"/><polygon fill="#181818" points="1343.63,687,1334.63,683,1338.63,687,1334.63,691,1343.63,687" style="stroke:#181818;stroke-width:1.0;"/></g><!--reverse link Validate JWT and role to Unauthenticated request or forged token--><g id="link_Validate JWT and role_Unauthenticated request or forged token"><path d="M1538.19,292.67 C1666.91,292.67 1931,292.67 1931,292.67 C1931,292.67 1931,45.5 1931,45.5 C1931,45.5 1945.54,45.5 1966.21,45.5 " fill="none" id="Validate JWT and role-backto-Unauthenticated request or forged token" style="stroke:#FF0000;stroke-width:1.0;"/><polygon fill="#FF0000" points="1532.19,292.67,1541.19,296.67,1537.19,292.67,1541.19,288.67,1532.19,292.67" style="stroke:#FF0000;stroke-width:1.0;"/><text fill="#000000" font-family="sans-serif" font-size="13" lengthAdjust="spacing" textLength="71" x="1800.79" y="307.1651">&#171;Threatens&#187;</text></g><!--reverse link Validate ownership and 14-day window to Submit refund for another user's order--><g id="link_Validate ownership and 14-day window_Submit refund for another user's order"><path d="M1561.76,382.17 C1707.38,382.17 1972,382.17 1972,382.17 C1972,382.17 1972,233.51 1972,196.34 " fill="none" id="Validate ownership and 14-day window-backto-Submit refund for another user's order" style="stroke:#FF0000;stroke-width:1.0;"/><polygon fill="#FF0000" points="1555.76,382.17,1564.76,386.17,1560.76,382.17,1564.76,378.17,1555.76,382.17" style="stroke:#FF0000;stroke-width:1.0;"/><text fill="#000000" font-family="sans-serif" font-size="13" lengthAdjust="spacing" textLength="71" x="1784.79" y="378.6651">&#171;Threatens&#187;</text></g><!--reverse link Validate ownership and 14-day window to Tamper order ID in API body--><g id="link_Validate ownership and 14-day window_Tamper order ID in API body"><path d="M1593,386.82 C1593,358.93 1593,298.83 1593,298.83 C1593,298.83 1884.76,298.83 2027.79,298.83 " fill="none" id="Validate ownership and 14-day window-backto-Tamper order ID in API body" style="stroke:#FF0000;stroke-width:1.0;"/><polygon fill="#FF0000" points="1593,392.82,1597,383.82,1593,387.82,1589,383.82,1593,392.82" style="stroke:#FF0000;stroke-width:1.0;"/><text fill="#000000" font-family="sans-serif" font-size="13" lengthAdjust="spacing" textLength="71" x="1691.4" y="313.3251">&#171;Threatens&#187;</text></g><!--reverse link Validate ownership and 14-day window to Bypass 14-day refund window--><g id="link_Validate ownership and 14-day window_Bypass 14-day refund window"><path d="M1590.29,389.33 C1704.34,389.33 1869.76,389.33 1984.41,389.33 " fill="none" id="Validate ownership and 14-day window-backto-Bypass 14-day refund window" style="stroke:#FF0000;stroke-width:1.0;"/><polygon fill="#FF0000" points="1584.29,389.33,1593.29,393.33,1589.29,389.33,1593.29,385.33,1584.29,389.33" style="stroke:#FF0000;stroke-width:1.0;"/><text fill="#000000" font-family="sans-serif" font-size="13" lengthAdjust="spacing" textLength="71" x="1712.35" y="385.8251">&#171;Threatens&#187;</text></g><!--reverse link Prevent duplicate refund requests to Submit duplicate refund requests--><g id="link_Prevent duplicate refund requests_Submit duplicate refund requests"><path d="M1601.68,499 C1713.43,499 1867.53,499 1978.27,499 " fill="none" id="Prevent duplicate refund requests-backto-Submit duplicate refund requests" style="stroke:#FF0000;stroke-width:1.0;"/><polygon fill="#FF0000" points="1595.68,499,1604.68,503,1600.68,499,1604.68,495,1595.68,499" style="stroke:#FF0000;stroke-width:1.0;"/><text fill="#000000" font-family="sans-serif" font-size="13" lengthAdjust="spacing" textLength="71" x="1714.98" y="513.4951">&#171;Threatens&#187;</text></g><!--reverse link Apply rate limiting and request size limits to Flood refund endpoint--><g id="link_Apply rate limiting and request size limits_Flood refund endpoint"><path d="M1602,610.03 C1602,625.14 1602,646 1602,646 C1602,646 1869.32,646 2014.2,646 " fill="none" id="Apply rate limiting and request size limits-backto-Flood refund endpoint" style="stroke:#FF0000;stroke-width:1.0;"/><polygon fill="#FF0000" points="1602,604.03,1598,613.03,1602,609.03,1606,613.03,1602,604.03" style="stroke:#FF0000;stroke-width:1.0;"/><text fill="#000000" font-family="sans-serif" font-size="13" lengthAdjust="spacing" textLength="71" x="1715.11" y="660.4951">&#171;Threatens&#187;</text></g><!--reverse link Log refund request outcome to Avoid detection and accountability--><g id="link_Log refund request outcome_Avoid detection and accountability"><path d="M1585.52,696.25 C1739.26,696.25 1988,696.25 1988,696.25 C1988,696.25 1988,768.55 1988,797.36 " fill="none" id="Log refund request outcome-backto-Avoid detection and accountability" style="stroke:#FF0000;stroke-width:1.0;"/><polygon fill="#FF0000" points="1579.52,696.25,1588.52,700.25,1584.52,696.25,1588.52,692.25,1579.52,696.25" style="stroke:#FF0000;stroke-width:1.0;"/><text fill="#000000" font-family="sans-serif" font-size="13" lengthAdjust="spacing" textLength="71" x="1835.31" y="706.2451">&#171;Threatens&#187;</text></g><!--reverse link Unauthenticated request or forged token to Attacker--><g id="link_Unauthenticated request or forged token_Attacker"><path d="M2255.2,37 C2305.67,37 2344,37 2344,37 C2344,37 2344,260.77 2344,352.99 " fill="none" id="Unauthenticated request or forged token-backto-Attacker" style="stroke:#181818;stroke-width:1.0;"/><polygon fill="#181818" points="2249.2,37,2258.2,41,2254.2,37,2258.2,33,2249.2,37" style="stroke:#181818;stroke-width:1.0;"/></g><!--reverse link Submit refund for another user's order to Attacker--><g id="link_Submit refund for another user's order_Attacker"><path d="M2239,201.36 C2239,234.14 2239,359.25 2239,359.25 C2239,359.25 2280.34,359.25 2308.77,359.25 " fill="none" id="Submit refund for another user's order-backto-Attacker" style="stroke:#181818;stroke-width:1.0;"/><polygon fill="#181818" points="2239,195.36,2235,204.36,2239,200.36,2243,204.36,2239,195.36" style="stroke:#181818;stroke-width:1.0;"/></g><!--reverse link Tamper order ID in API body to Attacker--><g id="link_Tamper order ID in API body_Attacker"><path d="M2230.12,279 C2282.79,279 2327,279 2327,279 C2327,279 2327,320.16 2327,352.8 " fill="none" id="Tamper order ID in API body-backto-Attacker" style="stroke:#181818;stroke-width:1.0;"/><polygon fill="#181818" points="2224.12,279,2233.12,283,2229.12,279,2233.12,275,2224.12,279" style="stroke:#181818;stroke-width:1.0;"/></g><!--reverse link Bypass 14-day refund window to Attacker--><g id="link_Bypass 14-day refund window_Attacker"><path d="M2232.06,392 C2263.23,392 2287.8,392 2308.59,392 " fill="none" id="Bypass 14-day refund window-backto-Attacker" style="stroke:#181818;stroke-width:1.0;"/><polygon fill="#181818" points="2226.06,392,2235.06,396,2231.06,392,2235.06,388,2226.06,392" style="stroke:#181818;stroke-width:1.0;"/></g><!--reverse link Submit duplicate refund requests to Attacker--><g id="link_Submit duplicate refund requests_Attacker"><path d="M2237.54,499 C2285.16,499 2322,499 2322,499 C2322,499 2322,461.77 2322,431.24 " fill="none" id="Submit duplicate refund requests-backto-Attacker" style="stroke:#181818;stroke-width:1.0;"/><polygon fill="#181818" points="2231.54,499,2240.54,503,2236.54,499,2240.54,495,2231.54,499" style="stroke:#181818;stroke-width:1.0;"/></g><!--reverse link Flood refund endpoint to Attacker--><g id="link_Flood refund endpoint_Attacker"><path d="M2211.55,657 C2273.44,657 2335,657 2335,657 C2335,657 2335,504.82 2335,431.1 " fill="none" id="Flood refund endpoint-backto-Attacker" style="stroke:#181818;stroke-width:1.0;"/><polygon fill="#181818" points="2205.55,657,2214.55,661,2210.55,657,2214.55,653,2205.55,657" style="stroke:#181818;stroke-width:1.0;"/></g><!--reverse link Avoid detection and accountability to Attacker--><g id="link_Avoid detection and accountability_Attacker"><path d="M2239.62,809 C2297.9,809 2348,809 2348,809 C2348,809 2348,535.04 2348,431.23 " fill="none" id="Avoid detection and accountability-backto-Attacker" style="stroke:#181818;stroke-width:1.0;"/><polygon fill="#181818" points="2233.62,809,2242.62,813,2238.62,809,2242.62,805,2233.62,809" style="stroke:#181818;stroke-width:1.0;"/></g><!--link Validate JWT and role to AuthMiddleware JWT validation--><g id="link_Validate JWT and role_AuthMiddleware JWT validation"><path d="M1466,286.29 C1466,217.02 1466,37 1466,37 C1466,37 1571.72,37 1662.93,37 " fill="none" id="Validate JWT and role-to-AuthMiddleware JWT validation" style="stroke:#181818;stroke-width:1.0;"/><polygon fill="#181818" points="1668.93,37,1659.93,33,1663.93,37,1659.93,41,1668.93,37" style="stroke:#181818;stroke-width:1.0;"/></g><!--link Validate ownership and 14-day window to Server-side ownership check--><g id="link_Validate ownership and 14-day window_Server-side ownership check"><path d="M1581,388.09 C1581,338.02 1581,194 1581,194 C1581,194 1620.95,194 1669.24,194 " fill="none" id="Validate ownership and 14-day window-to-Server-side ownership check" style="stroke:#181818;stroke-width:1.0;"/><polygon fill="#181818" points="1675.24,194,1666.24,190,1670.24,194,1666.24,198,1675.24,194" style="stroke:#181818;stroke-width:1.0;"/></g><!--link Validate ownership and 14-day window to Server-side timestamp check--><g id="link_Validate ownership and 14-day window_Server-side timestamp check"><path d="M1595.45,415.75 C1622.84,415.75 1645.43,415.75 1671.86,415.75 " fill="none" id="Validate ownership and 14-day window-to-Server-side timestamp check" style="stroke:#181818;stroke-width:1.0;"/><polygon fill="#181818" points="1677.86,415.75,1668.86,411.75,1672.86,415.75,1668.86,419.75,1677.86,415.75" style="stroke:#181818;stroke-width:1.0;"/></g><!--link Prevent duplicate refund requests to Unique constraint + transaction--><g id="link_Prevent duplicate refund requests_Unique constraint + transaction"><path d="M1466,527.69 C1466,542.6 1466,557.75 1466,557.75 C1466,557.75 1614.22,557.75 1708.2,557.75 " fill="none" id="Prevent duplicate refund requests-to-Unique constraint + transaction" style="stroke:#181818;stroke-width:1.0;"/><polygon fill="#181818" points="1714.2,557.75,1705.2,553.75,1709.2,557.75,1705.2,561.75,1714.2,557.75" style="stroke:#181818;stroke-width:1.0;"/></g><!--link Apply rate limiting and request size limits to Rate limiter + payload limit--><g id="link_Apply rate limiting and request size limits_Rate limiter + payload limit"><path d="M1595,607.5 C1595,642.72 1595,734.75 1595,734.75 C1595,734.75 1631.97,734.75 1677.05,734.75 " fill="none" id="Apply rate limiting and request size limits-to-Rate limiter + payload limit" style="stroke:#181818;stroke-width:1.0;"/><polygon fill="#181818" points="1683.05,734.75,1674.05,730.75,1678.05,734.75,1674.05,738.75,1683.05,734.75" style="stroke:#181818;stroke-width:1.0;"/></g><!--link Log refund request outcome to Immutable audit logging--><g id="link_Log refund request outcome_Immutable audit logging"><path d="M1466,713.57 C1466,767.34 1466,884 1466,884 C1466,884 1589.72,884 1683.72,884 " fill="none" id="Log refund request outcome-to-Immutable audit logging" style="stroke:#181818;stroke-width:1.0;"/><polygon fill="#181818" points="1689.72,884,1680.72,880,1684.72,884,1680.72,888,1689.72,884" style="stroke:#181818;stroke-width:1.0;"/></g><!--link AuthMiddleware JWT validation to Unauthenticated request or forged token--><g id="link_AuthMiddleware JWT validation_Unauthenticated request or forged token"><path d="M1894.68,28.5 C1917.75,28.5 1936.37,28.5 1960.34,28.5 " fill="none" id="AuthMiddleware JWT validation-to-Unauthenticated request or forged token" style="stroke:#008000;stroke-width:1.0;"/><polygon fill="#008000" points="1966.34,28.5,1957.34,24.5,1961.34,28.5,1957.34,32.5,1966.34,28.5" style="stroke:#008000;stroke-width:1.0;"/><text fill="#000000" font-family="sans-serif" font-size="13" lengthAdjust="spacing" textLength="67" x="1862.51" y="24.9951">&#171;Mitigates&#187;</text></g><!--link Server-side ownership check to Submit refund for another user's order--><g id="link_Server-side ownership check_Submit refund for another user's order"><path d="M1894.68,193.75 C1918.74,193.75 1938.49,193.75 1963.44,193.75 " fill="none" id="Server-side ownership check-to-Submit refund for another user's order" style="stroke:#008000;stroke-width:1.0;"/><polygon fill="#008000" points="1969.44,193.75,1960.44,189.75,1964.44,193.75,1960.44,197.75,1969.44,193.75" style="stroke:#008000;stroke-width:1.0;"/><text fill="#000000" font-family="sans-serif" font-size="13" lengthAdjust="spacing" textLength="67" x="1864.06" y="208.2451">&#171;Mitigates&#187;</text></g><!--link Server-side ownership check to Tamper order ID in API body--><g id="link_Server-side ownership check_Tamper order ID in API body"><path d="M1785,218.8 C1785,240.9 1785,269.75 1785,269.75 C1785,269.75 1895.18,269.75 1987.53,269.75 " fill="none" id="Server-side ownership check-to-Tamper order ID in API body" style="stroke:#008000;stroke-width:1.0;"/><polygon fill="#008000" points="1993.53,269.75,1984.53,265.75,1988.53,269.75,1984.53,273.75,1993.53,269.75" style="stroke:#008000;stroke-width:1.0;"/><text fill="#000000" font-family="sans-serif" font-size="13" lengthAdjust="spacing" textLength="67" x="1795.79" y="284.2451">&#171;Mitigates&#187;</text></g><!--link Server-side timestamp check to Bypass 14-day refund window--><g id="link_Server-side timestamp check_Bypass 14-day refund window"><path d="M1876.7,407.5 C1917.33,407.5 1959.2,407.5 2000.58,407.5 " fill="none" id="Server-side timestamp check-to-Bypass 14-day refund window" style="stroke:#008000;stroke-width:1.0;"/><polygon fill="#008000" points="2006.58,407.5,1997.58,403.5,2001.58,407.5,1997.58,411.5,2006.58,407.5" style="stroke:#008000;stroke-width:1.0;"/><text fill="#000000" font-family="sans-serif" font-size="13" lengthAdjust="spacing" textLength="67" x="1873.64" y="403.9951">&#171;Mitigates&#187;</text></g><!--link Unique constraint + transaction to Submit duplicate refund requests--><g id="link_Unique constraint + transaction_Submit duplicate refund requests"><path d="M1901.3,578 C1950.22,578 1996,578 1996,578 C1996,578 1996,541.85 1996,519.12 " fill="none" id="Unique constraint + transaction-to-Submit duplicate refund requests" style="stroke:#008000;stroke-width:1.0;"/><polygon fill="#008000" points="1996,513.12,1992,522.12,1996,518.12,2000,522.12,1996,513.12" style="stroke:#008000;stroke-width:1.0;"/><text fill="#000000" font-family="sans-serif" font-size="13" lengthAdjust="spacing" textLength="67" x="1913.09" y="592.4951">&#171;Mitigates&#187;</text></g><!--link Rate limiter + payload limit to Flood refund endpoint--><g id="link_Rate limiter + payload limit_Flood refund endpoint"><path d="M1785,709.75 C1785,692.33 1785,671.5 1785,671.5 C1785,671.5 1921.36,671.5 2016.18,671.5 " fill="none" id="Rate limiter + payload limit-to-Flood refund endpoint" style="stroke:#008000;stroke-width:1.0;"/><polygon fill="#008000" points="2022.18,671.5,2013.18,667.5,2017.18,671.5,2013.18,675.5,2022.18,671.5" style="stroke:#008000;stroke-width:1.0;"/><text fill="#000000" font-family="sans-serif" font-size="13" lengthAdjust="spacing" textLength="67" x="1816.46" y="685.9951">&#171;Mitigates&#187;</text></g><!--link Immutable audit logging to Avoid detection and accountability--><g id="link_Immutable audit logging_Avoid detection and accountability"><path d="M1785,862.31 C1785,840.16 1785,809 1785,809 C1785,809 1881.31,809 1970.23,809 " fill="none" id="Immutable audit logging-to-Avoid detection and accountability" style="stroke:#008000;stroke-width:1.0;"/><polygon fill="#008000" points="1976.23,809,1967.23,805,1971.23,809,1967.23,813,1976.23,809" style="stroke:#008000;stroke-width:1.0;"/><text fill="#000000" font-family="sans-serif" font-size="13" lengthAdjust="spacing" textLength="67" x="1785.96" y="823.4951">&#171;Mitigates&#187;</text></g><!--SRC=[hLRRRjiu47tNLmoIXxOeZErk4ZHU505ansbTv5BOJlBCI1EP24sg99NKNUo_TqZ9YMHT8cyNUh15dZapcZapfC1x2rQ1vidIGimrHfOh6PW7BbEcsGe4bsZNAOBITgbA6sR9OlN4PGBtJ1WixTonw27HAfFnM0cbOVziw9wW1CaCHimW_1C0ZBRWjqjkqQqh7QFErqQ2GBHsfgGjh_pRZ_FJfyLI8xCd9tMcqbw3vvfbRuyNtFA4kMoIxVx1uVZZqR3gju9ez5tb-ElmE3muxH_1v8T5BPbmjaVX-FWihFelxJTwBziVXCFXwR2_xvjCIDJiZWjkruvWzC4zrG2sGPlQLAAeCHr_S0-54h38aXB6cR5gXRfutGkj9HhKUy0CR5w2m4cRoKGWxCtmdYA5Cw6Uzdpu6meO34xWxGo_PsWiQ0zxH_lRIpbkZe8uGJr9YDGg5MWn1X-wj-dOBkopknNVSD8FCqhcbaqR6vz-fTZmGHNEwkkvHPYcWaTUH7_CKJyMqJKiv_WR9dZCBCBNsmKmHwS4leEg6FinqAUZDakUUfu_3mSnMmED39eREn5-q_Y8akPJbWDmwqlDJcnkOmtQqGXEUNOZZBsGWU4_YvtTUCzLiXKNgCnIwUlP8-s-8QC1t5oVNqvcuMXwFbrC9_EWkOwr9WZQgzIEVAKQDSDUMQzPxPZTcdrt5hVXHHeNNsQJS47fkvOiiqkAsWTSej1mhtH2ArOze7HKcxaURBKRuIXWHIpQZJZzncoQjcopOAkK07u7fgV09OJVfd2dudKLE5gdp9XDkWiVBrclHT6PxHSqpIxrB1JIJAguj5L8-AXu336D7N-c-ogmAA8XROi4Ll2LLCBuwl9oCbvChoxdxM8ZUF-Cxslw__UpHvHc1tKwJttBzDkEEclxs-oTWcXcxzE9fGnrm9hvT-jPvwb5VitqdItjsFeejP5wbuOdHy-NWVujNx7gRleAjBljcs9vfRWl-BRMhu1wDN_PecZ_2pg7FeVTVP-VefJs2nx70f-OpX6FEPmhMJlmUZP8SSLnX-h0yBYCZfOOFVnll9QlABLKpZRU7YtdIQybftUwu4bZDQD2m7kWFzAmg3aHE_LQVXrznfBgtaFAraAnE5-fytSrcwURhbOPQO3kmIoBINT29Ga5KMEg2c8oXt0skxebLRnI-I8jVK-5H2DAtzY5T_GperC43RVdZkFWFtleFWTwqDPKvccx3u0MsbTrLiv9rm7GmjyjCa_UDlDR65jrbe-FFYE_cVaN]--></g></svg>