<?xml version="1.0" encoding="us-ascii" standalone="no"?><svg xmlns="http://www.w3.org/2000/svg" xmlns:xlink="http://www.w3.org/1999/xlink" contentStyleType="text/css" height="1254px" preserveAspectRatio="none" style="width:1952px;height:1254px;background:#F9F9F9;" version="1.1" viewBox="0 0 1952 1254" width="1952px" zoomAndPan="magnify"><defs/><g><rect fill="#F9F9F9" height="1254" style="stroke:none;stroke-width:1.0;" width="1952" x="0" y="0"/><!--cluster Purchase Flow--><g id="cluster_Purchase Flow"><rect fill="none" height="463" rx="2.5" ry="2.5" style="stroke:#181818;stroke-width:1.0;" width="1000" x="111" y="334"/><text fill="#000000" font-family="sans-serif" font-size="14" font-weight="bold" lengthAdjust="spacing" textLength="103" x="559.5" y="350.5332">Purchase Flow</text></g><g id="elem_Purchase movies"><ellipse cx="204.5069" cy="575.9014" fill="#FFFFFF" rx="77.5069" ry="17.9014" style="stroke:#000000;stroke-width:0.5;"/><text fill="#000000" font-family="sans-serif" font-size="14" lengthAdjust="spacing" textLength="108" x="148.3567" y="580.216">Purchase movies</text></g><g id="elem_Send purchase request"><ellipse cx="450.6229" cy="576.2494" fill="#B0B0B0" rx="108.6229" ry="26.2494" style="stroke:#808080;stroke-width:0.5;"/><text fill="#000000" font-family="sans-serif" font-size="14" font-style="italic" lengthAdjust="spacing" textLength="93" x="397.7689" y="570.2296">&#171;Vulnerability&#187;</text><text fill="#000000" font-family="sans-serif" font-size="14" lengthAdjust="spacing" textLength="148" x="370.2689" y="587.839">Send purchase request</text></g><g id="elem_Application/Server"><ellipse cx="699.2827" cy="575.9565" fill="#FFFFFF" rx="80.2827" ry="18.4565" style="stroke:#000000;stroke-width:0.5;"/><text fill="#000000" font-family="sans-serif" font-size="14" lengthAdjust="spacing" textLength="115" x="640.9192" y="579.9341">Application/Server</text></g><g id="elem_Validate JWT and Customer role"><ellipse cx="967.5619" cy="397.9124" fill="#B0B0B0" rx="127.5619" ry="27.9124" style="stroke:#808080;stroke-width:0.5;"/><text fill="#000000" font-family="sans-serif" font-size="14" font-style="italic" lengthAdjust="spacing" textLength="93" x="915.5532" y="389.3848">&#171;Vulnerability&#187;</text><text fill="#000000" font-family="sans-serif" font-size="14" lengthAdjust="spacing" textLength="204" x="860.0532" y="406.9942">Validate JWT and Customer role</text></g><g id="elem_Validate order payload"><ellipse cx="967.639" cy="487.8214" fill="#B0B0B0" rx="105.639" ry="26.3214" style="stroke:#808080;stroke-width:0.5;"/><text fill="#000000" font-family="sans-serif" font-size="14" font-style="italic" lengthAdjust="spacing" textLength="93" x="914.8596" y="481.929">&#171;Vulnerability&#187;</text><text fill="#000000" font-family="sans-serif" font-size="14" lengthAdjust="spacing" textLength="143" x="889.8596" y="499.5384">Validate order payload</text></g><g id="elem_Sanitize receiptName"><ellipse cx="967.626" cy="576.01" fill="#B0B0B0" rx="99.126" ry="26.51" style="stroke:#808080;stroke-width:0.5;"/><text fill="#000000" font-family="sans-serif" font-size="14" font-style="italic" lengthAdjust="spacing" textLength="93" x="915.0076" y="570.4444">&#171;Vulnerability&#187;</text><text fill="#000000" font-family="sans-serif" font-size="14" lengthAdjust="spacing" textLength="132" x="895.5076" y="588.0538">Sanitize receiptName</text></g><g id="elem_Create receipt file on filesystem"><ellipse cx="967.5216" cy="665.1043" fill="#B0B0B0" rx="126.0216" ry="27.6043" style="stroke:#808080;stroke-width:0.5;"/><text fill="#000000" font-family="sans-serif" font-size="14" font-style="italic" lengthAdjust="spacing" textLength="93" x="915.371" y="656.9295">&#171;Vulnerability&#187;</text><text fill="#000000" font-family="sans-serif" font-size="14" lengthAdjust="spacing" textLength="198" x="862.871" y="674.5389">Create receipt file on filesystem</text></g><g id="elem_Log purchase events"><ellipse cx="967.7148" cy="753.9909" fill="#B0B0B0" rx="99.7148" ry="26.4909" style="stroke:#808080;stroke-width:0.5;"/><text fill="#000000" font-family="sans-serif" font-size="14" font-style="italic" lengthAdjust="spacing" textLength="93" x="915.082" y="748.3926">&#171;Vulnerability&#187;</text><text fill="#000000" font-family="sans-serif" font-size="14" lengthAdjust="spacing" textLength="133" x="895.082" y="766.0019">Log purchase events</text></g><!--entity Customer--><g id="elem_Customer"><ellipse cx="36.5" cy="545.5" fill="#F1F1F1" rx="8" ry="8" style="stroke:#181818;stroke-width:0.5;"/><path d="M36.5,553.5 L36.5,580.5 M23.5,561.5 L49.5,561.5 M36.5,580.5 L23.5,595.5 M36.5,580.5 L49.5,595.5 " fill="none" style="stroke:#181818;stroke-width:0.5;"/><text fill="#000000" font-family="sans-serif" font-size="14" lengthAdjust="spacing" textLength="61" x="6" y="611.5332">Customer</text></g><!--entity Attacker--><g id="elem_Attacker"><ellipse cx="1919" cy="545.5" fill="#F1F1F1" rx="8" ry="8" style="stroke:#181818;stroke-width:0.5;"/><path d="M1919,553.5 L1919,580.5 M1906,561.5 L1932,561.5 M1919,580.5 L1906,595.5 M1919,580.5 L1932,595.5 " fill="none" style="stroke:#181818;stroke-width:0.5;"/><text fill="#000000" font-family="sans-serif" font-size="14" lengthAdjust="spacing" textLength="52" x="1893" y="611.5332">Attacker</text></g><g id="elem_Unauthenticated request or forged token"><ellipse cx="1689.0627" cy="37.2125" fill="#000000" rx="144.0627" ry="31.2125" style="stroke:#000000;stroke-width:0.5;"/><text fill="#000000" font-family="sans-serif" font-size="14" font-style="italic" lengthAdjust="spacing" textLength="58" x="1659.3911" y="23.7406">&#171;Threat&#187;</text><text fill="#FFFFFF" font-family="sans-serif" font-size="14" lengthAdjust="spacing" textLength="256" x="1560.3911" y="41.3499">Unauthenticated request or forged token</text></g><g id="elem_Tamper movie IDs or quantities"><ellipse cx="1689.1658" cy="354.0332" fill="#000000" rx="123.1658" ry="27.0332" style="stroke:#000000;stroke-width:0.5;"/><text fill="#000000" font-family="sans-serif" font-size="14" font-style="italic" lengthAdjust="spacing" textLength="58" x="1654.6323" y="345.1232">&#171;Threat&#187;</text><text fill="#FFFFFF" font-family="sans-serif" font-size="14" lengthAdjust="spacing" textLength="196" x="1585.6323" y="362.7326">Tamper movie IDs or quantities</text></g><g id="elem_Path traversal via receiptName"><ellipse cx="1688.8746" cy="528.8749" fill="#000000" rx="122.3746" ry="26.8749" style="stroke:#000000;stroke-width:0.5;"/><text fill="#000000" font-family="sans-serif" font-size="14" font-style="italic" lengthAdjust="spacing" textLength="58" x="1654.2693" y="520.1345">&#171;Threat&#187;</text><text fill="#FFFFFF" font-family="sans-serif" font-size="14" lengthAdjust="spacing" textLength="193" x="1586.7693" y="537.7439">Path traversal via receiptName</text></g><g id="elem_OS command injection via receiptName"><ellipse cx="1689.0117" cy="621.8023" fill="#000000" rx="139.5117" ry="30.3023" style="stroke:#000000;stroke-width:0.5;"/><text fill="#000000" font-family="sans-serif" font-size="14" font-style="italic" lengthAdjust="spacing" textLength="58" x="1657.5867" y="609.3426">&#171;Threat&#187;</text><text fill="#FFFFFF" font-family="sans-serif" font-size="14" lengthAdjust="spacing" textLength="246" x="1563.5867" y="626.952">OS command injection via receiptName</text></g><g id="elem_Overwrite existing receipt file"><ellipse cx="1689.0963" cy="788.2193" fill="#000000" rx="119.0963" ry="26.2193" style="stroke:#000000;stroke-width:0.5;"/><text fill="#000000" font-family="sans-serif" font-size="14" font-style="italic" lengthAdjust="spacing" textLength="58" x="1654.1592" y="780.1857">&#171;Threat&#187;</text><text fill="#FFFFFF" font-family="sans-serif" font-size="14" lengthAdjust="spacing" textLength="180" x="1593.1592" y="797.7951">Overwrite existing receipt file</text></g><g id="elem_Flood filesystem with receipt files"><ellipse cx="1688.8968" cy="960.0794" fill="#000000" rx="125.8968" ry="27.5794" style="stroke:#000000;stroke-width:0.5;"/><text fill="#000000" font-family="sans-serif" font-size="14" font-style="italic" lengthAdjust="spacing" textLength="58" x="1654.5912" y="950.5864">&#171;Threat&#187;</text><text fill="#FFFFFF" font-family="sans-serif" font-size="14" lengthAdjust="spacing" textLength="206" x="1580.5912" y="968.1958">Flood filesystem with receipt files</text></g><g id="elem_Escalate privilege to place order"><ellipse cx="1689.0624" cy="190.9125" fill="#000000" rx="125.0624" ry="27.4125" style="stroke:#000000;stroke-width:0.5;"/><text fill="#000000" font-family="sans-serif" font-size="14" font-style="italic" lengthAdjust="spacing" textLength="58" x="1654.6902" y="181.5973">&#171;Threat&#187;</text><text fill="#FFFFFF" font-family="sans-serif" font-size="14" lengthAdjust="spacing" textLength="203" x="1582.1902" y="199.2066">Escalate privilege to place order</text></g><g id="elem_Deny having placed an order"><ellipse cx="1688.8311" cy="1131.8662" fill="#000000" rx="119.8311" ry="26.3662" style="stroke:#000000;stroke-width:0.5;"/><text fill="#000000" font-family="sans-serif" font-size="14" font-style="italic" lengthAdjust="spacing" textLength="58" x="1653.9738" y="1123.6736">&#171;Threat&#187;</text><text fill="#FFFFFF" font-family="sans-serif" font-size="14" lengthAdjust="spacing" textLength="183" x="1591.4738" y="1141.283">Deny having placed an order</text></g><g id="elem_AuthMiddleware JWT validation"><ellipse cx="1319.9339" cy="37.0868" fill="#FFFFFF" rx="115.9339" ry="25.5868" style="stroke:#000000;stroke-width:0.5;"/><text fill="#000000" font-family="sans-serif" font-size="14" lengthAdjust="spacing" textLength="196" x="1221.9339" y="40.8153">AuthMiddleware JWT validation</text></g><g id="elem_RoleGuard enforcement"><ellipse cx="1320.0702" cy="191.114" fill="#FFFFFF" rx="96.0702" ry="21.614" style="stroke:#000000;stroke-width:0.5;"/><text fill="#000000" font-family="sans-serif" font-size="14" lengthAdjust="spacing" textLength="152" x="1244.0702" y="194.8426">RoleGuard enforcement</text></g><g id="elem_Server-side validation; prices resolved from DB"><ellipse cx="1320.1689" cy="354.0338" fill="#FFFFFF" rx="163.1689" ry="35.0338" style="stroke:#000000;stroke-width:0.5;"/><text fill="#000000" font-family="sans-serif" font-size="14" lengthAdjust="spacing" textLength="296" x="1172.1689" y="357.7623">Server-side validation; prices resolved from DB</text></g><g id="elem_Allow-list chars, strip separators, max 100 chars"><ellipse cx="1320.0928" cy="530.9186" fill="#FFFFFF" rx="165.0928" ry="35.4186" style="stroke:#000000;stroke-width:0.5;"/><text fill="#000000" font-family="sans-serif" font-size="14" lengthAdjust="spacing" textLength="300" x="1170.0928" y="534.6471">Allow-list chars, strip separators, max 100 chars</text></g><g id="elem_Direct I/O APIs only; no shell invocation"><ellipse cx="1319.805" cy="703.761" fill="#FFFFFF" rx="139.305" ry="30.261" style="stroke:#000000;stroke-width:0.5;"/><text fill="#000000" font-family="sans-serif" font-size="14" lengthAdjust="spacing" textLength="246" x="1196.805" y="707.4895">Direct I/O APIs only; no shell invocation</text></g><g id="elem_Unique orderId suffix + create-new-only flag"><ellipse cx="1320.1453" cy="873.8291" fill="#FFFFFF" rx="152.1453" ry="32.8291" style="stroke:#000000;stroke-width:0.5;"/><text fill="#000000" font-family="sans-serif" font-size="14" lengthAdjust="spacing" textLength="273" x="1183.6453" y="877.5576">Unique orderId suffix + create-new-only flag</text></g><g id="elem_Rate limiter + sandboxed receipts directory"><ellipse cx="1320.2356" cy="1045.9471" fill="#FFFFFF" rx="150.2356" ry="32.4471" style="stroke:#000000;stroke-width:0.5;"/><text fill="#000000" font-family="sans-serif" font-size="14" lengthAdjust="spacing" textLength="269" x="1185.7356" y="1049.6756">Rate limiter + sandboxed receipts directory</text></g><g id="elem_Immutable audit logging with actor context"><ellipse cx="1319.8995" cy="1216.7799" fill="#FFFFFF" rx="146.8995" ry="31.7799" style="stroke:#000000;stroke-width:0.5;"/><text fill="#000000" font-family="sans-serif" font-size="14" lengthAdjust="spacing" textLength="262" x="1188.8995" y="1220.5084">Immutable audit logging with actor context</text></g><!--link Customer to Purchase movies--><g id="link_Customer_Purchase movies"><path d="M67.31,576 C84.08,576 99.65,576 120.7,576 " fill="none" id="Customer-to-Purchase movies" style="stroke:#181818;stroke-width:1.0;"/><polygon fill="#181818" points="126.7,576,117.7,572,121.7,576,117.7,580,126.7,576" style="stroke:#181818;stroke-width:1.0;"/></g><!--link Purchase movies to Send purchase request--><g id="link_Purchase movies_Send purchase request"><path d="M282.34,576 C301.2,576 315.71,576 335.71,576 " fill="none" id="Purchase movies-to-Send purchase request" style="stroke:#181818;stroke-width:1.0;"/><polygon fill="#181818" points="341.71,576,332.71,572,336.71,576,332.71,580,341.71,576" style="stroke:#181818;stroke-width:1.0;"/></g><!--link Send purchase request to Application/Server--><g id="link_Send purchase request_Application/Server"><path d="M559.35,576 C579.37,576 593.95,576 612.95,576 " fill="none" id="Send purchase request-to-Application/Server" style="stroke:#181818;stroke-width:1.0;"/><polygon fill="#181818" points="618.95,576,609.95,572,613.95,576,609.95,580,618.95,576" style="stroke:#181818;stroke-width:1.0;"/></g><!--link Application/Server to Validate JWT and Customer role--><g id="link_Application/Server_Validate JWT and Customer role"><path d="M769.44,566.75 C808.34,566.75 849,566.75 849,566.75 C849,566.75 849,451.5 849,414.56 " fill="none" id="Application/Server-to-Validate JWT and Customer role" style="stroke:#181818;stroke-width:1.0;"/><polygon fill="#181818" points="849,408.56,845,417.56,849,413.56,853,417.56,849,408.56" style="stroke:#181818;stroke-width:1.0;"/></g><!--link Application/Server to Validate order payload--><g id="link_Application/Server_Validate order payload"><path d="M700,557.34 C700,531.51 700,488 700,488 C700,488 781.01,488 855.78,488 " fill="none" id="Application/Server-to-Validate order payload" style="stroke:#181818;stroke-width:1.0;"/><polygon fill="#181818" points="861.78,488,852.78,484,856.78,488,852.78,492,861.78,488" style="stroke:#181818;stroke-width:1.0;"/></g><!--link Application/Server to Sanitize receiptName--><g id="link_Application/Server_Sanitize receiptName"><path d="M780.27,576 C808.01,576 833.39,576 862.42,576 " fill="none" id="Application/Server-to-Sanitize receiptName" style="stroke:#181818;stroke-width:1.0;"/><polygon fill="#181818" points="868.42,576,859.42,572,863.42,576,859.42,580,868.42,576" style="stroke:#181818;stroke-width:1.0;"/></g><!--link Application/Server to Create receipt file on filesystem--><g id="link_Application/Server_Create receipt file on filesystem"><path d="M769.51,585.25 C811.18,585.25 856,585.25 856,585.25 C856,585.25 856,623.64 856,646.19 " fill="none" id="Application/Server-to-Create receipt file on filesystem" style="stroke:#181818;stroke-width:1.0;"/><polygon fill="#181818" points="856,652.19,860,643.19,856,647.19,852,643.19,856,652.19" style="stroke:#181818;stroke-width:1.0;"/></g><!--link Application/Server to Log purchase events--><g id="link_Application/Server_Log purchase events"><path d="M700,594.71 C700,640.41 700,754 700,754 C700,754 785.84,754 861.89,754 " fill="none" id="Application/Server-to-Log purchase events" style="stroke:#181818;stroke-width:1.0;"/><polygon fill="#181818" points="867.89,754,858.89,750,862.89,754,858.89,758,867.89,754" style="stroke:#181818;stroke-width:1.0;"/></g><!--reverse link Validate JWT and Customer role to Unauthenticated request or forged token--><g id="link_Validate JWT and Customer role_Unauthenticated request or forged token"><path d="M1079.23,413.67 C1248.87,413.67 1557,413.67 1557,413.67 C1557,413.67 1557,114.89 1557,49.53 " fill="none" id="Validate JWT and Customer role-backto-Unauthenticated request or forged token" style="stroke:#FF0000;stroke-width:1.0;"/><polygon fill="#FF0000" points="1073.23,413.67,1082.23,417.67,1078.23,413.67,1082.23,409.67,1073.23,413.67" style="stroke:#FF0000;stroke-width:1.0;"/><text fill="#000000" font-family="sans-serif" font-size="13" lengthAdjust="spacing" textLength="71" x="1425.18" y="428.1651">&#171;Threatens&#187;</text></g><!--reverse link Validate order payload to Tamper movie IDs or quantities--><g id="link_Validate order payload_Tamper movie IDs or quantities"><path d="M1078.03,484.17 C1277.98,484.17 1689,484.17 1689,484.17 C1689,484.17 1689,419.46 1689,381.29 " fill="none" id="Validate order payload-backto-Tamper movie IDs or quantities" style="stroke:#FF0000;stroke-width:1.0;"/><polygon fill="#FF0000" points="1072.03,484.17,1081.03,488.17,1077.03,484.17,1081.03,480.17,1072.03,484.17" style="stroke:#FF0000;stroke-width:1.0;"/><text fill="#000000" font-family="sans-serif" font-size="13" lengthAdjust="spacing" textLength="71" x="1359.95" y="480.6651">&#171;Threatens&#187;</text></g><!--reverse link Sanitize receiptName to Path traversal via receiptName--><g id="link_Sanitize receiptName_Path traversal via receiptName"><path d="M1071.93,579 C1269.37,579 1689,579 1689,579 C1689,579 1689,567.83 1689,556.05 " fill="none" id="Sanitize receiptName-backto-Path traversal via receiptName" style="stroke:#FF0000;stroke-width:1.0;"/><polygon fill="#FF0000" points="1065.93,579,1074.93,583,1070.93,579,1074.93,575,1065.93,579" style="stroke:#FF0000;stroke-width:1.0;"/><text fill="#000000" font-family="sans-serif" font-size="13" lengthAdjust="spacing" textLength="71" x="1389.94" y="593.4951">&#171;Threatens&#187;</text></g><!--reverse link Sanitize receiptName to OS command injection via receiptName--><g id="link_Sanitize receiptName_OS command injection via receiptName"><path d="M1042.03,595.17 C1180.44,595.17 1485.79,595.17 1622.5,595.17 " fill="none" id="Sanitize receiptName-backto-OS command injection via receiptName" style="stroke:#FF0000;stroke-width:1.0;"/><polygon fill="#FF0000" points="1036.03,595.17,1045.03,599.17,1041.03,595.17,1045.03,591.17,1036.03,595.17" style="stroke:#FF0000;stroke-width:1.0;"/><text fill="#000000" font-family="sans-serif" font-size="13" lengthAdjust="spacing" textLength="71" x="1257.26" y="609.6651">&#171;Threatens&#187;</text></g><!--reverse link Create receipt file on filesystem to Overwrite existing receipt file--><g id="link_Create receipt file on filesystem_Overwrite existing receipt file"><path d="M1085,681.19 C1085,707.78 1085,771.25 1085,771.25 C1085,771.25 1429.19,771.25 1597.92,771.25 " fill="none" id="Create receipt file on filesystem-backto-Overwrite existing receipt file" style="stroke:#FF0000;stroke-width:1.0;"/><polygon fill="#FF0000" points="1085,675.19,1081,684.19,1085,680.19,1089,684.19,1085,675.19" style="stroke:#FF0000;stroke-width:1.0;"/><text fill="#000000" font-family="sans-serif" font-size="13" lengthAdjust="spacing" textLength="71" x="1221.43" y="785.7451">&#171;Threatens&#187;</text></g><!--reverse link Create receipt file on filesystem to Flood filesystem with receipt files--><g id="link_Create receipt file on filesystem_Flood filesystem with receipt files"><path d="M1099.17,663 C1274.97,663 1567,663 1567,663 C1567,663 1567,907.98 1567,952.95 " fill="none" id="Create receipt file on filesystem-backto-Flood filesystem with receipt files" style="stroke:#FF0000;stroke-width:1.0;"/><polygon fill="#FF0000" points="1093.17,663,1102.17,667,1098.17,663,1102.17,659,1093.17,663" style="stroke:#FF0000;stroke-width:1.0;"/><text fill="#000000" font-family="sans-serif" font-size="13" lengthAdjust="spacing" textLength="71" x="1476.06" y="677.4951">&#171;Threatens&#187;</text></g><!--reverse link Validate JWT and Customer role to Escalate privilege to place order--><g id="link_Validate JWT and Customer role_Escalate privilege to place order"><path d="M1100.14,401.33 C1261.85,401.33 1515,401.33 1515,401.33 C1515,401.33 1515,198.17 1515,198.17 C1515,198.17 1538.46,198.17 1568.15,198.17 " fill="none" id="Validate JWT and Customer role-backto-Escalate privilege to place order" style="stroke:#FF0000;stroke-width:1.0;"/><polygon fill="#FF0000" points="1094.14,401.33,1103.14,405.33,1099.14,401.33,1103.14,397.33,1094.14,401.33" style="stroke:#FF0000;stroke-width:1.0;"/><text fill="#000000" font-family="sans-serif" font-size="13" lengthAdjust="spacing" textLength="71" x="1433.73" y="406.8251">&#171;Threatens&#187;</text></g><!--reverse link Log purchase events to Deny having placed an order--><g id="link_Log purchase events_Deny having placed an order"><path d="M1001,785.09 C1001,869.52 1001,1132 1001,1132 C1001,1132 1371.55,1132 1568.77,1132 " fill="none" id="Log purchase events-backto-Deny having placed an order" style="stroke:#FF0000;stroke-width:1.0;"/><polygon fill="#FF0000" points="1001,779.09,997,788.09,1001,784.09,1005,788.09,1001,779.09" style="stroke:#FF0000;stroke-width:1.0;"/><text fill="#000000" font-family="sans-serif" font-size="13" lengthAdjust="spacing" textLength="71" x="1036.43" y="1146.4951">&#171;Threatens&#187;</text></g><!--reverse link Unauthenticated request or forged token to Attacker--><g id="link_Unauthenticated request or forged token_Attacker"><path d="M1822,55.02 C1822,131.69 1822,543.33 1822,543.33 C1822,543.33 1864.02,543.33 1892.75,543.33 " fill="none" id="Unauthenticated request or forged token-backto-Attacker" style="stroke:#181818;stroke-width:1.0;"/><polygon fill="#181818" points="1822,49.02,1818,58.02,1822,54.02,1826,58.02,1822,49.02" style="stroke:#181818;stroke-width:1.0;"/></g><!--reverse link Tamper movie IDs or quantities to Attacker--><g id="link_Tamper movie IDs or quantities_Attacker"><path d="M1818.01,354 C1869.23,354 1911,354 1911,354 C1911,354 1911,473.09 1911,536.82 " fill="none" id="Tamper movie IDs or quantities-backto-Attacker" style="stroke:#181818;stroke-width:1.0;"/><polygon fill="#181818" points="1812.01,354,1821.01,358,1817.01,354,1821.01,350,1812.01,354" style="stroke:#181818;stroke-width:1.0;"/></g><!--reverse link Path traversal via receiptName to Attacker--><g id="link_Path traversal via receiptName_Attacker"><path d="M1773.83,549.67 C1817.39,549.67 1862.67,549.67 1892.91,549.67 " fill="none" id="Path traversal via receiptName-backto-Attacker" style="stroke:#181818;stroke-width:1.0;"/><polygon fill="#181818" points="1767.83,549.67,1776.83,553.67,1772.83,549.67,1776.83,545.67,1767.83,549.67" style="stroke:#181818;stroke-width:1.0;"/></g><!--reverse link OS command injection via receiptName to Attacker--><g id="link_OS command injection via receiptName_Attacker"><path d="M1805.28,603.25 C1840.1,603.25 1869.5,603.25 1892.67,603.25 " fill="none" id="OS command injection via receiptName-backto-Attacker" style="stroke:#181818;stroke-width:1.0;"/><polygon fill="#181818" points="1799.28,603.25,1808.28,607.25,1804.28,603.25,1808.28,599.25,1799.28,603.25" style="stroke:#181818;stroke-width:1.0;"/></g><!--reverse link Overwrite existing receipt file to Attacker--><g id="link_Overwrite existing receipt file_Attacker"><path d="M1814.29,788 C1864.72,788 1906,788 1906,788 C1906,788 1906,676.69 1906,615.38 " fill="none" id="Overwrite existing receipt file-backto-Attacker" style="stroke:#181818;stroke-width:1.0;"/><polygon fill="#181818" points="1808.29,788,1817.29,792,1813.29,788,1817.29,784,1808.29,788" style="stroke:#181818;stroke-width:1.0;"/></g><!--reverse link Flood filesystem with receipt files to Attacker--><g id="link_Flood filesystem with receipt files_Attacker"><path d="M1821.1,960 C1874.67,960 1919,960 1919,960 C1919,960 1919,713.16 1919,615.29 " fill="none" id="Flood filesystem with receipt files-backto-Attacker" style="stroke:#181818;stroke-width:1.0;"/><polygon fill="#181818" points="1815.1,960,1824.1,964,1820.1,960,1824.1,956,1815.1,960" style="stroke:#181818;stroke-width:1.0;"/></g><!--reverse link Escalate privilege to place order to Attacker--><g id="link_Escalate privilege to place order_Attacker"><path d="M1820.1,191 C1877.93,191 1928,191 1928,191 C1928,191 1928,439.09 1928,536.97 " fill="none" id="Escalate privilege to place order-backto-Attacker" style="stroke:#181818;stroke-width:1.0;"/><polygon fill="#181818" points="1814.1,191,1823.1,195,1819.1,191,1823.1,187,1814.1,191" style="stroke:#181818;stroke-width:1.0;"/></g><!--reverse link Deny having placed an order to Attacker--><g id="link_Deny having placed an order_Attacker"><path d="M1815.08,1132 C1876.3,1132 1932,1132 1932,1132 C1932,1132 1932,741.65 1932,615.1 " fill="none" id="Deny having placed an order-backto-Attacker" style="stroke:#181818;stroke-width:1.0;"/><polygon fill="#181818" points="1809.08,1132,1818.08,1136,1814.08,1132,1818.08,1128,1809.08,1132" style="stroke:#181818;stroke-width:1.0;"/></g><!--link Validate JWT and Customer role to AuthMiddleware JWT validation--><g id="link_Validate JWT and Customer role_AuthMiddleware JWT validation"><path d="M925,371.45 C925,288.09 925,37 925,37 C925,37 1081.36,37 1197.89,37 " fill="none" id="Validate JWT and Customer role-to-AuthMiddleware JWT validation" style="stroke:#181818;stroke-width:1.0;"/><polygon fill="#181818" points="1203.89,37,1194.89,33,1198.89,37,1194.89,41,1203.89,37" style="stroke:#181818;stroke-width:1.0;"/></g><!--link Validate JWT and Customer role to RoleGuard enforcement--><g id="link_Validate JWT and Customer role_RoleGuard enforcement"><path d="M1010,371.36 C1010,315.45 1010,191 1010,191 C1010,191 1126.61,191 1217.61,191 " fill="none" id="Validate JWT and Customer role-to-RoleGuard enforcement" style="stroke:#181818;stroke-width:1.0;"/><polygon fill="#181818" points="1223.61,191,1214.61,187,1218.61,191,1214.61,195,1223.61,191" style="stroke:#181818;stroke-width:1.0;"/></g><!--link Validate order payload to Server-side validation; prices resolved from DB--><g id="link_Validate order payload_Server-side validation; prices resolved from DB"><path d="M1054.18,472.83 C1158.55,472.83 1320,472.83 1320,472.83 C1320,472.83 1320,430.06 1320,395.01 " fill="none" id="Validate order payload-to-Server-side validation; prices resolved from DB" style="stroke:#181818;stroke-width:1.0;"/><polygon fill="#181818" points="1320,389.01,1316,398.01,1320,394.01,1324,398.01,1320,389.01" style="stroke:#181818;stroke-width:1.0;"/></g><!--link Sanitize receiptName to Allow-list chars, strip separators, max 100 chars--><g id="link_Sanitize receiptName_Allow-list chars, strip separators, max 100 chars"><path d="M1040.54,558 C1090.25,558 1150.87,558 1206.59,558 " fill="none" id="Sanitize receiptName-to-Allow-list chars, strip separators, max 100 chars" style="stroke:#181818;stroke-width:1.0;"/><polygon fill="#181818" points="1212.59,558,1203.59,554,1207.59,558,1203.59,562,1212.59,558" style="stroke:#181818;stroke-width:1.0;"/></g><!--link Sanitize receiptName to Direct I/O APIs only; no shell invocation--><g id="link_Sanitize receiptName_Direct I/O APIs only; no shell invocation"><path d="M1018,598.83 C1115.47,598.83 1320,598.83 1320,598.83 C1320,598.83 1320,636.26 1320,667.3 " fill="none" id="Sanitize receiptName-to-Direct I/O APIs only; no shell invocation" style="stroke:#181818;stroke-width:1.0;"/><polygon fill="#181818" points="1320,673.3,1324,664.3,1320,668.3,1316,664.3,1320,673.3" style="stroke:#181818;stroke-width:1.0;"/></g><!--link Create receipt file on filesystem to Unique orderId suffix + create-new-only flag--><g id="link_Create receipt file on filesystem_Unique orderId suffix + create-new-only flag"><path d="M1063.05,683 C1117.51,683 1175,683 1175,683 C1175,683 1175,818.7 1175,858 " fill="none" id="Create receipt file on filesystem-to-Unique orderId suffix + create-new-only flag" style="stroke:#181818;stroke-width:1.0;"/><polygon fill="#181818" points="1175,864,1179,855,1175,859,1171,855,1175,864" style="stroke:#181818;stroke-width:1.0;"/></g><!--link Create receipt file on filesystem to Rate limiter + sandboxed receipts directory--><g id="link_Create receipt file on filesystem_Rate limiter + sandboxed receipts directory"><path d="M1076,679.01 C1076,747.75 1076,1046 1076,1046 C1076,1046 1113.63,1046 1163.99,1046 " fill="none" id="Create receipt file on filesystem-to-Rate limiter + sandboxed receipts directory" style="stroke:#181818;stroke-width:1.0;"/><polygon fill="#181818" points="1169.99,1046,1160.99,1042,1164.99,1046,1160.99,1050,1169.99,1046" style="stroke:#181818;stroke-width:1.0;"/></g><!--link Log purchase events to Immutable audit logging with actor context--><g id="link_Log purchase events_Immutable audit logging with actor context"><path d="M935,779.22 C935,875.84 935,1217 935,1217 C935,1217 1058.11,1217 1166.8,1217 " fill="none" id="Log purchase events-to-Immutable audit logging with actor context" style="stroke:#181818;stroke-width:1.0;"/><polygon fill="#181818" points="1172.8,1217,1163.8,1213,1167.8,1217,1163.8,1221,1172.8,1217" style="stroke:#181818;stroke-width:1.0;"/></g><!--link AuthMiddleware JWT validation to Unauthenticated request or forged token--><g id="link_AuthMiddleware JWT validation_Unauthenticated request or forged token"><path d="M1436.25,37 C1470.68,37 1502.81,37 1538.79,37 " fill="none" id="AuthMiddleware JWT validation-to-Unauthenticated request or forged token" style="stroke:#008000;stroke-width:1.0;"/><polygon fill="#008000" points="1544.79,37,1535.79,33,1539.79,37,1535.79,41,1544.79,37" style="stroke:#008000;stroke-width:1.0;"/><text fill="#000000" font-family="sans-serif" font-size="13" lengthAdjust="spacing" textLength="67" x="1422.52" y="51.4951">&#171;Mitigates&#187;</text></g><!--link RoleGuard enforcement to Escalate privilege to place order--><g id="link_RoleGuard enforcement_Escalate privilege to place order"><path d="M1410.74,183.83 C1458.22,183.83 1510.98,183.83 1562.26,183.83 " fill="none" id="RoleGuard enforcement-to-Escalate privilege to place order" style="stroke:#008000;stroke-width:1.0;"/><polygon fill="#008000" points="1568.26,183.83,1559.26,179.83,1563.26,183.83,1559.26,187.83,1568.26,183.83" style="stroke:#008000;stroke-width:1.0;"/><text fill="#000000" font-family="sans-serif" font-size="13" lengthAdjust="spacing" textLength="67" x="1421.5" y="198.3251">&#171;Mitigates&#187;</text></g><!--link Server-side validation; prices resolved from DB to Tamper movie IDs or quantities--><g id="link_Server-side validation; prices resolved from DB_Tamper movie IDs or quantities"><path d="M1483.19,354 C1510.97,354 1533.41,354 1559.93,354 " fill="none" id="Server-side validation; prices resolved from DB-to-Tamper movie IDs or quantities" style="stroke:#008000;stroke-width:1.0;"/><polygon fill="#008000" points="1565.93,354,1556.93,350,1560.93,354,1556.93,358,1565.93,354" style="stroke:#008000;stroke-width:1.0;"/><text fill="#000000" font-family="sans-serif" font-size="13" lengthAdjust="spacing" textLength="67" x="1456.56" y="368.4951">&#171;Mitigates&#187;</text></g><!--link Allow-list chars, strip separators, max 100 chars to Path traversal via receiptName--><g id="link_Allow-list chars, strip separators, max 100 chars_Path traversal via receiptName"><path d="M1484.8,529 C1512.27,529 1534.32,529 1560.48,529 " fill="none" id="Allow-list chars, strip separators, max 100 chars-to-Path traversal via receiptName" style="stroke:#008000;stroke-width:1.0;"/><polygon fill="#008000" points="1566.48,529,1557.48,525,1561.48,529,1557.48,533,1566.48,529" style="stroke:#008000;stroke-width:1.0;"/><text fill="#000000" font-family="sans-serif" font-size="13" lengthAdjust="spacing" textLength="67" x="1457.64" y="543.4951">&#171;Mitigates&#187;</text></g><!--link Direct I/O APIs only; no shell invocation to OS command injection via receiptName--><g id="link_Direct I/O APIs only; no shell invocation_OS command injection via receiptName"><path d="M1459.58,704 C1511.03,704 1557,704 1557,704 C1557,704 1557,659.95 1557,638.05 " fill="none" id="Direct I/O APIs only; no shell invocation-to-OS command injection via receiptName" style="stroke:#008000;stroke-width:1.0;"/><polygon fill="#008000" points="1557,632.05,1553,641.05,1557,637.05,1561,641.05,1557,632.05" style="stroke:#008000;stroke-width:1.0;"/><text fill="#000000" font-family="sans-serif" font-size="13" lengthAdjust="spacing" textLength="67" x="1476.26" y="718.4951">&#171;Mitigates&#187;</text></g><!--link Unique orderId suffix + create-new-only flag to Overwrite existing receipt file--><g id="link_Unique orderId suffix + create-new-only flag_Overwrite existing receipt file"><path d="M1466,864.59 C1466,844.09 1466,797.25 1466,797.25 C1466,797.25 1515.75,797.25 1571.5,797.25 " fill="none" id="Unique orderId suffix + create-new-only flag-to-Overwrite existing receipt file" style="stroke:#008000;stroke-width:1.0;"/><polygon fill="#008000" points="1577.5,797.25,1568.5,793.25,1572.5,797.25,1568.5,801.25,1577.5,797.25" style="stroke:#008000;stroke-width:1.0;"/><text fill="#000000" font-family="sans-serif" font-size="13" lengthAdjust="spacing" textLength="67" x="1420.08" y="811.7451">&#171;Mitigates&#187;</text></g><!--link Rate limiter + sandboxed receipts directory to Flood filesystem with receipt files--><g id="link_Rate limiter + sandboxed receipts directory_Flood filesystem with receipt files"><path d="M1470.09,1046 C1572.25,1046 1689,1046 1689,1046 C1689,1046 1689,1018.82 1689,993.68 " fill="none" id="Rate limiter + sandboxed receipts directory-to-Flood filesystem with receipt files" style="stroke:#008000;stroke-width:1.0;"/><polygon fill="#008000" points="1689,987.68,1685,996.68,1689,992.68,1693,996.68,1689,987.68" style="stroke:#008000;stroke-width:1.0;"/><text fill="#000000" font-family="sans-serif" font-size="13" lengthAdjust="spacing" textLength="67" x="1540.7" y="1060.4951">&#171;Mitigates&#187;</text></g><!--link Immutable audit logging with actor context to Deny having placed an order--><g id="link_Immutable audit logging with actor context_Deny having placed an order"><path d="M1467.16,1217 C1570.01,1217 1689,1217 1689,1217 C1689,1217 1689,1189.8 1689,1164.89 " fill="none" id="Immutable audit logging with actor context-to-Deny having placed an order" style="stroke:#008000;stroke-width:1.0;"/><polygon fill="#008000" points="1689,1158.89,1685,1167.89,1689,1163.89,1693,1167.89,1689,1158.89" style="stroke:#008000;stroke-width:1.0;"/><text fill="#000000" font-family="sans-serif" font-size="13" lengthAdjust="spacing" textLength="67" x="1539.13" y="1231.4951">&#171;Mitigates&#187;</text></g><!--SRC=[fLVRSjis47tNL-pO3qscrSHjagdTP3mZotAYZcyZoVOpJAuer22W0A0kxVJVkm0bXnH94Kf73vA0i-U0kmSBKE3KWbMWUJAp47EDaULATimBbtEcMGg2IxJhEOBITgOA4sR6OhNaCe4f4mOBCyyiUacqocJSLq9fEBuwSvzE0P8PZ9X1-AS3SB43VvfnYsvSwHXrFdOX24HZLqhQuiY_OPoVFqzc6fazFwyo5UPgb2kHmOettFA4kMnIxF7x3_tVFvwLTKk8MkqonsyVJdllByDNC5XPr9895_knrp-zwfNr2_ErwiNuzxspiykpSEt7J4ZKx9aBRjUEuEB4VSeBs0LjQrDQHONfzCHzQ2aT5bboGZypLgMeDt-FUjOI3UeZO0QsVpeTPsqc4u5mT9_fQEQMVYNKyiW_m9O4kjrpUFCAIDM2etbBWCfOZXoZZ66-dTBuBKDZFRv-9e_gpUU2HxwmxyQe5wXzICrmZdzaWiVC8lpvD056lA_BrKhWMoWx9OpAvnZcR2qKYm-Y63D9qB_TGqN8v_QMfOUjeUzsr6iuJ3aLHKd_RTR6OdeGsxLAlkSP5oYjgSIJMNuYT1SU7wvl1wFUnV1wE1aEnfscCbLyrmaeGdD89TaLQ5DIAy2Wv5MY6fAqYzjaQV9rDEXDA3iFacLsHcYNUOot-Q7dWQdI2OrOzOBIKMtxPEVDXALpUbg_Js1uQHpwMyQ8nFgDKyJUCpi3gncLqp012yvs4_0TUpU6IAMfIpsNV-KdLKi4qIurjJR05JVM7LR5l9N1r0nKNCWZB3cjhOZVMVl0H4ouMimrNz1qWkuedLCJsnIy3Bz4kOOPMxXLU51CBge1bce0_RlRsq5_Chox7GTOaEB2QtQiwVSVhz8epLxFEkwsqjPJDdZR4RRL_s32C9FKquPiBQ_HPgl_Hnzan9RYxJD8W6_hsUkRYAFSw-rQiaDw2ocydkFjtQM4Rkql9NHWXod7jFQO4ZoiovH2GlfCAM1_fob2DxtcXWx3Bxt09fFVOAXqDpoE1IwPpg6BF8vILZb-mpX7zFDBndGCACa14QPaZZrSEmrgSnzpDuEkuJ4M5lJ9fIv2GtasIYme7rEjKhYygBBNjvRycGLT5xk2YWoq1RJv1OpLV0u6tOMOxfuqah8L_7foaWCEOh_qBrymV7S7lViXsLgAzIUGYbwqK0Zouq953TaDQ2nUua5osc9vteOnc6mwvIlu6I8VtvMux3fLc0gM_BZAoA44JsbBQ28tLEvdjV8Rt4UQpNkcqkkgI6sByRJ3DCqiUoPHbiNSWb19uWpkzqz-zO_erG9NLSkKNJuOGsyqkdiYgxUuU9EqqECqqOZIDxgDElgksM1hJnxIYXje3tQw5smzm1lKVi3x-PjKs_dUe7V0Rl0wWST-WzfX6oCNRBq3DDdXaEtXfSBk0mroXsoRl0_jFShhLVu3]--></g></svg>