<?xml version="1.0" encoding="us-ascii" standalone="no"?><svg xmlns="http://www.w3.org/2000/svg" xmlns:xlink="http://www.w3.org/1999/xlink" contentStyleType="text/css" height="1046px" preserveAspectRatio="none" style="width:1825px;height:1046px;background:#FFFFFF;" version="1.1" viewBox="0 0 1825 1046" width="1825px" zoomAndPan="magnify"><defs/><g><text fill="#000000" font-family="sans-serif" font-size="14" font-weight="bold" lengthAdjust="spacing" textLength="433" x="697.5" y="29.5332">Sequence Diagram: As a Customer, I want to purchase movies</text><rect fill="#FFFFFF" height="814.7891" style="stroke:#181818;stroke-width:1.0;" width="10" x="33.5" y="131.2188"/><rect fill="#FFFFFF" height="792.4375" style="stroke:#181818;stroke-width:1.0;" width="10" x="241.5" y="153.5703"/><rect fill="#FFFFFF" height="731.7344" style="stroke:#181818;stroke-width:1.0;" width="10" x="611.5" y="183.9219"/><rect fill="#FFFFFF" height="30.3516" style="stroke:#181818;stroke-width:1.0;" width="10" x="801.5" y="214.2734"/><rect fill="#FFFFFF" height="610.3281" style="stroke:#181818;stroke-width:1.0;" width="10" x="902" y="274.9766"/><rect fill="#FFFFFF" height="30.3516" style="stroke:#181818;stroke-width:1.0;" width="10" x="1205" y="555.7891"/><rect fill="#FFFFFF" height="30.3516" style="stroke:#181818;stroke-width:1.0;" width="10" x="1334" y="451.7344"/><rect fill="#FFFFFF" height="30.3516" style="stroke:#181818;stroke-width:1.0;" width="10" x="1334" y="616.4922"/><rect fill="#FFFFFF" height="177.7578" style="stroke:#181818;stroke-width:1.0;" width="10" x="1469.5" y="677.1953"/><rect fill="#FFFFFF" height="30.3516" style="stroke:#181818;stroke-width:1.0;" width="10" x="1772.5" y="794.25"/><line style="stroke:#181818;stroke-width:0.5;stroke-dasharray:5.0,5.0;" x1="38" x2="38" y1="121.2188" y2="964.0078"/><line style="stroke:#181818;stroke-width:0.5;stroke-dasharray:5.0,5.0;" x1="246" x2="246" y1="121.2188" y2="964.0078"/><line style="stroke:#181818;stroke-width:0.5;stroke-dasharray:5.0,5.0;" x1="616" x2="616" y1="121.2188" y2="964.0078"/><line style="stroke:#181818;stroke-width:0.5;stroke-dasharray:5.0,5.0;" x1="806" x2="806" y1="121.2188" y2="964.0078"/><line style="stroke:#181818;stroke-width:0.5;stroke-dasharray:5.0,5.0;" x1="907" x2="907" y1="121.2188" y2="964.0078"/><line style="stroke:#181818;stroke-width:0.5;stroke-dasharray:5.0,5.0;" x1="1209.5" x2="1209.5" y1="121.2188" y2="964.0078"/><line style="stroke:#181818;stroke-width:0.5;stroke-dasharray:5.0,5.0;" x1="1338.5" x2="1338.5" y1="121.2188" y2="964.0078"/><line style="stroke:#181818;stroke-width:0.5;stroke-dasharray:5.0,5.0;" x1="1474.5" x2="1474.5" y1="121.2188" y2="964.0078"/><line style="stroke:#181818;stroke-width:0.5;stroke-dasharray:5.0,5.0;" x1="1777" x2="1777" y1="121.2188" y2="964.0078"/><text fill="#000000" font-family="sans-serif" font-size="14" lengthAdjust="spacing" textLength="61" x="5" y="118.1426">Customer</text><ellipse cx="38.5" cy="52.1094" fill="#E2E2F0" rx="8" ry="8" style="stroke:#181818;stroke-width:0.5;"/><path d="M38.5,60.1094 L38.5,87.1094 M25.5,68.1094 L51.5,68.1094 M38.5,87.1094 L25.5,102.1094 M38.5,87.1094 L51.5,102.1094 " fill="none" style="stroke:#181818;stroke-width:0.5;"/><text fill="#000000" font-family="sans-serif" font-size="14" lengthAdjust="spacing" textLength="61" x="5" y="977.541">Customer</text><ellipse cx="38.5" cy="989.1172" fill="#E2E2F0" rx="8" ry="8" style="stroke:#181818;stroke-width:0.5;"/><path d="M38.5,997.1172 L38.5,1024.1172 M25.5,1005.1172 L51.5,1005.1172 M38.5,1024.1172 L25.5,1039.1172 M38.5,1024.1172 L51.5,1039.1172 " fill="none" style="stroke:#181818;stroke-width:0.5;"/><rect fill="#E2E2F0" height="31.6094" rx="2.5" ry="2.5" style="stroke:#181818;stroke-width:0.5;" width="75" x="209" y="88.6094"/><text fill="#000000" font-family="sans-serif" font-size="14" lengthAdjust="spacing" textLength="61" x="216" y="110.1426">API Client</text><rect fill="#E2E2F0" height="31.6094" rx="2.5" ry="2.5" style="stroke:#181818;stroke-width:0.5;" width="75" x="209" y="963.0078"/><text fill="#000000" font-family="sans-serif" font-size="14" lengthAdjust="spacing" textLength="61" x="216" y="984.541">API Client</text><rect fill="#E2E2F0" height="31.6094" rx="2.5" ry="2.5" style="stroke:#181818;stroke-width:0.5;" width="113" x="560" y="88.6094"/><text fill="#000000" font-family="sans-serif" font-size="14" lengthAdjust="spacing" textLength="99" x="567" y="110.1426">OrderController</text><rect fill="#E2E2F0" height="31.6094" rx="2.5" ry="2.5" style="stroke:#181818;stroke-width:0.5;" width="113" x="560" y="963.0078"/><text fill="#000000" font-family="sans-serif" font-size="14" lengthAdjust="spacing" textLength="99" x="567" y="984.541">OrderController</text><rect fill="#E2E2F0" height="31.6094" rx="2.5" ry="2.5" style="stroke:#181818;stroke-width:0.5;" width="83" x="765" y="88.6094"/><text fill="#000000" font-family="sans-serif" font-size="14" lengthAdjust="spacing" textLength="69" x="772" y="110.1426">RoleGuard</text><rect fill="#E2E2F0" height="31.6094" rx="2.5" ry="2.5" style="stroke:#181818;stroke-width:0.5;" width="83" x="765" y="963.0078"/><text fill="#000000" font-family="sans-serif" font-size="14" lengthAdjust="spacing" textLength="69" x="772" y="984.541">RoleGuard</text><rect fill="#E2E2F0" height="31.6094" rx="2.5" ry="2.5" style="stroke:#181818;stroke-width:0.5;" width="98" x="858" y="88.6094"/><text fill="#000000" font-family="sans-serif" font-size="14" lengthAdjust="spacing" textLength="84" x="865" y="110.1426">OrderService</text><rect fill="#E2E2F0" height="31.6094" rx="2.5" ry="2.5" style="stroke:#181818;stroke-width:0.5;" width="98" x="858" y="963.0078"/><text fill="#000000" font-family="sans-serif" font-size="14" lengthAdjust="spacing" textLength="84" x="865" y="984.541">OrderService</text><rect fill="#E2E2F0" height="31.6094" rx="2.5" ry="2.5" style="stroke:#181818;stroke-width:0.5;" width="119" x="1150.5" y="88.6094"/><text fill="#000000" font-family="sans-serif" font-size="14" lengthAdjust="spacing" textLength="105" x="1157.5" y="110.1426">OrderRepository</text><rect fill="#E2E2F0" height="31.6094" rx="2.5" ry="2.5" style="stroke:#181818;stroke-width:0.5;" width="119" x="1150.5" y="963.0078"/><text fill="#000000" font-family="sans-serif" font-size="14" lengthAdjust="spacing" textLength="105" x="1157.5" y="984.541">OrderRepository</text><rect fill="#E2E2F0" height="31.6094" rx="2.5" ry="2.5" style="stroke:#181818;stroke-width:0.5;" width="119" x="1279.5" y="88.6094"/><text fill="#000000" font-family="sans-serif" font-size="14" lengthAdjust="spacing" textLength="105" x="1286.5" y="110.1426">MovieRepository</text><rect fill="#E2E2F0" height="31.6094" rx="2.5" ry="2.5" style="stroke:#181818;stroke-width:0.5;" width="119" x="1279.5" y="963.0078"/><text fill="#000000" font-family="sans-serif" font-size="14" lengthAdjust="spacing" textLength="105" x="1286.5" y="984.541">MovieRepository</text><rect fill="#E2E2F0" height="31.6094" rx="2.5" ry="2.5" style="stroke:#181818;stroke-width:0.5;" width="132" x="1408.5" y="88.6094"/><text fill="#000000" font-family="sans-serif" font-size="14" lengthAdjust="spacing" textLength="118" x="1415.5" y="110.1426">ReceiptFileService</text><rect fill="#E2E2F0" height="31.6094" rx="2.5" ry="2.5" style="stroke:#181818;stroke-width:0.5;" width="132" x="1408.5" y="963.0078"/><text fill="#000000" font-family="sans-serif" font-size="14" lengthAdjust="spacing" textLength="118" x="1415.5" y="984.541">ReceiptFileService</text><text fill="#000000" font-family="sans-serif" font-size="14" lengthAdjust="spacing" textLength="67" x="1741" y="100.5332">Filesystem</text><text fill="#000000" font-family="sans-serif" font-size="14" lengthAdjust="spacing" textLength="87" x="1731" y="118.1426">(Receipts Dir)</text><ellipse cx="1777.5" cy="70" fill="#E2E2F0" rx="12" ry="12" style="stroke:#181818;stroke-width:0.5;"/><line style="stroke:#181818;stroke-width:0.5;" x1="1765.5" x2="1789.5" y1="84" y2="84"/><text fill="#000000" font-family="sans-serif" font-size="14" lengthAdjust="spacing" textLength="67" x="1741" y="977.541">Filesystem</text><text fill="#000000" font-family="sans-serif" font-size="14" lengthAdjust="spacing" textLength="87" x="1731" y="995.1504">(Receipts Dir)</text><ellipse cx="1777.5" cy="1014.2266" fill="#E2E2F0" rx="12" ry="12" style="stroke:#181818;stroke-width:0.5;"/><line style="stroke:#181818;stroke-width:0.5;" x1="1765.5" x2="1789.5" y1="1028.2266" y2="1028.2266"/><rect fill="#FFFFFF" height="814.7891" style="stroke:#181818;stroke-width:1.0;" width="10" x="33.5" y="131.2188"/><rect fill="#FFFFFF" height="792.4375" style="stroke:#181818;stroke-width:1.0;" width="10" x="241.5" y="153.5703"/><rect fill="#FFFFFF" height="731.7344" style="stroke:#181818;stroke-width:1.0;" width="10" x="611.5" y="183.9219"/><rect fill="#FFFFFF" height="30.3516" style="stroke:#181818;stroke-width:1.0;" width="10" x="801.5" y="214.2734"/><rect fill="#FFFFFF" height="610.3281" style="stroke:#181818;stroke-width:1.0;" width="10" x="902" y="274.9766"/><rect fill="#FFFFFF" height="30.3516" style="stroke:#181818;stroke-width:1.0;" width="10" x="1205" y="555.7891"/><rect fill="#FFFFFF" height="30.3516" style="stroke:#181818;stroke-width:1.0;" width="10" x="1334" y="451.7344"/><rect fill="#FFFFFF" height="30.3516" style="stroke:#181818;stroke-width:1.0;" width="10" x="1334" y="616.4922"/><rect fill="#FFFFFF" height="177.7578" style="stroke:#181818;stroke-width:1.0;" width="10" x="1469.5" y="677.1953"/><rect fill="#FFFFFF" height="30.3516" style="stroke:#181818;stroke-width:1.0;" width="10" x="1772.5" y="794.25"/><polygon fill="#181818" points="229.5,149.5703,239.5,153.5703,229.5,157.5703,233.5,153.5703" style="stroke:#181818;stroke-width:1.0;"/><line style="stroke:#181818;stroke-width:1.0;" x1="43.5" x2="235.5" y1="153.5703" y2="153.5703"/><text fill="#000000" font-family="sans-serif" font-size="13" lengthAdjust="spacing" textLength="145" x="50.5" y="148.7139">Submit purchase request</text><polygon fill="#181818" points="599.5,179.9219,609.5,183.9219,599.5,187.9219,603.5,183.9219" style="stroke:#181818;stroke-width:1.0;"/><line style="stroke:#181818;stroke-width:1.0;" x1="251.5" x2="605.5" y1="183.9219" y2="183.9219"/><text fill="#000000" font-family="sans-serif" font-size="13" lengthAdjust="spacing" textLength="341" x="258.5" y="179.0654">POST /api/orders {movieIds, quantities, receiptName, JWT}</text><polygon fill="#181818" points="789.5,210.2734,799.5,214.2734,789.5,218.2734,793.5,214.2734" style="stroke:#181818;stroke-width:1.0;"/><line style="stroke:#181818;stroke-width:1.0;" x1="621.5" x2="795.5" y1="214.2734" y2="214.2734"/><text fill="#000000" font-family="sans-serif" font-size="13" lengthAdjust="spacing" textLength="161" x="628.5" y="209.417">Validate role = CUSTOMER</text><polygon fill="#181818" points="632.5,240.625,622.5,244.625,632.5,248.625,628.5,244.625" style="stroke:#181818;stroke-width:1.0;"/><line style="stroke:#181818;stroke-width:1.0;stroke-dasharray:2.0,2.0;" x1="626.5" x2="805.5" y1="244.625" y2="244.625"/><text fill="#000000" font-family="sans-serif" font-size="13" lengthAdjust="spacing" textLength="112" x="638.5" y="239.7686">Authorization result</text><polygon fill="#181818" points="890,270.9766,900,274.9766,890,278.9766,894,274.9766" style="stroke:#181818;stroke-width:1.0;"/><line style="stroke:#181818;stroke-width:1.0;" x1="621.5" x2="896" y1="274.9766" y2="274.9766"/><text fill="#000000" font-family="sans-serif" font-size="13" lengthAdjust="spacing" textLength="131" x="628.5" y="270.1201">Process order creation</text><line style="stroke:#181818;stroke-width:1.0;" x1="912" x2="954" y1="305.3281" y2="305.3281"/><line style="stroke:#181818;stroke-width:1.0;" x1="954" x2="954" y1="305.3281" y2="318.3281"/><line style="stroke:#181818;stroke-width:1.0;" x1="913" x2="954" y1="318.3281" y2="318.3281"/><polygon fill="#181818" points="923,314.3281,913,318.3281,923,322.3281,919,318.3281" style="stroke:#181818;stroke-width:1.0;"/><text fill="#000000" font-family="sans-serif" font-size="13" lengthAdjust="spacing" textLength="212" x="919" y="300.4717">Validate payload and business limits</text><line style="stroke:#181818;stroke-width:1.0;" x1="912" x2="954" y1="348.6797" y2="348.6797"/><line style="stroke:#181818;stroke-width:1.0;" x1="954" x2="954" y1="348.6797" y2="361.6797"/><line style="stroke:#181818;stroke-width:1.0;" x1="913" x2="954" y1="361.6797" y2="361.6797"/><polygon fill="#181818" points="923,357.6797,913,361.6797,923,365.6797,919,361.6797" style="stroke:#181818;stroke-width:1.0;"/><text fill="#000000" font-family="sans-serif" font-size="13" lengthAdjust="spacing" textLength="190" x="919" y="343.8232">Validate order size &lt;= 10 movies</text><line style="stroke:#181818;stroke-width:1.0;" x1="912" x2="954" y1="408.3828" y2="408.3828"/><line style="stroke:#181818;stroke-width:1.0;" x1="954" x2="954" y1="408.3828" y2="421.3828"/><line style="stroke:#181818;stroke-width:1.0;" x1="913" x2="954" y1="421.3828" y2="421.3828"/><polygon fill="#181818" points="923,417.3828,913,421.3828,923,425.3828,919,421.3828" style="stroke:#181818;stroke-width:1.0;"/><text fill="#000000" font-family="sans-serif" font-size="13" lengthAdjust="spacing" textLength="198" x="919" y="387.1748">Validate and sanitize receiptName</text><text fill="#000000" font-family="sans-serif" font-size="13" lengthAdjust="spacing" textLength="279" x="919" y="403.5264">(allow-list, strip path separators, max 100 chars)</text><polygon fill="#181818" points="1322,447.7344,1332,451.7344,1322,455.7344,1326,451.7344" style="stroke:#181818;stroke-width:1.0;"/><line style="stroke:#181818;stroke-width:1.0;" x1="912" x2="1328" y1="451.7344" y2="451.7344"/><text fill="#000000" font-family="sans-serif" font-size="13" lengthAdjust="spacing" textLength="195" x="919" y="446.8779">Check movie existence and stock</text><polygon fill="#181818" points="923,478.0859,913,482.0859,923,486.0859,919,482.0859" style="stroke:#181818;stroke-width:1.0;"/><line style="stroke:#181818;stroke-width:1.0;stroke-dasharray:2.0,2.0;" x1="917" x2="1338" y1="482.0859" y2="482.0859"/><text fill="#000000" font-family="sans-serif" font-size="13" lengthAdjust="spacing" textLength="124" x="929" y="477.2295">Return validation data</text><line style="stroke:#181818;stroke-width:1.0;" x1="912" x2="954" y1="512.4375" y2="512.4375"/><line style="stroke:#181818;stroke-width:1.0;" x1="954" x2="954" y1="512.4375" y2="525.4375"/><line style="stroke:#181818;stroke-width:1.0;" x1="913" x2="954" y1="525.4375" y2="525.4375"/><polygon fill="#181818" points="923,521.4375,913,525.4375,923,529.4375,919,525.4375" style="stroke:#181818;stroke-width:1.0;"/><text fill="#000000" font-family="sans-serif" font-size="13" lengthAdjust="spacing" textLength="261" x="919" y="507.5811">Validate sufficient stock for requested movies</text><polygon fill="#181818" points="1193,551.7891,1203,555.7891,1193,559.7891,1197,555.7891" style="stroke:#181818;stroke-width:1.0;"/><line style="stroke:#181818;stroke-width:1.0;" x1="912" x2="1199" y1="555.7891" y2="555.7891"/><text fill="#000000" font-family="sans-serif" font-size="13" lengthAdjust="spacing" textLength="147" x="919" y="550.9326">Create order (transaction)</text><polygon fill="#181818" points="923,582.1406,913,586.1406,923,590.1406,919,586.1406" style="stroke:#181818;stroke-width:1.0;"/><line style="stroke:#181818;stroke-width:1.0;stroke-dasharray:2.0,2.0;" x1="917" x2="1209" y1="586.1406" y2="586.1406"/><text fill="#000000" font-family="sans-serif" font-size="13" lengthAdjust="spacing" textLength="198" x="929" y="581.2842">Return created order data (orderId)</text><polygon fill="#181818" points="1322,612.4922,1332,616.4922,1322,620.4922,1326,616.4922" style="stroke:#181818;stroke-width:1.0;"/><line style="stroke:#181818;stroke-width:1.0;" x1="912" x2="1328" y1="616.4922" y2="616.4922"/><text fill="#000000" font-family="sans-serif" font-size="13" lengthAdjust="spacing" textLength="190" x="919" y="611.6357">Update movie stock (transaction)</text><polygon fill="#181818" points="923,642.8438,913,646.8438,923,650.8438,919,646.8438" style="stroke:#181818;stroke-width:1.0;"/><line style="stroke:#181818;stroke-width:1.0;stroke-dasharray:2.0,2.0;" x1="917" x2="1338" y1="646.8438" y2="646.8438"/><text fill="#000000" font-family="sans-serif" font-size="13" lengthAdjust="spacing" textLength="130" x="929" y="641.9873">Confirm stock updates</text><polygon fill="#181818" points="1457.5,673.1953,1467.5,677.1953,1457.5,681.1953,1461.5,677.1953" style="stroke:#181818;stroke-width:1.0;"/><line style="stroke:#181818;stroke-width:1.0;" x1="912" x2="1463.5" y1="677.1953" y2="677.1953"/><text fill="#000000" font-family="sans-serif" font-size="13" lengthAdjust="spacing" textLength="358" x="919" y="672.3389">createReceipt(sanitizedReceiptName, orderId, orderSummary)</text><line style="stroke:#181818;stroke-width:1.0;" x1="1479.5" x2="1521.5" y1="707.5469" y2="707.5469"/><line style="stroke:#181818;stroke-width:1.0;" x1="1521.5" x2="1521.5" y1="707.5469" y2="720.5469"/><line style="stroke:#181818;stroke-width:1.0;" x1="1480.5" x2="1521.5" y1="720.5469" y2="720.5469"/><polygon fill="#181818" points="1490.5,716.5469,1480.5,720.5469,1490.5,724.5469,1486.5,720.5469" style="stroke:#181818;stroke-width:1.0;"/><text fill="#000000" font-family="sans-serif" font-size="13" lengthAdjust="spacing" textLength="272" x="1486.5" y="702.6904">Build filename: &lt;sanitizedName&gt;_&lt;orderId&gt;.txt</text><line style="stroke:#181818;stroke-width:1.0;" x1="1479.5" x2="1521.5" y1="750.8984" y2="750.8984"/><line style="stroke:#181818;stroke-width:1.0;" x1="1521.5" x2="1521.5" y1="750.8984" y2="763.8984"/><line style="stroke:#181818;stroke-width:1.0;" x1="1480.5" x2="1521.5" y1="763.8984" y2="763.8984"/><polygon fill="#181818" points="1490.5,759.8984,1480.5,763.8984,1490.5,767.8984,1486.5,763.8984" style="stroke:#181818;stroke-width:1.0;"/><text fill="#000000" font-family="sans-serif" font-size="13" lengthAdjust="spacing" textLength="279" x="1486.5" y="746.042">Resolve path &amp; verify inside sandboxed directory</text><polygon fill="#181818" points="1760.5,790.25,1770.5,794.25,1760.5,798.25,1764.5,794.25" style="stroke:#181818;stroke-width:1.0;"/><line style="stroke:#181818;stroke-width:1.0;" x1="1479.5" x2="1766.5" y1="794.25" y2="794.25"/><text fill="#000000" font-family="sans-serif" font-size="13" lengthAdjust="spacing" textLength="177" x="1486.5" y="789.3936">Write .txt file (create-new-only)</text><polygon fill="#181818" points="1490.5,820.6016,1480.5,824.6016,1490.5,828.6016,1486.5,824.6016" style="stroke:#181818;stroke-width:1.0;"/><line style="stroke:#181818;stroke-width:1.0;stroke-dasharray:2.0,2.0;" x1="1484.5" x2="1776.5" y1="824.6016" y2="824.6016"/><text fill="#000000" font-family="sans-serif" font-size="13" lengthAdjust="spacing" textLength="144" x="1496.5" y="819.7451">File created successfully</text><polygon fill="#181818" points="923,850.9531,913,854.9531,923,858.9531,919,854.9531" style="stroke:#181818;stroke-width:1.0;"/><line style="stroke:#181818;stroke-width:1.0;stroke-dasharray:2.0,2.0;" x1="917" x2="1473.5" y1="854.9531" y2="854.9531"/><text fill="#000000" font-family="sans-serif" font-size="13" lengthAdjust="spacing" textLength="93" x="929" y="850.0967">Receipt file path</text><polygon fill="#181818" points="632.5,881.3047,622.5,885.3047,632.5,889.3047,628.5,885.3047" style="stroke:#181818;stroke-width:1.0;"/><line style="stroke:#181818;stroke-width:1.0;stroke-dasharray:2.0,2.0;" x1="626.5" x2="906" y1="885.3047" y2="885.3047"/><text fill="#000000" font-family="sans-serif" font-size="13" lengthAdjust="spacing" textLength="131" x="638.5" y="880.4482">Return operation result</text><polygon fill="#181818" points="262.5,911.6563,252.5,915.6563,262.5,919.6563,258.5,915.6563" style="stroke:#181818;stroke-width:1.0;"/><line style="stroke:#181818;stroke-width:1.0;stroke-dasharray:2.0,2.0;" x1="256.5" x2="615.5" y1="915.6563" y2="915.6563"/><text fill="#000000" font-family="sans-serif" font-size="13" lengthAdjust="spacing" textLength="215" x="268.5" y="910.7998">Return 201 Created + order summary</text><polygon fill="#181818" points="49.5,942.0078,39.5,946.0078,49.5,950.0078,45.5,946.0078" style="stroke:#181818;stroke-width:1.0;"/><line style="stroke:#181818;stroke-width:1.0;stroke-dasharray:2.0,2.0;" x1="43.5" x2="245.5" y1="946.0078" y2="946.0078"/><text fill="#000000" font-family="sans-serif" font-size="13" lengthAdjust="spacing" textLength="174" x="55.5" y="941.1514">Display purchase confirmation</text><!--SRC=[TLHDJzj04BtdLunog18rAT2Z1KZKBL4gfQviA9TArM9FcXLhhzbTXvYg_xqpwu_O1GvHd7ZUcpTlFfnq2c6Qu6E5HOhmMOhVHkG1N5aG45RMwHpD0jRm90e7JaDPcNGdB4AkznBjT38HgTEcZvsKmZYPofBZfrVVrn0gYOMRWh10FqVl8vEX2NNXZ5OA3OT4uIWYrWfNbJ0PlujNBz49chqavGnDNhwEiTHMai3QHyIZY0sNC8xOZ2DYJ56Mxbeg72IAhvC9bIHT3LD-PMlhCFzPpDfmIpwQkQ-O8jaWkHSEZnvr3x2yP4y2IAhxNBgZkOOROjqHoiwncGI8mW2-HyaDd8XIdcYkqi8VtuvrPXVmM0dMHirP48yNz4tak82lTpT_ZunaT1GoNxmAu8TGCkD_gH485n3U9ZVHvajy32VlunKis_nNbTjf8v-5axgWBBPIRfBXCBfbZn9IQtIAreBN2gb13nj8IIPHqWNtKafHAoseyKK6zvML1LCeIJxPry8RSYkV4SuluEoq7T3NGfdHYe8yUiQXHTH1ePH-MYfftGAiCx8a6Mu75cag10q9UPgB0z6V0dNAs7dBlua327UOFZHf0Gz4uLVA9tCwVJZMIqEsYHilILQChZ85x1jrx2TzYQ6R5FzA5RRQRcbEQH0RVjZI6hQ3WrbNVeTaVMnyPzJC6L5OJg6B-Q0LbEg5DDynecoGh0vc_dcTpOSw2JomuxRqCXi_6eLl91txGVTWAqtUGYhFOl-peqr3YnYqwjhLctLzpUBXwBTgsuUaodDXwe42tcZwz9oVAgaosD9k5uGFuBodPRxBN-SjuUK7Tt0ZP8nMgpqsO_CEzcZajWPPM9aX3rrshmzaPIPfxlZeT636tXb9MfZIfuPPKzgomAUbBjHGCEbbN9ULhr3V9bkbl6xRIgbww5jNOzzSRr2JYkME5fWFLvJq2zzEWYxHlBNplCMX1_YJrY8-dfwrWvV1-sv96_z7u73It3U2TzSne3DgIoNgurrCczbexiS0pkTnyBC_jFy0]--></g></svg>