<?xml version="1.0" encoding="us-ascii" standalone="no"?><svg xmlns="http://www.w3.org/2000/svg" xmlns:xlink="http://www.w3.org/1999/xlink" contentStyleType="text/css" height="1010px" preserveAspectRatio="none" style="width:1699px;height:1010px;background:#FFFFFF;" version="1.1" viewBox="0 0 1699 1010" width="1699px" zoomAndPan="magnify"><defs/><g><text fill="#000000" font-family="sans-serif" font-size="14" font-weight="bold" lengthAdjust="spacing" textLength="433" x="634.75" y="30.1074">Sequence Diagram: As a Customer, I want to purchase movies</text><rect fill="#FFFFFF" height="775.6934" style="stroke:#181818;stroke-width:1.0;" width="10" x="33.5" y="133.2422"/><rect fill="#FFFFFF" height="752.4023" style="stroke:#181818;stroke-width:1.0;" width="10" x="241.5" y="156.5332"/><rect fill="#FFFFFF" height="689.8203" style="stroke:#181818;stroke-width:1.0;" width="10" x="611.5" y="187.8242"/><rect fill="#FFFFFF" height="627.2383" style="stroke:#181818;stroke-width:1.0;" width="10" x="776.5" y="219.1152"/><rect fill="#FFFFFF" height="31.291" style="stroke:#181818;stroke-width:1.0;" width="10" x="1079.5" y="507.4434"/><rect fill="#FFFFFF" height="31.291" style="stroke:#181818;stroke-width:1.0;" width="10" x="1208.5" y="400.5703"/><rect fill="#FFFFFF" height="31.291" style="stroke:#181818;stroke-width:1.0;" width="10" x="1208.5" y="570.0254"/><rect fill="#FFFFFF" height="182.4551" style="stroke:#181818;stroke-width:1.0;" width="10" x="1344" y="632.6074"/><rect fill="#FFFFFF" height="31.291" style="stroke:#181818;stroke-width:1.0;" width="10" x="1647" y="752.4805"/><line style="stroke:#181818;stroke-width:0.5;stroke-dasharray:5.0,5.0;" x1="38" x2="38" y1="123.2422" y2="926.9355"/><line style="stroke:#181818;stroke-width:0.5;stroke-dasharray:5.0,5.0;" x1="246" x2="246" y1="123.2422" y2="926.9355"/><line style="stroke:#181818;stroke-width:0.5;stroke-dasharray:5.0,5.0;" x1="616" x2="616" y1="123.2422" y2="926.9355"/><line style="stroke:#181818;stroke-width:0.5;stroke-dasharray:5.0,5.0;" x1="781.5" x2="781.5" y1="123.2422" y2="926.9355"/><line style="stroke:#181818;stroke-width:0.5;stroke-dasharray:5.0,5.0;" x1="1084" x2="1084" y1="123.2422" y2="926.9355"/><line style="stroke:#181818;stroke-width:0.5;stroke-dasharray:5.0,5.0;" x1="1213" x2="1213" y1="123.2422" y2="926.9355"/><line style="stroke:#181818;stroke-width:0.5;stroke-dasharray:5.0,5.0;" x1="1349" x2="1349" y1="123.2422" y2="926.9355"/><line style="stroke:#181818;stroke-width:0.5;stroke-dasharray:5.0,5.0;" x1="1651.5" x2="1651.5" y1="123.2422" y2="926.9355"/><text fill="#000000" font-family="sans-serif" font-size="14" lengthAdjust="spacing" textLength="61" x="5" y="119.7285">Customer</text><ellipse cx="38.5" cy="53.1211" fill="#E2E2F0" rx="8" ry="8" style="stroke:#181818;stroke-width:0.5;"/><path d="M38.5,61.1211 L38.5,88.1211 M25.5,69.1211 L51.5,69.1211 M38.5,88.1211 L25.5,103.1211 M38.5,88.1211 L51.5,103.1211 " fill="none" style="stroke:#181818;stroke-width:0.5;"/><text fill="#000000" font-family="sans-serif" font-size="14" lengthAdjust="spacing" textLength="61" x="5" y="941.043">Customer</text><ellipse cx="38.5" cy="953.0566" fill="#E2E2F0" rx="8" ry="8" style="stroke:#181818;stroke-width:0.5;"/><path d="M38.5,961.0566 L38.5,988.0566 M25.5,969.0566 L51.5,969.0566 M38.5,988.0566 L25.5,1003.0566 M38.5,988.0566 L51.5,1003.0566 " fill="none" style="stroke:#181818;stroke-width:0.5;"/><rect fill="#E2E2F0" height="32.6211" rx="2.5" ry="2.5" style="stroke:#181818;stroke-width:0.5;" width="75" x="209" y="89.6211"/><text fill="#000000" font-family="sans-serif" font-size="14" lengthAdjust="spacing" textLength="61" x="216" y="111.7285">API Client</text><rect fill="#E2E2F0" height="32.6211" rx="2.5" ry="2.5" style="stroke:#181818;stroke-width:0.5;" width="75" x="209" y="925.9355"/><text fill="#000000" font-family="sans-serif" font-size="14" lengthAdjust="spacing" textLength="61" x="216" y="948.043">API Client</text><rect fill="#E2E2F0" height="32.6211" rx="2.5" ry="2.5" style="stroke:#181818;stroke-width:0.5;" width="113" x="560" y="89.6211"/><text fill="#000000" font-family="sans-serif" font-size="14" lengthAdjust="spacing" textLength="99" x="567" y="111.7285">OrderController</text><rect fill="#E2E2F0" height="32.6211" rx="2.5" ry="2.5" style="stroke:#181818;stroke-width:0.5;" width="113" x="560" y="925.9355"/><text fill="#000000" font-family="sans-serif" font-size="14" lengthAdjust="spacing" textLength="99" x="567" y="948.043">OrderController</text><rect fill="#E2E2F0" height="32.6211" rx="2.5" ry="2.5" style="stroke:#181818;stroke-width:0.5;" width="98" x="732.5" y="89.6211"/><text fill="#000000" font-family="sans-serif" font-size="14" lengthAdjust="spacing" textLength="84" x="739.5" y="111.7285">OrderService</text><rect fill="#E2E2F0" height="32.6211" rx="2.5" ry="2.5" style="stroke:#181818;stroke-width:0.5;" width="98" x="732.5" y="925.9355"/><text fill="#000000" font-family="sans-serif" font-size="14" lengthAdjust="spacing" textLength="84" x="739.5" y="948.043">OrderService</text><rect fill="#E2E2F0" height="32.6211" rx="2.5" ry="2.5" style="stroke:#181818;stroke-width:0.5;" width="119" x="1025" y="89.6211"/><text fill="#000000" font-family="sans-serif" font-size="14" lengthAdjust="spacing" textLength="105" x="1032" y="111.7285">OrderRepository</text><rect fill="#E2E2F0" height="32.6211" rx="2.5" ry="2.5" style="stroke:#181818;stroke-width:0.5;" width="119" x="1025" y="925.9355"/><text fill="#000000" font-family="sans-serif" font-size="14" lengthAdjust="spacing" textLength="105" x="1032" y="948.043">OrderRepository</text><rect fill="#E2E2F0" height="32.6211" rx="2.5" ry="2.5" style="stroke:#181818;stroke-width:0.5;" width="119" x="1154" y="89.6211"/><text fill="#000000" font-family="sans-serif" font-size="14" lengthAdjust="spacing" textLength="105" x="1161" y="111.7285">MovieRepository</text><rect fill="#E2E2F0" height="32.6211" rx="2.5" ry="2.5" style="stroke:#181818;stroke-width:0.5;" width="119" x="1154" y="925.9355"/><text fill="#000000" font-family="sans-serif" font-size="14" lengthAdjust="spacing" textLength="105" x="1161" y="948.043">MovieRepository</text><rect fill="#E2E2F0" height="32.6211" rx="2.5" ry="2.5" style="stroke:#181818;stroke-width:0.5;" width="132" x="1283" y="89.6211"/><text fill="#000000" font-family="sans-serif" font-size="14" lengthAdjust="spacing" textLength="118" x="1290" y="111.7285">ReceiptFileService</text><rect fill="#E2E2F0" height="32.6211" rx="2.5" ry="2.5" style="stroke:#181818;stroke-width:0.5;" width="132" x="1283" y="925.9355"/><text fill="#000000" font-family="sans-serif" font-size="14" lengthAdjust="spacing" textLength="118" x="1290" y="948.043">ReceiptFileService</text><text fill="#000000" font-family="sans-serif" font-size="14" lengthAdjust="spacing" textLength="67" x="1615.5" y="101.1074">Filesystem</text><text fill="#000000" font-family="sans-serif" font-size="14" lengthAdjust="spacing" textLength="87" x="1605.5" y="119.7285">(Receipts Dir)</text><ellipse cx="1652" cy="70" fill="#E2E2F0" rx="12" ry="12" style="stroke:#181818;stroke-width:0.5;"/><line style="stroke:#181818;stroke-width:0.5;" x1="1640" x2="1664" y1="84" y2="84"/><text fill="#000000" font-family="sans-serif" font-size="14" lengthAdjust="spacing" textLength="67" x="1615.5" y="941.043">Filesystem</text><text fill="#000000" font-family="sans-serif" font-size="14" lengthAdjust="spacing" textLength="87" x="1605.5" y="959.6641">(Receipts Dir)</text><ellipse cx="1652" cy="979.1777" fill="#E2E2F0" rx="12" ry="12" style="stroke:#181818;stroke-width:0.5;"/><line style="stroke:#181818;stroke-width:0.5;" x1="1640" x2="1664" y1="993.1777" y2="993.1777"/><rect fill="#FFFFFF" height="775.6934" style="stroke:#181818;stroke-width:1.0;" width="10" x="33.5" y="133.2422"/><rect fill="#FFFFFF" height="752.4023" style="stroke:#181818;stroke-width:1.0;" width="10" x="241.5" y="156.5332"/><rect fill="#FFFFFF" height="689.8203" style="stroke:#181818;stroke-width:1.0;" width="10" x="611.5" y="187.8242"/><rect fill="#FFFFFF" height="627.2383" style="stroke:#181818;stroke-width:1.0;" width="10" x="776.5" y="219.1152"/><rect fill="#FFFFFF" height="31.291" style="stroke:#181818;stroke-width:1.0;" width="10" x="1079.5" y="507.4434"/><rect fill="#FFFFFF" height="31.291" style="stroke:#181818;stroke-width:1.0;" width="10" x="1208.5" y="400.5703"/><rect fill="#FFFFFF" height="31.291" style="stroke:#181818;stroke-width:1.0;" width="10" x="1208.5" y="570.0254"/><rect fill="#FFFFFF" height="182.4551" style="stroke:#181818;stroke-width:1.0;" width="10" x="1344" y="632.6074"/><rect fill="#FFFFFF" height="31.291" style="stroke:#181818;stroke-width:1.0;" width="10" x="1647" y="752.4805"/><polygon fill="#181818" points="229.5,152.5332,239.5,156.5332,229.5,160.5332,233.5,156.5332" style="stroke:#181818;stroke-width:1.0;"/><line style="stroke:#181818;stroke-width:1.0;" x1="43.5" x2="235.5" y1="156.5332" y2="156.5332"/><text fill="#000000" font-family="sans-serif" font-size="13" lengthAdjust="spacing" textLength="145" x="50.5" y="151.2705">Submit purchase request</text><polygon fill="#181818" points="599.5,183.8242,609.5,187.8242,599.5,191.8242,603.5,187.8242" style="stroke:#181818;stroke-width:1.0;"/><line style="stroke:#181818;stroke-width:1.0;" x1="251.5" x2="605.5" y1="187.8242" y2="187.8242"/><text fill="#000000" font-family="sans-serif" font-size="13" lengthAdjust="spacing" textLength="341" x="258.5" y="182.5615">POST /api/orders {movieIds, quantities, receiptName, JWT}</text><polygon fill="#181818" points="764.5,215.1152,774.5,219.1152,764.5,223.1152,768.5,219.1152" style="stroke:#181818;stroke-width:1.0;"/><line style="stroke:#181818;stroke-width:1.0;" x1="621.5" x2="770.5" y1="219.1152" y2="219.1152"/><text fill="#000000" font-family="sans-serif" font-size="13" lengthAdjust="spacing" textLength="131" x="628.5" y="213.8525">Process order creation</text><line style="stroke:#181818;stroke-width:1.0;" x1="786.5" x2="828.5" y1="250.4063" y2="250.4063"/><line style="stroke:#181818;stroke-width:1.0;" x1="828.5" x2="828.5" y1="250.4063" y2="263.4063"/><line style="stroke:#181818;stroke-width:1.0;" x1="787.5" x2="828.5" y1="263.4063" y2="263.4063"/><polygon fill="#181818" points="797.5,259.4063,787.5,263.4063,797.5,267.4063,793.5,263.4063" style="stroke:#181818;stroke-width:1.0;"/><text fill="#000000" font-family="sans-serif" font-size="13" lengthAdjust="spacing" textLength="212" x="793.5" y="245.1436">Validate payload and business limits</text><line style="stroke:#181818;stroke-width:1.0;" x1="786.5" x2="828.5" y1="294.6973" y2="294.6973"/><line style="stroke:#181818;stroke-width:1.0;" x1="828.5" x2="828.5" y1="294.6973" y2="307.6973"/><line style="stroke:#181818;stroke-width:1.0;" x1="787.5" x2="828.5" y1="307.6973" y2="307.6973"/><polygon fill="#181818" points="797.5,303.6973,787.5,307.6973,797.5,311.6973,793.5,307.6973" style="stroke:#181818;stroke-width:1.0;"/><text fill="#000000" font-family="sans-serif" font-size="13" lengthAdjust="spacing" textLength="190" x="793.5" y="289.4346">Validate order size &lt;= 10 movies</text><line style="stroke:#181818;stroke-width:1.0;" x1="786.5" x2="828.5" y1="356.2793" y2="356.2793"/><line style="stroke:#181818;stroke-width:1.0;" x1="828.5" x2="828.5" y1="356.2793" y2="369.2793"/><line style="stroke:#181818;stroke-width:1.0;" x1="787.5" x2="828.5" y1="369.2793" y2="369.2793"/><polygon fill="#181818" points="797.5,365.2793,787.5,369.2793,797.5,373.2793,793.5,369.2793" style="stroke:#181818;stroke-width:1.0;"/><text fill="#000000" font-family="sans-serif" font-size="13" lengthAdjust="spacing" textLength="198" x="793.5" y="333.7256">Validate and sanitize receiptName</text><text fill="#000000" font-family="sans-serif" font-size="13" lengthAdjust="spacing" textLength="279" x="793.5" y="351.0166">(allow-list, strip path separators, max 100 chars)</text><polygon fill="#181818" points="1196.5,396.5703,1206.5,400.5703,1196.5,404.5703,1200.5,400.5703" style="stroke:#181818;stroke-width:1.0;"/><line style="stroke:#181818;stroke-width:1.0;" x1="786.5" x2="1202.5" y1="400.5703" y2="400.5703"/><text fill="#000000" font-family="sans-serif" font-size="13" lengthAdjust="spacing" textLength="195" x="793.5" y="395.3076">Check movie existence and stock</text><polygon fill="#181818" points="797.5,427.8613,787.5,431.8613,797.5,435.8613,793.5,431.8613" style="stroke:#181818;stroke-width:1.0;"/><line style="stroke:#181818;stroke-width:1.0;stroke-dasharray:2.0,2.0;" x1="791.5" x2="1212.5" y1="431.8613" y2="431.8613"/><text fill="#000000" font-family="sans-serif" font-size="13" lengthAdjust="spacing" textLength="124" x="803.5" y="426.5986">Return validation data</text><line style="stroke:#181818;stroke-width:1.0;" x1="786.5" x2="828.5" y1="463.1523" y2="463.1523"/><line style="stroke:#181818;stroke-width:1.0;" x1="828.5" x2="828.5" y1="463.1523" y2="476.1523"/><line style="stroke:#181818;stroke-width:1.0;" x1="787.5" x2="828.5" y1="476.1523" y2="476.1523"/><polygon fill="#181818" points="797.5,472.1523,787.5,476.1523,797.5,480.1523,793.5,476.1523" style="stroke:#181818;stroke-width:1.0;"/><text fill="#000000" font-family="sans-serif" font-size="13" lengthAdjust="spacing" textLength="261" x="793.5" y="457.8896">Validate sufficient stock for requested movies</text><polygon fill="#181818" points="1067.5,503.4434,1077.5,507.4434,1067.5,511.4434,1071.5,507.4434" style="stroke:#181818;stroke-width:1.0;"/><line style="stroke:#181818;stroke-width:1.0;" x1="786.5" x2="1073.5" y1="507.4434" y2="507.4434"/><text fill="#000000" font-family="sans-serif" font-size="13" lengthAdjust="spacing" textLength="147" x="793.5" y="502.1807">Create order (transaction)</text><polygon fill="#181818" points="797.5,534.7344,787.5,538.7344,797.5,542.7344,793.5,538.7344" style="stroke:#181818;stroke-width:1.0;"/><line style="stroke:#181818;stroke-width:1.0;stroke-dasharray:2.0,2.0;" x1="791.5" x2="1083.5" y1="538.7344" y2="538.7344"/><text fill="#000000" font-family="sans-serif" font-size="13" lengthAdjust="spacing" textLength="198" x="803.5" y="533.4717">Return created order data (orderId)</text><polygon fill="#181818" points="1196.5,566.0254,1206.5,570.0254,1196.5,574.0254,1200.5,570.0254" style="stroke:#181818;stroke-width:1.0;"/><line style="stroke:#181818;stroke-width:1.0;" x1="786.5" x2="1202.5" y1="570.0254" y2="570.0254"/><text fill="#000000" font-family="sans-serif" font-size="13" lengthAdjust="spacing" textLength="190" x="793.5" y="564.7627">Update movie stock (transaction)</text><polygon fill="#181818" points="797.5,597.3164,787.5,601.3164,797.5,605.3164,793.5,601.3164" style="stroke:#181818;stroke-width:1.0;"/><line style="stroke:#181818;stroke-width:1.0;stroke-dasharray:2.0,2.0;" x1="791.5" x2="1212.5" y1="601.3164" y2="601.3164"/><text fill="#000000" font-family="sans-serif" font-size="13" lengthAdjust="spacing" textLength="130" x="803.5" y="596.0537">Confirm stock updates</text><polygon fill="#181818" points="1332,628.6074,1342,632.6074,1332,636.6074,1336,632.6074" style="stroke:#181818;stroke-width:1.0;"/><line style="stroke:#181818;stroke-width:1.0;" x1="786.5" x2="1338" y1="632.6074" y2="632.6074"/><text fill="#000000" font-family="sans-serif" font-size="13" lengthAdjust="spacing" textLength="358" x="793.5" y="627.3447">createReceipt(sanitizedReceiptName, orderId, orderSummary)</text><line style="stroke:#181818;stroke-width:1.0;" x1="1354" x2="1396" y1="663.8984" y2="663.8984"/><line style="stroke:#181818;stroke-width:1.0;" x1="1396" x2="1396" y1="663.8984" y2="676.8984"/><line style="stroke:#181818;stroke-width:1.0;" x1="1355" x2="1396" y1="676.8984" y2="676.8984"/><polygon fill="#181818" points="1365,672.8984,1355,676.8984,1365,680.8984,1361,676.8984" style="stroke:#181818;stroke-width:1.0;"/><text fill="#000000" font-family="sans-serif" font-size="13" lengthAdjust="spacing" textLength="272" x="1361" y="658.6357">Build filename: &lt;sanitizedName&gt;_&lt;orderId&gt;.txt</text><line style="stroke:#181818;stroke-width:1.0;" x1="1354" x2="1396" y1="708.1895" y2="708.1895"/><line style="stroke:#181818;stroke-width:1.0;" x1="1396" x2="1396" y1="708.1895" y2="721.1895"/><line style="stroke:#181818;stroke-width:1.0;" x1="1355" x2="1396" y1="721.1895" y2="721.1895"/><polygon fill="#181818" points="1365,717.1895,1355,721.1895,1365,725.1895,1361,721.1895" style="stroke:#181818;stroke-width:1.0;"/><text fill="#000000" font-family="sans-serif" font-size="13" lengthAdjust="spacing" textLength="279" x="1361" y="702.9268">Resolve path &amp; verify inside sandboxed directory</text><polygon fill="#181818" points="1635,748.4805,1645,752.4805,1635,756.4805,1639,752.4805" style="stroke:#181818;stroke-width:1.0;"/><line style="stroke:#181818;stroke-width:1.0;" x1="1354" x2="1641" y1="752.4805" y2="752.4805"/><text fill="#000000" font-family="sans-serif" font-size="13" lengthAdjust="spacing" textLength="177" x="1361" y="747.2178">Write .txt file (create-new-only)</text><polygon fill="#181818" points="1365,779.7715,1355,783.7715,1365,787.7715,1361,783.7715" style="stroke:#181818;stroke-width:1.0;"/><line style="stroke:#181818;stroke-width:1.0;stroke-dasharray:2.0,2.0;" x1="1359" x2="1651" y1="783.7715" y2="783.7715"/><text fill="#000000" font-family="sans-serif" font-size="13" lengthAdjust="spacing" textLength="144" x="1371" y="778.5088">File created successfully</text><polygon fill="#181818" points="797.5,811.0625,787.5,815.0625,797.5,819.0625,793.5,815.0625" style="stroke:#181818;stroke-width:1.0;"/><line style="stroke:#181818;stroke-width:1.0;stroke-dasharray:2.0,2.0;" x1="791.5" x2="1348" y1="815.0625" y2="815.0625"/><text fill="#000000" font-family="sans-serif" font-size="13" lengthAdjust="spacing" textLength="93" x="803.5" y="809.7998">Receipt file path</text><polygon fill="#181818" points="632.5,842.3535,622.5,846.3535,632.5,850.3535,628.5,846.3535" style="stroke:#181818;stroke-width:1.0;"/><line style="stroke:#181818;stroke-width:1.0;stroke-dasharray:2.0,2.0;" x1="626.5" x2="780.5" y1="846.3535" y2="846.3535"/><text fill="#000000" font-family="sans-serif" font-size="13" lengthAdjust="spacing" textLength="131" x="638.5" y="841.0908">Return operation result</text><polygon fill="#181818" points="262.5,873.6445,252.5,877.6445,262.5,881.6445,258.5,877.6445" style="stroke:#181818;stroke-width:1.0;"/><line style="stroke:#181818;stroke-width:1.0;stroke-dasharray:2.0,2.0;" x1="256.5" x2="615.5" y1="877.6445" y2="877.6445"/><text fill="#000000" font-family="sans-serif" font-size="13" lengthAdjust="spacing" textLength="215" x="268.5" y="872.3818">Return 201 Created + order summary</text><polygon fill="#181818" points="49.5,904.9355,39.5,908.9355,49.5,912.9355,45.5,908.9355" style="stroke:#181818;stroke-width:1.0;"/><line style="stroke:#181818;stroke-width:1.0;stroke-dasharray:2.0,2.0;" x1="43.5" x2="245.5" y1="908.9355" y2="908.9355"/><text fill="#000000" font-family="sans-serif" font-size="13" lengthAdjust="spacing" textLength="174" x="55.5" y="903.6729">Display purchase confirmation</text><!--SRC=[TLHDRzD04BtdLunoG8b8QCinAfLAKAKWXLHseHSajBKdTDNrhhkpJXiG_vsPzJgnQJb4SU8tRzwy-GWw68HnZeyDsWBXarO_lQeMS4cWODbGS1Nw6QpWITa0mK7T-E9U4KBbTXffF1gf8ZX_m8vgvOCkT2tuyUNr2fP6emrZK0JyS_1-uqlqIsU3TyQW5yXc-HAHezzfLYUlyvUlCwmTQHQnZuXiW5YBp25YFKHaMA2kmvKss4kKNUKZbgt37iRoYlOKiFfk9mbEx9MVngeOAIRedGfuzA5xWFc5rBs0lBchT3WQwCLq2iTGSKSCuu3DSW7Nc_m6JbIjJvnKIV0xMhugQGQFZH9jt80PyqH1NrI5C_XyU_FdoCXcZZRBI9WpeNS54a6aWyAZ2jhP7ZeVRV8E_4qPNSg_jTeRfqfGjeIxXhGL2gEv57eDtfAJ_eLm_W7EJjESl0OLHbAMo_Y5_IhOP6MCUveRJM465BokMKQu1q9kdE8-SjcLUcRwKs0pFKqJ_pfRmF8UYuSsBU0pKyJ9Zic2AnwEzV8Sh3EO9raPXiPRsBNgs1ZWBpKgiOz_fGfgjbiU9PwLbX-sl0sfjrXsvNUHea-CxuoQ1AyiIGfdfxrMSAeNqcB7cBAD57KmYS-hSjhNoS4zExxMKMRhHwlmFqc7Vl1QRhMlKaWJMUWVEr8QtfL5KfUsOzBrjSpwqvdKfeUygIhbzpq5idJyEN1-RBGfOSlhPpb-0US7Mk6x-76U22_UXUSmYCoGdDbXEpPlO8TUR_UWBUaIPUZAE_VCLfQQvqxkGXSiiRTUinQXZAbXqfOsj_WqTzRq1RDUYUkoog4uj8cQGjPjsnYpx_lMrNXeRZIeJILo-rWn99gSRaAQ15UZRsVK8pKc3BgVnvNlhawAU7zwbWQlXBVTahR-3uBvOCGJnE7T0LlmfQFQgFtnT1NjRBJtenSk5wptyt0B_m80]--></g></svg>