<?xml version="1.0" encoding="us-ascii" standalone="no"?><svg xmlns="http://www.w3.org/2000/svg" xmlns:xlink="http://www.w3.org/1999/xlink" contentStyleType="text/css" height="624px" preserveAspectRatio="none" style="width:363px;height:624px;background:#FFFFFF;" version="1.1" viewBox="0 0 363 624" width="363px" zoomAndPan="magnify"><defs/><g><!--entity Customer--><g id="elem_Customer"><ellipse cx="36.5" cy="450.5" fill="#F1F1F1" rx="8" ry="8" style="stroke:#181818;stroke-width:0.5;"/><path d="M36.5,458.5 L36.5,485.5 M23.5,466.5 L49.5,466.5 M36.5,485.5 L23.5,500.5 M36.5,485.5 L49.5,500.5 " fill="none" style="stroke:#181818;stroke-width:0.5;"/><text fill="#000000" font-family="sans-serif" font-size="14" lengthAdjust="spacing" textLength="61" x="6" y="516.5332">Customer</text></g><!--entity Support--><g id="elem_Support"><ellipse cx="36.5" cy="84.5" fill="#F1F1F1" rx="8" ry="8" style="stroke:#181818;stroke-width:0.5;"/><path d="M36.5,92.5 L36.5,119.5 M23.5,100.5 L49.5,100.5 M36.5,119.5 L23.5,134.5 M36.5,119.5 L49.5,134.5 " fill="none" style="stroke:#181818;stroke-width:0.5;"/><text fill="#000000" font-family="sans-serif" font-size="14" lengthAdjust="spacing" textLength="50" x="11.5" y="150.5332">Support</text></g><!--entity Admin--><g id="elem_Admin"><ellipse cx="36.5" cy="249.5" fill="#F1F1F1" rx="8" ry="8" style="stroke:#181818;stroke-width:0.5;"/><path d="M36.5,257.5 L36.5,284.5 M23.5,265.5 L49.5,265.5 M36.5,284.5 L23.5,299.5 M36.5,284.5 L49.5,299.5 " fill="none" style="stroke:#181818;stroke-width:0.5;"/><text fill="#000000" font-family="sans-serif" font-size="14" lengthAdjust="spacing" textLength="39" x="17" y="315.5332">Admin</text></g><g id="elem_UC1"><ellipse cx="241.804" cy="198.7608" fill="#F1F1F1" rx="111.804" ry="24.7608" style="stroke:#181818;stroke-width:0.5;"/><text fill="#000000" font-family="sans-serif" font-size="14" lengthAdjust="spacing" textLength="187" x="148.304" y="202.4893">UC1 - Login to the application</text></g><g id="elem_UC2"><ellipse cx="242.0137" cy="440.9027" fill="#F1F1F1" rx="115.0137" ry="25.4027" style="stroke:#181818;stroke-width:0.5;"/><text fill="#000000" font-family="sans-serif" font-size="14" lengthAdjust="spacing" textLength="194" x="145.0137" y="444.6313">UC2 - Browse available movies</text></g><g id="elem_UC3"><ellipse cx="241.7628" cy="522.1526" fill="#F1F1F1" rx="91.2628" ry="20.6526" style="stroke:#181818;stroke-width:0.5;"/><text fill="#000000" font-family="sans-serif" font-size="14" lengthAdjust="spacing" textLength="141" x="171.2628" y="525.8811">UC3 - Purchase movie</text></g><g id="elem_UC4"><ellipse cx="241.9659" cy="597.8932" fill="#F1F1F1" rx="89.9659" ry="20.3932" style="stroke:#181818;stroke-width:0.5;"/><text fill="#000000" font-family="sans-serif" font-size="14" lengthAdjust="spacing" textLength="138" x="172.9659" y="601.6217">UC4 - Request refund</text></g><g id="elem_UC5"><ellipse cx="242.2192" cy="30.9438" fill="#F1F1F1" rx="112.7192" ry="24.9438" style="stroke:#181818;stroke-width:0.5;"/><text fill="#000000" font-family="sans-serif" font-size="14" lengthAdjust="spacing" textLength="189" x="147.7192" y="34.6724">UC5 - View requested refunds</text></g><g id="elem_UC6"><ellipse cx="242.0675" cy="115.2135" fill="#F1F1F1" rx="109.0675" ry="24.2135" style="stroke:#181818;stroke-width:0.5;"/><text fill="#000000" font-family="sans-serif" font-size="14" lengthAdjust="spacing" textLength="181" x="151.5675" y="118.942">UC6 - Handle refund request</text></g><g id="elem_UC7"><ellipse cx="241.8974" cy="279.9795" fill="#F1F1F1" rx="90.3974" ry="20.4795" style="stroke:#181818;stroke-width:0.5;"/><text fill="#000000" font-family="sans-serif" font-size="14" lengthAdjust="spacing" textLength="139" x="172.3974" y="283.708">UC7 - Manage movies</text></g><g id="elem_UC8"><ellipse cx="242.2239" cy="358.1448" fill="#F1F1F1" rx="98.7239" ry="22.1448" style="stroke:#181818;stroke-width:0.5;"/><text fill="#000000" font-family="sans-serif" font-size="14" lengthAdjust="spacing" textLength="158" x="163.2239" y="361.8733">UC8 - Manage user roles</text></g><!--link Customer to UC1--><g id="link_Customer_UC1"><path d="M42.12,441.74 C50.28,389.47 71.93,297.21 127,242 C137.61,231.37 145.5991,225.7258 159.5591,219.6458 " fill="none" id="Customer-to-UC1" style="stroke:#181818;stroke-width:1.0;"/><polygon fill="#181818" points="165.06,217.25,155.2114,217.1764,160.4759,219.2465,158.4058,224.511,165.06,217.25" style="stroke:#181818;stroke-width:1.0;"/></g><!--link Customer to UC2--><g id="link_Customer_UC2"><path d="M67.09,475.18 C90.35,470.61 118.0826,465.1569 149.5826,458.9669 " fill="none" id="Customer-to-UC2" style="stroke:#181818;stroke-width:1.0;"/><polygon fill="#181818" points="155.47,457.81,145.8676,455.6204,150.5638,458.7741,147.4102,463.4703,155.47,457.81" style="stroke:#181818;stroke-width:1.0;"/></g><!--link Customer to UC3--><g id="link_Customer_UC3"><path d="M67.09,486.96 C94.87,492.56 131.5483,499.9445 167.6183,507.2145 " fill="none" id="Customer-to-UC3" style="stroke:#181818;stroke-width:1.0;"/><polygon fill="#181818" points="173.5,508.4,165.4677,502.7006,168.5986,507.4121,163.8871,510.5429,173.5,508.4" style="stroke:#181818;stroke-width:1.0;"/></g><!--link Customer to UC4--><g id="link_Customer_UC4"><path d="M67.38,512.9 C83.73,528.85 105.09,547.38 127,560 C143.54,569.53 157.1097,575.2581 175.0597,581.0481 " fill="none" id="Customer-to-UC4" style="stroke:#181818;stroke-width:1.0;"/><polygon fill="#181818" points="180.77,582.89,173.4325,576.3203,176.0114,581.3551,170.9766,583.934,180.77,582.89" style="stroke:#181818;stroke-width:1.0;"/></g><!--link Support to UC1--><g id="link_Support_UC1"><path d="M61.61,126.59 C79.51,135.07 104.6,146.66 127,156 C144.86,163.45 158.9022,168.9629 176.7922,175.6729 " fill="none" id="Support-to-UC1" style="stroke:#181818;stroke-width:1.0;"/><polygon fill="#181818" points="182.41,177.78,175.388,170.8741,177.7285,176.0241,172.5785,178.3646,182.41,177.78" style="stroke:#181818;stroke-width:1.0;"/></g><!--link Support to UC5--><g id="link_Support_UC5"><path d="M61.56,103.02 C79.43,94.29 104.51,82.4 127,73 C144.32,65.76 157.7475,60.5475 175.2375,54.1275 " fill="none" id="Support-to-UC5" style="stroke:#181818;stroke-width:1.0;"/><polygon fill="#181818" points="180.87,52.06,171.0429,51.4063,176.1762,53.7829,173.7995,58.9163,180.87,52.06" style="stroke:#181818;stroke-width:1.0;"/></g><!--link Support to UC6--><g id="link_Support_UC6"><path d="M61.64,115 C79.75,115 99.94,115 126.72,115 " fill="none" id="Support-to-UC6" style="stroke:#181818;stroke-width:1.0;"/><polygon fill="#181818" points="132.72,115,123.72,111,127.72,115,123.72,119,132.72,115" style="stroke:#181818;stroke-width:1.0;"/></g><!--link Admin to UC1--><g id="link_Admin_UC1"><path d="M56.26,271.77 C74.31,263.92 102.4,251.86 127,242 C145.16,234.72 159.4636,229.2008 177.5036,222.4208 " fill="none" id="Admin-to-UC1" style="stroke:#181818;stroke-width:1.0;"/><polygon fill="#181818" points="183.12,220.31,173.2881,219.732,178.4396,222.069,176.1026,227.2205,183.12,220.31" style="stroke:#181818;stroke-width:1.0;"/></g><!--link Admin to UC7--><g id="link_Admin_UC7"><path d="M56.28,280 C78.12,280 109.75,280 145.37,280 " fill="none" id="Admin-to-UC7" style="stroke:#181818;stroke-width:1.0;"/><polygon fill="#181818" points="151.37,280,142.37,276,146.37,280,142.37,284,151.37,280" style="stroke:#181818;stroke-width:1.0;"/></g><!--link Admin to UC8--><g id="link_Admin_UC8"><path d="M56.21,288.36 C74.22,296.31 102.29,308.43 127,318 C146.27,325.46 161.9123,331.131 180.8523,337.711 " fill="none" id="Admin-to-UC8" style="stroke:#181818;stroke-width:1.0;"/><polygon fill="#181818" points="186.52,339.68,179.3311,332.948,181.7969,338.0391,176.7057,340.5049,186.52,339.68" style="stroke:#181818;stroke-width:1.0;"/></g><!--SRC=[NT8zRuCm40RWdLznojA9eU5peLBAqg6LgbJfxi81bWocjWb_lmVOr67pUthiyvV0ne2He7ZR6QYvmifmEGJ14nH50PVAIAMNOS2M8PIJDh97PUFND8vI6PikTS_tgJUDK3ADs-n9OqK1JhVo6K9uboqVbhwcGs3ZA7Z5bhudO1g8-FvC_bN9cHAxCoxOZq3evPsZjlpiyuZuvwIgRiahiohoLKpgYhyJQWCAcscehOfzbP3wvZWJMIdM5hlEYQzJqczig6bxctBJB4vzd17-O0Dh3sV9V9J_8wegK5BiC7SNxPw4kedr4hSRtyjX-B9UwQ5mFXQYOo5s7QxRQHeXvtLf- -hxoeyvEUHq_qpBzpZiSgkvXVoKFQGy-0C0]--></g></svg>