<?xml version="1.0" encoding="UTF-8" standalone="no"?>
<!DOCTYPE svg PUBLIC "-//W3C//DTD SVG 1.1//EN"
 "http://www.w3.org/Graphics/SVG/1.1/DTD/svg11.dtd">
<!-- Generated by graphviz version 14.1.5 (20260411.2331)
 -->
<!-- Title: tm Pages: 1 -->
<svg width="723pt" height="681pt"
 viewBox="0.00 0.00 723.00 681.00" xmlns="http://www.w3.org/2000/svg" xmlns:xlink="http://www.w3.org/1999/xlink">
<g id="graph0" class="graph" transform="scale(1 1) rotate(0) translate(4 676.69)">
<title>tm</title>
<polygon fill="white" stroke="none" points="-4,4 -4,-676.69 719.1,-676.69 719.1,4 -4,4"/>
<g id="clust1" class="cluster">
<title>cluster_boundary_BackendNodeJSAPI_acf3059e70</title>
<polygon fill="none" stroke="#ee2c2c" stroke-dasharray="5,2" points="101.5,-126.5 101.5,-664.69 456.5,-664.69 456.5,-126.5 101.5,-126.5"/>
<text xml:space="preserve" text-anchor="start" x="225.38" y="-652.19" font-family="Arial" font-style="italic" font-size="10.00">Backend (NodeJS\nAPI)</text>
</g>
<g id="clust2" class="cluster">
<title>cluster_boundary_Database_88f2d9c06f</title>
<polygon fill="none" stroke="#ee2c2c" stroke-dasharray="5,2" points="92.5,-8 92.5,-80 162.5,-80 162.5,-8 92.5,-8"/>
<text xml:space="preserve" text-anchor="start" x="106.5" y="-67.5" font-family="Arial" font-style="italic" font-size="10.00">Database</text>
</g>
<!-- process_RefundController_f2eb7a3ff7 -->
<g id="node1" class="node">
<title>process_RefundController_f2eb7a3ff7</title>
<ellipse fill="none" stroke="black" cx="371.5" cy="-575.41" rx="61.28" ry="61.28"/>
<text xml:space="preserve" text-anchor="middle" x="371.5" y="-569.98" font-family="Arial" font-size="14.00">RefundController</text>
</g>
<!-- process_RefundService_d2006ce1bb -->
<g id="node2" class="node">
<title>process_RefundService_d2006ce1bb</title>
<ellipse fill="none" stroke="black" cx="268.5" cy="-381.98" rx="53.4" ry="53.4"/>
<text xml:space="preserve" text-anchor="middle" x="268.5" y="-376.55" font-family="Arial" font-size="14.00">RefundService</text>
</g>
<!-- process_RefundController_f2eb7a3ff7&#45;&gt;process_RefundService_d2006ce1bb -->
<g id="edge2" class="edge">
<title>process_RefundController_f2eb7a3ff7&#45;&gt;process_RefundService_d2006ce1bb</title>
<path fill="none" stroke="black" d="M310.15,-568.85C262.87,-560.98 200.44,-541.98 169,-496.12 158.26,-480.45 160.27,-470.25 169,-453.37 178.11,-435.78 193.86,-421.64 210.18,-410.78"/>
<polygon fill="black" stroke="black" points="211.9,-413.83 218.53,-405.56 208.19,-407.89 211.9,-413.83"/>
<text xml:space="preserve" text-anchor="middle" x="217.75" y="-477.6" font-family="Arial" font-size="12.00">(2) Process refund</text>
<text xml:space="preserve" text-anchor="middle" x="217.75" y="-463.35" font-family="Arial" font-size="12.00">request</text>
</g>
<!-- actor_SupportStaff_579e9aae81 -->
<g id="node5" class="node">
<title>actor_SupportStaff_579e9aae81</title>
<polygon fill="none" stroke="black" points="652.32,-422.79 570.68,-422.79 570.68,-341.16 652.32,-341.16 652.32,-422.79"/>
<text xml:space="preserve" text-anchor="middle" x="611.5" y="-376.55" font-family="Arial" font-size="14.00">Support Staff</text>
</g>
<!-- process_RefundController_f2eb7a3ff7&#45;&gt;actor_SupportStaff_579e9aae81 -->
<g id="edge8" class="edge">
<title>process_RefundController_f2eb7a3ff7&#45;&gt;actor_SupportStaff_579e9aae81</title>
<path fill="none" stroke="black" d="M415.86,-532.93C442.24,-508.88 476.76,-478.49 509,-453.37 525.52,-440.5 544.25,-427.27 561.13,-415.81"/>
<polygon fill="black" stroke="black" points="562.7,-418.97 569.04,-410.48 558.79,-413.16 562.7,-418.97"/>
<text xml:space="preserve" text-anchor="middle" x="556.25" y="-484.72" font-family="Arial" font-size="12.00">(8) 200 OK +</text>
<text xml:space="preserve" text-anchor="middle" x="556.25" y="-470.47" font-family="Arial" font-size="12.00">refund status (API</text>
<text xml:space="preserve" text-anchor="middle" x="556.25" y="-456.22" font-family="Arial" font-size="12.00">Response)</text>
</g>
<!-- process_RefundService_d2006ce1bb&#45;&gt;process_RefundController_f2eb7a3ff7 -->
<g id="edge7" class="edge">
<title>process_RefundService_d2006ce1bb&#45;&gt;process_RefundController_f2eb7a3ff7</title>
<path fill="none" stroke="black" d="M293.47,-429.39C306.63,-453.85 322.97,-484.21 337.29,-510.83"/>
<polygon fill="black" stroke="black" points="334.13,-512.35 341.95,-519.5 340.3,-509.03 334.13,-512.35"/>
<text xml:space="preserve" text-anchor="middle" x="375.35" y="-484.72" font-family="Arial" font-size="12.00">(7) Return</text>
<text xml:space="preserve" text-anchor="middle" x="375.35" y="-470.47" font-family="Arial" font-size="12.00">processed refund</text>
<text xml:space="preserve" text-anchor="middle" x="375.35" y="-456.22" font-family="Arial" font-size="12.00">status</text>
</g>
<!-- process_RefundRepository_f8af758679 -->
<g id="node3" class="node">
<title>process_RefundRepository_f8af758679</title>
<ellipse fill="none" stroke="black" cx="238.5" cy="-199.29" rx="64.79" ry="64.79"/>
<text xml:space="preserve" text-anchor="middle" x="238.5" y="-193.87" font-family="Arial" font-size="14.00">RefundRepository</text>
</g>
<!-- process_RefundService_d2006ce1bb&#45;&gt;process_RefundRepository_f8af758679 -->
<g id="edge3" class="edge">
<title>process_RefundService_d2006ce1bb&#45;&gt;process_RefundRepository_f8af758679</title>
<path fill="none" stroke="black" d="M219.69,-359.22C200.13,-347.77 179.67,-331.66 168.75,-310.58 158.13,-290.09 167.01,-268.44 181.55,-249.81"/>
<polygon fill="black" stroke="black" points="184.07,-252.25 187.85,-242.35 178.72,-247.73 184.07,-252.25"/>
<text xml:space="preserve" text-anchor="middle" x="217.12" y="-299.18" font-family="Arial" font-size="12.00">(3) Update refund</text>
<text xml:space="preserve" text-anchor="middle" x="217.12" y="-284.93" font-family="Arial" font-size="12.00">status in database</text>
</g>
<!-- process_RefundRepository_f8af758679&#45;&gt;process_RefundService_d2006ce1bb -->
<g id="edge6" class="edge">
<title>process_RefundRepository_f8af758679&#45;&gt;process_RefundService_d2006ce1bb</title>
<path fill="none" stroke="black" d="M270.53,-255.75C274.23,-264.33 277.42,-273.27 279.5,-282.08 282.24,-293.67 282.71,-306.2 281.93,-318.31"/>
<polygon fill="black" stroke="black" points="278.45,-317.96 280.97,-328.24 285.41,-318.62 278.45,-317.96"/>
<text xml:space="preserve" text-anchor="middle" x="328.39" y="-299.18" font-family="Arial" font-size="12.00">(6) Return data to</text>
<text xml:space="preserve" text-anchor="middle" x="328.39" y="-284.93" font-family="Arial" font-size="12.00">service layer</text>
</g>
<!-- datastore_RefundRequestsTable_2c440ebe53 -->
<g id="node4" class="node">
<title>datastore_RefundRequestsTable_2c440ebe53</title>
<image xlink:href="C:\Users\pedro\OneDrive - Instituto Superior de Engenharia do Porto\Mestrado EngSoftware\DSOFTS\PROJECT\desofs2026-wed_nap_1-1\.venv\Lib\site-packages\pytm\images\datastore_black.png" width="49.6px" height="36px" preserveAspectRatio="xMinYMin meet" x="102.7" y="-52"/>
<text xml:space="preserve" text-anchor="middle" x="50.25" y="-70.2" font-family="Arial" font-size="14.00">RefundRequests</text>
<text xml:space="preserve" text-anchor="middle" x="50.25" y="-54.45" font-family="Arial" font-size="14.00">Table</text>
</g>
<!-- process_RefundRepository_f8af758679&#45;&gt;datastore_RefundRequestsTable_2c440ebe53 -->
<g id="edge4" class="edge">
<title>process_RefundRepository_f8af758679&#45;&gt;datastore_RefundRequestsTable_2c440ebe53</title>
<path fill="none" stroke="black" d="M175.89,-181.71C142.98,-169.46 105.52,-149.11 86,-116.5 75.06,-98.22 86.98,-76.72 100.81,-60.39"/>
<polygon fill="black" stroke="black" points="103.38,-62.77 107.54,-53.02 98.21,-58.05 103.38,-62.77"/>
<text xml:space="preserve" text-anchor="middle" x="131.75" y="-105.1" font-family="Arial" font-size="12.00">(4) Query/Update</text>
<text xml:space="preserve" text-anchor="middle" x="131.75" y="-90.85" font-family="Arial" font-size="12.00">refund request</text>
</g>
<!-- datastore_RefundRequestsTable_2c440ebe53&#45;&gt;process_RefundRepository_f8af758679 -->
<g id="edge5" class="edge">
<title>datastore_RefundRequestsTable_2c440ebe53&#45;&gt;process_RefundRepository_f8af758679</title>
<path fill="none" stroke="black" d="M153.41,-52C166.19,-61.4 181.06,-74.01 191.5,-88 200.28,-99.76 207.79,-113.42 214.06,-127.03"/>
<polygon fill="black" stroke="black" points="210.78,-128.26 218.01,-136.01 217.19,-125.44 210.78,-128.26"/>
<text xml:space="preserve" text-anchor="middle" x="255.12" y="-105.1" font-family="Arial" font-size="12.00">(5) Return update</text>
<text xml:space="preserve" text-anchor="middle" x="255.12" y="-90.85" font-family="Arial" font-size="12.00">confirmation</text>
</g>
<!-- actor_SupportStaff_579e9aae81&#45;&gt;process_RefundController_f2eb7a3ff7 -->
<g id="edge1" class="edge">
<title>actor_SupportStaff_579e9aae81&#45;&gt;process_RefundController_f2eb7a3ff7</title>
<path fill="none" stroke="black" d="M627.41,-423.21C633.86,-446.61 636.68,-475.46 621.5,-496.12 581.3,-550.84 502.96,-568.36 444.64,-573.46"/>
<polygon fill="black" stroke="black" points="444.47,-569.96 434.77,-574.21 445,-576.94 444.47,-569.96"/>
<text xml:space="preserve" text-anchor="middle" x="673.85" y="-484.72" font-family="Arial" font-size="12.00">(1) PATCH</text>
<text xml:space="preserve" text-anchor="middle" x="673.85" y="-470.47" font-family="Arial" font-size="12.00">/api/refunds/{id}</text>
<text xml:space="preserve" text-anchor="middle" x="673.85" y="-456.22" font-family="Arial" font-size="12.00">(API Request)</text>
</g>
</g>
</svg>
