<?xml version="1.0" encoding="UTF-8" standalone="no"?>
<!DOCTYPE svg PUBLIC "-//W3C//DTD SVG 1.1//EN"
 "http://www.w3.org/Graphics/SVG/1.1/DTD/svg11.dtd">
<!-- Generated by graphviz version 12.2.1 (20241206.2353)
 -->
<!-- Title: tm Pages: 1 -->
<svg width="1124pt" height="690pt"
 viewBox="0.00 0.00 1124.00 690.32" xmlns="http://www.w3.org/2000/svg" xmlns:xlink="http://www.w3.org/1999/xlink">
<g id="graph0" class="graph" transform="scale(1 1) rotate(0) translate(4 686.32)">
<title>tm</title>
<polygon fill="white" stroke="none" points="-4,4 -4,-686.32 1120,-686.32 1120,4 -4,4"/>
<g id="clust1" class="cluster">
<title>cluster_boundary_BackendNodeJSAPI_88f2d9c06f</title>
<polygon fill="none" stroke="#ee2c2c" stroke-dasharray="5,2" points="8,-8 8,-546.19 363,-546.19 363,-8 8,-8"/>
<text text-anchor="start" x="131.88" y="-533.69" font-family="Arial" font-style="italic" font-size="10.00">Backend (NodeJS\nAPI)</text>
</g>
<g id="clust2" class="cluster">
<title>cluster_boundary_Database_579e9aae81</title>
<polygon fill="none" stroke="#ee2c2c" stroke-dasharray="5,2" points="1038,-237.48 1038,-309.48 1108,-309.48 1108,-237.48 1038,-237.48"/>
<text text-anchor="start" x="1052" y="-296.98" font-family="Arial" font-style="italic" font-size="10.00">Database</text>
</g>
<g id="clust3" class="cluster">
<title>cluster_boundary_FrontendReactSPA_acf3059e70</title>
<polygon fill="none" stroke="#ee2c2c" stroke-dasharray="5,2" points="701,-218.73 701,-535.24 1030,-535.24 1030,-218.73 701,-218.73"/>
<text text-anchor="start" x="814.88" y="-522.74" font-family="Arial" font-style="italic" font-size="10.00">Frontend (React\nSPA)</text>
</g>
<!-- process_RefundController_2c440ebe53 -->
<g id="node1" class="node">
<title>process_RefundController_2c440ebe53</title>
<ellipse fill="none" stroke="black" cx="278" cy="-456.91" rx="61.28" ry="61.28"/>
<text text-anchor="middle" x="278" y="-451.48" font-family="Arial" font-size="14.00">RefundController</text>
</g>
<!-- process_RefundService_0291419f72 -->
<g id="node2" class="node">
<title>process_RefundService_0291419f72</title>
<ellipse fill="none" stroke="black" cx="176" cy="-263.48" rx="53.4" ry="53.4"/>
<text text-anchor="middle" x="176" y="-258.05" font-family="Arial" font-size="14.00">RefundService</text>
</g>
<!-- process_RefundController_2c440ebe53&#45;&gt;process_RefundService_0291419f72 -->
<g id="edge4" class="edge">
<title>process_RefundController_2c440ebe53&#45;&gt;process_RefundService_0291419f72</title>
<path fill="none" stroke="black" d="M216.65,-450.35C169.37,-442.48 106.94,-423.48 75.5,-377.62 64.76,-361.95 66.73,-351.73 75.5,-334.87 84.75,-317.1 100.77,-302.89 117.33,-292.01"/>
<polygon fill="black" stroke="black" points="119.13,-295.02 125.81,-286.79 115.46,-289.06 119.13,-295.02"/>
<text text-anchor="middle" x="124.25" y="-359.1" font-family="Arial" font-size="12.00">(4) Process refund</text>
<text text-anchor="middle" x="124.25" y="-344.85" font-family="Arial" font-size="12.00">request</text>
</g>
<!-- process_APIClient_f8af758679 -->
<g id="node6" class="node">
<title>process_APIClient_f8af758679</title>
<ellipse fill="none" stroke="black" cx="763" cy="-263.48" rx="36.74" ry="36.74"/>
<text text-anchor="middle" x="763" y="-258.05" font-family="Arial" font-size="14.00">API Client</text>
</g>
<!-- process_RefundController_2c440ebe53&#45;&gt;process_APIClient_f8af758679 -->
<g id="edge10" class="edge">
<title>process_RefundController_2c440ebe53&#45;&gt;process_APIClient_f8af758679</title>
<path fill="none" stroke="black" d="M318.14,-410.17C343.45,-384.18 378.26,-353.25 415.25,-334.87 514.06,-285.77 644.86,-270.91 714.5,-266.42"/>
<polygon fill="black" stroke="black" points="714.67,-269.92 724.44,-265.83 714.25,-262.93 714.67,-269.92"/>
<text text-anchor="middle" x="462.12" y="-359.1" font-family="Arial" font-size="12.00">(10) Return</text>
<text text-anchor="middle" x="462.12" y="-344.85" font-family="Arial" font-size="12.00">response to client</text>
</g>
<!-- process_RefundService_0291419f72&#45;&gt;process_RefundController_2c440ebe53 -->
<g id="edge9" class="edge">
<title>process_RefundService_0291419f72&#45;&gt;process_RefundController_2c440ebe53</title>
<path fill="none" stroke="black" d="M200.9,-311.21C213.91,-335.62 230.02,-365.86 244.15,-392.37"/>
<polygon fill="black" stroke="black" points="240.95,-393.81 248.74,-400.99 247.13,-390.52 240.95,-393.81"/>
<text text-anchor="middle" x="282.26" y="-366.22" font-family="Arial" font-size="12.00">(9) Return</text>
<text text-anchor="middle" x="282.26" y="-351.97" font-family="Arial" font-size="12.00">processed refund</text>
<text text-anchor="middle" x="282.26" y="-337.72" font-family="Arial" font-size="12.00">status</text>
</g>
<!-- process_RefundRepository_c76a0a7067 -->
<g id="node3" class="node">
<title>process_RefundRepository_c76a0a7067</title>
<ellipse fill="none" stroke="black" cx="276" cy="-80.79" rx="64.79" ry="64.79"/>
<text text-anchor="middle" x="276" y="-75.37" font-family="Arial" font-size="14.00">RefundRepository</text>
</g>
<!-- process_RefundService_0291419f72&#45;&gt;process_RefundRepository_c76a0a7067 -->
<g id="edge5" class="edge">
<title>process_RefundService_0291419f72&#45;&gt;process_RefundRepository_c76a0a7067</title>
<path fill="none" stroke="black" d="M127.33,-240.71C92.87,-222.11 56.07,-193.65 76.25,-163.58 103.88,-122.42 156.29,-101.96 200.5,-91.79"/>
<polygon fill="black" stroke="black" points="201.02,-95.26 210.06,-89.74 199.55,-88.42 201.02,-95.26"/>
<text text-anchor="middle" x="124.62" y="-180.68" font-family="Arial" font-size="12.00">(5) Update refund</text>
<text text-anchor="middle" x="124.62" y="-166.43" font-family="Arial" font-size="12.00">status in database</text>
</g>
<!-- process_RefundRepository_c76a0a7067&#45;&gt;process_RefundService_0291419f72 -->
<g id="edge8" class="edge">
<title>process_RefundRepository_c76a0a7067&#45;&gt;process_RefundService_0291419f72</title>
<path fill="none" stroke="black" d="M244.84,-138.1C232.81,-159.83 219.08,-184.64 207.06,-206.35"/>
<polygon fill="black" stroke="black" points="204.01,-204.65 202.23,-215.09 210.13,-208.04 204.01,-204.65"/>
<text text-anchor="middle" x="275.12" y="-180.68" font-family="Arial" font-size="12.00">(8) Return data to</text>
<text text-anchor="middle" x="275.12" y="-166.43" font-family="Arial" font-size="12.00">service layer</text>
</g>
<!-- datastore_RefundRequestsTable_c6f87088c2 -->
<g id="node4" class="node">
<title>datastore_RefundRequestsTable_c6f87088c2</title>
<image xlink:href="C:\Users\parra\AppData\Local\Packages\PythonSoftwareFoundation.Python.3.11_qbz5n2kfra8p0\LocalCache\local-packages\Python311\site-packages\pytm\images\datastore_black.png" width="49.6px" height="36px" preserveAspectRatio="xMinYMin meet" x="1048.2" y="-281.477"/>
<text text-anchor="middle" x="995.75" y="-299.68" font-family="Arial" font-size="14.00">RefundRequests</text>
<text text-anchor="middle" x="995.75" y="-283.93" font-family="Arial" font-size="14.00">Table</text>
</g>
<!-- process_RefundRepository_c76a0a7067&#45;&gt;datastore_RefundRequestsTable_c6f87088c2 -->
<g id="edge6" class="edge">
<title>process_RefundRepository_c76a0a7067&#45;&gt;datastore_RefundRequestsTable_c6f87088c2</title>
<path fill="none" stroke="black" d="M338.66,-98.89C432.44,-123.74 615.22,-169.36 773.5,-192.08 832.69,-200.58 991.07,-178.74 1042,-210.08 1051.35,-215.84 1058.22,-225.55 1063.08,-235.06"/>
<polygon fill="black" stroke="black" points="1059.85,-236.41 1067.12,-244.11 1066.24,-233.55 1059.85,-236.41"/>
<text text-anchor="middle" x="819.25" y="-180.68" font-family="Arial" font-size="12.00">(6) Query/Update</text>
<text text-anchor="middle" x="819.25" y="-166.43" font-family="Arial" font-size="12.00">refund request</text>
</g>
<!-- datastore_RefundRequestsTable_c6f87088c2&#45;&gt;process_RefundRepository_c76a0a7067 -->
<g id="edge7" class="edge">
<title>datastore_RefundRequestsTable_c6f87088c2&#45;&gt;process_RefundRepository_c76a0a7067</title>
<path fill="none" stroke="black" d="M1066.89,-245.52C1061.89,-233.94 1053.71,-219.12 1042,-210.08 982.36,-164.06 952.74,-179.02 879,-163.58 691.55,-124.34 467.22,-99.66 352.23,-88.6"/>
<polygon fill="black" stroke="black" points="352.56,-85.12 342.28,-87.65 351.9,-92.08 352.56,-85.12"/>
<text text-anchor="middle" x="1058.78" y="-180.68" font-family="Arial" font-size="12.00">(7) Return update</text>
<text text-anchor="middle" x="1058.78" y="-166.43" font-family="Arial" font-size="12.00">confirmation</text>
</g>
<!-- process_RefundsView_d2006ce1bb -->
<g id="node5" class="node">
<title>process_RefundsView_d2006ce1bb</title>
<ellipse fill="none" stroke="black" cx="861" cy="-456.91" rx="50.33" ry="50.33"/>
<text text-anchor="middle" x="861" y="-451.48" font-family="Arial" font-size="14.00">Refunds View</text>
</g>
<!-- process_RefundsView_d2006ce1bb&#45;&gt;process_APIClient_f8af758679 -->
<g id="edge2" class="edge">
<title>process_RefundsView_d2006ce1bb&#45;&gt;process_APIClient_f8af758679</title>
<path fill="none" stroke="black" d="M817.96,-430.91C799.31,-417.63 779.3,-399.51 768.5,-377.62 758.55,-357.46 756.39,-332.74 757.05,-311.55"/>
<polygon fill="black" stroke="black" points="760.53,-311.89 757.59,-301.71 753.54,-311.5 760.53,-311.89"/>
<text text-anchor="middle" x="809.75" y="-359.1" font-family="Arial" font-size="12.00">(2) Send refund</text>
<text text-anchor="middle" x="809.75" y="-344.85" font-family="Arial" font-size="12.00">request to API</text>
</g>
<!-- process_APIClient_f8af758679&#45;&gt;process_RefundController_2c440ebe53 -->
<g id="edge3" class="edge">
<title>process_APIClient_f8af758679&#45;&gt;process_RefundController_2c440ebe53</title>
<path fill="none" stroke="black" d="M730.82,-281.72C685.99,-305.31 601.81,-348.1 527,-377.62 467.7,-401.02 398.38,-422.34 347.96,-436.81"/>
<polygon fill="black" stroke="black" points="347.3,-433.36 338.64,-439.46 349.21,-440.09 347.3,-433.36"/>
<text text-anchor="middle" x="669.89" y="-359.1" font-family="Arial" font-size="12.00">(3) Forward refund</text>
<text text-anchor="middle" x="669.89" y="-344.85" font-family="Arial" font-size="12.00">request to backend</text>
</g>
<!-- process_APIClient_f8af758679&#45;&gt;process_RefundsView_d2006ce1bb -->
<g id="edge11" class="edge">
<title>process_APIClient_f8af758679&#45;&gt;process_RefundsView_d2006ce1bb</title>
<path fill="none" stroke="black" d="M797.22,-277.83C820.97,-289.12 850.8,-307.82 865,-334.87 874.77,-353.49 876.3,-376.02 874.53,-396.58"/>
<polygon fill="black" stroke="black" points="871.08,-395.92 873.42,-406.25 878.04,-396.72 871.08,-395.92"/>
<text text-anchor="middle" x="915.51" y="-366.22" font-family="Arial" font-size="12.00">(11) Display</text>
<text text-anchor="middle" x="915.51" y="-351.97" font-family="Arial" font-size="12.00">refund status to</text>
<text text-anchor="middle" x="915.51" y="-337.72" font-family="Arial" font-size="12.00">support staff</text>
</g>
<!-- actor_SupportStaff_f2eb7a3ff7 -->
<g id="node7" class="node">
<title>actor_SupportStaff_f2eb7a3ff7</title>
<polygon fill="none" stroke="black" points="901.82,-682.32 820.18,-682.32 820.18,-600.69 901.82,-600.69 901.82,-682.32"/>
<text text-anchor="middle" x="861" y="-636.08" font-family="Arial" font-size="14.00">Support Staff</text>
</g>
<!-- actor_SupportStaff_f2eb7a3ff7&#45;&gt;process_RefundsView_d2006ce1bb -->
<g id="edge1" class="edge">
<title>actor_SupportStaff_f2eb7a3ff7&#45;&gt;process_RefundsView_d2006ce1bb</title>
<path fill="none" stroke="black" d="M861,-600.43C861,-576.55 861,-545.75 861,-518.9"/>
<polygon fill="black" stroke="black" points="864.5,-519.18 861,-509.18 857.5,-519.18 864.5,-519.18"/>
<text text-anchor="middle" x="908.25" y="-571.29" font-family="Arial" font-size="12.00">(1) Clicks &#39;Handle</text>
<text text-anchor="middle" x="908.25" y="-557.04" font-family="Arial" font-size="12.00">Refund&#39;</text>
</g>
</g>
</svg>
