<?xml version="1.0" encoding="us-ascii" standalone="no"?><svg xmlns="http://www.w3.org/2000/svg" xmlns:xlink="http://www.w3.org/1999/xlink" contentStyleType="text/css" height="466px" preserveAspectRatio="none" style="width:1004px;height:466px;background:#FFFFFF;" version="1.1" viewBox="0 0 1004 466" width="1004px" zoomAndPan="magnify"><defs/><g><text fill="#000000" font-family="sans-serif" font-size="14" font-weight="bold" lengthAdjust="spacing" textLength="265" x="368.5" y="29.5332">eGameShop - Handle Refund Request</text><rect fill="#FFFFFF" height="212.4609" style="stroke:#181818;stroke-width:1.0;" width="10" x="273" y="153.5703"/><rect fill="#FFFFFF" height="151.7578" style="stroke:#181818;stroke-width:1.0;" width="10" x="476" y="183.9219"/><rect fill="#FFFFFF" height="91.0547" style="stroke:#181818;stroke-width:1.0;" width="10" x="687" y="214.2734"/><rect fill="#FFFFFF" height="30.3516" style="stroke:#181818;stroke-width:1.0;" width="10" x="929" y="244.625"/><line style="stroke:#181818;stroke-width:0.5;stroke-dasharray:5.0,5.0;" x1="33" x2="33" y1="121.2188" y2="384.0313"/><line style="stroke:#181818;stroke-width:0.5;stroke-dasharray:5.0,5.0;" x1="277.5" x2="277.5" y1="121.2188" y2="384.0313"/><line style="stroke:#181818;stroke-width:0.5;stroke-dasharray:5.0,5.0;" x1="481" x2="481" y1="121.2188" y2="384.0313"/><line style="stroke:#181818;stroke-width:0.5;stroke-dasharray:5.0,5.0;" x1="691.5" x2="691.5" y1="121.2188" y2="384.0313"/><line style="stroke:#181818;stroke-width:0.5;stroke-dasharray:5.0,5.0;" x1="934" x2="934" y1="121.2188" y2="384.0313"/><text fill="#000000" font-family="sans-serif" font-size="14" lengthAdjust="spacing" textLength="50" x="5" y="118.1426">Support</text><ellipse cx="33" cy="52.1094" fill="#E2E2F0" rx="8" ry="8" style="stroke:#181818;stroke-width:0.5;"/><path d="M33,60.1094 L33,87.1094 M20,68.1094 L46,68.1094 M33,87.1094 L20,102.1094 M33,87.1094 L46,102.1094 " fill="none" style="stroke:#181818;stroke-width:0.5;"/><text fill="#000000" font-family="sans-serif" font-size="14" lengthAdjust="spacing" textLength="50" x="5" y="397.5645">Support</text><ellipse cx="33" cy="409.1406" fill="#E2E2F0" rx="8" ry="8" style="stroke:#181818;stroke-width:0.5;"/><path d="M33,417.1406 L33,444.1406 M20,425.1406 L46,425.1406 M33,444.1406 L20,459.1406 M33,444.1406 L46,459.1406 " fill="none" style="stroke:#181818;stroke-width:0.5;"/><rect fill="#E2E2F0" height="31.6094" rx="2.5" ry="2.5" style="stroke:#181818;stroke-width:0.5;" width="75" x="240.5" y="88.6094"/><text fill="#000000" font-family="sans-serif" font-size="14" lengthAdjust="spacing" textLength="61" x="247.5" y="110.1426">API Client</text><rect fill="#E2E2F0" height="31.6094" rx="2.5" ry="2.5" style="stroke:#181818;stroke-width:0.5;" width="75" x="240.5" y="383.0313"/><text fill="#000000" font-family="sans-serif" font-size="14" lengthAdjust="spacing" textLength="61" x="247.5" y="404.5645">API Client</text><rect fill="#E2E2F0" height="31.6094" rx="2.5" ry="2.5" style="stroke:#181818;stroke-width:0.5;" width="122" x="420" y="88.6094"/><text fill="#000000" font-family="sans-serif" font-size="14" lengthAdjust="spacing" textLength="108" x="427" y="110.1426">RefundController</text><rect fill="#E2E2F0" height="31.6094" rx="2.5" ry="2.5" style="stroke:#181818;stroke-width:0.5;" width="122" x="420" y="383.0313"/><text fill="#000000" font-family="sans-serif" font-size="14" lengthAdjust="spacing" textLength="108" x="427" y="404.5645">RefundController</text><rect fill="#E2E2F0" height="31.6094" rx="2.5" ry="2.5" style="stroke:#181818;stroke-width:0.5;" width="107" x="638.5" y="88.6094"/><text fill="#000000" font-family="sans-serif" font-size="14" lengthAdjust="spacing" textLength="93" x="645.5" y="110.1426">RefundService</text><rect fill="#E2E2F0" height="31.6094" rx="2.5" ry="2.5" style="stroke:#181818;stroke-width:0.5;" width="107" x="638.5" y="383.0313"/><text fill="#000000" font-family="sans-serif" font-size="14" lengthAdjust="spacing" textLength="93" x="645.5" y="404.5645">RefundService</text><rect fill="#E2E2F0" height="31.6094" rx="2.5" ry="2.5" style="stroke:#181818;stroke-width:0.5;" width="128" x="870" y="88.6094"/><text fill="#000000" font-family="sans-serif" font-size="14" lengthAdjust="spacing" textLength="114" x="877" y="110.1426">RefundRepository</text><rect fill="#E2E2F0" height="31.6094" rx="2.5" ry="2.5" style="stroke:#181818;stroke-width:0.5;" width="128" x="870" y="383.0313"/><text fill="#000000" font-family="sans-serif" font-size="14" lengthAdjust="spacing" textLength="114" x="877" y="404.5645">RefundRepository</text><rect fill="#FFFFFF" height="212.4609" style="stroke:#181818;stroke-width:1.0;" width="10" x="273" y="153.5703"/><rect fill="#FFFFFF" height="151.7578" style="stroke:#181818;stroke-width:1.0;" width="10" x="476" y="183.9219"/><rect fill="#FFFFFF" height="91.0547" style="stroke:#181818;stroke-width:1.0;" width="10" x="687" y="214.2734"/><rect fill="#FFFFFF" height="30.3516" style="stroke:#181818;stroke-width:1.0;" width="10" x="929" y="244.625"/><polygon fill="#181818" points="261,149.5703,271,153.5703,261,157.5703,265,153.5703" style="stroke:#181818;stroke-width:1.0;"/><line style="stroke:#181818;stroke-width:1.0;" x1="33" x2="267" y1="153.5703" y2="153.5703"/><text fill="#000000" font-family="sans-serif" font-size="13" lengthAdjust="spacing" textLength="221" x="40" y="148.7139">POST /handleRefund {refundId, action}</text><polygon fill="#181818" points="464,179.9219,474,183.9219,464,187.9219,468,183.9219" style="stroke:#181818;stroke-width:1.0;"/><line style="stroke:#181818;stroke-width:1.0;" x1="283" x2="470" y1="183.9219" y2="183.9219"/><text fill="#000000" font-family="sans-serif" font-size="13" lengthAdjust="spacing" textLength="174" x="290" y="179.0654">handleRefund(refundId, action)</text><polygon fill="#181818" points="675,210.2734,685,214.2734,675,218.2734,679,214.2734" style="stroke:#181818;stroke-width:1.0;"/><line style="stroke:#181818;stroke-width:1.0;" x1="486" x2="681" y1="214.2734" y2="214.2734"/><text fill="#000000" font-family="sans-serif" font-size="13" lengthAdjust="spacing" textLength="182" x="493" y="209.417">processRefund(refundId, action)</text><polygon fill="#181818" points="917,240.625,927,244.625,917,248.625,921,244.625" style="stroke:#181818;stroke-width:1.0;"/><line style="stroke:#181818;stroke-width:1.0;" x1="697" x2="923" y1="244.625" y2="244.625"/><text fill="#000000" font-family="sans-serif" font-size="13" lengthAdjust="spacing" textLength="213" x="704" y="239.7686">updateRefundStatus(refundId, action)</text><polygon fill="#181818" points="708,270.9766,698,274.9766,708,278.9766,704,274.9766" style="stroke:#181818;stroke-width:1.0;"/><line style="stroke:#181818;stroke-width:1.0;stroke-dasharray:2.0,2.0;" x1="702" x2="933" y1="274.9766" y2="274.9766"/><text fill="#000000" font-family="sans-serif" font-size="13" lengthAdjust="spacing" textLength="115" x="714" y="270.1201">Update confirmation</text><polygon fill="#181818" points="497,301.3281,487,305.3281,497,309.3281,493,305.3281" style="stroke:#181818;stroke-width:1.0;"/><line style="stroke:#181818;stroke-width:1.0;stroke-dasharray:2.0,2.0;" x1="491" x2="691" y1="305.3281" y2="305.3281"/><text fill="#000000" font-family="sans-serif" font-size="13" lengthAdjust="spacing" textLength="161" x="503" y="300.4717">Refund processed response</text><polygon fill="#181818" points="294,331.6797,284,335.6797,294,339.6797,290,335.6797" style="stroke:#181818;stroke-width:1.0;"/><line style="stroke:#181818;stroke-width:1.0;stroke-dasharray:2.0,2.0;" x1="288" x2="480" y1="335.6797" y2="335.6797"/><text fill="#000000" font-family="sans-serif" font-size="13" lengthAdjust="spacing" textLength="135" x="300" y="330.8232">200 OK + refund status</text><polygon fill="#181818" points="44,362.0313,34,366.0313,44,370.0313,40,366.0313" style="stroke:#181818;stroke-width:1.0;"/><line style="stroke:#181818;stroke-width:1.0;stroke-dasharray:2.0,2.0;" x1="38" x2="277" y1="366.0313" y2="366.0313"/><text fill="#000000" font-family="sans-serif" font-size="13" lengthAdjust="spacing" textLength="178" x="50" y="361.1748">JSON response (refund status)</text><!--SRC=[ZPBFIWCn4CRlUOgXfnPTB1vx4AG7hO9Rkle0OJEbWMqIazc2YEzkkfjkid_4daA6Bx_CzysGf0e1d_WHYuCsaC4pLyANThYlbV37PusE6ECbQGj5ROosn0ot94jfk2AOFMutiAuaAfe1T-2lxQslQe5hhSZggaBRQ8V5gIS5sfCiCT67ofHuXqOxwLlzIlIno1WB5Y1xY9t22hPvyGvtXyPyyFvjctCZRi6xbrhzd5EG9qwOc8mGJnpwyU0KEHyI5v4uYcB4wlZ1luSRgqjqxbhw9RW-fkF6d3owDi8_34hYLBl_-KdG8s8sqVv7ymUKMksbFV8pamdy6pfiV3hnCBwG3Ggmw8nM3iViVY1freFrk5yk8N-56sWp0DSaCWOcyqiMmyCkQxU2bo9_wrg2UG-uI8bnntu1]--></g></svg>