<svg xmlns="http://www.w3.org/2000/svg" xmlns:xlink="http://www.w3.org/1999/xlink" contentStyleType="text/css" data-diagram-type="DESCRIPTION" height="456px" preserveAspectRatio="none" style="width:2111px;height:456px;background:#F9F9F9;" version="1.1" viewBox="0 0 2111 456" width="2111px" zoomAndPan="magnify"><defs/><g><rect fill="#F9F9F9" height="456" style="stroke:transparent;stroke-width:1;" width="2111" x="0" y="0"/><!--cluster Refund Flow--><g id="cluster_Refund Flow"><rect fill="transparent" height="271" rx="2.5" ry="2.5" style="stroke:#181818;stroke-width:1;" width="905" x="105" y="39"/><text fill="#000000" font-family="sans-serif" font-size="14" font-weight="bold" lengthAdjust="spacing" textLength="98.1094" x="508.4453" y="53.9951">Refund Flow</text></g><g id="elem_Handle refund request"><ellipse cx="218.1362" cy="271.8272" fill="#FFFFFF" rx="97.1362" ry="21.8272" style="stroke:#000000;stroke-width:0.5;"/><text fill="#000000" font-family="sans-serif" font-size="14" lengthAdjust="spacing" textLength="157.7256" x="139.2734" y="274.6739">Handle refund request</text></g><g id="elem_Application/Server"><ellipse cx="514.8617" cy="188.7723" fill="#FFFFFF" rx="84.3617" ry="19.2723" style="stroke:#000000;stroke-width:0.5;"/><text fill="#000000" font-family="sans-serif" font-size="14" lengthAdjust="spacing" textLength="128.8506" x="450.2943" y="191.6681">Application/Server</text></g><g id="elem_Validate refund conditions"><ellipse cx="854.2971" cy="98.7594" fill="#FFFFFF" rx="109.2971" ry="24.2594" style="stroke:#000000;stroke-width:0.5;"/><text fill="#000000" font-family="sans-serif" font-size="14" lengthAdjust="spacing" textLength="184.3584" x="762.1179" y="101.6061">Validate refund conditions</text></g><g id="elem_Log refund request"><ellipse cx="854.4289" cy="178.1858" fill="#FFFFFF" rx="86.4289" ry="19.6858" style="stroke:#000000;stroke-width:0.5;"/><text fill="#000000" font-family="sans-serif" font-size="14" lengthAdjust="spacing" textLength="133.6084" x="787.6247" y="181.0325">Log refund request</text></g><g id="elem_Restrict refund approval to Support"><ellipse cx="854.4799" cy="262.796" fill="#FFFFFF" rx="139.4799" ry="30.296" style="stroke:#000000;stroke-width:0.5;"/><text fill="#000000" font-family="sans-serif" font-size="14" lengthAdjust="spacing" textLength="248.5137" x="730.2231" y="265.6427">Restrict refund approval to Support</text></g><!--entity Support--><g id="elem_Support"><ellipse cx="33.6719" cy="242.5" fill="#F1F1F1" rx="8" ry="8" style="stroke:#181818;stroke-width:0.5;"/><path d="M33.6719,250.5 L33.6719,277.5 M20.6719,258.5 L46.6719,258.5 M33.6719,277.5 L20.6719,292.5 M33.6719,277.5 L46.6719,292.5 " fill="transparent" style="stroke:#181818;stroke-width:0.5;"/><text fill="#000000" font-family="sans-serif" font-size="14" lengthAdjust="spacing" textLength="55.3438" x="6" y="306.9951">Support</text></g><!--entity Attacker--><g id="elem_Attacker"><ellipse cx="2074.6543" cy="202.5" fill="#FF0000" rx="8" ry="8" style="stroke:#181818;stroke-width:0.5;"/><path d="M2074.6543,210.5 L2074.6543,237.5 M2061.6543,218.5 L2087.6543,218.5 M2074.6543,237.5 L2061.6543,252.5 M2074.6543,237.5 L2087.6543,252.5 " fill="transparent" style="stroke:#181818;stroke-width:0.5;"/><text fill="#000000" font-family="sans-serif" font-size="14" lengthAdjust="spacing" textLength="59.3086" x="2045" y="266.9951">Attacker</text></g><g id="elem_Tamper order ID"><ellipse cx="854.7258" cy="357.1452" fill="#FFFFFF" rx="78.7258" ry="18.1452" style="stroke:#000000;stroke-width:0.5;"/><text fill="#000000" font-family="sans-serif" font-size="14" lengthAdjust="spacing" textLength="115.4111" x="794.8604" y="360.6673">Tamper order ID</text></g><g id="elem_Bypass refund time window"><ellipse cx="1523.2511" cy="32.1502" fill="#FFFFFF" rx="113.7511" ry="25.1502" style="stroke:#000000;stroke-width:0.5;"/><text fill="#000000" font-family="sans-serif" font-size="14" lengthAdjust="spacing" textLength="193.9697" x="1426.2662" y="34.9969">Bypass refund time window</text></g><g id="elem_Avoid detection or accountability"><ellipse cx="1523.4699" cy="176.194" fill="#FFFFFF" rx="131.4699" ry="28.694" style="stroke:#000000;stroke-width:0.5;"/><text fill="#000000" font-family="sans-serif" font-size="14" lengthAdjust="spacing" textLength="231.6768" x="1407.6315" y="179.0407">Avoid detection or accountability</text></g><g id="elem_Privilege escalation to approve own refund"><ellipse cx="1523.4418" cy="274.7884" fill="#FFFFFF" rx="164.4418" ry="35.2884" style="stroke:#000000;stroke-width:0.5;"/><text fill="#000000" font-family="sans-serif" font-size="14" lengthAdjust="spacing" textLength="300.4326" x="1373.2255" y="277.635">Privilege escalation to approve own refund</text></g><g id="elem_Manipulate API body manually"><ellipse cx="1176.4065" cy="423.8813" fill="#FFFFFF" rx="122.4065" ry="26.8813" style="stroke:#000000;stroke-width:0.5;"/><text fill="#000000" font-family="sans-serif" font-size="14" lengthAdjust="spacing" textLength="212.4814" x="1070.1657" y="426.728">Manipulate API body manually</text></g><g id="elem_Forge client-side timestamps"><ellipse cx="1866.3229" cy="59.0646" fill="#FFFFFF" rx="118.3229" ry="26.0646" style="stroke:#000000;stroke-width:0.5;"/><text fill="#000000" font-family="sans-serif" font-size="14" lengthAdjust="spacing" textLength="203.7725" x="1764.4366" y="61.9113">Forge client-side timestamps</text></g><g id="elem_Clear or skip logs"><ellipse cx="1866.5683" cy="182.1137" fill="#FFFFFF" rx="81.0683" ry="18.6137" style="stroke:#000000;stroke-width:0.5;"/><text fill="#000000" font-family="sans-serif" font-size="14" lengthAdjust="spacing" textLength="121.0986" x="1804.7484" y="185.3754">Clear or skip logs</text></g><g id="elem_Impersonate support role"><ellipse cx="1866.3275" cy="270.1655" fill="#FFFFFF" rx="106.3275" ry="23.6655" style="stroke:#000000;stroke-width:0.5;"/><text fill="#000000" font-family="sans-serif" font-size="14" lengthAdjust="spacing" textLength="177.9121" x="1777.3715" y="273.0122">Impersonate support role</text></g><g id="elem_Use signed order reference or UUID"><ellipse cx="515.0052" cy="356.901" fill="#FFFFFF" rx="140.0052" ry="30.401" style="stroke:#000000;stroke-width:0.5;"/><text fill="#000000" font-family="sans-serif" font-size="14" lengthAdjust="spacing" textLength="249.6143" x="390.1981" y="359.7477">Use signed order reference or UUID</text></g><g id="elem_Check server-side timestamp"><ellipse cx="1176.6483" cy="32.2297" fill="#FFFFFF" rx="119.1483" ry="26.2297" style="stroke:#000000;stroke-width:0.5;"/><text fill="#000000" font-family="sans-serif" font-size="14" lengthAdjust="spacing" textLength="205.5361" x="1073.8802" y="35.0763">Check server-side timestamp</text></g><g id="elem_Immutable audit logging"><ellipse cx="1176.7235" cy="187.1447" fill="#FFFFFF" rx="103.7235" ry="23.1447" style="stroke:#000000;stroke-width:0.5;"/><text fill="#000000" font-family="sans-serif" font-size="14" lengthAdjust="spacing" textLength="172.2314" x="1090.6078" y="189.9914">Immutable audit logging</text></g><g id="elem_RoleGuard enforcement"><ellipse cx="1176.7238" cy="339.2448" fill="#FFFFFF" rx="101.7238" ry="22.7448" style="stroke:#000000;stroke-width:0.5;"/><text fill="#000000" font-family="sans-serif" font-size="14" lengthAdjust="spacing" textLength="167.8496" x="1092.799" y="342.0914">RoleGuard enforcement</text></g><!--link Support to Handle refund request--><g id="link_Support_Handle refund request"><path d="M61.12,272 C77.31,272 92.82,272 114.72,272 " fill="transparent" id="Support-to-Handle refund request" style="stroke:#181818;stroke-width:1;"/><polygon fill="#181818" points="120.72,272,111.72,268,115.72,272,111.72,276,120.72,272" style="stroke:#181818;stroke-width:1;"/></g><!--link Handle refund request to Application/Server--><g id="link_Handle refund request_Application/Server"><path d="M301.92,260.88 C389.74,260.88 515,260.88 515,260.88 C515,260.88 515,235.92 515,214.64 " fill="transparent" id="Handle refund request-to-Application/Server" style="stroke:#181818;stroke-width:1;"/><polygon fill="#181818" points="515,208.64,511,217.64,515,213.64,519,217.64,515,208.64" style="stroke:#181818;stroke-width:1;"/></g><!--link Application/Server to Validate refund conditions--><g id="link_Application/Server_Validate refund conditions"><path d="M587.28,178.83 C658.59,178.83 757,178.83 757,178.83 C757,178.83 757,138.51 757,116.44 " fill="transparent" id="Application/Server-to-Validate refund conditions" style="stroke:#181818;stroke-width:1;"/><polygon fill="#181818" points="757,110.44,753,119.44,757,115.44,761,119.44,757,110.44" style="stroke:#181818;stroke-width:1;"/></g><!--link Application/Server to Log refund request--><g id="link_Application/Server_Log refund request"><path d="M599.79,188.17 C655.38,188.17 721.33,188.17 774.58,188.17 " fill="transparent" id="Application/Server-to-Log refund request" style="stroke:#181818;stroke-width:1;"/><polygon fill="#181818" points="780.58,188.17,771.58,184.17,775.58,188.17,771.58,192.17,780.58,188.17" style="stroke:#181818;stroke-width:1;"/></g><!--link Application/Server to Restrict refund approval to Support--><g id="link_Application/Server_Restrict refund approval to Support"><path d="M574.03,203 C637.68,203 730,203 730,203 C730,203 730,225.36 730,243.08 " fill="transparent" id="Application/Server-to-Restrict refund approval to Support" style="stroke:#181818;stroke-width:1;"/><polygon fill="#181818" points="730,249.08,734,240.08,730,244.08,726,240.08,730,249.08" style="stroke:#181818;stroke-width:1;"/></g><!--link Handle refund request to Tamper order ID--><g id="link_Handle refund request_Tamper order ID"><path d="M315.05,271.75 C451.87,271.75 685,271.75 685,271.75 C685,271.75 685,351 685,351 C685,351 728.61,351 774.15,351 " fill="transparent" id="Handle refund request-to-Tamper order ID" style="stroke:#FF0000;stroke-width:1;"/><polygon fill="#FF0000" points="780.15,351,771.15,347,775.15,351,771.15,355,780.15,351" style="stroke:#FF0000;stroke-width:1;"/><text fill="#000000" font-family="sans-serif" font-size="13" lengthAdjust="spacing" textLength="81.5039" x="505.23" y="284.8169">&#171;Threatens&#187;</text></g><!--link Validate refund conditions to Bypass refund time window--><g id="link_Validate refund conditions_Bypass refund time window"><path d="M931.3,81.5 C1107.16,81.5 1524,81.5 1524,81.5 C1524,81.5 1524,75.32 1524,63.04 " fill="transparent" id="Validate refund conditions-to-Bypass refund time window" style="stroke:#FF0000;stroke-width:1;"/><polygon fill="#FF0000" points="1524,57.04,1520,66.04,1524,62.04,1528,66.04,1524,57.04" style="stroke:#FF0000;stroke-width:1;"/><text fill="#000000" font-family="sans-serif" font-size="13" lengthAdjust="spacing" textLength="81.5039" x="1157.88" y="94.5669">&#171;Threatens&#187;</text></g><!--link Log refund request to Avoid detection or accountability--><g id="link_Log refund request_Avoid detection or accountability"><path d="M855,158.3 C855,155.2 855,153 855,153 C855,153 1263.68,153 1439.83,153 " fill="transparent" id="Log refund request-to-Avoid detection or accountability" style="stroke:#FF0000;stroke-width:1;"/><polygon fill="#FF0000" points="1445.83,153,1436.83,149,1440.83,153,1436.83,157,1445.83,153" style="stroke:#FF0000;stroke-width:1;"/><text fill="#000000" font-family="sans-serif" font-size="13" lengthAdjust="spacing" textLength="81.5039" x="1065.77" y="149.0669">&#171;Threatens&#187;</text></g><!--link Restrict refund approval to Support to Privilege escalation to approve own refund--><g id="link_Restrict refund approval to Support_Privilege escalation to approve own refund"><path d="M993.12,266.5 C1100.95,266.5 1244.71,266.5 1357.61,266.5 " fill="transparent" id="Restrict refund approval to Support-to-Privilege escalation to approve own refund" style="stroke:#FF0000;stroke-width:1;"/><polygon fill="#FF0000" points="1363.61,266.5,1354.61,262.5,1358.61,266.5,1354.61,270.5,1363.61,266.5" style="stroke:#FF0000;stroke-width:1;"/><text fill="#000000" font-family="sans-serif" font-size="13" lengthAdjust="spacing" textLength="81.5039" x="1096.36" y="279.5669">&#171;Threatens&#187;</text></g><!--link Tamper order ID to Manipulate API body manually--><g id="link_Tamper order ID_Manipulate API body manually"><path d="M915.97,368.25 C979.04,368.25 1068,368.25 1068,368.25 C1068,368.25 1068,388.9 1068,405.35 " fill="transparent" id="Tamper order ID-to-Manipulate API body manually" style="stroke:#181818;stroke-width:1;"/><polygon fill="#181818" points="1068,411.35,1072,402.35,1068,406.35,1064,402.35,1068,411.35" style="stroke:#181818;stroke-width:1;"/></g><!--link Manipulate API body manually to Attacker--><g id="link_Manipulate API body manually_Attacker"><path d="M1288,412.8 C1288,372.33 1288,236 1288,236 C1288,236 1894.96,236 2038.63,236 " fill="transparent" id="Manipulate API body manually-to-Attacker" style="stroke:#181818;stroke-width:1;"/><polygon fill="#181818" points="2044.63,236,2035.63,232,2039.63,236,2035.63,240,2044.63,236" style="stroke:#181818;stroke-width:1;"/></g><!--link Bypass refund time window to Forge client-side timestamps--><g id="link_Bypass refund time window_Forge client-side timestamps"><path d="M1621.33,45 C1666.77,45 1714.74,45 1760.45,45 " fill="transparent" id="Bypass refund time window-to-Forge client-side timestamps" style="stroke:#181818;stroke-width:1;"/><polygon fill="#181818" points="1766.45,45,1757.45,41,1761.45,45,1757.45,49,1766.45,45" style="stroke:#181818;stroke-width:1;"/></g><!--link Forge client-side timestamps to Attacker--><g id="link_Forge client-side timestamps_Attacker"><path d="M1979,67.27 C1979,100.33 1979,221.25 1979,221.25 C1979,221.25 2010.77,221.25 2038.81,221.25 " fill="transparent" id="Forge client-side timestamps-to-Attacker" style="stroke:#181818;stroke-width:1;"/><polygon fill="#181818" points="2044.81,221.25,2035.81,217.25,2039.81,221.25,2035.81,225.25,2044.81,221.25" style="stroke:#181818;stroke-width:1;"/></g><!--link Avoid detection or accountability to Clear or skip logs--><g id="link_Avoid detection or accountability_Clear or skip logs"><path d="M1652.2,182 C1696.87,182 1739.68,182 1779.42,182 " fill="transparent" id="Avoid detection or accountability-to-Clear or skip logs" style="stroke:#181818;stroke-width:1;"/><polygon fill="#181818" points="1785.42,182,1776.42,178,1780.42,182,1776.42,186,1785.42,182" style="stroke:#181818;stroke-width:1;"/></g><!--link Clear or skip logs to Attacker--><g id="link_Clear or skip logs_Attacker"><path d="M1946.52,178.75 C2005.31,178.75 2075,178.75 2075,178.75 C2075,178.75 2075,179.33 2075,187.87 " fill="transparent" id="Clear or skip logs-to-Attacker" style="stroke:#181818;stroke-width:1;"/><polygon fill="#181818" points="2075,193.87,2079,184.87,2075,188.87,2071,184.87,2075,193.87" style="stroke:#181818;stroke-width:1;"/></g><!--link Privilege escalation to approve own refund to Impersonate support role--><g id="link_Privilege escalation to approve own refund_Impersonate support role"><path d="M1686.46,270 C1711.35,270 1730.48,270 1753.75,270 " fill="transparent" id="Privilege escalation to approve own refund-to-Impersonate support role" style="stroke:#181818;stroke-width:1;"/><polygon fill="#181818" points="1759.75,270,1750.75,266,1754.75,270,1750.75,274,1759.75,270" style="stroke:#181818;stroke-width:1;"/></g><!--link Impersonate support role to Attacker--><g id="link_Impersonate support role_Attacker"><path d="M1958.94,258.25 C1989.97,258.25 2016.39,258.25 2038.97,258.25 " fill="transparent" id="Impersonate support role-to-Attacker" style="stroke:#181818;stroke-width:1;"/><polygon fill="#181818" points="2044.97,258.25,2035.97,254.25,2039.97,258.25,2035.97,262.25,2044.97,258.25" style="stroke:#181818;stroke-width:1;"/></g><!--link Handle refund request to Use signed order reference or UUID--><g id="link_Handle refund request_Use signed order reference or UUID"><path d="M303.19,282.62 C351.74,282.62 403,282.62 403,282.62 C403,282.62 403,310.59 403,332.62 " fill="transparent" id="Handle refund request-to-Use signed order reference or UUID" style="stroke:#181818;stroke-width:1;"/><polygon fill="#181818" points="403,338.62,407,329.62,403,333.62,399,329.62,403,338.62" style="stroke:#181818;stroke-width:1;"/></g><!--link Validate refund conditions to Check server-side timestamp--><g id="link_Validate refund conditions_Check server-side timestamp"><path d="M910.92,78 C972.67,78 1063,78 1063,78 C1063,78 1063,59.19 1063,46.01 " fill="transparent" id="Validate refund conditions-to-Check server-side timestamp" style="stroke:#181818;stroke-width:1;"/><polygon fill="#181818" points="1063,40.01,1059,49.01,1063,45.01,1067,49.01,1063,40.01" style="stroke:#181818;stroke-width:1;"/></g><!--link Log refund request to Immutable audit logging--><g id="link_Log refund request_Immutable audit logging"><path d="M940.37,180.75 C982.29,180.75 1026.96,180.75 1070.61,180.75 " fill="transparent" id="Log refund request-to-Immutable audit logging" style="stroke:#181818;stroke-width:1;"/><polygon fill="#181818" points="1076.61,180.75,1067.61,176.75,1071.61,180.75,1067.61,184.75,1076.61,180.75" style="stroke:#181818;stroke-width:1;"/></g><!--link Restrict refund approval to Support to RoleGuard enforcement--><g id="link_Restrict refund approval to Support_RoleGuard enforcement"><path d="M964,282.16 C964,299.22 964,321.5 964,321.5 C964,321.5 1043.89,321.5 1106.45,321.5 " fill="transparent" id="Restrict refund approval to Support-to-RoleGuard enforcement" style="stroke:#181818;stroke-width:1;"/><polygon fill="#181818" points="1112.45,321.5,1103.45,317.5,1107.45,321.5,1103.45,325.5,1112.45,321.5" style="stroke:#181818;stroke-width:1;"/></g><!--link Use signed order reference or UUID to Tamper order ID--><g id="link_Use signed order reference or UUID_Tamper order ID"><path d="M652.6,363 C696.16,363 736.65,363 774.03,363 " fill="transparent" id="Use signed order reference or UUID-to-Tamper order ID" style="stroke:#008000;stroke-width:1;"/><polygon fill="#008000" points="780.03,363,771.03,359,775.03,363,771.03,367,780.03,363" style="stroke:#008000;stroke-width:1;"/><text fill="#000000" font-family="sans-serif" font-size="13" lengthAdjust="spacing" textLength="75.5308" x="717.32" y="376.0669">&#171;Mitigates&#187;</text></g><!--link Check server-side timestamp to Bypass refund time window--><g id="link_Check server-side timestamp_Bypass refund time window"><path d="M1295.92,32 C1332.68,32 1367.03,32 1403.42,32 " fill="transparent" id="Check server-side timestamp-to-Bypass refund time window" style="stroke:#008000;stroke-width:1;"/><polygon fill="#008000" points="1409.42,32,1400.42,28,1404.42,32,1400.42,36,1409.42,32" style="stroke:#008000;stroke-width:1;"/><text fill="#000000" font-family="sans-serif" font-size="13" lengthAdjust="spacing" textLength="75.5308" x="1276.67" y="45.0669">&#171;Mitigates&#187;</text></g><!--link Immutable audit logging to Avoid detection or accountability--><g id="link_Immutable audit logging_Avoid detection or accountability"><path d="M1279.67,184.25 C1316.63,184.25 1352.71,184.25 1391.39,184.25 " fill="transparent" id="Immutable audit logging-to-Avoid detection or accountability" style="stroke:#008000;stroke-width:1;"/><polygon fill="#008000" points="1397.39,184.25,1388.39,180.25,1392.39,184.25,1388.39,188.25,1397.39,184.25" style="stroke:#008000;stroke-width:1;"/><text fill="#000000" font-family="sans-serif" font-size="13" lengthAdjust="spacing" textLength="75.5308" x="1262.53" y="197.3169">&#171;Mitigates&#187;</text></g><!--link RoleGuard enforcement to Privilege escalation to approve own refund--><g id="link_RoleGuard enforcement_Privilege escalation to approve own refund"><path d="M1177,316.2 C1177,308.59 1177,302 1177,302 C1177,302 1308.47,302 1410.24,302 " fill="transparent" id="RoleGuard enforcement-to-Privilege escalation to approve own refund" style="stroke:#008000;stroke-width:1;"/><polygon fill="#008000" points="1416.24,302,1407.24,298,1411.24,302,1407.24,306,1416.24,302" style="stroke:#008000;stroke-width:1;"/><text fill="#000000" font-family="sans-serif" font-size="13" lengthAdjust="spacing" textLength="75.5308" x="1213.52" y="298.0669">&#171;Mitigates&#187;</text></g><!--SRC=[bLLDRzf04BtxLupIGyi1jGc94geeae6GM0fjH9pslB47iygow-wkIL7L_zxPDQGsO3x4YPqtxmrlFX0uiM0LQ9vDBQHSOsAvae5vvJ9dcir0S8bsaICeRQUg4Z1JbgetBZEOC66m4dbXoMkcLI7JlX9AmuTXrts22gGmc323y2S0wAt1VqwvHVUkT8gwVEi90j7RK4bRVVbx8EdrTJpLoEpD3LKpxFGwNwfabUWMyMfk__JiyhH_XEo8MvunvwbBxvptBo-wTUaQOgjydUFi_2hi38ueuVQtHIsPSCaNOVzg6DOBgCItobVpEs6tE-WwSPPOwi9JaUSq6CjleRKaZjHnZMaGk65YCXC89sESK44m5Ehjn5UvJ8Hs-mO-tJEP4agN88s_2ZIsHQY6I9aLvhdWYVVbynFgEMgVikMvnFzWWgVClhCbIgRSmKmBwYRlf7bGsKOzHwIFAK7pnAuuM9vhDMV2RU7Ib0q-iliZPRSXlX_VXl5JiDENcCrowe5l8KI3bky6V8NL7ACqnBdJ3i_JM-JCc5NOyXa2hJljV1FZDcVAJiqLJo55MruNAWrOaj28MlR21RUB9iQ3pF8IZvhFkS0C0Kt2X7VEeSeCkbvlSadIe5Lp60QtSHWzaD4RPdgr4PCyBuHpBtoCu4Mb2vWnMJ0X5YtuVp22FKX7jbgQO9VXNdMeDFs-H72KjcruYXvZB9LewggxaNNL0vhZrVi2cJC2wEpa85IsfhajNbSwfaTUCdBU6oMTUsPvCBGIM1TkHjNabmqUHN5q5yRHzszxrkYPxgdXcQHPARjFADGe4_TN2C_FRXZMzdJ_JlMdcBo2yGTXhJ6RR8tx5Crc1NM7AcS5yJkpC_eZtcGuV7_6PDXTmNGAA2TA9pYZqTaWN7bOlg5nFr2MSsE2Wnnhk52PHfH-9z-v_KpjicllaMeWRNJlu5lLGDpWuV7tQIl_Fm00]--></g></svg>