<?xml version="1.0" encoding="UTF-8" standalone="no"?>
<!DOCTYPE svg PUBLIC "-//W3C//DTD SVG 1.1//EN"
 "http://www.w3.org/Graphics/SVG/1.1/DTD/svg11.dtd">
<!-- Generated by graphviz version 14.1.5 (20260411.2331)
 -->
<!-- Title: tm Pages: 1 -->
<svg width="704pt" height="695pt"
 viewBox="0.00 0.00 704.00 695.00" xmlns="http://www.w3.org/2000/svg" xmlns:xlink="http://www.w3.org/1999/xlink">
<g id="graph0" class="graph" transform="scale(1 1) rotate(0) translate(4 690.94)">
<title>tm</title>
<polygon fill="white" stroke="none" points="-4,4 -4,-690.94 699.74,-690.94 699.74,4 -4,4"/>
<g id="clust1" class="cluster">
<title>cluster_boundary_BackendNodeJSAPI_acf3059e70</title>
<polygon fill="none" stroke="#ee2c2c" stroke-dasharray="5,2" points="99.5,-126.5 99.5,-678.94 440.5,-678.94 440.5,-126.5 99.5,-126.5"/>
<text xml:space="preserve" text-anchor="start" x="216.38" y="-666.44" font-family="Arial" font-style="italic" font-size="10.00">Backend (NodeJS\nAPI)</text>
</g>
<g id="clust2" class="cluster">
<title>cluster_boundary_Database_88f2d9c06f</title>
<polygon fill="none" stroke="#ee2c2c" stroke-dasharray="5,2" points="92.5,-8 92.5,-80 162.5,-80 162.5,-8 92.5,-8"/>
<text xml:space="preserve" text-anchor="start" x="106.5" y="-67.5" font-family="Arial" font-style="italic" font-size="10.00">Database</text>
</g>
<!-- process_RefundController_f2eb7a3ff7 -->
<g id="node1" class="node">
<title>process_RefundController_f2eb7a3ff7</title>
<ellipse fill="none" stroke="black" cx="356.5" cy="-589.66" rx="61.28" ry="61.28"/>
<text xml:space="preserve" text-anchor="middle" x="356.5" y="-584.23" font-family="Arial" font-size="14.00">RefundController</text>
</g>
<!-- process_RefundService_d2006ce1bb -->
<g id="node2" class="node">
<title>process_RefundService_d2006ce1bb</title>
<ellipse fill="none" stroke="black" cx="180.5" cy="-396.23" rx="53.4" ry="53.4"/>
<text xml:space="preserve" text-anchor="middle" x="180.5" y="-390.8" font-family="Arial" font-size="14.00">RefundService</text>
</g>
<!-- process_RefundController_f2eb7a3ff7&#45;&gt;process_RefundService_d2006ce1bb -->
<g id="edge2" class="edge">
<title>process_RefundController_f2eb7a3ff7&#45;&gt;process_RefundService_d2006ce1bb</title>
<path fill="none" stroke="black" d="M295.49,-581.14C251.77,-572.21 195.81,-552.75 167.5,-510.37 157.22,-494.99 156.19,-475.73 159.03,-457.49"/>
<polygon fill="black" stroke="black" points="162.44,-458.28 160.95,-447.79 155.57,-456.92 162.44,-458.28"/>
<text xml:space="preserve" text-anchor="middle" x="209.5" y="-491.85" font-family="Arial" font-size="12.00">(2) Fetch refund</text>
<text xml:space="preserve" text-anchor="middle" x="209.5" y="-477.6" font-family="Arial" font-size="12.00">requests</text>
</g>
<!-- actor_Support_579e9aae81 -->
<g id="node5" class="node">
<title>actor_Support_579e9aae81</title>
<polygon fill="none" stroke="black" points="614.57,-421.29 564.43,-421.29 564.43,-371.16 614.57,-371.16 614.57,-421.29"/>
<text xml:space="preserve" text-anchor="middle" x="589.5" y="-390.8" font-family="Arial" font-size="14.00">Support</text>
</g>
<!-- process_RefundController_f2eb7a3ff7&#45;&gt;actor_Support_579e9aae81 -->
<g id="edge8" class="edge">
<title>process_RefundController_f2eb7a3ff7&#45;&gt;actor_Support_579e9aae81</title>
<path fill="none" stroke="black" d="M400.64,-546.76C426.45,-522.85 459.99,-492.73 491.25,-467.62 511.82,-451.1 535.89,-433.82 555.06,-420.52"/>
<polygon fill="black" stroke="black" points="556.82,-423.55 563.07,-415 552.85,-417.79 556.82,-423.55"/>
<text xml:space="preserve" text-anchor="middle" x="534.38" y="-498.97" font-family="Arial" font-size="12.00">(8) 200 OK +</text>
<text xml:space="preserve" text-anchor="middle" x="534.38" y="-484.72" font-family="Arial" font-size="12.00">refund data (API</text>
<text xml:space="preserve" text-anchor="middle" x="534.38" y="-470.47" font-family="Arial" font-size="12.00">Response)</text>
</g>
<!-- process_RefundService_d2006ce1bb&#45;&gt;process_RefundController_f2eb7a3ff7 -->
<g id="edge7" class="edge">
<title>process_RefundService_d2006ce1bb&#45;&gt;process_RefundController_f2eb7a3ff7</title>
<path fill="none" stroke="black" d="M222.86,-429.05C237.04,-440.54 252.54,-454.04 265.5,-467.62 283.44,-486.43 301.1,-508.76 316.01,-529.09"/>
<polygon fill="black" stroke="black" points="313.07,-531 321.77,-537.04 318.74,-526.89 313.07,-531"/>
<text xml:space="preserve" text-anchor="middle" x="345.6" y="-491.85" font-family="Arial" font-size="12.00">(7) Return refund</text>
<text xml:space="preserve" text-anchor="middle" x="345.6" y="-477.6" font-family="Arial" font-size="12.00">data to controller</text>
</g>
<!-- process_RefundRepository_f8af758679 -->
<g id="node3" class="node">
<title>process_RefundRepository_f8af758679</title>
<ellipse fill="none" stroke="black" cx="234.5" cy="-199.29" rx="64.79" ry="64.79"/>
<text xml:space="preserve" text-anchor="middle" x="234.5" y="-193.87" font-family="Arial" font-size="14.00">RefundRepository</text>
</g>
<!-- process_RefundService_d2006ce1bb&#45;&gt;process_RefundRepository_f8af758679 -->
<g id="edge3" class="edge">
<title>process_RefundService_d2006ce1bb&#45;&gt;process_RefundRepository_f8af758679</title>
<path fill="none" stroke="black" d="M164.3,-345.1C160.34,-325.03 159.03,-302 166.25,-282.08 169.85,-272.14 175.25,-262.57 181.45,-253.69"/>
<polygon fill="black" stroke="black" points="184.08,-256.01 187.27,-245.91 178.48,-251.82 184.08,-256.01"/>
<text xml:space="preserve" text-anchor="middle" x="209.38" y="-313.43" font-family="Arial" font-size="12.00">(3) Query refund</text>
<text xml:space="preserve" text-anchor="middle" x="209.38" y="-299.18" font-family="Arial" font-size="12.00">requests from</text>
<text xml:space="preserve" text-anchor="middle" x="209.38" y="-284.93" font-family="Arial" font-size="12.00">database</text>
</g>
<!-- process_RefundRepository_f8af758679&#45;&gt;process_RefundService_d2006ce1bb -->
<g id="edge6" class="edge">
<title>process_RefundRepository_f8af758679&#45;&gt;process_RefundService_d2006ce1bb</title>
<path fill="none" stroke="black" d="M265.13,-256.74C272.92,-278.65 276.58,-303.55 266.5,-324.83 259.65,-339.28 248.23,-351.76 235.9,-362.02"/>
<polygon fill="black" stroke="black" points="233.75,-359.26 228.01,-368.16 238.05,-364.78 233.75,-359.26"/>
<text xml:space="preserve" text-anchor="middle" x="317.65" y="-313.43" font-family="Arial" font-size="12.00">(6) Return refund</text>
<text xml:space="preserve" text-anchor="middle" x="317.65" y="-299.18" font-family="Arial" font-size="12.00">data to service</text>
<text xml:space="preserve" text-anchor="middle" x="317.65" y="-284.93" font-family="Arial" font-size="12.00">layer</text>
</g>
<!-- datastore_RefundRequestsTable_2c440ebe53 -->
<g id="node4" class="node">
<title>datastore_RefundRequestsTable_2c440ebe53</title>
<image xlink:href="C:\Users\pedro\OneDrive - Instituto Superior de Engenharia do Porto\Mestrado EngSoftware\DSOFTS\PROJECT\desofs2026-wed_nap_1-1\.venv\Lib\site-packages\pytm\images\datastore_black.png" width="49.6px" height="36px" preserveAspectRatio="xMinYMin meet" x="102.7" y="-52"/>
<text xml:space="preserve" text-anchor="middle" x="50.25" y="-70.2" font-family="Arial" font-size="14.00">RefundRequests</text>
<text xml:space="preserve" text-anchor="middle" x="50.25" y="-54.45" font-family="Arial" font-size="14.00">Table</text>
</g>
<!-- process_RefundRepository_f8af758679&#45;&gt;datastore_RefundRequestsTable_2c440ebe53 -->
<g id="edge4" class="edge">
<title>process_RefundRepository_f8af758679&#45;&gt;datastore_RefundRequestsTable_2c440ebe53</title>
<path fill="none" stroke="black" d="M172.06,-180.66C140.43,-168.22 104.86,-148.01 86.25,-116.5 75.43,-98.18 87.28,-76.68 101.01,-60.36"/>
<polygon fill="black" stroke="black" points="103.56,-62.76 107.68,-53 98.37,-58.06 103.56,-62.76"/>
<text xml:space="preserve" text-anchor="middle" x="129.38" y="-105.1" font-family="Arial" font-size="12.00">(4) Query refund</text>
<text xml:space="preserve" text-anchor="middle" x="129.38" y="-90.85" font-family="Arial" font-size="12.00">requests</text>
</g>
<!-- datastore_RefundRequestsTable_2c440ebe53&#45;&gt;process_RefundRepository_f8af758679 -->
<g id="edge5" class="edge">
<title>datastore_RefundRequestsTable_2c440ebe53&#45;&gt;process_RefundRepository_f8af758679</title>
<path fill="none" stroke="black" d="M150.71,-51.93C162.59,-61.49 176.59,-74.26 186.5,-88 195.11,-99.95 202.62,-113.68 208.99,-127.31"/>
<polygon fill="black" stroke="black" points="205.73,-128.6 213.01,-136.3 212.12,-125.74 205.73,-128.6"/>
<text xml:space="preserve" text-anchor="middle" x="248.5" y="-105.1" font-family="Arial" font-size="12.00">(5) Return refund</text>
<text xml:space="preserve" text-anchor="middle" x="248.5" y="-90.85" font-family="Arial" font-size="12.00">data</text>
</g>
<!-- actor_Support_579e9aae81&#45;&gt;process_RefundController_f2eb7a3ff7 -->
<g id="edge1" class="edge">
<title>actor_Support_579e9aae81&#45;&gt;process_RefundController_f2eb7a3ff7</title>
<path fill="none" stroke="black" d="M598.9,-421.35C606.83,-446.11 614.2,-484.57 595.5,-510.37 557.87,-562.3 484.74,-580.41 429.24,-586.42"/>
<polygon fill="black" stroke="black" points="429.16,-582.91 419.54,-587.35 429.83,-589.88 429.16,-582.91"/>
<text xml:space="preserve" text-anchor="middle" x="651.49" y="-498.97" font-family="Arial" font-size="12.00">(1) GET</text>
<text xml:space="preserve" text-anchor="middle" x="651.49" y="-484.72" font-family="Arial" font-size="12.00">/api/refunds (API</text>
<text xml:space="preserve" text-anchor="middle" x="651.49" y="-470.47" font-family="Arial" font-size="12.00">Request)</text>
</g>
</g>
</svg>
