<?xml version="1.0" encoding="UTF-8" standalone="no"?>
<!DOCTYPE svg PUBLIC "-//W3C//DTD SVG 1.1//EN"
 "http://www.w3.org/Graphics/SVG/1.1/DTD/svg11.dtd">
<!-- Generated by graphviz version 12.2.1 (20241206.2353)
 -->
<!-- Title: tm Pages: 1 -->
<svg width="1106pt" height="673pt"
 viewBox="0.00 0.00 1106.00 673.07" xmlns="http://www.w3.org/2000/svg" xmlns:xlink="http://www.w3.org/1999/xlink">
<g id="graph0" class="graph" transform="scale(1 1) rotate(0) translate(4 669.07)">
<title>tm</title>
<polygon fill="white" stroke="none" points="-4,4 -4,-669.07 1102,-669.07 1102,4 -4,4"/>
<g id="clust1" class="cluster">
<title>cluster_boundary_BackendNodeJSAPI_88f2d9c06f</title>
<polygon fill="none" stroke="#ee2c2c" stroke-dasharray="5,2" points="8,-8 8,-560.44 349,-560.44 349,-8 8,-8"/>
<text text-anchor="start" x="124.88" y="-547.94" font-family="Arial" font-style="italic" font-size="10.00">Backend (NodeJS\nAPI)</text>
</g>
<g id="clust2" class="cluster">
<title>cluster_boundary_Database_579e9aae81</title>
<polygon fill="none" stroke="#ee2c2c" stroke-dasharray="5,2" points="1020,-251.73 1020,-323.73 1090,-323.73 1090,-251.73 1020,-251.73"/>
<text text-anchor="start" x="1034" y="-311.23" font-family="Arial" font-style="italic" font-size="10.00">Database</text>
</g>
<g id="clust3" class="cluster">
<title>cluster_boundary_FrontendReactSPA_acf3059e70</title>
<polygon fill="none" stroke="#ee2c2c" stroke-dasharray="5,2" points="685,-232.98 685,-549.49 1012,-549.49 1012,-232.98 685,-232.98"/>
<text text-anchor="start" x="797.88" y="-536.99" font-family="Arial" font-style="italic" font-size="10.00">Frontend (React\nSPA)</text>
</g>
<!-- process_RefundController_2c440ebe53 -->
<g id="node1" class="node">
<title>process_RefundController_2c440ebe53</title>
<ellipse fill="none" stroke="black" cx="264" cy="-471.16" rx="61.28" ry="61.28"/>
<text text-anchor="middle" x="264" y="-465.73" font-family="Arial" font-size="14.00">RefundController</text>
</g>
<!-- process_RefundService_0291419f72 -->
<g id="node2" class="node">
<title>process_RefundService_0291419f72</title>
<ellipse fill="none" stroke="black" cx="168" cy="-277.73" rx="53.4" ry="53.4"/>
<text text-anchor="middle" x="168" y="-272.3" font-family="Arial" font-size="14.00">RefundService</text>
</g>
<!-- process_RefundController_2c440ebe53&#45;&gt;process_RefundService_0291419f72 -->
<g id="edge4" class="edge">
<title>process_RefundController_2c440ebe53&#45;&gt;process_RefundService_0291419f72</title>
<path fill="none" stroke="black" d="M202.99,-462.64C159.27,-453.71 103.31,-434.25 75,-391.87 64.44,-376.07 66.54,-366.14 75,-349.12 83.06,-332.91 96.84,-319.43 111.36,-308.75"/>
<polygon fill="black" stroke="black" points="112.97,-311.9 119.21,-303.33 108.99,-306.14 112.97,-311.9"/>
<text text-anchor="middle" x="117" y="-373.35" font-family="Arial" font-size="12.00">(4) Fetch refund</text>
<text text-anchor="middle" x="117" y="-359.1" font-family="Arial" font-size="12.00">requests</text>
</g>
<!-- process_APIClient_f8af758679 -->
<g id="node6" class="node">
<title>process_APIClient_f8af758679</title>
<ellipse fill="none" stroke="black" cx="747" cy="-277.73" rx="36.74" ry="36.74"/>
<text text-anchor="middle" x="747" y="-272.3" font-family="Arial" font-size="14.00">API Client</text>
</g>
<!-- process_RefundController_2c440ebe53&#45;&gt;process_APIClient_f8af758679 -->
<g id="edge10" class="edge">
<title>process_RefundController_2c440ebe53&#45;&gt;process_APIClient_f8af758679</title>
<path fill="none" stroke="black" d="M303.72,-424.1C328.59,-398.17 362.77,-367.42 399.25,-349.12 497.89,-299.66 628.76,-284.95 698.45,-280.58"/>
<polygon fill="black" stroke="black" points="698.62,-284.07 708.41,-280 698.22,-277.08 698.62,-284.07"/>
<text text-anchor="middle" x="446.12" y="-373.35" font-family="Arial" font-size="12.00">(10) Return</text>
<text text-anchor="middle" x="446.12" y="-359.1" font-family="Arial" font-size="12.00">response to client</text>
</g>
<!-- process_RefundService_0291419f72&#45;&gt;process_RefundController_2c440ebe53 -->
<g id="edge9" class="edge">
<title>process_RefundService_0291419f72&#45;&gt;process_RefundController_2c440ebe53</title>
<path fill="none" stroke="black" d="M191.73,-326.05C203.77,-350.06 218.58,-379.58 231.65,-405.64"/>
<polygon fill="black" stroke="black" points="228.46,-407.09 236.07,-414.46 234.71,-403.95 228.46,-407.09"/>
<text text-anchor="middle" x="269.6" y="-373.35" font-family="Arial" font-size="12.00">(9) Return refund</text>
<text text-anchor="middle" x="269.6" y="-359.1" font-family="Arial" font-size="12.00">data to controller</text>
</g>
<!-- process_RefundRepository_c76a0a7067 -->
<g id="node3" class="node">
<title>process_RefundRepository_c76a0a7067</title>
<ellipse fill="none" stroke="black" cx="263" cy="-80.79" rx="64.79" ry="64.79"/>
<text text-anchor="middle" x="263" y="-75.37" font-family="Arial" font-size="14.00">RefundRepository</text>
</g>
<!-- process_RefundService_0291419f72&#45;&gt;process_RefundRepository_c76a0a7067 -->
<g id="edge5" class="edge">
<title>process_RefundService_0291419f72&#45;&gt;process_RefundRepository_c76a0a7067</title>
<path fill="none" stroke="black" d="M120.33,-253.01C102.64,-241.53 84.52,-225.94 74.75,-206.33 66.28,-189.32 64.33,-179.47 74.75,-163.58 99.81,-125.37 147,-104.92 187.87,-94.02"/>
<polygon fill="black" stroke="black" points="188.6,-97.44 197.46,-91.62 186.91,-90.65 188.6,-97.44"/>
<text text-anchor="middle" x="117.88" y="-194.93" font-family="Arial" font-size="12.00">(5) Query refund</text>
<text text-anchor="middle" x="117.88" y="-180.68" font-family="Arial" font-size="12.00">requests from</text>
<text text-anchor="middle" x="117.88" y="-166.43" font-family="Arial" font-size="12.00">database</text>
</g>
<!-- process_RefundRepository_c76a0a7067&#45;&gt;process_RefundService_0291419f72 -->
<g id="edge8" class="edge">
<title>process_RefundRepository_c76a0a7067&#45;&gt;process_RefundService_0291419f72</title>
<path fill="none" stroke="black" d="M234.96,-139.33C222.65,-164.58 208.24,-194.15 195.95,-219.38"/>
<polygon fill="black" stroke="black" points="192.89,-217.65 191.66,-228.18 199.19,-220.72 192.89,-217.65"/>
<text text-anchor="middle" x="266.19" y="-194.93" font-family="Arial" font-size="12.00">(8) Return refund</text>
<text text-anchor="middle" x="266.19" y="-180.68" font-family="Arial" font-size="12.00">data to service</text>
<text text-anchor="middle" x="266.19" y="-166.43" font-family="Arial" font-size="12.00">layer</text>
</g>
<!-- datastore_RefundRequestsTable_c6f87088c2 -->
<g id="node4" class="node">
<title>datastore_RefundRequestsTable_c6f87088c2</title>
<image xlink:href="C:\Users\parra\AppData\Local\Packages\PythonSoftwareFoundation.Python.3.11_qbz5n2kfra8p0\LocalCache\local-packages\Python311\site-packages\pytm\images\datastore_black.png" width="49.6px" height="36px" preserveAspectRatio="xMinYMin meet" x="1030.2" y="-295.727"/>
<text text-anchor="middle" x="977.75" y="-313.93" font-family="Arial" font-size="14.00">RefundRequests</text>
<text text-anchor="middle" x="977.75" y="-298.18" font-family="Arial" font-size="14.00">Table</text>
</g>
<!-- process_RefundRepository_c76a0a7067&#45;&gt;datastore_RefundRequestsTable_c6f87088c2 -->
<g id="edge6" class="edge">
<title>process_RefundRepository_c76a0a7067&#45;&gt;datastore_RefundRequestsTable_c6f87088c2</title>
<path fill="none" stroke="black" d="M325,-101.12C418.29,-129.35 600.8,-181.2 759.75,-206.33 817.89,-215.52 973.89,-193.45 1024,-224.33 1033.35,-230.09 1040.22,-239.81 1045.07,-249.32"/>
<polygon fill="black" stroke="black" points="1041.84,-250.66 1049.12,-258.37 1048.23,-247.81 1041.84,-250.66"/>
<text text-anchor="middle" x="802.88" y="-187.81" font-family="Arial" font-size="12.00">(6) Query refund</text>
<text text-anchor="middle" x="802.88" y="-173.56" font-family="Arial" font-size="12.00">requests</text>
</g>
<!-- datastore_RefundRequestsTable_c6f87088c2&#45;&gt;process_RefundRepository_c76a0a7067 -->
<g id="edge7" class="edge">
<title>datastore_RefundRequestsTable_c6f87088c2&#45;&gt;process_RefundRepository_c76a0a7067</title>
<path fill="none" stroke="black" d="M1048.67,-260.04C1043.57,-248.6 1035.36,-233.81 1024,-224.33 964.33,-174.52 935.4,-182.47 860,-163.58 676.29,-117.56 453.86,-95.73 339.34,-86.88"/>
<polygon fill="black" stroke="black" points="339.68,-83.4 329.44,-86.13 339.15,-90.38 339.68,-83.4"/>
<text text-anchor="middle" x="1042.4" y="-187.81" font-family="Arial" font-size="12.00">(7) Return refund</text>
<text text-anchor="middle" x="1042.4" y="-173.56" font-family="Arial" font-size="12.00">data</text>
</g>
<!-- process_RefundsView_d2006ce1bb -->
<g id="node5" class="node">
<title>process_RefundsView_d2006ce1bb</title>
<ellipse fill="none" stroke="black" cx="848" cy="-471.16" rx="50.33" ry="50.33"/>
<text text-anchor="middle" x="848" y="-465.73" font-family="Arial" font-size="14.00">Refunds View</text>
</g>
<!-- process_RefundsView_d2006ce1bb&#45;&gt;process_APIClient_f8af758679 -->
<g id="edge2" class="edge">
<title>process_RefundsView_d2006ce1bb&#45;&gt;process_APIClient_f8af758679</title>
<path fill="none" stroke="black" d="M804.08,-445.8C784.7,-432.55 763.78,-414.28 752.5,-391.87 742.39,-371.79 740.21,-347.08 740.9,-325.88"/>
<polygon fill="black" stroke="black" points="744.39,-326.2 741.46,-316.02 737.4,-325.81 744.39,-326.2"/>
<text text-anchor="middle" x="796.75" y="-373.35" font-family="Arial" font-size="12.00">(2) Send request</text>
<text text-anchor="middle" x="796.75" y="-359.1" font-family="Arial" font-size="12.00">to API</text>
</g>
<!-- process_APIClient_f8af758679&#45;&gt;process_RefundController_2c440ebe53 -->
<g id="edge3" class="edge">
<title>process_APIClient_f8af758679&#45;&gt;process_RefundController_2c440ebe53</title>
<path fill="none" stroke="black" d="M714.81,-295.94C669.97,-319.51 585.78,-362.27 511,-391.87 452.48,-415.04 384.14,-436.27 334.2,-450.76"/>
<polygon fill="black" stroke="black" points="333.3,-447.38 324.65,-453.51 335.23,-454.1 333.3,-447.38"/>
<text text-anchor="middle" x="653.87" y="-373.35" font-family="Arial" font-size="12.00">(3) Forward</text>
<text text-anchor="middle" x="653.87" y="-359.1" font-family="Arial" font-size="12.00">request to backend</text>
</g>
<!-- process_APIClient_f8af758679&#45;&gt;process_RefundsView_d2006ce1bb -->
<g id="edge11" class="edge">
<title>process_APIClient_f8af758679&#45;&gt;process_RefundsView_d2006ce1bb</title>
<path fill="none" stroke="black" d="M781.59,-290.86C806.94,-301.79 839.54,-320.59 855,-349.12 865.11,-367.78 866.17,-390.52 863.74,-411.23"/>
<polygon fill="black" stroke="black" points="860.3,-410.58 862.29,-420.99 867.22,-411.61 860.3,-410.58"/>
<text text-anchor="middle" x="901.17" y="-380.47" font-family="Arial" font-size="12.00">(11) Display</text>
<text text-anchor="middle" x="901.17" y="-366.22" font-family="Arial" font-size="12.00">refund data to</text>
<text text-anchor="middle" x="901.17" y="-351.97" font-family="Arial" font-size="12.00">support</text>
</g>
<!-- actor_Support_f2eb7a3ff7 -->
<g id="node7" class="node">
<title>actor_Support_f2eb7a3ff7</title>
<polygon fill="none" stroke="black" points="873.07,-665.07 822.93,-665.07 822.93,-614.94 873.07,-614.94 873.07,-665.07"/>
<text text-anchor="middle" x="848" y="-634.58" font-family="Arial" font-size="14.00">Support</text>
</g>
<!-- actor_Support_f2eb7a3ff7&#45;&gt;process_RefundsView_d2006ce1bb -->
<g id="edge1" class="edge">
<title>actor_Support_f2eb7a3ff7&#45;&gt;process_RefundsView_d2006ce1bb</title>
<path fill="none" stroke="black" d="M848,-614.74C848,-593.46 848,-561.58 848,-533.36"/>
<polygon fill="black" stroke="black" points="851.5,-533.45 848,-523.45 844.5,-533.45 851.5,-533.45"/>
<text text-anchor="middle" x="888.88" y="-585.54" font-family="Arial" font-size="12.00">(1) Clicks &#39;View</text>
<text text-anchor="middle" x="888.88" y="-571.29" font-family="Arial" font-size="12.00">Refunds&#39;</text>
</g>
</g>
</svg>
