<svg xmlns="http://www.w3.org/2000/svg" xmlns:xlink="http://www.w3.org/1999/xlink" contentStyleType="text/css" data-diagram-type="DESCRIPTION" height="456px" preserveAspectRatio="none" style="width:2119px;height:456px;background:#F9F9F9;" version="1.1" viewBox="0 0 2119 456" width="2119px" zoomAndPan="magnify"><defs/><g><rect fill="#F9F9F9" height="456" style="stroke:transparent;stroke-width:1;" width="2119" x="0" y="0"/><!--cluster Refund Flow--><g id="cluster_Refund Flow"><rect fill="transparent" height="271" rx="2.5" ry="2.5" style="stroke:#181818;stroke-width:1;" width="913" x="105" y="39"/><text fill="#000000" font-family="sans-serif" font-size="14" font-weight="bold" lengthAdjust="spacing" textLength="98.1094" x="512.4453" y="53.9951">Refund Flow</text></g><g id="elem_View requested refunds"><ellipse cx="222.1918" cy="271.1384" fill="#FFFFFF" rx="101.1918" ry="22.6384" style="stroke:#000000;stroke-width:0.5;"/><text fill="#000000" font-family="sans-serif" font-size="14" lengthAdjust="spacing" textLength="166.6807" x="138.8514" y="273.985">View requested refunds</text></g><g id="elem_Application/Server"><ellipse cx="522.8617" cy="188.7723" fill="#FFFFFF" rx="84.3617" ry="19.2723" style="stroke:#000000;stroke-width:0.5;"/><text fill="#000000" font-family="sans-serif" font-size="14" lengthAdjust="spacing" textLength="128.8506" x="458.2943" y="191.6681">Application/Server</text></g><g id="elem_Validate refund conditions"><ellipse cx="862.2971" cy="98.7594" fill="#FFFFFF" rx="109.2971" ry="24.2594" style="stroke:#000000;stroke-width:0.5;"/><text fill="#000000" font-family="sans-serif" font-size="14" lengthAdjust="spacing" textLength="184.3584" x="770.1179" y="101.6061">Validate refund conditions</text></g><g id="elem_Log refund request"><ellipse cx="862.4289" cy="178.1858" fill="#FFFFFF" rx="86.4289" ry="19.6858" style="stroke:#000000;stroke-width:0.5;"/><text fill="#000000" font-family="sans-serif" font-size="14" lengthAdjust="spacing" textLength="133.6084" x="795.6247" y="181.0325">Log refund request</text></g><g id="elem_Restrict refund approval to Support"><ellipse cx="862.4799" cy="262.796" fill="#FFFFFF" rx="139.4799" ry="30.296" style="stroke:#000000;stroke-width:0.5;"/><text fill="#000000" font-family="sans-serif" font-size="14" lengthAdjust="spacing" textLength="248.5137" x="738.2231" y="265.6427">Restrict refund approval to Support</text></g><!--entity Support--><g id="elem_Support"><ellipse cx="33.6719" cy="241.5" fill="#F1F1F1" rx="8" ry="8" style="stroke:#181818;stroke-width:0.5;"/><path d="M33.6719,249.5 L33.6719,276.5 M20.6719,257.5 L46.6719,257.5 M33.6719,276.5 L20.6719,291.5 M33.6719,276.5 L46.6719,291.5 " fill="transparent" style="stroke:#181818;stroke-width:0.5;"/><text fill="#000000" font-family="sans-serif" font-size="14" lengthAdjust="spacing" textLength="55.3438" x="6" y="305.9951">Support</text></g><!--entity Attacker--><g id="elem_Attacker"><ellipse cx="2082.6543" cy="202.5" fill="#FF0000" rx="8" ry="8" style="stroke:#181818;stroke-width:0.5;"/><path d="M2082.6543,210.5 L2082.6543,237.5 M2069.6543,218.5 L2095.6543,218.5 M2082.6543,237.5 L2069.6543,252.5 M2082.6543,237.5 L2095.6543,252.5 " fill="transparent" style="stroke:#181818;stroke-width:0.5;"/><text fill="#000000" font-family="sans-serif" font-size="14" lengthAdjust="spacing" textLength="59.3086" x="2053" y="266.9951">Attacker</text></g><g id="elem_Tamper order ID"><ellipse cx="862.7258" cy="357.1452" fill="#FFFFFF" rx="78.7258" ry="18.1452" style="stroke:#000000;stroke-width:0.5;"/><text fill="#000000" font-family="sans-serif" font-size="14" lengthAdjust="spacing" textLength="115.4111" x="802.8604" y="360.6673">Tamper order ID</text></g><g id="elem_Bypass refund time window"><ellipse cx="1531.2511" cy="32.1502" fill="#FFFFFF" rx="113.7511" ry="25.1502" style="stroke:#000000;stroke-width:0.5;"/><text fill="#000000" font-family="sans-serif" font-size="14" lengthAdjust="spacing" textLength="193.9697" x="1434.2662" y="34.9969">Bypass refund time window</text></g><g id="elem_Avoid detection or accountability"><ellipse cx="1531.4699" cy="176.194" fill="#FFFFFF" rx="131.4699" ry="28.694" style="stroke:#000000;stroke-width:0.5;"/><text fill="#000000" font-family="sans-serif" font-size="14" lengthAdjust="spacing" textLength="231.6768" x="1415.6315" y="179.0407">Avoid detection or accountability</text></g><g id="elem_Privilege escalation to approve own refund"><ellipse cx="1531.4418" cy="274.7884" fill="#FFFFFF" rx="164.4418" ry="35.2884" style="stroke:#000000;stroke-width:0.5;"/><text fill="#000000" font-family="sans-serif" font-size="14" lengthAdjust="spacing" textLength="300.4326" x="1381.2255" y="277.635">Privilege escalation to approve own refund</text></g><g id="elem_Manipulate API body manually"><ellipse cx="1184.4065" cy="423.8813" fill="#FFFFFF" rx="122.4065" ry="26.8813" style="stroke:#000000;stroke-width:0.5;"/><text fill="#000000" font-family="sans-serif" font-size="14" lengthAdjust="spacing" textLength="212.4814" x="1078.1657" y="426.728">Manipulate API body manually</text></g><g id="elem_Forge client-side timestamps"><ellipse cx="1874.3229" cy="59.0646" fill="#FFFFFF" rx="118.3229" ry="26.0646" style="stroke:#000000;stroke-width:0.5;"/><text fill="#000000" font-family="sans-serif" font-size="14" lengthAdjust="spacing" textLength="203.7725" x="1772.4366" y="61.9113">Forge client-side timestamps</text></g><g id="elem_Clear or skip logs"><ellipse cx="1874.5683" cy="182.1137" fill="#FFFFFF" rx="81.0683" ry="18.6137" style="stroke:#000000;stroke-width:0.5;"/><text fill="#000000" font-family="sans-serif" font-size="14" lengthAdjust="spacing" textLength="121.0986" x="1812.7484" y="185.3754">Clear or skip logs</text></g><g id="elem_Impersonate support role"><ellipse cx="1874.3275" cy="270.1655" fill="#FFFFFF" rx="106.3275" ry="23.6655" style="stroke:#000000;stroke-width:0.5;"/><text fill="#000000" font-family="sans-serif" font-size="14" lengthAdjust="spacing" textLength="177.9121" x="1785.3715" y="273.0122">Impersonate support role</text></g><g id="elem_Use signed order reference or UUID"><ellipse cx="523.0052" cy="356.901" fill="#FFFFFF" rx="140.0052" ry="30.401" style="stroke:#000000;stroke-width:0.5;"/><text fill="#000000" font-family="sans-serif" font-size="14" lengthAdjust="spacing" textLength="249.6143" x="398.1981" y="359.7477">Use signed order reference or UUID</text></g><g id="elem_Check server-side timestamp"><ellipse cx="1184.6483" cy="32.2297" fill="#FFFFFF" rx="119.1483" ry="26.2297" style="stroke:#000000;stroke-width:0.5;"/><text fill="#000000" font-family="sans-serif" font-size="14" lengthAdjust="spacing" textLength="205.5361" x="1081.8802" y="35.0763">Check server-side timestamp</text></g><g id="elem_Immutable audit logging"><ellipse cx="1184.7235" cy="187.1447" fill="#FFFFFF" rx="103.7235" ry="23.1447" style="stroke:#000000;stroke-width:0.5;"/><text fill="#000000" font-family="sans-serif" font-size="14" lengthAdjust="spacing" textLength="172.2314" x="1098.6078" y="189.9914">Immutable audit logging</text></g><g id="elem_RoleGuard enforcement"><ellipse cx="1184.7238" cy="339.2448" fill="#FFFFFF" rx="101.7238" ry="22.7448" style="stroke:#000000;stroke-width:0.5;"/><text fill="#000000" font-family="sans-serif" font-size="14" lengthAdjust="spacing" textLength="167.8496" x="1100.799" y="342.0914">RoleGuard enforcement</text></g><!--link Support to View requested refunds--><g id="link_Support_View requested refunds"><path d="M61.31,271 C77.49,271 92.99,271 114.98,271 " fill="transparent" id="Support-to-View requested refunds" style="stroke:#181818;stroke-width:1;"/><polygon fill="#181818" points="120.98,271,111.98,267,115.98,271,111.98,275,120.98,271" style="stroke:#181818;stroke-width:1;"/></g><!--link View requested refunds to Application/Server--><g id="link_View requested refunds_Application/Server"><path d="M309.87,259.75 C398.72,259.75 523,259.75 523,259.75 C523,259.75 523,235.64 523,214.71 " fill="transparent" id="View requested refunds-to-Application/Server" style="stroke:#181818;stroke-width:1;"/><polygon fill="#181818" points="523,208.71,519,217.71,523,213.71,527,217.71,523,208.71" style="stroke:#181818;stroke-width:1;"/></g><!--link Application/Server to Validate refund conditions--><g id="link_Application/Server_Validate refund conditions"><path d="M595.28,178.83 C666.59,178.83 765,178.83 765,178.83 C765,178.83 765,138.51 765,116.44 " fill="transparent" id="Application/Server-to-Validate refund conditions" style="stroke:#181818;stroke-width:1;"/><polygon fill="#181818" points="765,110.44,761,119.44,765,115.44,769,119.44,765,110.44" style="stroke:#181818;stroke-width:1;"/></g><!--link Application/Server to Log refund request--><g id="link_Application/Server_Log refund request"><path d="M607.79,188.17 C663.38,188.17 729.33,188.17 782.58,188.17 " fill="transparent" id="Application/Server-to-Log refund request" style="stroke:#181818;stroke-width:1;"/><polygon fill="#181818" points="788.58,188.17,779.58,184.17,783.58,188.17,779.58,192.17,788.58,188.17" style="stroke:#181818;stroke-width:1;"/></g><!--link Application/Server to Restrict refund approval to Support--><g id="link_Application/Server_Restrict refund approval to Support"><path d="M582.03,203 C645.68,203 738,203 738,203 C738,203 738,225.36 738,243.08 " fill="transparent" id="Application/Server-to-Restrict refund approval to Support" style="stroke:#181818;stroke-width:1;"/><polygon fill="#181818" points="738,249.08,742,240.08,738,244.08,734,240.08,738,249.08" style="stroke:#181818;stroke-width:1;"/></g><!--link View requested refunds to Tamper order ID--><g id="link_View requested refunds_Tamper order ID"><path d="M323.04,271 C461.44,271 693,271 693,271 C693,271 693,351 693,351 C693,351 736.61,351 782.15,351 " fill="transparent" id="View requested refunds-to-Tamper order ID" style="stroke:#FF0000;stroke-width:1;"/><polygon fill="#FF0000" points="788.15,351,779.15,347,783.15,351,779.15,355,788.15,351" style="stroke:#FF0000;stroke-width:1;"/><text fill="#000000" font-family="sans-serif" font-size="13" lengthAdjust="spacing" textLength="81.5039" x="513.6" y="284.0669">&#171;Threatens&#187;</text></g><!--link Validate refund conditions to Bypass refund time window--><g id="link_Validate refund conditions_Bypass refund time window"><path d="M939.3,81.5 C1115.16,81.5 1532,81.5 1532,81.5 C1532,81.5 1532,75.32 1532,63.04 " fill="transparent" id="Validate refund conditions-to-Bypass refund time window" style="stroke:#FF0000;stroke-width:1;"/><polygon fill="#FF0000" points="1532,57.04,1528,66.04,1532,62.04,1536,66.04,1532,57.04" style="stroke:#FF0000;stroke-width:1;"/><text fill="#000000" font-family="sans-serif" font-size="13" lengthAdjust="spacing" textLength="81.5039" x="1165.88" y="94.5669">&#171;Threatens&#187;</text></g><!--link Log refund request to Avoid detection or accountability--><g id="link_Log refund request_Avoid detection or accountability"><path d="M863,158.3 C863,155.2 863,153 863,153 C863,153 1271.68,153 1447.83,153 " fill="transparent" id="Log refund request-to-Avoid detection or accountability" style="stroke:#FF0000;stroke-width:1;"/><polygon fill="#FF0000" points="1453.83,153,1444.83,149,1448.83,153,1444.83,157,1453.83,153" style="stroke:#FF0000;stroke-width:1;"/><text fill="#000000" font-family="sans-serif" font-size="13" lengthAdjust="spacing" textLength="81.5039" x="1073.77" y="149.0669">&#171;Threatens&#187;</text></g><!--link Restrict refund approval to Support to Privilege escalation to approve own refund--><g id="link_Restrict refund approval to Support_Privilege escalation to approve own refund"><path d="M1001.12,266.5 C1108.95,266.5 1252.71,266.5 1365.61,266.5 " fill="transparent" id="Restrict refund approval to Support-to-Privilege escalation to approve own refund" style="stroke:#FF0000;stroke-width:1;"/><polygon fill="#FF0000" points="1371.61,266.5,1362.61,262.5,1366.61,266.5,1362.61,270.5,1371.61,266.5" style="stroke:#FF0000;stroke-width:1;"/><text fill="#000000" font-family="sans-serif" font-size="13" lengthAdjust="spacing" textLength="81.5039" x="1104.36" y="279.5669">&#171;Threatens&#187;</text></g><!--link Tamper order ID to Manipulate API body manually--><g id="link_Tamper order ID_Manipulate API body manually"><path d="M923.97,368.25 C987.04,368.25 1076,368.25 1076,368.25 C1076,368.25 1076,388.9 1076,405.35 " fill="transparent" id="Tamper order ID-to-Manipulate API body manually" style="stroke:#181818;stroke-width:1;"/><polygon fill="#181818" points="1076,411.35,1080,402.35,1076,406.35,1072,402.35,1076,411.35" style="stroke:#181818;stroke-width:1;"/></g><!--link Manipulate API body manually to Attacker--><g id="link_Manipulate API body manually_Attacker"><path d="M1296,412.8 C1296,372.33 1296,236 1296,236 C1296,236 1902.96,236 2046.63,236 " fill="transparent" id="Manipulate API body manually-to-Attacker" style="stroke:#181818;stroke-width:1;"/><polygon fill="#181818" points="2052.63,236,2043.63,232,2047.63,236,2043.63,240,2052.63,236" style="stroke:#181818;stroke-width:1;"/></g><!--link Bypass refund time window to Forge client-side timestamps--><g id="link_Bypass refund time window_Forge client-side timestamps"><path d="M1629.33,45 C1674.77,45 1722.74,45 1768.45,45 " fill="transparent" id="Bypass refund time window-to-Forge client-side timestamps" style="stroke:#181818;stroke-width:1;"/><polygon fill="#181818" points="1774.45,45,1765.45,41,1769.45,45,1765.45,49,1774.45,45" style="stroke:#181818;stroke-width:1;"/></g><!--link Forge client-side timestamps to Attacker--><g id="link_Forge client-side timestamps_Attacker"><path d="M1987,67.27 C1987,100.33 1987,221.25 1987,221.25 C1987,221.25 2018.77,221.25 2046.81,221.25 " fill="transparent" id="Forge client-side timestamps-to-Attacker" style="stroke:#181818;stroke-width:1;"/><polygon fill="#181818" points="2052.81,221.25,2043.81,217.25,2047.81,221.25,2043.81,225.25,2052.81,221.25" style="stroke:#181818;stroke-width:1;"/></g><!--link Avoid detection or accountability to Clear or skip logs--><g id="link_Avoid detection or accountability_Clear or skip logs"><path d="M1660.2,182 C1704.87,182 1747.68,182 1787.42,182 " fill="transparent" id="Avoid detection or accountability-to-Clear or skip logs" style="stroke:#181818;stroke-width:1;"/><polygon fill="#181818" points="1793.42,182,1784.42,178,1788.42,182,1784.42,186,1793.42,182" style="stroke:#181818;stroke-width:1;"/></g><!--link Clear or skip logs to Attacker--><g id="link_Clear or skip logs_Attacker"><path d="M1954.52,178.75 C2013.31,178.75 2083,178.75 2083,178.75 C2083,178.75 2083,179.33 2083,187.87 " fill="transparent" id="Clear or skip logs-to-Attacker" style="stroke:#181818;stroke-width:1;"/><polygon fill="#181818" points="2083,193.87,2087,184.87,2083,188.87,2079,184.87,2083,193.87" style="stroke:#181818;stroke-width:1;"/></g><!--link Privilege escalation to approve own refund to Impersonate support role--><g id="link_Privilege escalation to approve own refund_Impersonate support role"><path d="M1694.46,270 C1719.35,270 1738.48,270 1761.75,270 " fill="transparent" id="Privilege escalation to approve own refund-to-Impersonate support role" style="stroke:#181818;stroke-width:1;"/><polygon fill="#181818" points="1767.75,270,1758.75,266,1762.75,270,1758.75,274,1767.75,270" style="stroke:#181818;stroke-width:1;"/></g><!--link Impersonate support role to Attacker--><g id="link_Impersonate support role_Attacker"><path d="M1966.94,258.25 C1997.97,258.25 2024.39,258.25 2046.97,258.25 " fill="transparent" id="Impersonate support role-to-Attacker" style="stroke:#181818;stroke-width:1;"/><polygon fill="#181818" points="2052.97,258.25,2043.97,254.25,2047.97,258.25,2043.97,262.25,2052.97,258.25" style="stroke:#181818;stroke-width:1;"/></g><!--link View requested refunds to Use signed order reference or UUID--><g id="link_View requested refunds_Use signed order reference or UUID"><path d="M309.58,282.25 C359.02,282.25 411,282.25 411,282.25 C411,282.25 411,310.39 411,332.52 " fill="transparent" id="View requested refunds-to-Use signed order reference or UUID" style="stroke:#181818;stroke-width:1;"/><polygon fill="#181818" points="411,338.52,415,329.52,411,333.52,407,329.52,411,338.52" style="stroke:#181818;stroke-width:1;"/></g><!--link Validate refund conditions to Check server-side timestamp--><g id="link_Validate refund conditions_Check server-side timestamp"><path d="M918.92,78 C980.67,78 1071,78 1071,78 C1071,78 1071,59.19 1071,46.01 " fill="transparent" id="Validate refund conditions-to-Check server-side timestamp" style="stroke:#181818;stroke-width:1;"/><polygon fill="#181818" points="1071,40.01,1067,49.01,1071,45.01,1075,49.01,1071,40.01" style="stroke:#181818;stroke-width:1;"/></g><!--link Log refund request to Immutable audit logging--><g id="link_Log refund request_Immutable audit logging"><path d="M948.37,180.75 C990.29,180.75 1034.96,180.75 1078.61,180.75 " fill="transparent" id="Log refund request-to-Immutable audit logging" style="stroke:#181818;stroke-width:1;"/><polygon fill="#181818" points="1084.61,180.75,1075.61,176.75,1079.61,180.75,1075.61,184.75,1084.61,180.75" style="stroke:#181818;stroke-width:1;"/></g><!--link Restrict refund approval to Support to RoleGuard enforcement--><g id="link_Restrict refund approval to Support_RoleGuard enforcement"><path d="M972,282.16 C972,299.22 972,321.5 972,321.5 C972,321.5 1051.89,321.5 1114.45,321.5 " fill="transparent" id="Restrict refund approval to Support-to-RoleGuard enforcement" style="stroke:#181818;stroke-width:1;"/><polygon fill="#181818" points="1120.45,321.5,1111.45,317.5,1115.45,321.5,1111.45,325.5,1120.45,321.5" style="stroke:#181818;stroke-width:1;"/></g><!--link Use signed order reference or UUID to Tamper order ID--><g id="link_Use signed order reference or UUID_Tamper order ID"><path d="M660.6,363 C704.16,363 744.65,363 782.03,363 " fill="transparent" id="Use signed order reference or UUID-to-Tamper order ID" style="stroke:#008000;stroke-width:1;"/><polygon fill="#008000" points="788.03,363,779.03,359,783.03,363,779.03,367,788.03,363" style="stroke:#008000;stroke-width:1;"/><text fill="#000000" font-family="sans-serif" font-size="13" lengthAdjust="spacing" textLength="75.5308" x="725.32" y="376.0669">&#171;Mitigates&#187;</text></g><!--link Check server-side timestamp to Bypass refund time window--><g id="link_Check server-side timestamp_Bypass refund time window"><path d="M1303.92,32 C1340.68,32 1375.03,32 1411.42,32 " fill="transparent" id="Check server-side timestamp-to-Bypass refund time window" style="stroke:#008000;stroke-width:1;"/><polygon fill="#008000" points="1417.42,32,1408.42,28,1412.42,32,1408.42,36,1417.42,32" style="stroke:#008000;stroke-width:1;"/><text fill="#000000" font-family="sans-serif" font-size="13" lengthAdjust="spacing" textLength="75.5308" x="1284.67" y="45.0669">&#171;Mitigates&#187;</text></g><!--link Immutable audit logging to Avoid detection or accountability--><g id="link_Immutable audit logging_Avoid detection or accountability"><path d="M1287.67,184.25 C1324.63,184.25 1360.71,184.25 1399.39,184.25 " fill="transparent" id="Immutable audit logging-to-Avoid detection or accountability" style="stroke:#008000;stroke-width:1;"/><polygon fill="#008000" points="1405.39,184.25,1396.39,180.25,1400.39,184.25,1396.39,188.25,1405.39,184.25" style="stroke:#008000;stroke-width:1;"/><text fill="#000000" font-family="sans-serif" font-size="13" lengthAdjust="spacing" textLength="75.5308" x="1270.53" y="197.3169">&#171;Mitigates&#187;</text></g><!--link RoleGuard enforcement to Privilege escalation to approve own refund--><g id="link_RoleGuard enforcement_Privilege escalation to approve own refund"><path d="M1185,316.17 C1185,308.22 1185,301.25 1185,301.25 C1185,301.25 1313.09,301.25 1414.44,301.25 " fill="transparent" id="RoleGuard enforcement-to-Privilege escalation to approve own refund" style="stroke:#008000;stroke-width:1;"/><polygon fill="#008000" points="1420.44,301.25,1411.44,297.25,1415.44,301.25,1411.44,305.25,1420.44,301.25" style="stroke:#008000;stroke-width:1;"/><text fill="#000000" font-family="sans-serif" font-size="13" lengthAdjust="spacing" textLength="75.5308" x="1219.26" y="297.3169">&#171;Mitigates&#187;</text></g><!--SRC=[bLNRRjD047ttLupA0_GXWZP5fQYgvAHDiKIXIbrutgudpghhNRExJXGX_ftPjGDn4kUYl3XpEMTyvcA94mTEWn7vr44c378dj8higr0bCwm0AHIwHOcWZPlg5OUTiapFXSfXmgJ55SyBuw-vqPNAXbfg0sz6L_uNhOHK5Zcp2ByZWC5Q-C-fSEZjscHeQjj0KX3PHbgvLSkV0q6lhzEfGUPkRgYQKN_G_x0AjkBTGhwQEpmxlpmR7a7x89p8cTVKf_SlXfSVhzhKhOYjz6sCyujFSV_Mby2u8o6UghAatZJ_OkUe12JH3MPHvFl9L2uHJiOueR9W9FNy9DJQ94AlTmFlVWYSWy5V5Lg76JtvO7jAOLskEYykIobuAExz4vePcf2pnTpmC2aovh210QvL9dmO0RRVT2VCLvql4PhAZaeVKu8Ht2qnM5aQFMFIhq8ZomOU2VwMidkGVXdVnUbJj5kOb1KbjI7q4PBRqz0G-0pBQK9b2NId7W5di2YPjKkt4mK2BHrjNXVYDcdgLisqo213L-yubGQCSvfLnrw456xHXNYGMe7YqOYPa9WZeELC1kbyL9r1DsIk6f0EhfR4S7kNnibNKdf3pC3sm9GeA-dLYnyJUD7P0WgcAYRbuXJ-hssq9zA3BVScsYLuO1rfG-_7fK3bUbPa66Aien9jctLtP9lrWEO4zg54veK0kZybI9slSMxpjvcEwL6WJBpsLYkldcrkXj4IsyJTKItwfi4FIPhSnsdo_Tk-FNgcosf5hiXHjv_SQ51n_qM2vsS_3MkRkd-fXbFahs33ILZhp2PQvq8bHL5HU-YuiehmlTevVGyt4GvVe34fTbynam6gYJOS2vgT3S2bYBKDhNz1LG-EZGvIhED4vGPHXQNyXns6QfTSUwzK1sYdUWSVgmxW3WsFFr1RyVy2]--></g></svg>