<?xml version="1.0" encoding="us-ascii" standalone="no"?><svg xmlns="http://www.w3.org/2000/svg" xmlns:xlink="http://www.w3.org/1999/xlink" contentStyleType="text/css" height="586px" preserveAspectRatio="none" style="width:712px;height:586px;background:#FFFFFF;" version="1.1" viewBox="0 0 712 586" width="712px" zoomAndPan="magnify"><defs/><g><text fill="#000000" font-family="Segoe UI" font-size="14" font-weight="bold" lengthAdjust="spacing" textLength="327" x="185.5828" y="25.1074">eMovieShop - Production Deployment Topology</text><!--cluster gh--><g id="cluster_gh"><path d="M27.6346,53.9074 C32.7367,48.6649 36.9383,48.7786 41.3733,54.7264 C45.5074,48.0905 50.4806,47.1026 55.2562,54.0719 C59.4101,46.5338 67.6541,46.2504 72.7098,52.9678 C77.4229,46.8041 83.2259,46.1868 87.2512,53.6991 C91.4067,46.3783 95.7612,47.1568 100.4459,53.1757 C104.7458,47.0867 111.2726,46.4236 115.2123,53.5773 C120.2622,45.6211 125.9971,47.56 130.7495,53.9007 C136.1605,47.188 141.755,47.0724 146.4383,54.697 C151.3152,47.547 156.6117,47.3008 160.8904,55.269 C165.3223,48.6333 171.5053,48.4239 175.6223,55.6047 C180.9968,48.0247 186.7016,48.3089 192.1777,55.4908 C201.1958,46.7688 208.6882,48.421 212.1656,60.7513 C214.2144,60.2515 215.1102,61.3302 214.7091,63.2874 C221.8782,67.5662 220.6945,72.2816 214.5762,76.426 C223.6722,79.2697 223.3349,86.568 217.2361,92.0059 C224.8481,97.2842 223.7977,101.8983 216.5706,106.4951 C224.3556,110.5098 224.674,116.4815 216.8929,120.8457 C223.6613,126.5544 224.2127,131.9129 215.4344,136.139 C223.7617,148.481 218.2323,155.5744 205.1656,157.7513 C205.6149,157.7122 205.7768,157.9735 205.5866,158.3697 C201.1906,164.3768 196.3942,165.426 192.065,158.301 C188.3712,165.978 183.5432,167.2506 177.1273,161.2806 C171.7241,170.0158 166.8155,168.1486 161.1211,161.5853 C156.1913,167.6985 150.898,167.6206 147.5926,159.9867 C144.9046,168.1984 137.939,169.6204 132.3963,162.89 C127.0732,169.4806 121.2723,169.8123 116.5769,162.1913 C112.3695,167.9349 106.0566,168.2302 102.1116,161.8776 C97.2099,169.4394 91.1394,170.3703 86.3249,161.7923 C81.2961,168.1797 76.3999,167.5102 71.6711,161.4393 C66.1082,167.9798 59.9043,167.4053 56.1434,159.5022 C52.6529,166.7394 45.4848,168.7107 40.6719,160.858 C29.1572,169.1109 19.9786,164.1031 18.1656,150.7513 C19.194,151.0301 19.5326,151.5453 18.947,152.5323 C11.2568,147.7667 9.647,142.9178 17.1739,136.4721 C9.9449,133.397 9.0635,127.3491 15.4919,122.6162 C8.0638,119.258 7.3068,113.666 13.0551,108.0965 C6,102.5979 7.5647,96.5292 15.29,93.2566 C8.1424,87.3341 10.2102,81.2096 18.0898,78.0547 C9.1739,66.9813 10.367,57.9203 25.1656,53.7513 C26.0446,52.7362 26.901,52.6234 27.6346,53.9074 " fill="none" style="stroke:#181818;stroke-width:1.0;"/><text fill="#000000" font-family="Segoe UI" font-size="14" font-weight="bold" lengthAdjust="spacing" textLength="47" x="91.6656" y="73.8588">GitHub</text></g><!--cluster vm--><g id="cluster_vm"><polygon fill="#EBF5FB" points="107.1656,251.7513,117.1656,241.7513,695.1656,241.7513,695.1656,559.7513,685.1656,569.7513,107.1656,569.7513,107.1656,251.7513" style="stroke:#2C3E50;stroke-width:1.0;"/><line style="stroke:#2C3E50;stroke-width:1.0;" x1="685.1656" x2="695.1656" y1="251.7513" y2="241.7513"/><line style="stroke:#2C3E50;stroke-width:1.0;" x1="107.1656" x2="685.1656" y1="251.7513" y2="251.7513"/><line style="stroke:#2C3E50;stroke-width:1.0;" x1="685.1656" x2="685.1656" y1="251.7513" y2="569.7513"/><text fill="#1B2631" font-family="Segoe UI" font-size="14" font-weight="bold" lengthAdjust="spacing" textLength="149" x="322.6656" y="269.8588">Production VM (Linux)</text></g><!--cluster docker--><g id="cluster_docker"><polygon fill="#EBF5FB" points="425.1656,309.7513,435.1656,299.7513,663.1656,299.7513,663.1656,404.7513,653.1656,414.7513,425.1656,414.7513,425.1656,309.7513" style="stroke:#2C3E50;stroke-width:1.0;"/><line style="stroke:#2C3E50;stroke-width:1.0;" x1="653.1656" x2="663.1656" y1="309.7513" y2="299.7513"/><line style="stroke:#2C3E50;stroke-width:1.0;" x1="425.1656" x2="653.1656" y1="309.7513" y2="309.7513"/><line style="stroke:#2C3E50;stroke-width:1.0;" x1="653.1656" x2="653.1656" y1="309.7513" y2="414.7513"/><text fill="#1B2631" font-family="Segoe UI" font-size="14" font-weight="bold" lengthAdjust="spacing" textLength="96" x="492.1656" y="327.8588">Docker Engine</text></g><!--entity runner--><g id="elem_runner"><polygon fill="#EBF5FB" points="26.1656,92.7513,36.1656,82.7513,204.1656,82.7513,204.1656,139.9935,194.1656,149.9935,26.1656,149.9935,26.1656,92.7513" style="stroke:#2C3E50;stroke-width:0.5;"/><line style="stroke:#2C3E50;stroke-width:0.5;" x1="194.1656" x2="204.1656" y1="92.7513" y2="82.7513"/><line style="stroke:#2C3E50;stroke-width:0.5;" x1="26.1656" x2="194.1656" y1="92.7513" y2="92.7513"/><line style="stroke:#2C3E50;stroke-width:0.5;" x1="194.1656" x2="194.1656" y1="92.7513" y2="149.9935"/><text fill="#1B2631" font-family="Segoe UI" font-size="14" lengthAdjust="spacing" textLength="138" x="41.1656" y="117.8588">GitHub Actions runner</text><text fill="#1B2631" font-family="Segoe UI" font-size="14" lengthAdjust="spacing" textLength="72" x="41.1656" y="136.4798">(ephemeral)</text></g><!--entity mysql--><g id="elem_mysql"><path d="M500.1656,489.7513 C500.1656,479.7513 544.1656,479.7513 544.1656,479.7513 C544.1656,479.7513 588.1656,479.7513 588.1656,489.7513 L588.1656,535.9935 C588.1656,545.9935 544.1656,545.9935 544.1656,545.9935 C544.1656,545.9935 500.1656,545.9935 500.1656,535.9935 L500.1656,489.7513 " fill="#FEF9E7" style="stroke:#B7950B;stroke-width:0.5;"/><path d="M500.1656,489.7513 C500.1656,499.7513 544.1656,499.7513 544.1656,499.7513 C544.1656,499.7513 588.1656,499.7513 588.1656,489.7513 " fill="none" style="stroke:#B7950B;stroke-width:0.5;"/><text fill="#000000" font-family="Segoe UI" font-size="14" lengthAdjust="spacing" textLength="68" x="510.1656" y="518.8588">MySQL 8.0</text><text fill="#000000" font-family="Segoe UI" font-size="14" lengthAdjust="spacing" textLength="62" x="510.1656" y="537.4798">(localhost)</text></g><!--entity receipts--><g id="elem_receipts"><path d="M153.1656,341.7513 L194.1656,341.7513 A3.75,3.75 0 0 1 196.6656,344.2513 L203.6656,362.7513 L335.1656,362.7513 A2.5,2.5 0 0 1 337.6656,365.2513 L337.6656,395.8724 A2.5,2.5 0 0 1 335.1656,398.3724 L153.1656,398.3724 A2.5,2.5 0 0 1 150.6656,395.8724 L150.6656,344.2513 A2.5,2.5 0 0 1 153.1656,341.7513 " fill="#F4ECF7" style="stroke:#6C3483;stroke-width:0.5;"/><line style="stroke:#6C3483;stroke-width:0.5;" x1="150.6656" x2="203.6656" y1="362.7513" y2="362.7513"/><text fill="#000000" font-family="Segoe UI" font-size="14" lengthAdjust="spacing" textLength="157" x="160.6656" y="384.8588">/opt/emovieshop/receipts</text></g><!--entity app--><g id="elem_app"><rect fill="#FDFEFE" height="57.2422" rx="2.5" ry="2.5" style="stroke:#2C3E50;stroke-width:0.5;" width="206" x="441.1656" y="341.7513"/><text fill="#1B2631" font-family="Segoe UI" font-size="14" lengthAdjust="spacing" textLength="110" x="451.1656" y="366.8588">emovieshop:latest</text><text fill="#1B2631" font-family="Segoe UI" font-size="14" lengthAdjust="spacing" textLength="186" x="451.1656" y="385.4798">(rootless container, port 8080)</text></g><!--link runner to vm--><g id="link_runner_vm"><path d="M115.1656,149.9413 C115.1656,166.7213 115.1656,188.5245 115.1656,211.8621 C115.1656,217.6965 115.1656,223.6269 115.1656,229.5986 C115.1656,232.5844 115.1656,235.5806 115.1656,238.5804 C115.1656,239.3303 115.1656,234.0805 115.1656,234.8308 " fill="none" id="runner-to-vm" style="stroke:#2C3E50;stroke-width:1.0;"/><polygon fill="#2C3E50" points="115.1656,240.8308,119.1656,231.8308,115.1656,235.8308,111.1656,231.8308,115.1656,240.8308" style="stroke:#2C3E50;stroke-width:1.0;"/><text fill="#000000" font-family="Segoe UI" font-size="13" lengthAdjust="spacing" textLength="58" x="122.6656" y="196.7797">SSH / SCP</text><text fill="#000000" font-family="Segoe UI" font-size="13" lengthAdjust="spacing" textLength="71" x="116.1656" y="214.0707">(deploy job)</text></g><!--link app to mysql--><g id="link_app_mysql"><path d="M544.1656,399.0113 C544.1656,422.2013 544.1656,449.2913 544.1656,473.6213 " fill="none" id="app-to-mysql" style="stroke:#2C3E50;stroke-width:1.0;"/><polygon fill="#2C3E50" points="544.1656,479.6213,548.1656,470.6213,544.1656,474.6213,540.1656,470.6213,544.1656,479.6213" style="stroke:#2C3E50;stroke-width:1.0;"/><text fill="#000000" font-family="Segoe UI" font-size="13" lengthAdjust="spacing" textLength="95" x="545.1656" y="445.7797">JDBC (loopback)</text></g><!--link app to receipts--><g id="link_app_receipts"><path d="M441.0256,370.2513 C407.5456,370.2513 376.6056,370.2513 343.8556,370.2513 " fill="none" id="app-to-receipts" style="stroke:#2C3E50;stroke-width:1.0;"/><polygon fill="#2C3E50" points="337.8556,370.2513,346.8556,374.2513,342.8556,370.2513,346.8556,366.2513,337.8556,370.2513" style="stroke:#2C3E50;stroke-width:1.0;"/><text fill="#000000" font-family="Segoe UI" font-size="13" lengthAdjust="spacing" textLength="67" x="355.9156" y="363.2797">bind mount</text></g><!--SRC=[dP9DJzj048Rl_XLJSm6fQG8X43XKYfqrK2MKnhIdIjN6kt5SrZlRtJKqglZl7NyKabQvzE23PzvvPjxPUIFagj0I5Yo-dznUpTYtwEDYoXPmS18FsMWGk8T26svv2LPcdkjSIVWL04GyUyWjLbh4gD32GJ9DMCBg35eXRHVjA009Qj_5ZgEJi-5nyBp5rYZsO5cKZ9BeFx62UxxaRj_4BBbWvt-Ze_EBqI3QmQnGKNuFv9J5oJ-GitXuEXxkG2RMujFk-A_9gLpnIldQpIql9OIfp572vvim27pXQUToZe-5JDTee0Tt5aML-G8rLHg5cr9g3_Te29zlWY1JM0a8hmf_NIr3u0xoTJD-i-Sk3fE6uC1MMalxLHzAivQbj5mTDJLjd4m4RTbMrozpE9mLklhPAX_BBVeKimVQ5jCv7LQJ5csabi3M6OMoh3qvydIfk9VEqmmMaUmw1ndjWXF1lWM3riDuC1wqtRWnH7gcx-Lzm_ac_JI3yRi18HHcNAtH-LPURjmFHUBk5SC-6jz_RTsdWMHXl6izTp-rwzO_z0G-wTxxskGbfEarz26DxwYFQ5OFtt5v5D1CByAc8Ma_JACOQ1eqIxgQJcEBVEr9zASHwPQ55b3IJVdWDm00]--></g></svg>