<?xml version="1.0" encoding="us-ascii" standalone="no"?><svg xmlns="http://www.w3.org/2000/svg" xmlns:xlink="http://www.w3.org/1999/xlink" contentStyleType="text/css" height="1016px" preserveAspectRatio="none" style="width:1270px;height:1016px;background:#FFFFFF;" version="1.1" viewBox="0 0 1270 1016" width="1270px" zoomAndPan="magnify"><defs/><g><text fill="#000000" font-family="sans-serif" font-size="14" font-weight="bold" lengthAdjust="spacing" textLength="430" x="421" y="30.1074">Sequence Diagram: As a Customer, I want to request a refund</text><rect fill="#FFFFFF" height="782.3242" style="stroke:#181818;stroke-width:1.0;" width="10" x="33.5" y="133.2422"/><rect fill="#FFFFFF" height="759.0332" style="stroke:#181818;stroke-width:1.0;" width="10" x="203.5" y="156.5332"/><rect fill="#FFFFFF" height="704.4512" style="stroke:#181818;stroke-width:1.0;" width="10" x="480.5" y="187.8242"/><rect fill="#FFFFFF" height="673.1602" style="stroke:#181818;stroke-width:1.0;" width="10" x="648.5" y="219.1152"/><rect fill="#FFFFFF" height="31.291" style="stroke:#181818;stroke-width:1.0;" width="10" x="949.5" y="294.6973"/><rect fill="#FFFFFF" height="31.291" style="stroke:#181818;stroke-width:1.0;" width="10" x="1083" y="490.1523"/><rect fill="#FFFFFF" height="31.291" style="stroke:#181818;stroke-width:1.0;" width="10" x="1083" y="579.0254"/><rect fill="#FFFFFF" height="31.291" style="stroke:#181818;stroke-width:1.0;" width="10" x="1202.5" y="641.6074"/><rect fill="#FFFFFF" height="31.291" style="stroke:#181818;stroke-width:1.0;" width="10" x="1202.5" y="783.4023"/><rect fill="none" height="348.832" style="stroke:#000000;stroke-width:1.5;" width="1102" x="161" y="536.4434"/><line style="stroke:#181818;stroke-width:0.5;stroke-dasharray:5.0,5.0;" x1="38" x2="38" y1="123.2422" y2="933.5664"/><line style="stroke:#181818;stroke-width:0.5;stroke-dasharray:5.0,5.0;" x1="208" x2="208" y1="123.2422" y2="933.5664"/><line style="stroke:#181818;stroke-width:0.5;stroke-dasharray:5.0,5.0;" x1="485.5" x2="485.5" y1="123.2422" y2="933.5664"/><line style="stroke:#181818;stroke-width:0.5;stroke-dasharray:5.0,5.0;" x1="653" x2="653" y1="123.2422" y2="933.5664"/><line style="stroke:#181818;stroke-width:0.5;stroke-dasharray:5.0,5.0;" x1="954" x2="954" y1="123.2422" y2="933.5664"/><line style="stroke:#181818;stroke-width:0.5;stroke-dasharray:5.0,5.0;" x1="1088" x2="1088" y1="123.2422" y2="933.5664"/><line style="stroke:#181818;stroke-width:0.5;stroke-dasharray:5.0,5.0;" x1="1207" x2="1207" y1="123.2422" y2="933.5664"/><text fill="#000000" font-family="sans-serif" font-size="14" lengthAdjust="spacing" textLength="61" x="5" y="119.7285">Customer</text><ellipse cx="38.5" cy="53.1211" fill="#E2E2F0" rx="8" ry="8" style="stroke:#181818;stroke-width:0.5;"/><path d="M38.5,61.1211 L38.5,88.1211 M25.5,69.1211 L51.5,69.1211 M38.5,88.1211 L25.5,103.1211 M38.5,88.1211 L51.5,103.1211 " fill="none" style="stroke:#181818;stroke-width:0.5;"/><text fill="#000000" font-family="sans-serif" font-size="14" lengthAdjust="spacing" textLength="61" x="5" y="947.6738">Customer</text><ellipse cx="38.5" cy="959.6875" fill="#E2E2F0" rx="8" ry="8" style="stroke:#181818;stroke-width:0.5;"/><path d="M38.5,967.6875 L38.5,994.6875 M25.5,975.6875 L51.5,975.6875 M38.5,994.6875 L25.5,1009.6875 M38.5,994.6875 L51.5,1009.6875 " fill="none" style="stroke:#181818;stroke-width:0.5;"/><rect fill="#E2E2F0" height="32.6211" rx="2.5" ry="2.5" style="stroke:#181818;stroke-width:0.5;" width="75" x="171" y="89.6211"/><text fill="#000000" font-family="sans-serif" font-size="14" lengthAdjust="spacing" textLength="61" x="178" y="111.7285">API Client</text><rect fill="#E2E2F0" height="32.6211" rx="2.5" ry="2.5" style="stroke:#181818;stroke-width:0.5;" width="75" x="171" y="932.5664"/><text fill="#000000" font-family="sans-serif" font-size="14" lengthAdjust="spacing" textLength="61" x="178" y="954.6738">API Client</text><rect fill="#E2E2F0" height="32.6211" rx="2.5" ry="2.5" style="stroke:#181818;stroke-width:0.5;" width="122" x="424.5" y="89.6211"/><text fill="#000000" font-family="sans-serif" font-size="14" lengthAdjust="spacing" textLength="108" x="431.5" y="111.7285">RefundController</text><rect fill="#E2E2F0" height="32.6211" rx="2.5" ry="2.5" style="stroke:#181818;stroke-width:0.5;" width="122" x="424.5" y="932.5664"/><text fill="#000000" font-family="sans-serif" font-size="14" lengthAdjust="spacing" textLength="108" x="431.5" y="954.6738">RefundController</text><rect fill="#E2E2F0" height="32.6211" rx="2.5" ry="2.5" style="stroke:#181818;stroke-width:0.5;" width="107" x="600" y="89.6211"/><text fill="#000000" font-family="sans-serif" font-size="14" lengthAdjust="spacing" textLength="93" x="607" y="111.7285">RefundService</text><rect fill="#E2E2F0" height="32.6211" rx="2.5" ry="2.5" style="stroke:#181818;stroke-width:0.5;" width="107" x="600" y="932.5664"/><text fill="#000000" font-family="sans-serif" font-size="14" lengthAdjust="spacing" textLength="93" x="607" y="954.6738">RefundService</text><rect fill="#E2E2F0" height="32.6211" rx="2.5" ry="2.5" style="stroke:#181818;stroke-width:0.5;" width="119" x="895" y="89.6211"/><text fill="#000000" font-family="sans-serif" font-size="14" lengthAdjust="spacing" textLength="105" x="902" y="111.7285">OrderRepository</text><rect fill="#E2E2F0" height="32.6211" rx="2.5" ry="2.5" style="stroke:#181818;stroke-width:0.5;" width="119" x="895" y="932.5664"/><text fill="#000000" font-family="sans-serif" font-size="14" lengthAdjust="spacing" textLength="105" x="902" y="954.6738">OrderRepository</text><rect fill="#E2E2F0" height="32.6211" rx="2.5" ry="2.5" style="stroke:#181818;stroke-width:0.5;" width="128" x="1024" y="89.6211"/><text fill="#000000" font-family="sans-serif" font-size="14" lengthAdjust="spacing" textLength="114" x="1031" y="111.7285">RefundRepository</text><rect fill="#E2E2F0" height="32.6211" rx="2.5" ry="2.5" style="stroke:#181818;stroke-width:0.5;" width="128" x="1024" y="932.5664"/><text fill="#000000" font-family="sans-serif" font-size="14" lengthAdjust="spacing" textLength="114" x="1031" y="954.6738">RefundRepository</text><rect fill="#E2E2F0" height="32.6211" rx="2.5" ry="2.5" style="stroke:#181818;stroke-width:0.5;" width="91" x="1162" y="89.6211"/><text fill="#000000" font-family="sans-serif" font-size="14" lengthAdjust="spacing" textLength="77" x="1169" y="111.7285">AuditLogger</text><rect fill="#E2E2F0" height="32.6211" rx="2.5" ry="2.5" style="stroke:#181818;stroke-width:0.5;" width="91" x="1162" y="932.5664"/><text fill="#000000" font-family="sans-serif" font-size="14" lengthAdjust="spacing" textLength="77" x="1169" y="954.6738">AuditLogger</text><rect fill="#FFFFFF" height="782.3242" style="stroke:#181818;stroke-width:1.0;" width="10" x="33.5" y="133.2422"/><rect fill="#FFFFFF" height="759.0332" style="stroke:#181818;stroke-width:1.0;" width="10" x="203.5" y="156.5332"/><rect fill="#FFFFFF" height="704.4512" style="stroke:#181818;stroke-width:1.0;" width="10" x="480.5" y="187.8242"/><rect fill="#FFFFFF" height="673.1602" style="stroke:#181818;stroke-width:1.0;" width="10" x="648.5" y="219.1152"/><rect fill="#FFFFFF" height="31.291" style="stroke:#181818;stroke-width:1.0;" width="10" x="949.5" y="294.6973"/><rect fill="#FFFFFF" height="31.291" style="stroke:#181818;stroke-width:1.0;" width="10" x="1083" y="490.1523"/><rect fill="#FFFFFF" height="31.291" style="stroke:#181818;stroke-width:1.0;" width="10" x="1083" y="579.0254"/><rect fill="#FFFFFF" height="31.291" style="stroke:#181818;stroke-width:1.0;" width="10" x="1202.5" y="641.6074"/><rect fill="#FFFFFF" height="31.291" style="stroke:#181818;stroke-width:1.0;" width="10" x="1202.5" y="783.4023"/><polygon fill="#181818" points="191.5,152.5332,201.5,156.5332,191.5,160.5332,195.5,156.5332" style="stroke:#181818;stroke-width:1.0;"/><line style="stroke:#181818;stroke-width:1.0;" x1="43.5" x2="197.5" y1="156.5332" y2="156.5332"/><text fill="#000000" font-family="sans-serif" font-size="13" lengthAdjust="spacing" textLength="127" x="50.5" y="151.2705">Submit refund request</text><polygon fill="#181818" points="468.5,183.8242,478.5,187.8242,468.5,191.8242,472.5,187.8242" style="stroke:#181818;stroke-width:1.0;"/><line style="stroke:#181818;stroke-width:1.0;" x1="213.5" x2="474.5" y1="187.8242" y2="187.8242"/><text fill="#000000" font-family="sans-serif" font-size="13" lengthAdjust="spacing" textLength="248" x="220.5" y="182.5615">createRefund(orderId, reason, userContext)</text><polygon fill="#181818" points="636.5,215.1152,646.5,219.1152,636.5,223.1152,640.5,219.1152" style="stroke:#181818;stroke-width:1.0;"/><line style="stroke:#181818;stroke-width:1.0;" x1="490.5" x2="642.5" y1="219.1152" y2="219.1152"/><text fill="#000000" font-family="sans-serif" font-size="13" lengthAdjust="spacing" textLength="134" x="497.5" y="213.8525">Process refund request</text><line style="stroke:#181818;stroke-width:1.0;" x1="658.5" x2="700.5" y1="250.4063" y2="250.4063"/><line style="stroke:#181818;stroke-width:1.0;" x1="700.5" x2="700.5" y1="250.4063" y2="263.4063"/><line style="stroke:#181818;stroke-width:1.0;" x1="659.5" x2="700.5" y1="263.4063" y2="263.4063"/><polygon fill="#181818" points="669.5,259.4063,659.5,263.4063,669.5,267.4063,665.5,263.4063" style="stroke:#181818;stroke-width:1.0;"/><text fill="#000000" font-family="sans-serif" font-size="13" lengthAdjust="spacing" textLength="213" x="665.5" y="245.1436">Validate payload and sanitize reason</text><polygon fill="#181818" points="937.5,290.6973,947.5,294.6973,937.5,298.6973,941.5,294.6973" style="stroke:#181818;stroke-width:1.0;"/><line style="stroke:#181818;stroke-width:1.0;" x1="658.5" x2="943.5" y1="294.6973" y2="294.6973"/><text fill="#000000" font-family="sans-serif" font-size="13" lengthAdjust="spacing" textLength="119" x="665.5" y="289.4346">Find order by orderId</text><polygon fill="#181818" points="669.5,321.9883,659.5,325.9883,669.5,329.9883,665.5,325.9883" style="stroke:#181818;stroke-width:1.0;"/><line style="stroke:#181818;stroke-width:1.0;stroke-dasharray:2.0,2.0;" x1="663.5" x2="953.5" y1="325.9883" y2="325.9883"/><text fill="#000000" font-family="sans-serif" font-size="13" lengthAdjust="spacing" textLength="61" x="675.5" y="320.7256">Order data</text><line style="stroke:#181818;stroke-width:1.0;" x1="658.5" x2="700.5" y1="357.2793" y2="357.2793"/><line style="stroke:#181818;stroke-width:1.0;" x1="700.5" x2="700.5" y1="357.2793" y2="370.2793"/><line style="stroke:#181818;stroke-width:1.0;" x1="659.5" x2="700.5" y1="370.2793" y2="370.2793"/><polygon fill="#181818" points="669.5,366.2793,659.5,370.2793,669.5,374.2793,665.5,370.2793" style="stroke:#181818;stroke-width:1.0;"/><text fill="#000000" font-family="sans-serif" font-size="13" lengthAdjust="spacing" textLength="277" x="665.5" y="352.0166">Validate ownership (order.customerId == userId)</text><line style="stroke:#181818;stroke-width:1.0;" x1="658.5" x2="700.5" y1="401.5703" y2="401.5703"/><line style="stroke:#181818;stroke-width:1.0;" x1="700.5" x2="700.5" y1="401.5703" y2="414.5703"/><line style="stroke:#181818;stroke-width:1.0;" x1="659.5" x2="700.5" y1="414.5703" y2="414.5703"/><polygon fill="#181818" points="669.5,410.5703,659.5,414.5703,669.5,418.5703,665.5,414.5703" style="stroke:#181818;stroke-width:1.0;"/><text fill="#000000" font-family="sans-serif" font-size="13" lengthAdjust="spacing" textLength="216" x="665.5" y="396.3076">Validate order status = COMPLETED</text><line style="stroke:#181818;stroke-width:1.0;" x1="658.5" x2="700.5" y1="445.8613" y2="445.8613"/><line style="stroke:#181818;stroke-width:1.0;" x1="700.5" x2="700.5" y1="445.8613" y2="458.8613"/><line style="stroke:#181818;stroke-width:1.0;" x1="659.5" x2="700.5" y1="458.8613" y2="458.8613"/><polygon fill="#181818" points="669.5,454.8613,659.5,458.8613,669.5,462.8613,665.5,458.8613" style="stroke:#181818;stroke-width:1.0;"/><text fill="#000000" font-family="sans-serif" font-size="13" lengthAdjust="spacing" textLength="203" x="665.5" y="440.5986">Validate purchase date &lt;= 14 days</text><polygon fill="#181818" points="1071,486.1523,1081,490.1523,1071,494.1523,1075,490.1523" style="stroke:#181818;stroke-width:1.0;"/><line style="stroke:#181818;stroke-width:1.0;" x1="658.5" x2="1077" y1="490.1523" y2="490.1523"/><text fill="#000000" font-family="sans-serif" font-size="13" lengthAdjust="spacing" textLength="223" x="665.5" y="484.8896">Check existing refund request for order</text><polygon fill="#181818" points="669.5,517.4434,659.5,521.4434,669.5,525.4434,665.5,521.4434" style="stroke:#181818;stroke-width:1.0;"/><line style="stroke:#181818;stroke-width:1.0;stroke-dasharray:2.0,2.0;" x1="663.5" x2="1087" y1="521.4434" y2="521.4434"/><text fill="#000000" font-family="sans-serif" font-size="13" lengthAdjust="spacing" textLength="189" x="675.5" y="516.1807">Existing request status (or none)</text><path d="M161,536.4434 L222,536.4434 L222,545.7344 L212,555.7344 L161,555.7344 L161,536.4434 " fill="#EEEEEE" style="stroke:#000000;stroke-width:1.5;"/><rect fill="none" height="348.832" style="stroke:#000000;stroke-width:1.5;" width="1102" x="161" y="536.4434"/><text fill="#000000" font-family="sans-serif" font-size="13" font-weight="bold" lengthAdjust="spacing" textLength="16" x="176" y="551.4717">alt</text><text fill="#000000" font-family="sans-serif" font-size="11" font-weight="bold" lengthAdjust="spacing" textLength="135" x="237" y="550.3135">[Refund request is valid]</text><polygon fill="#181818" points="1071,575.0254,1081,579.0254,1071,583.0254,1075,579.0254" style="stroke:#181818;stroke-width:1.0;"/><line style="stroke:#181818;stroke-width:1.0;" x1="658.5" x2="1077" y1="579.0254" y2="579.0254"/><text fill="#000000" font-family="sans-serif" font-size="13" lengthAdjust="spacing" textLength="268" x="665.5" y="573.7627">Create refund request (status = REQUESTED)</text><polygon fill="#181818" points="669.5,606.3164,659.5,610.3164,669.5,614.3164,665.5,610.3164" style="stroke:#181818;stroke-width:1.0;"/><line style="stroke:#181818;stroke-width:1.0;stroke-dasharray:2.0,2.0;" x1="663.5" x2="1087" y1="610.3164" y2="610.3164"/><text fill="#000000" font-family="sans-serif" font-size="13" lengthAdjust="spacing" textLength="131" x="675.5" y="605.0537">Created refund request</text><polygon fill="#181818" points="1190.5,637.6074,1200.5,641.6074,1190.5,645.6074,1194.5,641.6074" style="stroke:#181818;stroke-width:1.0;"/><line style="stroke:#181818;stroke-width:1.0;" x1="658.5" x2="1196.5" y1="641.6074" y2="641.6074"/><text fill="#000000" font-family="sans-serif" font-size="13" lengthAdjust="spacing" textLength="216" x="665.5" y="636.3447">Log security event (refund_requested)</text><polygon fill="#181818" points="669.5,668.8984,659.5,672.8984,669.5,676.8984,665.5,672.8984" style="stroke:#181818;stroke-width:1.0;"/><line style="stroke:#181818;stroke-width:1.0;stroke-dasharray:2.0,2.0;" x1="663.5" x2="1206.5" y1="672.8984" y2="672.8984"/><text fill="#000000" font-family="sans-serif" font-size="13" lengthAdjust="spacing" textLength="95" x="675.5" y="667.6357">Log confirmation</text><polygon fill="#181818" points="501.5,700.1895,491.5,704.1895,501.5,708.1895,497.5,704.1895" style="stroke:#181818;stroke-width:1.0;"/><line style="stroke:#181818;stroke-width:1.0;stroke-dasharray:2.0,2.0;" x1="495.5" x2="647.5" y1="704.1895" y2="704.1895"/><text fill="#000000" font-family="sans-serif" font-size="13" lengthAdjust="spacing" textLength="134" x="507.5" y="698.9268">Refund request created</text><polygon fill="#181818" points="224.5,731.4805,214.5,735.4805,224.5,739.4805,220.5,735.4805" style="stroke:#181818;stroke-width:1.0;"/><line style="stroke:#181818;stroke-width:1.0;stroke-dasharray:2.0,2.0;" x1="218.5" x2="479.5" y1="735.4805" y2="735.4805"/><text fill="#000000" font-family="sans-serif" font-size="13" lengthAdjust="spacing" textLength="179" x="230.5" y="730.2178">201 Created + refund summary</text><line style="stroke:#000000;stroke-width:1.0;stroke-dasharray:2.0,2.0;" x1="161" x2="1263" y1="744.4805" y2="744.4805"/><text fill="#000000" font-family="sans-serif" font-size="11" font-weight="bold" lengthAdjust="spacing" textLength="95" x="166" y="756.3506">[Validation failed]</text><polygon fill="#181818" points="1190.5,779.4023,1200.5,783.4023,1190.5,787.4023,1194.5,783.4023" style="stroke:#181818;stroke-width:1.0;"/><line style="stroke:#181818;stroke-width:1.0;" x1="658.5" x2="1196.5" y1="783.4023" y2="783.4023"/><text fill="#000000" font-family="sans-serif" font-size="13" lengthAdjust="spacing" textLength="239" x="665.5" y="778.1396">Log security event (refund_request_failed)</text><polygon fill="#181818" points="669.5,810.6934,659.5,814.6934,669.5,818.6934,665.5,814.6934" style="stroke:#181818;stroke-width:1.0;"/><line style="stroke:#181818;stroke-width:1.0;stroke-dasharray:2.0,2.0;" x1="663.5" x2="1206.5" y1="814.6934" y2="814.6934"/><text fill="#000000" font-family="sans-serif" font-size="13" lengthAdjust="spacing" textLength="95" x="675.5" y="809.4307">Log confirmation</text><polygon fill="#181818" points="501.5,841.9844,491.5,845.9844,501.5,849.9844,497.5,845.9844" style="stroke:#181818;stroke-width:1.0;"/><line style="stroke:#181818;stroke-width:1.0;stroke-dasharray:2.0,2.0;" x1="495.5" x2="647.5" y1="845.9844" y2="845.9844"/><text fill="#000000" font-family="sans-serif" font-size="13" lengthAdjust="spacing" textLength="87" x="507.5" y="840.7217">Validation error</text><polygon fill="#181818" points="224.5,873.2754,214.5,877.2754,224.5,881.2754,220.5,877.2754" style="stroke:#181818;stroke-width:1.0;"/><line style="stroke:#181818;stroke-width:1.0;stroke-dasharray:2.0,2.0;" x1="218.5" x2="479.5" y1="877.2754" y2="877.2754"/><text fill="#000000" font-family="sans-serif" font-size="13" lengthAdjust="spacing" textLength="155" x="230.5" y="872.0127">400/403/409 + error details</text><polygon fill="#181818" points="49.5,911.5664,39.5,915.5664,49.5,919.5664,45.5,915.5664" style="stroke:#181818;stroke-width:1.0;"/><line style="stroke:#181818;stroke-width:1.0;stroke-dasharray:2.0,2.0;" x1="43.5" x2="207.5" y1="915.5664" y2="915.5664"/><text fill="#000000" font-family="sans-serif" font-size="13" lengthAdjust="spacing" textLength="136" x="55.5" y="910.3037">Display operation result</text><!--SRC=[hLJ1Zjem43tZhnXn0dMtPLikZKebbAKI4XNKQNjTUUE1jHhir7ROfL-_OoU11D53fHuYnV5xC- -zZEsLBn266VwkKES8zqhihDWdC7SW8AsSDtkqDx24Pw4zU0CsG9sdNOlRIiiXOoBtnfx0h1JMgroLWJ2SRvQG5Wgr7u9mGClUFeyrKgEzDKM1Dc1uUWMIeJqe4XZsizx-sagq74lZ5Cau1iIQNwdGX_0-P5v9vLTcjwibp5VHbJe8ZsTZxGlSVWv64iYgnxtoJH1jCcTYCCj208JdQGAvHVfSgncP87ifRuWcdD4tK3cq8GXyyUDp3Gg3yJHMo1BOM9EZSt_jID7mh0N_58MIuMifZeKH4WHHdD3Agp_Oj6tWQvx05qNRKHKy7g6HTovDcQuvt3QrO-X0rGMJsCLSws-UDLhtf4geNR_Dco2N4cQpQ7mfnrUPiOtpmbSEPf2klsvMY- -B-wikAvi_2OSGLvzcS3UbrwDhiMGnVSBy5-2BSbxftKMAiAKXZWqxUNB6pwONPsBDQ8IHAz16uxYR1L6PADhXEr6KWqDGp0OTMN4kBkMCJhRvujkFHKQsnspGhJ_eQAjhoCl965meQhhELmdGj8F3lBBA7m4FT49XLBCV6ZRARaCw4uFvwjGmq7EZjyhkXLSqITrMuVp4LitaNuHG7uIGGHeXyJ2zdzoTNBnfVRXglnVsoB2W7zlyQce6Mw4AbFzcvw4c_IzF7JLehR5zDzF9vDrqye6UZ-Gc0a2Y9mMEePQiDofPRvNMTmPLQY-SXEvbLnQ2ZcM9jkvfqLM5xnB3TTDPdgwjLm00]--></g></svg>