<?xml version="1.0" encoding="us-ascii" standalone="no"?><svg xmlns="http://www.w3.org/2000/svg" xmlns:xlink="http://www.w3.org/1999/xlink" contentStyleType="text/css" height="1156px" preserveAspectRatio="none" style="width:1612px;height:1156px;background:#FFFFFF;" version="1.1" viewBox="0 0 1612 1156" width="1612px" zoomAndPan="magnify"><defs/><g><text fill="#000000" font-family="sans-serif" font-size="14" font-weight="bold" lengthAdjust="spacing" textLength="430" x="592" y="29.5332">Sequence Diagram: As a Customer, I want to request a refund</text><rect fill="#FFFFFF" height="924.6797" style="stroke:#181818;stroke-width:1.0;" width="10" x="33.5" y="131.2188"/><rect fill="#FFFFFF" height="902.3281" style="stroke:#181818;stroke-width:1.0;" width="10" x="203.5" y="153.5703"/><rect fill="#FFFFFF" height="73.7031" style="stroke:#181818;stroke-width:1.0;" width="10" x="470.5" y="183.9219"/><rect fill="#FFFFFF" height="745.5703" style="stroke:#181818;stroke-width:1.0;" width="10" x="695.5" y="287.9766"/><rect fill="#FFFFFF" height="30.3516" style="stroke:#181818;stroke-width:1.0;" width="10" x="885.5" y="318.3281"/><rect fill="#FFFFFF" height="654.5156" style="stroke:#181818;stroke-width:1.0;" width="10" x="990.5" y="379.0313"/><rect fill="#FFFFFF" height="30.3516" style="stroke:#181818;stroke-width:1.0;" width="10" x="1291.5" y="452.7344"/><rect fill="#FFFFFF" height="30.3516" style="stroke:#181818;stroke-width:1.0;" width="10" x="1425" y="643.4922"/><rect fill="#FFFFFF" height="30.3516" style="stroke:#181818;stroke-width:1.0;" width="10" x="1425" y="729.5469"/><rect fill="#FFFFFF" height="30.3516" style="stroke:#181818;stroke-width:1.0;" width="10" x="1544.5" y="790.25"/><rect fill="#FFFFFF" height="30.3516" style="stroke:#181818;stroke-width:1.0;" width="10" x="1544.5" y="927.4922"/><rect fill="none" height="337.7031" style="stroke:#000000;stroke-width:1.5;" width="1444" x="161" y="688.8438"/><line style="stroke:#181818;stroke-width:0.5;stroke-dasharray:5.0,5.0;" x1="38" x2="38" y1="121.2188" y2="1073.8984"/><line style="stroke:#181818;stroke-width:0.5;stroke-dasharray:5.0,5.0;" x1="208" x2="208" y1="121.2188" y2="1073.8984"/><line style="stroke:#181818;stroke-width:0.5;stroke-dasharray:5.0,5.0;" x1="475.5" x2="475.5" y1="121.2188" y2="1073.8984"/><line style="stroke:#181818;stroke-width:0.5;stroke-dasharray:5.0,5.0;" x1="700.5" x2="700.5" y1="121.2188" y2="1073.8984"/><line style="stroke:#181818;stroke-width:0.5;stroke-dasharray:5.0,5.0;" x1="890" x2="890" y1="121.2188" y2="1073.8984"/><line style="stroke:#181818;stroke-width:0.5;stroke-dasharray:5.0,5.0;" x1="995" x2="995" y1="121.2188" y2="1073.8984"/><line style="stroke:#181818;stroke-width:0.5;stroke-dasharray:5.0,5.0;" x1="1296" x2="1296" y1="121.2188" y2="1073.8984"/><line style="stroke:#181818;stroke-width:0.5;stroke-dasharray:5.0,5.0;" x1="1430" x2="1430" y1="121.2188" y2="1073.8984"/><line style="stroke:#181818;stroke-width:0.5;stroke-dasharray:5.0,5.0;" x1="1549" x2="1549" y1="121.2188" y2="1073.8984"/><text fill="#000000" font-family="sans-serif" font-size="14" lengthAdjust="spacing" textLength="61" x="5" y="118.1426">Customer</text><ellipse cx="38.5" cy="52.1094" fill="#E2E2F0" rx="8" ry="8" style="stroke:#181818;stroke-width:0.5;"/><path d="M38.5,60.1094 L38.5,87.1094 M25.5,68.1094 L51.5,68.1094 M38.5,87.1094 L25.5,102.1094 M38.5,87.1094 L51.5,102.1094 " fill="none" style="stroke:#181818;stroke-width:0.5;"/><text fill="#000000" font-family="sans-serif" font-size="14" lengthAdjust="spacing" textLength="61" x="5" y="1087.4316">Customer</text><ellipse cx="38.5" cy="1099.0078" fill="#E2E2F0" rx="8" ry="8" style="stroke:#181818;stroke-width:0.5;"/><path d="M38.5,1107.0078 L38.5,1134.0078 M25.5,1115.0078 L51.5,1115.0078 M38.5,1134.0078 L25.5,1149.0078 M38.5,1134.0078 L51.5,1149.0078 " fill="none" style="stroke:#181818;stroke-width:0.5;"/><rect fill="#E2E2F0" height="31.6094" rx="2.5" ry="2.5" style="stroke:#181818;stroke-width:0.5;" width="75" x="171" y="88.6094"/><text fill="#000000" font-family="sans-serif" font-size="14" lengthAdjust="spacing" textLength="61" x="178" y="110.1426">API Client</text><rect fill="#E2E2F0" height="31.6094" rx="2.5" ry="2.5" style="stroke:#181818;stroke-width:0.5;" width="75" x="171" y="1072.8984"/><text fill="#000000" font-family="sans-serif" font-size="14" lengthAdjust="spacing" textLength="61" x="178" y="1094.4316">API Client</text><rect fill="#E2E2F0" height="31.6094" rx="2.5" ry="2.5" style="stroke:#181818;stroke-width:0.5;" width="114" x="418.5" y="88.6094"/><text fill="#000000" font-family="sans-serif" font-size="14" lengthAdjust="spacing" textLength="100" x="425.5" y="110.1426">AuthMiddleware</text><rect fill="#E2E2F0" height="31.6094" rx="2.5" ry="2.5" style="stroke:#181818;stroke-width:0.5;" width="114" x="418.5" y="1072.8984"/><text fill="#000000" font-family="sans-serif" font-size="14" lengthAdjust="spacing" textLength="100" x="425.5" y="1094.4316">AuthMiddleware</text><rect fill="#E2E2F0" height="31.6094" rx="2.5" ry="2.5" style="stroke:#181818;stroke-width:0.5;" width="122" x="639.5" y="88.6094"/><text fill="#000000" font-family="sans-serif" font-size="14" lengthAdjust="spacing" textLength="108" x="646.5" y="110.1426">RefundController</text><rect fill="#E2E2F0" height="31.6094" rx="2.5" ry="2.5" style="stroke:#181818;stroke-width:0.5;" width="122" x="639.5" y="1072.8984"/><text fill="#000000" font-family="sans-serif" font-size="14" lengthAdjust="spacing" textLength="108" x="646.5" y="1094.4316">RefundController</text><rect fill="#E2E2F0" height="31.6094" rx="2.5" ry="2.5" style="stroke:#181818;stroke-width:0.5;" width="83" x="849" y="88.6094"/><text fill="#000000" font-family="sans-serif" font-size="14" lengthAdjust="spacing" textLength="69" x="856" y="110.1426">RoleGuard</text><rect fill="#E2E2F0" height="31.6094" rx="2.5" ry="2.5" style="stroke:#181818;stroke-width:0.5;" width="83" x="849" y="1072.8984"/><text fill="#000000" font-family="sans-serif" font-size="14" lengthAdjust="spacing" textLength="69" x="856" y="1094.4316">RoleGuard</text><rect fill="#E2E2F0" height="31.6094" rx="2.5" ry="2.5" style="stroke:#181818;stroke-width:0.5;" width="107" x="942" y="88.6094"/><text fill="#000000" font-family="sans-serif" font-size="14" lengthAdjust="spacing" textLength="93" x="949" y="110.1426">RefundService</text><rect fill="#E2E2F0" height="31.6094" rx="2.5" ry="2.5" style="stroke:#181818;stroke-width:0.5;" width="107" x="942" y="1072.8984"/><text fill="#000000" font-family="sans-serif" font-size="14" lengthAdjust="spacing" textLength="93" x="949" y="1094.4316">RefundService</text><rect fill="#E2E2F0" height="31.6094" rx="2.5" ry="2.5" style="stroke:#181818;stroke-width:0.5;" width="119" x="1237" y="88.6094"/><text fill="#000000" font-family="sans-serif" font-size="14" lengthAdjust="spacing" textLength="105" x="1244" y="110.1426">OrderRepository</text><rect fill="#E2E2F0" height="31.6094" rx="2.5" ry="2.5" style="stroke:#181818;stroke-width:0.5;" width="119" x="1237" y="1072.8984"/><text fill="#000000" font-family="sans-serif" font-size="14" lengthAdjust="spacing" textLength="105" x="1244" y="1094.4316">OrderRepository</text><rect fill="#E2E2F0" height="31.6094" rx="2.5" ry="2.5" style="stroke:#181818;stroke-width:0.5;" width="128" x="1366" y="88.6094"/><text fill="#000000" font-family="sans-serif" font-size="14" lengthAdjust="spacing" textLength="114" x="1373" y="110.1426">RefundRepository</text><rect fill="#E2E2F0" height="31.6094" rx="2.5" ry="2.5" style="stroke:#181818;stroke-width:0.5;" width="128" x="1366" y="1072.8984"/><text fill="#000000" font-family="sans-serif" font-size="14" lengthAdjust="spacing" textLength="114" x="1373" y="1094.4316">RefundRepository</text><rect fill="#E2E2F0" height="31.6094" rx="2.5" ry="2.5" style="stroke:#181818;stroke-width:0.5;" width="91" x="1504" y="88.6094"/><text fill="#000000" font-family="sans-serif" font-size="14" lengthAdjust="spacing" textLength="77" x="1511" y="110.1426">AuditLogger</text><rect fill="#E2E2F0" height="31.6094" rx="2.5" ry="2.5" style="stroke:#181818;stroke-width:0.5;" width="91" x="1504" y="1072.8984"/><text fill="#000000" font-family="sans-serif" font-size="14" lengthAdjust="spacing" textLength="77" x="1511" y="1094.4316">AuditLogger</text><rect fill="#FFFFFF" height="924.6797" style="stroke:#181818;stroke-width:1.0;" width="10" x="33.5" y="131.2188"/><rect fill="#FFFFFF" height="902.3281" style="stroke:#181818;stroke-width:1.0;" width="10" x="203.5" y="153.5703"/><rect fill="#FFFFFF" height="73.7031" style="stroke:#181818;stroke-width:1.0;" width="10" x="470.5" y="183.9219"/><rect fill="#FFFFFF" height="745.5703" style="stroke:#181818;stroke-width:1.0;" width="10" x="695.5" y="287.9766"/><rect fill="#FFFFFF" height="30.3516" style="stroke:#181818;stroke-width:1.0;" width="10" x="885.5" y="318.3281"/><rect fill="#FFFFFF" height="654.5156" style="stroke:#181818;stroke-width:1.0;" width="10" x="990.5" y="379.0313"/><rect fill="#FFFFFF" height="30.3516" style="stroke:#181818;stroke-width:1.0;" width="10" x="1291.5" y="452.7344"/><rect fill="#FFFFFF" height="30.3516" style="stroke:#181818;stroke-width:1.0;" width="10" x="1425" y="643.4922"/><rect fill="#FFFFFF" height="30.3516" style="stroke:#181818;stroke-width:1.0;" width="10" x="1425" y="729.5469"/><rect fill="#FFFFFF" height="30.3516" style="stroke:#181818;stroke-width:1.0;" width="10" x="1544.5" y="790.25"/><rect fill="#FFFFFF" height="30.3516" style="stroke:#181818;stroke-width:1.0;" width="10" x="1544.5" y="927.4922"/><polygon fill="#181818" points="191.5,149.5703,201.5,153.5703,191.5,157.5703,195.5,153.5703" style="stroke:#181818;stroke-width:1.0;"/><line style="stroke:#181818;stroke-width:1.0;" x1="43.5" x2="197.5" y1="153.5703" y2="153.5703"/><text fill="#000000" font-family="sans-serif" font-size="13" lengthAdjust="spacing" textLength="127" x="50.5" y="148.7139">Submit refund request</text><polygon fill="#181818" points="458.5,179.9219,468.5,183.9219,458.5,187.9219,462.5,183.9219" style="stroke:#181818;stroke-width:1.0;"/><line style="stroke:#181818;stroke-width:1.0;" x1="213.5" x2="464.5" y1="183.9219" y2="183.9219"/><text fill="#000000" font-family="sans-serif" font-size="13" lengthAdjust="spacing" textLength="238" x="220.5" y="179.0654">POST /api/refunds {orderId, reason, JWT}</text><line style="stroke:#181818;stroke-width:1.0;" x1="480.5" x2="522.5" y1="214.2734" y2="214.2734"/><line style="stroke:#181818;stroke-width:1.0;" x1="522.5" x2="522.5" y1="214.2734" y2="227.2734"/><line style="stroke:#181818;stroke-width:1.0;" x1="481.5" x2="522.5" y1="227.2734" y2="227.2734"/><polygon fill="#181818" points="491.5,223.2734,481.5,227.2734,491.5,231.2734,487.5,227.2734" style="stroke:#181818;stroke-width:1.0;"/><text fill="#000000" font-family="sans-serif" font-size="13" lengthAdjust="spacing" textLength="201" x="487.5" y="209.417">Validate JWT signature and claims</text><polygon fill="#181818" points="224.5,253.625,214.5,257.625,224.5,261.625,220.5,257.625" style="stroke:#181818;stroke-width:1.0;"/><line style="stroke:#181818;stroke-width:1.0;stroke-dasharray:2.0,2.0;" x1="218.5" x2="474.5" y1="257.625" y2="257.625"/><text fill="#000000" font-family="sans-serif" font-size="13" lengthAdjust="spacing" textLength="127" x="230.5" y="252.7686">Authenticated context</text><polygon fill="#181818" points="683.5,283.9766,693.5,287.9766,683.5,291.9766,687.5,287.9766" style="stroke:#181818;stroke-width:1.0;"/><line style="stroke:#181818;stroke-width:1.0;" x1="213.5" x2="689.5" y1="287.9766" y2="287.9766"/><text fill="#000000" font-family="sans-serif" font-size="13" lengthAdjust="spacing" textLength="248" x="220.5" y="283.1201">createRefund(orderId, reason, userContext)</text><polygon fill="#181818" points="873.5,314.3281,883.5,318.3281,873.5,322.3281,877.5,318.3281" style="stroke:#181818;stroke-width:1.0;"/><line style="stroke:#181818;stroke-width:1.0;" x1="705.5" x2="879.5" y1="318.3281" y2="318.3281"/><text fill="#000000" font-family="sans-serif" font-size="13" lengthAdjust="spacing" textLength="161" x="712.5" y="313.4717">Validate role = CUSTOMER</text><polygon fill="#181818" points="716.5,344.6797,706.5,348.6797,716.5,352.6797,712.5,348.6797" style="stroke:#181818;stroke-width:1.0;"/><line style="stroke:#181818;stroke-width:1.0;stroke-dasharray:2.0,2.0;" x1="710.5" x2="889.5" y1="348.6797" y2="348.6797"/><text fill="#000000" font-family="sans-serif" font-size="13" lengthAdjust="spacing" textLength="112" x="722.5" y="343.8232">Authorization result</text><polygon fill="#181818" points="978.5,375.0313,988.5,379.0313,978.5,383.0313,982.5,379.0313" style="stroke:#181818;stroke-width:1.0;"/><line style="stroke:#181818;stroke-width:1.0;" x1="705.5" x2="984.5" y1="379.0313" y2="379.0313"/><text fill="#000000" font-family="sans-serif" font-size="13" lengthAdjust="spacing" textLength="134" x="712.5" y="374.1748">Process refund request</text><line style="stroke:#181818;stroke-width:1.0;" x1="1000.5" x2="1042.5" y1="409.3828" y2="409.3828"/><line style="stroke:#181818;stroke-width:1.0;" x1="1042.5" x2="1042.5" y1="409.3828" y2="422.3828"/><line style="stroke:#181818;stroke-width:1.0;" x1="1001.5" x2="1042.5" y1="422.3828" y2="422.3828"/><polygon fill="#181818" points="1011.5,418.3828,1001.5,422.3828,1011.5,426.3828,1007.5,422.3828" style="stroke:#181818;stroke-width:1.0;"/><text fill="#000000" font-family="sans-serif" font-size="13" lengthAdjust="spacing" textLength="213" x="1007.5" y="404.5264">Validate payload and sanitize reason</text><polygon fill="#181818" points="1279.5,448.7344,1289.5,452.7344,1279.5,456.7344,1283.5,452.7344" style="stroke:#181818;stroke-width:1.0;"/><line style="stroke:#181818;stroke-width:1.0;" x1="1000.5" x2="1285.5" y1="452.7344" y2="452.7344"/><text fill="#000000" font-family="sans-serif" font-size="13" lengthAdjust="spacing" textLength="119" x="1007.5" y="447.8779">Find order by orderId</text><polygon fill="#181818" points="1011.5,479.0859,1001.5,483.0859,1011.5,487.0859,1007.5,483.0859" style="stroke:#181818;stroke-width:1.0;"/><line style="stroke:#181818;stroke-width:1.0;stroke-dasharray:2.0,2.0;" x1="1005.5" x2="1295.5" y1="483.0859" y2="483.0859"/><text fill="#000000" font-family="sans-serif" font-size="13" lengthAdjust="spacing" textLength="61" x="1017.5" y="478.2295">Order data</text><line style="stroke:#181818;stroke-width:1.0;" x1="1000.5" x2="1042.5" y1="513.4375" y2="513.4375"/><line style="stroke:#181818;stroke-width:1.0;" x1="1042.5" x2="1042.5" y1="513.4375" y2="526.4375"/><line style="stroke:#181818;stroke-width:1.0;" x1="1001.5" x2="1042.5" y1="526.4375" y2="526.4375"/><polygon fill="#181818" points="1011.5,522.4375,1001.5,526.4375,1011.5,530.4375,1007.5,526.4375" style="stroke:#181818;stroke-width:1.0;"/><text fill="#000000" font-family="sans-serif" font-size="13" lengthAdjust="spacing" textLength="277" x="1007.5" y="508.5811">Validate ownership (order.customerId == userId)</text><line style="stroke:#181818;stroke-width:1.0;" x1="1000.5" x2="1042.5" y1="556.7891" y2="556.7891"/><line style="stroke:#181818;stroke-width:1.0;" x1="1042.5" x2="1042.5" y1="556.7891" y2="569.7891"/><line style="stroke:#181818;stroke-width:1.0;" x1="1001.5" x2="1042.5" y1="569.7891" y2="569.7891"/><polygon fill="#181818" points="1011.5,565.7891,1001.5,569.7891,1011.5,573.7891,1007.5,569.7891" style="stroke:#181818;stroke-width:1.0;"/><text fill="#000000" font-family="sans-serif" font-size="13" lengthAdjust="spacing" textLength="216" x="1007.5" y="551.9326">Validate order status = COMPLETED</text><line style="stroke:#181818;stroke-width:1.0;" x1="1000.5" x2="1042.5" y1="600.1406" y2="600.1406"/><line style="stroke:#181818;stroke-width:1.0;" x1="1042.5" x2="1042.5" y1="600.1406" y2="613.1406"/><line style="stroke:#181818;stroke-width:1.0;" x1="1001.5" x2="1042.5" y1="613.1406" y2="613.1406"/><polygon fill="#181818" points="1011.5,609.1406,1001.5,613.1406,1011.5,617.1406,1007.5,613.1406" style="stroke:#181818;stroke-width:1.0;"/><text fill="#000000" font-family="sans-serif" font-size="13" lengthAdjust="spacing" textLength="203" x="1007.5" y="595.2842">Validate purchase date &lt;= 14 days</text><polygon fill="#181818" points="1413,639.4922,1423,643.4922,1413,647.4922,1417,643.4922" style="stroke:#181818;stroke-width:1.0;"/><line style="stroke:#181818;stroke-width:1.0;" x1="1000.5" x2="1419" y1="643.4922" y2="643.4922"/><text fill="#000000" font-family="sans-serif" font-size="13" lengthAdjust="spacing" textLength="223" x="1007.5" y="638.6357">Check existing refund request for order</text><polygon fill="#181818" points="1011.5,669.8438,1001.5,673.8438,1011.5,677.8438,1007.5,673.8438" style="stroke:#181818;stroke-width:1.0;"/><line style="stroke:#181818;stroke-width:1.0;stroke-dasharray:2.0,2.0;" x1="1005.5" x2="1429" y1="673.8438" y2="673.8438"/><text fill="#000000" font-family="sans-serif" font-size="13" lengthAdjust="spacing" textLength="189" x="1017.5" y="668.9873">Existing request status (or none)</text><path d="M161,688.8438 L222,688.8438 L222,697.1953 L212,707.1953 L161,707.1953 L161,688.8438 " fill="#EEEEEE" style="stroke:#000000;stroke-width:1.5;"/><rect fill="none" height="337.7031" style="stroke:#000000;stroke-width:1.5;" width="1444" x="161" y="688.8438"/><text fill="#000000" font-family="sans-serif" font-size="13" font-weight="bold" lengthAdjust="spacing" textLength="16" x="176" y="703.3389">alt</text><text fill="#000000" font-family="sans-serif" font-size="11" font-weight="bold" lengthAdjust="spacing" textLength="135" x="237" y="702.2627">[Refund request is valid]</text><polygon fill="#181818" points="1413,725.5469,1423,729.5469,1413,733.5469,1417,729.5469" style="stroke:#181818;stroke-width:1.0;"/><line style="stroke:#181818;stroke-width:1.0;" x1="1000.5" x2="1419" y1="729.5469" y2="729.5469"/><text fill="#000000" font-family="sans-serif" font-size="13" lengthAdjust="spacing" textLength="268" x="1007.5" y="724.6904">Create refund request (status = REQUESTED)</text><polygon fill="#181818" points="1011.5,755.8984,1001.5,759.8984,1011.5,763.8984,1007.5,759.8984" style="stroke:#181818;stroke-width:1.0;"/><line style="stroke:#181818;stroke-width:1.0;stroke-dasharray:2.0,2.0;" x1="1005.5" x2="1429" y1="759.8984" y2="759.8984"/><text fill="#000000" font-family="sans-serif" font-size="13" lengthAdjust="spacing" textLength="131" x="1017.5" y="755.042">Created refund request</text><polygon fill="#181818" points="1532.5,786.25,1542.5,790.25,1532.5,794.25,1536.5,790.25" style="stroke:#181818;stroke-width:1.0;"/><line style="stroke:#181818;stroke-width:1.0;" x1="1000.5" x2="1538.5" y1="790.25" y2="790.25"/><text fill="#000000" font-family="sans-serif" font-size="13" lengthAdjust="spacing" textLength="216" x="1007.5" y="785.3936">Log security event (refund_requested)</text><polygon fill="#181818" points="1011.5,816.6016,1001.5,820.6016,1011.5,824.6016,1007.5,820.6016" style="stroke:#181818;stroke-width:1.0;"/><line style="stroke:#181818;stroke-width:1.0;stroke-dasharray:2.0,2.0;" x1="1005.5" x2="1548.5" y1="820.6016" y2="820.6016"/><text fill="#000000" font-family="sans-serif" font-size="13" lengthAdjust="spacing" textLength="95" x="1017.5" y="815.7451">Log confirmation</text><polygon fill="#181818" points="716.5,846.9531,706.5,850.9531,716.5,854.9531,712.5,850.9531" style="stroke:#181818;stroke-width:1.0;"/><line style="stroke:#181818;stroke-width:1.0;stroke-dasharray:2.0,2.0;" x1="710.5" x2="989.5" y1="850.9531" y2="850.9531"/><text fill="#000000" font-family="sans-serif" font-size="13" lengthAdjust="spacing" textLength="134" x="722.5" y="846.0967">Refund request created</text><polygon fill="#181818" points="224.5,877.3047,214.5,881.3047,224.5,885.3047,220.5,881.3047" style="stroke:#181818;stroke-width:1.0;"/><line style="stroke:#181818;stroke-width:1.0;stroke-dasharray:2.0,2.0;" x1="218.5" x2="694.5" y1="881.3047" y2="881.3047"/><text fill="#000000" font-family="sans-serif" font-size="13" lengthAdjust="spacing" textLength="179" x="230.5" y="876.4482">201 Created + refund summary</text><line style="stroke:#000000;stroke-width:1.0;stroke-dasharray:2.0,2.0;" x1="161" x2="1605" y1="890.3047" y2="890.3047"/><text fill="#000000" font-family="sans-serif" font-size="11" font-weight="bold" lengthAdjust="spacing" textLength="95" x="166" y="901.7236">[Validation failed]</text><polygon fill="#181818" points="1532.5,923.4922,1542.5,927.4922,1532.5,931.4922,1536.5,927.4922" style="stroke:#181818;stroke-width:1.0;"/><line style="stroke:#181818;stroke-width:1.0;" x1="1000.5" x2="1538.5" y1="927.4922" y2="927.4922"/><text fill="#000000" font-family="sans-serif" font-size="13" lengthAdjust="spacing" textLength="239" x="1007.5" y="922.6357">Log security event (refund_request_failed)</text><polygon fill="#181818" points="1011.5,953.8438,1001.5,957.8438,1011.5,961.8438,1007.5,957.8438" style="stroke:#181818;stroke-width:1.0;"/><line style="stroke:#181818;stroke-width:1.0;stroke-dasharray:2.0,2.0;" x1="1005.5" x2="1548.5" y1="957.8438" y2="957.8438"/><text fill="#000000" font-family="sans-serif" font-size="13" lengthAdjust="spacing" textLength="95" x="1017.5" y="952.9873">Log confirmation</text><polygon fill="#181818" points="716.5,984.1953,706.5,988.1953,716.5,992.1953,712.5,988.1953" style="stroke:#181818;stroke-width:1.0;"/><line style="stroke:#181818;stroke-width:1.0;stroke-dasharray:2.0,2.0;" x1="710.5" x2="989.5" y1="988.1953" y2="988.1953"/><text fill="#000000" font-family="sans-serif" font-size="13" lengthAdjust="spacing" textLength="87" x="722.5" y="983.3389">Validation error</text><polygon fill="#181818" points="224.5,1014.5469,214.5,1018.5469,224.5,1022.5469,220.5,1018.5469" style="stroke:#181818;stroke-width:1.0;"/><line style="stroke:#181818;stroke-width:1.0;stroke-dasharray:2.0,2.0;" x1="218.5" x2="694.5" y1="1018.5469" y2="1018.5469"/><text fill="#000000" font-family="sans-serif" font-size="13" lengthAdjust="spacing" textLength="155" x="230.5" y="1013.6904">400/403/409 + error details</text><polygon fill="#181818" points="49.5,1051.8984,39.5,1055.8984,49.5,1059.8984,45.5,1055.8984" style="stroke:#181818;stroke-width:1.0;"/><line style="stroke:#181818;stroke-width:1.0;stroke-dasharray:2.0,2.0;" x1="43.5" x2="207.5" y1="1055.8984" y2="1055.8984"/><text fill="#000000" font-family="sans-serif" font-size="13" lengthAdjust="spacing" textLength="136" x="55.5" y="1051.042">Display operation result</text><!--SRC=[hLLDRnen43splsB4AQXfGzfSYaebjA682aJg9UqnSjO3M5tMMzjBGgh-zuwztvGUAlM0XF6RcVVUp1WhROBGZ_17ZccCS2lvLlFz22O6E8IviMgF-XBcyCHJ2rQ1Tb1ZwLRZ9az5FmXuR9MkmK76jPMnp5n0Vt8tXp2HcDe-S0DqxDnFShjRIY4IVE8QFMBP0J1V95IfrIf9K3i82xiGbU0ivrhukzcPy0ZrGSO-FOiwzoijK3FCb96auUWGAtOcGnV2s8a88Ur2RRS5lSd2Mo8Ft6BZIlK5NdzqBemWoX_tqfOkLhOsWSwfmBddyCiHtAsYDLpnJ5uL4GP-AaT-BYufc1kLNiBdR-jVhGpBOBAimh_oH0htAs70o6tARUuCfz9nmkNUU6p5pRM5MYPZYY00kO_FDX3OpbsHO-48Oc9WiR3guWzQkK4T5Za63Jtg8WjzWbcB7dKPOGpXVRHUBQUi1Py5REOPkeAEeDBoXLkfKYfaygJ3Zz1LzeYyqof6O_xgDGq5YofmJINZnqHnuJqoF9LMlc2fgOIls0W-IRhsak7n2ANs9ZLDqueLj2ct7pUWxBnDbZ3dwgkd5BNPoGmAIz_4vGZD1Op7tjMv69oDz6MCfHuRP-PgURUOhgUtPrNcEjvnW-1F7yPmVKDVZwR2aiHmX_5tm6Tfh4ot9ox2XdRV5spvoGBMY9usWKL4IOnKGQfI77GQHrxmf5gxEaGQE3Z6GQz5om_TAPsBMZQRVhcVHYHx4FJQ-NijRaKESJePlHD6PTN9OWIqvs0mphMqHy03RGbS5D4FPJIATa5w3NgJHLtGXTC-RQJU-zdjb78lXozLJlc92SMMEG_2PbNV3gzh5Qyg7IRVxxa-1fXGOyjMkqNPS9cW-3Sv3qNG_zBKOeDQAzrLSpCSNjqCtz7dFQdn011eYO49C1L1PrIYpYai7YJAL3sr8_exCrd2QIqpr7zxAjn3sphM3_Pl]--></g></svg>