<?plantuml 1.2026.2?><svg xmlns="http://www.w3.org/2000/svg" xmlns:xlink="http://www.w3.org/1999/xlink" contentStyleType="text/css" data-diagram-type="DESCRIPTION" height="601px" preserveAspectRatio="none" style="width:2475px;height:601px;background:#F9F9F9;" version="1.1" viewBox="0 0 2475 601" width="2475px" zoomAndPan="magnify"><defs/><g><rect fill="#F9F9F9" height="601" style="stroke:none;stroke-width:1;" width="2475" x="0" y="0"/><!--cluster Manage User Roles--><g class="cluster" data-qualified-name="Manage User Roles" data-source-line="39" id="ent0004"><rect fill="none" height="191" rx="2.5" ry="2.5" style="stroke:#181818;stroke-width:1;" width="1994" x="202" y="26.5"/><text fill="#000000" font-family="sans-serif" font-size="14" font-weight="bold" lengthAdjust="spacing" textLength="129.1582" x="1134.4209" y="42.5752">Manage User Roles</text></g><!--entity Access user role management--><g class="entity" data-qualified-name="Manage User Roles.Access user role management" data-source-line="40" id="ent0005"><ellipse cx="336.2138" cy="88.5428" fill="#B0B0B0" rx="118.2138" ry="26.0428" style="stroke:#808080;stroke-width:0.5;"/><text fill="#000000" font-family="sans-serif" font-size="14" font-style="italic" lengthAdjust="spacing" textLength="91.834" x="290.2968" y="81.0604">&#171;Vulnerability&#187;</text><text fill="#000000" font-family="sans-serif" font-size="14" lengthAdjust="spacing" textLength="189.0889" x="241.6694" y="98.2118">Access user role management</text></g><!--entity Check Admin role via RoleGuard--><g class="entity" data-qualified-name="Manage User Roles.Check Admin role via RoleGuard" data-source-line="41" id="ent0007"><ellipse cx="636.1077" cy="114.3215" fill="#B0B0B0" rx="122.1077" ry="26.8215" style="stroke:#808080;stroke-width:0.5;"/><text fill="#000000" font-family="sans-serif" font-size="14" font-style="italic" lengthAdjust="spacing" textLength="91.834" x="590.1907" y="105.9927">&#171;Vulnerability&#187;</text><text fill="#000000" font-family="sans-serif" font-size="14" lengthAdjust="spacing" textLength="203.8682" x="534.1736" y="123.144">Check Admin role via RoleGuard</text></g><!--entity Access granted--><g class="entity" data-qualified-name="Manage User Roles.Access granted" data-source-line="42" id="ent0009"><ellipse cx="932.0479" cy="114.4096" fill="#FFFFFF" rx="67.5479" ry="15.9096" style="stroke:#000000;stroke-width:0.5;"/><text fill="#000000" font-family="sans-serif" font-size="14" lengthAdjust="spacing" textLength="96.4961" x="883.7999" y="119.4853">Access granted</text></g><!--entity Fetch user list--><g class="entity" data-qualified-name="Manage User Roles.Fetch user list" data-source-line="43" id="ent0011"><ellipse cx="1210.8519" cy="174.7078" fill="#B0B0B0" rx="67.8519" ry="26.7078" style="stroke:#808080;stroke-width:0.5;"/><text fill="#000000" font-family="sans-serif" font-size="14" font-style="italic" lengthAdjust="spacing" textLength="91.834" x="1164.9349" y="171.6171">&#171;Vulnerability&#187;</text><text fill="#000000" font-family="sans-serif" font-size="14" lengthAdjust="spacing" textLength="87.1377" x="1167.283" y="188.7685">Fetch user list</text></g><!--entity Display user list--><g class="entity" data-qualified-name="Manage User Roles.Display user list" data-source-line="44" id="ent0013"><ellipse cx="1498.6222" cy="174.5244" fill="#FFFFFF" rx="68.1222" ry="16.0244" style="stroke:#000000;stroke-width:0.5;"/><text fill="#000000" font-family="sans-serif" font-size="14" lengthAdjust="spacing" textLength="98.0273" x="1449.6085" y="179.6001">Display user list</text></g><!--entity Assign/Remove roles--><g class="entity" data-qualified-name="Manage User Roles.Assign.Remove roles" data-source-line="45" id="ent0015"><ellipse cx="336.186" cy="175.7394" fill="#B0B0B0" rx="90.686" ry="25.7394" style="stroke:#808080;stroke-width:0.5;"/><text fill="#000000" font-family="sans-serif" font-size="14" font-style="italic" lengthAdjust="spacing" textLength="91.834" x="290.269" y="170.0184">&#171;Vulnerability&#187;</text><text fill="#000000" font-family="sans-serif" font-size="14" lengthAdjust="spacing" textLength="132.2754" x="270.0483" y="187.1697">Assign/Remove roles</text></g><!--entity Process role modification--><g class="entity" data-qualified-name="Manage User Roles.Process role modification" data-source-line="48" id="ent0019"><ellipse cx="1211.1838" cy="91.3368" fill="#FFFFFF" rx="92.1838" ry="20.8368" style="stroke:#000000;stroke-width:0.5;"/><text fill="#000000" font-family="sans-serif" font-size="14" lengthAdjust="spacing" textLength="156.3994" x="1132.9841" y="96.4124">Process role modification</text></g><!--entity Update user roles in database--><g class="entity" data-qualified-name="Manage User Roles.Update user roles in database" data-source-line="49" id="ent0021"><ellipse cx="1498.6353" cy="97.4271" fill="#B0B0B0" rx="117.6353" ry="25.9271" style="stroke:#808080;stroke-width:0.5;"/><text fill="#000000" font-family="sans-serif" font-size="14" font-style="italic" lengthAdjust="spacing" textLength="91.834" x="1452.7183" y="90.0709">&#171;Vulnerability&#187;</text><text fill="#000000" font-family="sans-serif" font-size="14" lengthAdjust="spacing" textLength="186.7852" x="1405.2427" y="107.2223">Update user roles in database</text></g><!--entity Return success/failure--><g class="entity" data-qualified-name="Manage User Roles.Return success.failure" data-source-line="50" id="ent0023"><ellipse cx="1787.4514" cy="97.2903" fill="#FFFFFF" rx="84.4514" ry="19.2903" style="stroke:#000000;stroke-width:0.5;"/><text fill="#000000" font-family="sans-serif" font-size="14" lengthAdjust="spacing" textLength="138.5029" x="1718.1999" y="102.366">Return success/failure</text></g><!--entity Display success/failure message--><g class="entity" data-qualified-name="Manage User Roles.Display success.failure message" data-source-line="51" id="ent0025"><ellipse cx="2067.2231" cy="97.5446" fill="#FFFFFF" rx="113.2231" ry="25.0446" style="stroke:#000000;stroke-width:0.5;"/><text fill="#000000" font-family="sans-serif" font-size="14" lengthAdjust="spacing" textLength="203.082" x="1965.6821" y="102.6203">Display success/failure message</text></g><!--entity Admin--><g class="entity" data-qualified-name="Admin" data-source-line="36" id="ent0002"><ellipse cx="81.8413" cy="102.5" fill="#F1F1F1" rx="8" ry="8" style="stroke:#181818;stroke-width:0.5;"/><path d="M81.8413,110.5 L81.8413,137.5 M68.8413,118.5 L94.8413,118.5 M81.8413,137.5 L68.8413,152.5 M81.8413,137.5 L94.8413,152.5" fill="none" style="stroke:#181818;stroke-width:0.5;"/><text fill="#000000" font-family="sans-serif" font-size="14" lengthAdjust="spacing" textLength="39.6826" x="62" y="168.0752">Admin</text></g><!--entity Attacker--><g class="entity" data-qualified-name="Attacker" data-source-line="37" id="ent0003"><ellipse cx="2442.6758" cy="391.5" fill="#FF0000" rx="8" ry="8" style="stroke:#181818;stroke-width:0.5;"/><path d="M2442.6758,399.5 L2442.6758,426.5 M2429.6758,407.5 L2455.6758,407.5 M2442.6758,426.5 L2429.6758,441.5 M2442.6758,426.5 L2455.6758,441.5" fill="none" style="stroke:#181818;stroke-width:0.5;"/><text fill="#000000" font-family="sans-serif" font-size="14" lengthAdjust="spacing" textLength="51.3516" x="2417" y="457.0752">Attacker</text></g><!--entity Modify user roles--><g class="entity" data-qualified-name="Modify user roles" data-source-line="59" id="ent0027"><ellipse cx="81.9845" cy="32.4872" fill="#B0B0B0" rx="75.9845" ry="26.4872" style="stroke:#808080;stroke-width:0.5;"/><text fill="#000000" font-family="sans-serif" font-size="14" font-style="italic" lengthAdjust="spacing" textLength="91.834" x="36.0675" y="27.882">&#171;Vulnerability&#187;</text><text fill="#000000" font-family="sans-serif" font-size="14" lengthAdjust="spacing" textLength="106.5928" x="28.6881" y="45.0334">Modify user roles</text></g><!--entity Unauthorized access attempt--><g class="entity" data-qualified-name="Unauthorized access attempt" data-source-line="63" id="ent0028"><ellipse cx="932.0217" cy="342.7043" fill="#000000" rx="114.0217" ry="25.2043" style="stroke:#000000;stroke-width:0.5;"/><text fill="#FFFFFF" font-family="sans-serif" font-size="14" font-style="italic" lengthAdjust="spacing" textLength="56.0342" x="904.0047" y="334.87">&#171;Threat&#187;</text><text fill="#FFFFFF" font-family="sans-serif" font-size="14" lengthAdjust="spacing" textLength="181.3164" x="841.3635" y="352.0214">Unauthorized access attempt</text></g><!--entity Bypass RoleGuard--><g class="entity" data-qualified-name="Bypass RoleGuard" data-source-line="64" id="ent0029"><ellipse cx="1210.9907" cy="261.5381" fill="#000000" rx="78.4907" ry="25.0381" style="stroke:#000000;stroke-width:0.5;"/><text fill="#FFFFFF" font-family="sans-serif" font-size="14" font-style="italic" lengthAdjust="spacing" textLength="56.0342" x="1182.9736" y="254.7253">&#171;Threat&#187;</text><text fill="#FFFFFF" font-family="sans-serif" font-size="14" lengthAdjust="spacing" textLength="117.5029" x="1152.2393" y="271.8767">Bypass RoleGuard</text></g><!--entity Privilege escalation--><g class="entity" data-qualified-name="Privilege escalation" data-source-line="65" id="ent0030"><ellipse cx="931.8837" cy="427.5069" fill="#000000" rx="80.3837" ry="25.0069" style="stroke:#000000;stroke-width:0.5;"/><text fill="#FFFFFF" font-family="sans-serif" font-size="14" font-style="italic" lengthAdjust="spacing" textLength="56.0342" x="903.8666" y="420.6444">&#171;Threat&#187;</text><text fill="#FFFFFF" font-family="sans-serif" font-size="14" lengthAdjust="spacing" textLength="120.6201" x="871.5736" y="437.7957">Privilege escalation</text></g><!--entity SQL Injection--><g class="entity" data-qualified-name="SQL Injection" data-source-line="66" id="ent0031"><ellipse cx="2298.4577" cy="263.6341" fill="#000000" rx="58.4577" ry="25.6341" style="stroke:#000000;stroke-width:0.5;"/><text fill="#FFFFFF" font-family="sans-serif" font-size="14" font-style="italic" lengthAdjust="spacing" textLength="56.0342" x="2270.4406" y="257.7522">&#171;Threat&#187;</text><text fill="#FFFFFF" font-family="sans-serif" font-size="14" lengthAdjust="spacing" textLength="84.0479" x="2256.4338" y="274.9035">SQL Injection</text></g><!--entity Data leakage of user roles--><g class="entity" data-qualified-name="Data leakage of user roles" data-source-line="67" id="ent0032"><ellipse cx="1787.6005" cy="338.7454" fill="#000000" rx="106.6005" ry="24.7454" style="stroke:#000000;stroke-width:0.5;"/><text fill="#FFFFFF" font-family="sans-serif" font-size="14" font-style="italic" lengthAdjust="spacing" textLength="56.0342" x="1759.5834" y="331.4616">&#171;Threat&#187;</text><text fill="#FFFFFF" font-family="sans-serif" font-size="14" lengthAdjust="spacing" textLength="163.4268" x="1705.8871" y="348.613">Data leakage of user roles</text></g><!--entity Tampering with roles--><g class="entity" data-qualified-name="Tampering with roles" data-source-line="68" id="ent0033"><ellipse cx="2067.0584" cy="258.4269" fill="#000000" rx="86.0584" ry="24.9269" style="stroke:#000000;stroke-width:0.5;"/><text fill="#FFFFFF" font-family="sans-serif" font-size="14" font-style="italic" lengthAdjust="spacing" textLength="56.0342" x="2039.0413" y="251.4365">&#171;Threat&#187;</text><text fill="#FFFFFF" font-family="sans-serif" font-size="14" lengthAdjust="spacing" textLength="129.9375" x="2002.0897" y="268.5879">Tampering with roles</text></g><!--entity Exploit misconfigured RoleGuard--><g class="entity" data-qualified-name="Exploit misconfigured RoleGuard" data-source-line="69" id="ent0034"><ellipse cx="1498.3858" cy="412.4772" fill="#000000" rx="120.3858" ry="26.4772" style="stroke:#000000;stroke-width:0.5;"/><text fill="#FFFFFF" font-family="sans-serif" font-size="14" font-style="italic" lengthAdjust="spacing" textLength="56.0342" x="1470.3688" y="403.3299">&#171;Threat&#187;</text><text fill="#FFFFFF" font-family="sans-serif" font-size="14" lengthAdjust="spacing" textLength="204.6543" x="1396.0587" y="420.4812">Exploit misconfigured RoleGuard</text></g><!--entity Malicious role assignment--><g class="entity" data-qualified-name="Malicious role assignment" data-source-line="70" id="ent0035"><ellipse cx="1211.1484" cy="570.2545" fill="#000000" rx="105.1484" ry="24.7545" style="stroke:#000000;stroke-width:0.5;"/><text fill="#FFFFFF" font-family="sans-serif" font-size="14" font-style="italic" lengthAdjust="spacing" textLength="56.0342" x="1183.1313" y="562.9856">&#171;Threat&#187;</text><text fill="#FFFFFF" font-family="sans-serif" font-size="14" lengthAdjust="spacing" textLength="161.0684" x="1130.6142" y="580.137">Malicious role assignment</text></g><!--entity Expose sensitive user data--><g class="entity" data-qualified-name="Expose sensitive user data" data-source-line="71" id="ent0036"><ellipse cx="2066.9968" cy="343.7312" fill="#000000" rx="108.9968" ry="24.7312" style="stroke:#000000;stroke-width:0.5;"/><text fill="#FFFFFF" font-family="sans-serif" font-size="14" font-style="italic" lengthAdjust="spacing" textLength="56.0342" x="2038.9797" y="336.4242">&#171;Threat&#187;</text><text fill="#FFFFFF" font-family="sans-serif" font-size="14" lengthAdjust="spacing" textLength="167.3164" x="1983.3386" y="353.5756">Expose sensitive user data</text></g><!--entity Enforce RBAC via RoleGuard--><g class="entity" data-qualified-name="Enforce RBAC via RoleGuard" data-source-line="92" id="ent0051"><ellipse cx="636.1888" cy="272.3378" fill="#FFFFFF" rx="104.6888" ry="23.3378" style="stroke:#000000;stroke-width:0.5;"/><text fill="#000000" font-family="sans-serif" font-size="14" lengthAdjust="spacing" textLength="184.4131" x="543.9822" y="277.4134">Enforce RBAC via RoleGuard</text></g><!--entity Validate JWT and role claims--><g class="entity" data-qualified-name="Validate JWT and role claims" data-source-line="93" id="ent0053"><ellipse cx="931.7746" cy="259.5549" fill="#FFFFFF" rx="103.2746" ry="23.0549" style="stroke:#000000;stroke-width:0.5;"/><text fill="#000000" font-family="sans-serif" font-size="14" lengthAdjust="spacing" textLength="181.2891" x="841.13" y="264.6306">Validate JWT and role claims</text></g><!--entity Filter sensitive data in API response--><g class="entity" data-qualified-name="Filter sensitive data in API response" data-source-line="94" id="ent0055"><ellipse cx="1498.6145" cy="323.4229" fill="#FFFFFF" rx="122.6145" ry="26.9229" style="stroke:#000000;stroke-width:0.5;"/><text fill="#000000" font-family="sans-serif" font-size="14" lengthAdjust="spacing" textLength="223.3301" x="1386.9495" y="328.4986">Filter sensitive data in API response</text></g><!--entity Log role changes for audit--><g class="entity" data-qualified-name="Log role changes for audit" data-source-line="95" id="ent0057"><ellipse cx="636.0999" cy="425.32" fill="#FFFFFF" rx="94.5999" ry="21.32" style="stroke:#000000;stroke-width:0.5;"/><text fill="#000000" font-family="sans-serif" font-size="14" lengthAdjust="spacing" textLength="161.8887" x="555.1556" y="430.3957">Log role changes for audit</text></g><!--entity Sanitize input and use ORM--><g class="entity" data-qualified-name="Sanitize input and use ORM" data-source-line="96" id="ent0059"><ellipse cx="1787.6345" cy="256.4269" fill="#FFFFFF" rx="100.1345" ry="22.4269" style="stroke:#000000;stroke-width:0.5;"/><text fill="#000000" font-family="sans-serif" font-size="14" lengthAdjust="spacing" textLength="174.3164" x="1700.4763" y="261.5026">Sanitize input and use ORM</text></g><!--link Admin to Access user role management--><g class="link" data-entity-1="ent0002" data-entity-2="ent0005" data-link-type="dependency" data-source-line="40" id="lnk6"><path d="M102.36,104.25 C132.55,104.25 185.13,104.25 236.08,104.25" fill="none" id="Admin-to-Access user role management" style="stroke:#181818;stroke-width:1;"/><polygon fill="#181818" points="242.08,104.25,233.08,100.25,237.08,104.25,233.08,108.25,242.08,104.25" style="stroke:#181818;stroke-width:1;"/></g><!--link Access user role management to Check Admin role via RoleGuard--><g class="link" data-entity-1="ent0005" data-entity-2="ent0007" data-link-type="dependency" data-source-line="41" id="lnk8"><path d="M439.66,101 C468.96,101 494.88,101 524.3,101" fill="none" id="Access user role management-to-Check Admin role via RoleGuard" style="stroke:#181818;stroke-width:1;"/><polygon fill="#181818" points="530.3,101,521.3,97,525.3,101,521.3,105,530.3,101" style="stroke:#181818;stroke-width:1;"/></g><!--link Check Admin role via RoleGuard to Access granted--><g class="link" data-entity-1="ent0007" data-entity-2="ent0009" data-link-type="dependency" data-source-line="42" id="lnk10"><path d="M755.97,119.83 C794.43,119.83 829.51,119.83 862.31,119.83" fill="none" id="Check Admin role via RoleGuard-to-Access granted" style="stroke:#181818;stroke-width:1;"/><polygon fill="#181818" points="868.31,119.83,859.31,115.83,863.31,119.83,859.31,123.83,868.31,119.83" style="stroke:#181818;stroke-width:1;"/></g><!--link Check Admin role via RoleGuard to Access granted--><g class="link" data-entity-1="ent0007" data-entity-2="ent0009" data-link-type="dependency" data-source-line="47" id="lnk18"><path d="M755.97,109.17 C794.43,109.17 829.51,109.17 862.31,109.17" fill="none" id="Check Admin role via RoleGuard-to-Access granted-1" style="stroke:#181818;stroke-width:1;"/><polygon fill="#181818" points="868.31,109.17,859.31,105.17,863.31,109.17,859.31,113.17,868.31,109.17" style="stroke:#181818;stroke-width:1;"/></g><!--link Access granted to Fetch user list--><g class="link" data-entity-1="ent0009" data-entity-2="ent0011" data-link-type="dependency" data-source-line="43" id="lnk12"><path d="M979.96,125.83 C1059.73,125.83 1211,125.83 1211,125.83 C1211,125.83 1211,130.53 1211,141.89" fill="none" id="Access granted-to-Fetch user list" style="stroke:#181818;stroke-width:1;"/><polygon fill="#181818" points="1211,147.89,1215,138.89,1211,142.89,1207,138.89,1211,147.89" style="stroke:#181818;stroke-width:1;"/></g><!--link Fetch user list to Display user list--><g class="link" data-entity-1="ent0011" data-entity-2="ent0013" data-link-type="dependency" data-source-line="44" id="lnk14"><path d="M1279.13,174.5 C1324.8,174.5 1378.69,174.5 1424.36,174.5" fill="none" id="Fetch user list-to-Display user list" style="stroke:#181818;stroke-width:1;"/><polygon fill="#181818" points="1430.36,174.5,1421.36,170.5,1425.36,174.5,1421.36,178.5,1430.36,174.5" style="stroke:#181818;stroke-width:1;"/></g><!--link Admin to Assign/Remove roles--><g class="link" data-entity-1="ent0002" data-entity-2="ent0015" data-link-type="dependency" data-source-line="45" id="lnk16"><path d="M102.36,160.5 C136.73,160.5 201.89,160.5 256.7,160.5" fill="none" id="Admin-to-Assign/Remove roles" style="stroke:#181818;stroke-width:1;"/><polygon fill="#181818" points="262.7,160.5,253.7,156.5,257.7,160.5,253.7,164.5,262.7,160.5" style="stroke:#181818;stroke-width:1;"/></g><!--link Assign/Remove roles to Check Admin role via RoleGuard--><g class="link" data-entity-1="ent0015" data-entity-2="ent0007" data-link-type="dependency" data-source-line="46" id="lnk17"><path d="M421.56,167 C470.8,167 523,167 523,167 C523,167 523,146.17 523,130.87" fill="none" id="Assign/Remove roles-to-Check Admin role via RoleGuard" style="stroke:#181818;stroke-width:1;"/><polygon fill="#181818" points="523,124.87,519,133.87,523,129.87,527,133.87,523,124.87" style="stroke:#181818;stroke-width:1;"/></g><!--link Access granted to Process role modification--><g class="link" data-entity-1="ent0009" data-entity-2="ent0019" data-link-type="dependency" data-source-line="48" id="lnk20"><path d="M988.12,105.5 C1032.6,105.5 1088.94,105.5 1136.38,105.5" fill="none" id="Access granted-to-Process role modification" style="stroke:#181818;stroke-width:1;"/><polygon fill="#181818" points="1142.38,105.5,1133.38,101.5,1137.38,105.5,1133.38,109.5,1142.38,105.5" style="stroke:#181818;stroke-width:1;"/></g><!--link Process role modification to Update user roles in database--><g class="link" data-entity-1="ent0019" data-entity-2="ent0021" data-link-type="dependency" data-source-line="49" id="lnk22"><path d="M1303.15,92 C1328.69,92 1350.74,92 1377.41,92" fill="none" id="Process role modification-to-Update user roles in database" style="stroke:#181818;stroke-width:1;"/><polygon fill="#181818" points="1383.41,92,1374.41,88,1378.41,92,1374.41,96,1383.41,92" style="stroke:#181818;stroke-width:1;"/></g><!--link Update user roles in database to Return success/failure--><g class="link" data-entity-1="ent0021" data-entity-2="ent0023" data-link-type="dependency" data-source-line="50" id="lnk24"><path d="M1612.31,91 C1644.21,91 1672.21,91 1701.69,91" fill="none" id="Update user roles in database-to-Return success/failure" style="stroke:#181818;stroke-width:1;"/><polygon fill="#181818" points="1707.69,91,1698.69,87,1702.69,91,1698.69,95,1707.69,91" style="stroke:#181818;stroke-width:1;"/></g><!--link Return success/failure to Display success/failure message--><g class="link" data-entity-1="ent0023" data-entity-2="ent0025" data-link-type="dependency" data-source-line="51" id="lnk26"><path d="M1872.12,97.5 C1897.83,97.5 1920.5,97.5 1947.77,97.5" fill="none" id="Return success/failure-to-Display success/failure message" style="stroke:#181818;stroke-width:1;"/><polygon fill="#181818" points="1953.77,97.5,1944.77,93.5,1948.77,97.5,1944.77,101.5,1953.77,97.5" style="stroke:#181818;stroke-width:1;"/></g><!--reverse link Access user role management to Unauthorized access attempt--><g class="link" data-entity-1="ent0005" data-entity-2="ent0028" data-link-type="dependency" data-source-line="74" id="lnk37"><path d="M436,108.52 C436,161.77 436,342.5 436,342.5 C436,342.5 671.44,342.5 817.9,342.5" fill="none" id="Access user role management-backto-Unauthorized access attempt" style="stroke:#FF0000;stroke-width:1;"/><polygon fill="#FF0000" points="436,102.52,432,111.52,436,107.52,440,111.52,436,102.52" style="stroke:#FF0000;stroke-width:1;"/><text fill="#000000" font-family="sans-serif" font-size="13" lengthAdjust="spacing" textLength="72.9917" x="433.96" y="356.5698">&#171;Threatens&#187;</text></g><!--reverse link Check Admin role via RoleGuard to Bypass RoleGuard--><g class="link" data-entity-1="ent0007" data-entity-2="ent0029" data-link-type="dependency" data-source-line="75" id="lnk38"><path d="M715.8,136 C855.34,136 1138,136 1138,136 C1138,136 1138,222.88 1138,252.07" fill="none" id="Check Admin role via RoleGuard-backto-Bypass RoleGuard" style="stroke:#FF0000;stroke-width:1;"/><polygon fill="#FF0000" points="709.8,136,718.8,140,714.8,136,718.8,132,709.8,136" style="stroke:#FF0000;stroke-width:1;"/><text fill="#000000" font-family="sans-serif" font-size="13" lengthAdjust="spacing" textLength="72.9917" x="908.93" y="150.0698">&#171;Threatens&#187;</text></g><!--reverse link Fetch user list to Data leakage of user roles--><g class="link" data-entity-1="ent0011" data-entity-2="ent0032" data-link-type="dependency" data-source-line="76" id="lnk39"><path d="M1263.26,194 C1376.22,194 1651,194 1651,194 C1651,194 1651,326.17 1651,326.17 C1651,326.17 1670.8,326.17 1695.32,326.17" fill="none" id="Fetch user list-backto-Data leakage of user roles" style="stroke:#FF0000;stroke-width:1;"/><polygon fill="#FF0000" points="1257.26,194,1266.26,198,1262.26,194,1266.26,190,1257.26,194" style="stroke:#FF0000;stroke-width:1;"/><text fill="#000000" font-family="sans-serif" font-size="13" lengthAdjust="spacing" textLength="72.9917" x="1469.37" y="208.0698">&#171;Threatens&#187;</text></g><!--reverse link Assign/Remove roles to Privilege escalation--><g class="link" data-entity-1="ent0015" data-entity-2="ent0030" data-link-type="dependency" data-source-line="77" id="lnk40"><path d="M427.55,184 C558.59,184 788,184 788,184 C788,184 788,418.33 788,418.33 C788,418.33 822.06,418.33 857.05,418.33" fill="none" id="Assign/Remove roles-backto-Privilege escalation" style="stroke:#FF0000;stroke-width:1;"/><polygon fill="#FF0000" points="421.55,184,430.55,188,426.55,184,430.55,180,421.55,184" style="stroke:#FF0000;stroke-width:1;"/><text fill="#000000" font-family="sans-serif" font-size="13" lengthAdjust="spacing" textLength="72.9917" x="683.47" y="198.0698">&#171;Threatens&#187;</text></g><!--reverse link Update user roles in database to Tampering with roles--><g class="link" data-entity-1="ent0021" data-entity-2="ent0033" data-link-type="dependency" data-source-line="78" id="lnk41"><path d="M1592,119.55 C1592,126.97 1592,128.17 1592,128.17 C1592,128.17 2067,128.17 2067,128.17 C2067,128.17 2067,195.5 2067,233.37" fill="none" id="Update user roles in database-backto-Tampering with roles" style="stroke:#FF0000;stroke-width:1;"/><polygon fill="#FF0000" points="1592,113.55,1588,122.55,1592,118.55,1596,122.55,1592,113.55" style="stroke:#FF0000;stroke-width:1;"/><text fill="#000000" font-family="sans-serif" font-size="13" lengthAdjust="spacing" textLength="72.9917" x="1801.79" y="142.2398">&#171;Threatens&#187;</text></g><!--reverse link Unauthorized access attempt to Attacker--><g class="link" data-entity-1="ent0028" data-entity-2="ent0003" data-link-type="dependency" data-source-line="81" id="lnk42"><path d="M1030,361.29 C1030,388.47 1030,443.5 1030,443.5 C1030,443.5 2225.34,443.5 2416.78,443.5" fill="none" id="Unauthorized access attempt-backto-Attacker" style="stroke:#181818;stroke-width:1;"/><polygon fill="#181818" points="1030,355.29,1026,364.29,1030,360.29,1034,364.29,1030,355.29" style="stroke:#181818;stroke-width:1;"/></g><!--reverse link Bypass RoleGuard to Exploit misconfigured RoleGuard--><g class="link" data-entity-1="ent0029" data-entity-2="ent0034" data-link-type="dependency" data-source-line="82" id="lnk43"><path d="M1211,292.78 C1211,331.3 1211,394.25 1211,394.25 C1211,394.25 1326.49,394.25 1411.07,394.25" fill="none" id="Bypass RoleGuard-backto-Exploit misconfigured RoleGuard" style="stroke:#181818;stroke-width:1;"/><polygon fill="#181818" points="1211,286.78,1207,295.78,1211,291.78,1215,295.78,1211,286.78" style="stroke:#181818;stroke-width:1;"/></g><!--reverse link Exploit misconfigured RoleGuard to Attacker--><g class="link" data-entity-1="ent0034" data-entity-2="ent0003" data-link-type="dependency" data-source-line="83" id="lnk44"><path d="M1625.02,412.5 C1847.2,412.5 2303.1,412.5 2416.8,412.5" fill="none" id="Exploit misconfigured RoleGuard-backto-Attacker" style="stroke:#181818;stroke-width:1;"/><polygon fill="#181818" points="1619.02,412.5,1628.02,416.5,1624.02,412.5,1628.02,408.5,1619.02,412.5" style="stroke:#181818;stroke-width:1;"/></g><!--reverse link Data leakage of user roles to Expose sensitive user data--><g class="link" data-entity-1="ent0032" data-entity-2="ent0036" data-link-type="dependency" data-source-line="84" id="lnk45"><path d="M1899.57,341 C1920.72,341 1936.97,341 1958.22,341" fill="none" id="Data leakage of user roles-backto-Expose sensitive user data" style="stroke:#181818;stroke-width:1;"/><polygon fill="#181818" points="1893.57,341,1902.57,345,1898.57,341,1902.57,337,1893.57,341" style="stroke:#181818;stroke-width:1;"/></g><!--reverse link Expose sensitive user data to Attacker--><g class="link" data-entity-1="ent0036" data-entity-2="ent0003" data-link-type="dependency" data-source-line="85" id="lnk46"><path d="M2182.12,343.5 C2290.3,343.5 2434,343.5 2434,343.5 C2434,343.5 2434,363.31 2434,382.96" fill="none" id="Expose sensitive user data-backto-Attacker" style="stroke:#181818;stroke-width:1;"/><polygon fill="#181818" points="2176.12,343.5,2185.12,347.5,2181.12,343.5,2185.12,339.5,2176.12,343.5" style="stroke:#181818;stroke-width:1;"/></g><!--reverse link Privilege escalation to Malicious role assignment--><g class="link" data-entity-1="ent0030" data-entity-2="ent0035" data-link-type="dependency" data-source-line="86" id="lnk47"><path d="M984.14,448 C1037.77,448 1113,448 1113,448 C1113,448 1113,532.8 1113,561.29" fill="none" id="Privilege escalation-backto-Malicious role assignment" style="stroke:#181818;stroke-width:1;"/><polygon fill="#181818" points="978.14,448,987.14,452,983.14,448,987.14,444,978.14,448" style="stroke:#181818;stroke-width:1;"/></g><!--reverse link Malicious role assignment to Attacker--><g class="link" data-entity-1="ent0035" data-entity-2="ent0003" data-link-type="dependency" data-source-line="87" id="lnk48"><path d="M1310,555.91 C1310,529.34 1310,456.25 1310,456.25 C1310,456.25 2249.15,456.25 2416.99,456.25" fill="none" id="Malicious role assignment-backto-Attacker" style="stroke:#181818;stroke-width:1;"/><polygon fill="#181818" points="1310,561.91,1314,552.91,1310,556.91,1306,552.91,1310,561.91" style="stroke:#181818;stroke-width:1;"/></g><!--reverse link Tampering with roles to SQL Injection--><g class="link" data-entity-1="ent0033" data-entity-2="ent0031" data-link-type="dependency" data-source-line="88" id="lnk49"><path d="M2158.87,260.75 C2187.95,260.75 2213.74,260.75 2240.17,260.75" fill="none" id="Tampering with roles-backto-SQL Injection" style="stroke:#181818;stroke-width:1;"/><polygon fill="#181818" points="2152.87,260.75,2161.87,264.75,2157.87,260.75,2161.87,256.75,2152.87,260.75" style="stroke:#181818;stroke-width:1;"/></g><!--reverse link SQL Injection to Attacker--><g class="link" data-entity-1="ent0031" data-entity-2="ent0003" data-link-type="dependency" data-source-line="89" id="lnk50"><path d="M2363.02,263.5 C2406.03,263.5 2451,263.5 2451,263.5 C2451,263.5 2451,336.07 2451,382.85" fill="none" id="SQL Injection-backto-Attacker" style="stroke:#181818;stroke-width:1;"/><polygon fill="#181818" points="2357.02,263.5,2366.02,267.5,2362.02,263.5,2366.02,259.5,2357.02,263.5" style="stroke:#181818;stroke-width:1;"/></g><!--link Access user role management to Enforce RBAC via RoleGuard--><g class="link" data-entity-1="ent0005" data-entity-2="ent0051" data-link-type="dependency" data-source-line="92" id="lnk52"><path d="M445,98.65 C445,137.23 445,272.5 445,272.5 C445,272.5 480.79,272.5 525.28,272.5" fill="none" id="Access user role management-to-Enforce RBAC via RoleGuard" style="stroke:#181818;stroke-width:1;"/><polygon fill="#181818" points="531.28,272.5,522.28,268.5,526.28,272.5,522.28,276.5,531.28,272.5" style="stroke:#181818;stroke-width:1;"/></g><!--link Check Admin role via RoleGuard to Validate JWT and role claims--><g class="link" data-entity-1="ent0007" data-entity-2="ent0053" data-link-type="dependency" data-source-line="93" id="lnk54"><path d="M750,124.14 C750,153.97 750,242.75 750,242.75 C750,242.75 803.81,242.75 854.85,242.75" fill="none" id="Check Admin role via RoleGuard-to-Validate JWT and role claims" style="stroke:#181818;stroke-width:1;"/><polygon fill="#181818" points="860.85,242.75,851.85,238.75,855.85,242.75,851.85,246.75,860.85,242.75" style="stroke:#181818;stroke-width:1;"/></g><!--link Fetch user list to Filter sensitive data in API response--><g class="link" data-entity-1="ent0011" data-entity-2="ent0055" data-link-type="dependency" data-source-line="94" id="lnk56"><path d="M1244.97,197.5 C1300.84,197.5 1406,197.5 1406,197.5 C1406,197.5 1406,264.98 1406,299.71" fill="none" id="Fetch user list-to-Filter sensitive data in API response" style="stroke:#181818;stroke-width:1;"/><polygon fill="#181818" points="1406,305.71,1410,296.71,1406,300.71,1402,296.71,1406,305.71" style="stroke:#181818;stroke-width:1;"/></g><!--link Assign/Remove roles to Log role changes for audit--><g class="link" data-entity-1="ent0015" data-entity-2="ent0057" data-link-type="dependency" data-source-line="95" id="lnk58"><path d="M336,201.31 C336,265.19 336,425.5 336,425.5 C336,425.5 447.55,425.5 535.49,425.5" fill="none" id="Assign/Remove roles-to-Log role changes for audit" style="stroke:#181818;stroke-width:1;"/><polygon fill="#181818" points="541.49,425.5,532.49,421.5,536.49,425.5,532.49,429.5,541.49,425.5" style="stroke:#181818;stroke-width:1;"/></g><!--link Update user roles in database to Sanitize input and use ORM--><g class="link" data-entity-1="ent0021" data-entity-2="ent0059" data-link-type="dependency" data-source-line="96" id="lnk60"><path d="M1612.53,104 C1656.32,104 1696,104 1696,104 C1696,104 1696,208.59 1696,241.42" fill="none" id="Update user roles in database-to-Sanitize input and use ORM" style="stroke:#181818;stroke-width:1;"/><polygon fill="#181818" points="1696,247.42,1700,238.42,1696,242.42,1692,238.42,1696,247.42" style="stroke:#181818;stroke-width:1;"/></g><!--link Enforce RBAC via RoleGuard to Unauthorized access attempt--><g class="link" data-entity-1="ent0051" data-entity-2="ent0028" data-link-type="dependency" data-source-line="99" id="lnk61"><path d="M690.88,292.5 C746.37,292.5 824,292.5 824,292.5 C824,292.5 824,314.04 824,328.24" fill="none" id="Enforce RBAC via RoleGuard-to-Unauthorized access attempt" style="stroke:#008000;stroke-width:1;"/><polygon fill="#008000" points="824,334.24,828,325.24,824,329.24,820,325.24,824,334.24" style="stroke:#008000;stroke-width:1;"/><text fill="#000000" font-family="sans-serif" font-size="13" lengthAdjust="spacing" textLength="66.479" x="779.31" y="306.5698">&#171;Mitigates&#187;</text></g><!--link Validate JWT and role claims to Bypass RoleGuard--><g class="link" data-entity-1="ent0053" data-entity-2="ent0029" data-link-type="dependency" data-source-line="100" id="lnk62"><path d="M1035.89,259.5 C1067.8,259.5 1096.39,259.5 1126.32,259.5" fill="none" id="Validate JWT and role claims-to-Bypass RoleGuard" style="stroke:#008000;stroke-width:1;"/><polygon fill="#008000" points="1132.32,259.5,1123.32,255.5,1127.32,259.5,1123.32,263.5,1132.32,259.5" style="stroke:#008000;stroke-width:1;"/><text fill="#000000" font-family="sans-serif" font-size="13" lengthAdjust="spacing" textLength="66.479" x="1017.1" y="273.5698">&#171;Mitigates&#187;</text></g><!--link Filter sensitive data in API response to Data leakage of user roles--><g class="link" data-entity-1="ent0055" data-entity-2="ent0032" data-link-type="dependency" data-source-line="101" id="lnk63"><path d="M1601.2,338.33 C1627,338.33 1648.74,338.33 1674.73,338.33" fill="none" id="Filter sensitive data in API response-to-Data leakage of user roles" style="stroke:#008000;stroke-width:1;"/><polygon fill="#008000" points="1680.73,338.33,1671.73,334.33,1675.73,338.33,1671.73,342.33,1680.73,338.33" style="stroke:#008000;stroke-width:1;"/><text fill="#000000" font-family="sans-serif" font-size="13" lengthAdjust="spacing" textLength="66.479" x="1641.97" y="352.3998">&#171;Mitigates&#187;</text></g><!--link Log role changes for audit to Privilege escalation--><g class="link" data-entity-1="ent0057" data-entity-2="ent0030" data-link-type="dependency" data-source-line="102" id="lnk64"><path d="M725.21,432.67 C765.89,432.67 807.66,432.67 847.02,432.67" fill="none" id="Log role changes for audit-to-Privilege escalation" style="stroke:#008000;stroke-width:1;"/><polygon fill="#008000" points="853.02,432.67,844.02,428.67,848.02,432.67,844.02,436.67,853.02,432.67" style="stroke:#008000;stroke-width:1;"/><text fill="#000000" font-family="sans-serif" font-size="13" lengthAdjust="spacing" textLength="66.479" x="790.12" y="446.7398">&#171;Mitigates&#187;</text></g><!--link Sanitize input and use ORM to Tampering with roles--><g class="link" data-entity-1="ent0059" data-entity-2="ent0033" data-link-type="dependency" data-source-line="103" id="lnk65"><path d="M1887.62,256.5 C1918.16,256.5 1945.46,256.5 1974.98,256.5" fill="none" id="Sanitize input and use ORM-to-Tampering with roles" style="stroke:#008000;stroke-width:1;"/><polygon fill="#008000" points="1980.98,256.5,1971.98,252.5,1975.98,256.5,1971.98,260.5,1980.98,256.5" style="stroke:#008000;stroke-width:1;"/><text fill="#000000" font-family="sans-serif" font-size="13" lengthAdjust="spacing" textLength="66.479" x="1867.3" y="270.5698">&#171;Mitigates&#187;</text></g><?plantuml-src pLPDRziu4BthLn3jOPD3q6BJed5H192_MXTsctMSzCn8OuaDHGeabTHTx7_V8MKdeaN9pgtGnUQyUJESUKEImzeG8ubYMMv8oXGaXaaHwNicIgfeGJWJO3Ob4AbCBXi6dTDKFZAHaJNb6XgMEvhSPqfM8Xr9BXLvFHtOBsf0AWq9rK3-ZGWPxi5_vCo0NPSg1LMl3Jc2S6qgXMck_7SawQTFgrm1DPUNRQg6BH2wvNbyo0KpBAEsdkZy-lpTwCFxWH_OGmI3-nn_lxk8pySlI67oou0Ib5ldz_7eOXhx2JJimV1D__DuC1WFNX3yjk825BrZd9cDPHY-jP-VmJvernulZHRJnLlxsLneOb0DSLemiVjj3580wav16aLMqbHa7CYh1HKq0tAZqRYK7FGhbxXp9cTdb-GaJXBGscvB4OK8KZYN0eGvHMIllMOOvP3SRoaTue5H5-npHLLwIloMMiv37it4CaM5WI3DFiAvJS4aUPqkPxhUm_vQZHmpNNAwyR7DocZDCl5c2OLy09UdhYiIMFyJAt6bf5kjkoPJjcQ9yt6xwBRMtZTbIWqyzrqJJ16Nw1sgtp7q8sgM9PXA2Q8hb-2RDMMyKhLxXydlpPwL5FW7rNTgv-0lX9wHsvlvjyao7ixcizLiSarEhi4OUqPN9NcQsjFeKBQjYOlwbH_07-v-owKbp01cONkpQIGUJZOaoZPkMxJLb-KaNlKKIz0Axpx5VaDAQ5q7QWmKfSjnTpz49yDDIT7cxVBPUgNO0-E01n3eXFAjl9g8wt_cP2P-rdUmRnfZRmW7UcyFCBdUAy0pRaMB4fJTn2CpUGWn-LLooGmfc4waMBCCbPHsvRoWd2LCLjl9eAwkkvvxd19l0Gr2uom-R8LbzUJX_7eVqXGY-qjlptVoyIa01ZzAU9QttQamMLkIrhkl6M6Ui20jLrWLOPP3KslvmW88yddj8EF9AfxDSGhMIXR4A823qaVdtMKR5B_DvqLoEmpsGlOEnJRuCRhintaXEuRO1ZjoLlfWNgYEKRQXUWwAVLEJSjlm1TuDd-FLxFktGpFeRf-9M4kL05aEuz61E_ou6_mMA-24_FN7Yb2HriY4KrReDcNukJ9b75-cZOxPPjbnYAzcH84kfQWlCf-i-xKobzasZnnVYpXQk6b2gvIPDiinT_qr5UZp6z1KLiPj4_7a-tBHujkrfLv3DggKVDHHR-NhPqdlyPZX30itzK_KDll-yZlUmF7OGNPa7-fdJD-nsS7VrvRjkovuVdRGzNN5qNKSds6w_m40?></g></svg>