<?plantuml 1.2026.2?><svg xmlns="http://www.w3.org/2000/svg" xmlns:xlink="http://www.w3.org/1999/xlink" contentStyleType="text/css" data-diagram-type="SEQUENCE" height="662px" preserveAspectRatio="none" style="width:844px;height:662px;background:#FFFFFF;" version="1.1" viewBox="0 0 844 662" width="844px" zoomAndPan="magnify"><defs/><g><g class="participant-lifeline" data-entity-uid="part1" data-qualified-name="Admin" id="part1-lifeline"><g><title>Admin</title><rect fill="#000000" fill-opacity="0.00000" height="498.8203" width="8" x="23.8413" y="82.1514"/><line style="stroke:#181818;stroke-width:0.5;stroke-dasharray:5,5;" x1="27" x2="27" y1="82.1514" y2="580.9717"/></g></g><g class="participant-lifeline" data-entity-uid="part2" data-qualified-name="API" id="part2-lifeline"><g><title>API Client</title><rect fill="#000000" fill-opacity="0.00000" height="498.8203" width="8" x="236.4175" y="82.1514"/><line style="stroke:#181818;stroke-width:0.5;stroke-dasharray:5,5;" x1="240.2935" x2="240.2935" y1="82.1514" y2="580.9717"/></g></g><g class="participant-lifeline" data-entity-uid="part3" data-qualified-name="UC" id="part3-lifeline"><g><title>UserController</title><rect fill="#000000" fill-opacity="0.00000" height="498.8203" width="8" x="443.2109" y="82.1514"/><line style="stroke:#181818;stroke-width:0.5;stroke-dasharray:5,5;" x1="447.0869" x2="447.0869" y1="82.1514" y2="580.9717"/></g></g><g class="participant-lifeline" data-entity-uid="part4" data-qualified-name="US" id="part4-lifeline"><g><title>UserService</title><rect fill="#000000" fill-opacity="0.00000" height="498.8203" width="8" x="652.2324" y="82.1514"/><line style="stroke:#181818;stroke-width:0.5;stroke-dasharray:5,5;" x1="656.1118" x2="656.1118" y1="82.1514" y2="580.9717"/></g></g><g class="participant-lifeline" data-entity-uid="part5" data-qualified-name="UR" id="part5-lifeline"><g><title>UserRepository</title><rect fill="#000000" fill-opacity="0.00000" height="498.8203" width="8" x="778.8423" y="82.1514"/><line style="stroke:#181818;stroke-width:0.5;stroke-dasharray:5,5;" x1="782.6045" x2="782.6045" y1="82.1514" y2="580.9717"/></g></g><g class="participant participant-head" data-entity-uid="part1" data-qualified-name="Admin" id="part1-head"><text fill="#000000" font-family="sans-serif" font-size="14" lengthAdjust="spacing" textLength="39.6826" x="5" y="79.0752">Admin</text><ellipse cx="27.8413" cy="13.5" fill="#E2E2F0" rx="8" ry="8" style="stroke:#181818;stroke-width:0.5;"/><path d="M27.8413,21.5 L27.8413,48.5 M14.8413,29.5 L40.8413,29.5 M27.8413,48.5 L14.8413,63.5 M27.8413,48.5 L40.8413,63.5" fill="none" style="stroke:#181818;stroke-width:0.5;"/></g><g class="participant participant-tail" data-entity-uid="part1" data-qualified-name="Admin" id="part1-tail"><text fill="#000000" font-family="sans-serif" font-size="14" lengthAdjust="spacing" textLength="39.6826" x="5" y="594.0469">Admin</text><ellipse cx="27.8413" cy="605.623" fill="#E2E2F0" rx="8" ry="8" style="stroke:#181818;stroke-width:0.5;"/><path d="M27.8413,613.623 L27.8413,640.623 M14.8413,621.623 L40.8413,621.623 M27.8413,640.623 L14.8413,655.623 M27.8413,640.623 L40.8413,655.623" fill="none" style="stroke:#181818;stroke-width:0.5;"/></g><g class="participant participant-head" data-entity-uid="part2" data-qualified-name="API" id="part2-head"><rect fill="#E2E2F0" height="31.1514" rx="2.5" ry="2.5" style="stroke:#181818;stroke-width:0.5;" width="76.248" x="202.2935" y="50"/><text fill="#000000" font-family="sans-serif" font-size="14" lengthAdjust="spacing" textLength="62.248" x="209.2935" y="71.0752">API Client</text></g><g class="participant participant-tail" data-entity-uid="part2" data-qualified-name="API" id="part2-tail"><rect fill="#E2E2F0" height="31.1514" rx="2.5" ry="2.5" style="stroke:#181818;stroke-width:0.5;" width="76.248" x="202.2935" y="579.9717"/><text fill="#000000" font-family="sans-serif" font-size="14" lengthAdjust="spacing" textLength="62.248" x="209.2935" y="601.0469">API Client</text></g><g class="participant participant-head" data-entity-uid="part3" data-qualified-name="UC" id="part3-head"><rect fill="#E2E2F0" height="31.1514" rx="2.5" ry="2.5" style="stroke:#181818;stroke-width:0.5;" width="104.248" x="395.0869" y="50"/><text fill="#000000" font-family="sans-serif" font-size="14" lengthAdjust="spacing" textLength="90.248" x="402.0869" y="71.0752">UserController</text></g><g class="participant participant-tail" data-entity-uid="part3" data-qualified-name="UC" id="part3-tail"><rect fill="#E2E2F0" height="31.1514" rx="2.5" ry="2.5" style="stroke:#181818;stroke-width:0.5;" width="104.248" x="395.0869" y="579.9717"/><text fill="#000000" font-family="sans-serif" font-size="14" lengthAdjust="spacing" textLength="90.248" x="402.0869" y="601.0469">UserController</text></g><g class="participant participant-head" data-entity-uid="part4" data-qualified-name="US" id="part4-head"><rect fill="#E2E2F0" height="31.1514" rx="2.5" ry="2.5" style="stroke:#181818;stroke-width:0.5;" width="90.2412" x="611.1118" y="50"/><text fill="#000000" font-family="sans-serif" font-size="14" lengthAdjust="spacing" textLength="76.2412" x="618.1118" y="71.0752">UserService</text></g><g class="participant participant-tail" data-entity-uid="part4" data-qualified-name="US" id="part4-tail"><rect fill="#E2E2F0" height="31.1514" rx="2.5" ry="2.5" style="stroke:#181818;stroke-width:0.5;" width="90.2412" x="611.1118" y="579.9717"/><text fill="#000000" font-family="sans-serif" font-size="14" lengthAdjust="spacing" textLength="76.2412" x="618.1118" y="601.0469">UserService</text></g><g class="participant participant-head" data-entity-uid="part5" data-qualified-name="UR" id="part5-head"><rect fill="#E2E2F0" height="31.1514" rx="2.5" ry="2.5" style="stroke:#181818;stroke-width:0.5;" width="110.4756" x="727.6045" y="50"/><text fill="#000000" font-family="sans-serif" font-size="14" lengthAdjust="spacing" textLength="96.4756" x="734.6045" y="71.0752">UserRepository</text></g><g class="participant participant-tail" data-entity-uid="part5" data-qualified-name="UR" id="part5-tail"><rect fill="#E2E2F0" height="31.1514" rx="2.5" ry="2.5" style="stroke:#181818;stroke-width:0.5;" width="110.4756" x="727.6045" y="579.9717"/><text fill="#000000" font-family="sans-serif" font-size="14" lengthAdjust="spacing" textLength="96.4756" x="734.6045" y="601.0469">UserRepository</text></g><g class="message" data-entity-1="part1" data-entity-2="part2" id="msg1"><polygon fill="#181818" points="228.4175,110.0776,238.4175,114.0776,228.4175,118.0776,232.4175,114.0776" style="stroke:#181818;stroke-width:1;"/><line style="stroke:#181818;stroke-width:1;" x1="27.8413" x2="234.4175" y1="114.0776" y2="114.0776"/><text fill="#000000" font-family="sans-serif" font-size="13" lengthAdjust="spacing" textLength="175.5825" x="34.8413" y="109.2212">Access user role management</text></g><g class="message" data-entity-1="part2" data-entity-2="part3" id="msg2"><polygon fill="#181818" points="435.2109,140.0039,445.2109,144.0039,435.2109,148.0039,439.2109,144.0039" style="stroke:#181818;stroke-width:1;"/><line style="stroke:#181818;stroke-width:1;" x1="240.4175" x2="441.2109" y1="144.0039" y2="144.0039"/><text fill="#000000" font-family="sans-serif" font-size="13" lengthAdjust="spacing" textLength="65.7363" x="247.4175" y="139.1475">GET /users</text></g><g class="message" data-entity-1="part3" data-entity-2="part4" id="msg3"><polygon fill="#181818" points="644.2324,169.9302,654.2324,173.9302,644.2324,177.9302,648.2324,173.9302" style="stroke:#181818;stroke-width:1;"/><line style="stroke:#181818;stroke-width:1;" x1="447.2109" x2="650.2324" y1="173.9302" y2="173.9302"/><text fill="#000000" font-family="sans-serif" font-size="13" lengthAdjust="spacing" textLength="142.3271" x="454.2109" y="169.0737">Retrieve users with roles</text></g><g class="message" data-entity-1="part4" data-entity-2="part5" id="msg4"><polygon fill="#181818" points="770.8423,199.8564,780.8423,203.8564,770.8423,207.8564,774.8423,203.8564" style="stroke:#181818;stroke-width:1;"/><line style="stroke:#181818;stroke-width:1;" x1="656.2324" x2="776.8423" y1="203.8564" y2="203.8564"/><text fill="#000000" font-family="sans-serif" font-size="13" lengthAdjust="spacing" textLength="87.4199" x="663.2324" y="199">Query all users</text></g><g class="message" data-entity-1="part5" data-entity-2="part4" id="msg5"><polygon fill="#181818" points="667.2324,229.7827,657.2324,233.7827,667.2324,237.7827,663.2324,233.7827" style="stroke:#181818;stroke-width:1;"/><line style="stroke:#181818;stroke-width:1;stroke-dasharray:2,2;" x1="661.2324" x2="781.8423" y1="233.7827" y2="233.7827"/><text fill="#000000" font-family="sans-serif" font-size="13" lengthAdjust="spacing" textLength="96.8335" x="673.2324" y="228.9263">Return user data</text></g><g class="message" data-entity-1="part4" data-entity-2="part3" id="msg6"><polygon fill="#181818" points="458.2109,259.709,448.2109,263.709,458.2109,267.709,454.2109,263.709" style="stroke:#181818;stroke-width:1;"/><line style="stroke:#181818;stroke-width:1;stroke-dasharray:2,2;" x1="452.2109" x2="655.2324" y1="263.709" y2="263.709"/><text fill="#000000" font-family="sans-serif" font-size="13" lengthAdjust="spacing" textLength="87.4199" x="464.2109" y="258.8525">Return user list</text></g><g class="message" data-entity-1="part3" data-entity-2="part2" id="msg7"><polygon fill="#181818" points="251.4175,289.6353,241.4175,293.6353,251.4175,297.6353,247.4175,293.6353" style="stroke:#181818;stroke-width:1;"/><line style="stroke:#181818;stroke-width:1;stroke-dasharray:2,2;" x1="245.4175" x2="446.2109" y1="293.6353" y2="293.6353"/><text fill="#000000" font-family="sans-serif" font-size="13" lengthAdjust="spacing" textLength="96.8335" x="257.4175" y="288.7788">Return user data</text></g><g class="message" data-entity-1="part2" data-entity-2="part1" id="msg8"><polygon fill="#181818" points="38.8413,319.5615,28.8413,323.5615,38.8413,327.5615,34.8413,323.5615" style="stroke:#181818;stroke-width:1;"/><line style="stroke:#181818;stroke-width:1;" x1="32.8413" x2="239.4175" y1="323.5615" y2="323.5615"/><text fill="#000000" font-family="sans-serif" font-size="13" lengthAdjust="spacing" textLength="91.0254" x="44.8413" y="318.7051">Display user list</text></g><g class="message" data-entity-1="part1" data-entity-2="part2" id="msg9"><polygon fill="#181818" points="228.4175,349.4878,238.4175,353.4878,228.4175,357.4878,232.4175,353.4878" style="stroke:#181818;stroke-width:1;"/><line style="stroke:#181818;stroke-width:1;" x1="27.8413" x2="234.4175" y1="353.4878" y2="353.4878"/><text fill="#000000" font-family="sans-serif" font-size="13" lengthAdjust="spacing" textLength="122.8271" x="34.8413" y="348.6313">Assign/Remove roles</text></g><g class="message" data-entity-1="part2" data-entity-2="part3" id="msg10"><polygon fill="#181818" points="435.2109,379.4141,445.2109,383.4141,435.2109,387.4141,439.2109,383.4141" style="stroke:#181818;stroke-width:1;"/><line style="stroke:#181818;stroke-width:1;" x1="240.4175" x2="441.2109" y1="383.4141" y2="383.4141"/><text fill="#000000" font-family="sans-serif" font-size="13" lengthAdjust="spacing" textLength="182.7935" x="247.4175" y="378.5576">POST/DELETE /users/{id}/roles</text></g><g class="message" data-entity-1="part3" data-entity-2="part4" id="msg11"><polygon fill="#181818" points="644.2324,409.3403,654.2324,413.3403,644.2324,417.3403,648.2324,413.3403" style="stroke:#181818;stroke-width:1;"/><line style="stroke:#181818;stroke-width:1;" x1="447.2109" x2="650.2324" y1="413.3403" y2="413.3403"/><text fill="#000000" font-family="sans-serif" font-size="13" lengthAdjust="spacing" textLength="185.0215" x="454.2109" y="408.4839">Validate and apply role changes</text></g><g class="message" data-entity-1="part4" data-entity-2="part5" id="msg12"><polygon fill="#181818" points="770.8423,439.2666,780.8423,443.2666,770.8423,447.2666,774.8423,443.2666" style="stroke:#181818;stroke-width:1;"/><line style="stroke:#181818;stroke-width:1;" x1="656.2324" x2="776.8423" y1="443.2666" y2="443.2666"/><text fill="#000000" font-family="sans-serif" font-size="13" lengthAdjust="spacing" textLength="102.6099" x="663.2324" y="438.4102">Update user roles</text></g><g class="message" data-entity-1="part5" data-entity-2="part4" id="msg13"><polygon fill="#181818" points="667.2324,469.1929,657.2324,473.1929,667.2324,477.1929,663.2324,473.1929" style="stroke:#181818;stroke-width:1;"/><line style="stroke:#181818;stroke-width:1;stroke-dasharray:2,2;" x1="661.2324" x2="781.8423" y1="473.1929" y2="473.1929"/><text fill="#000000" font-family="sans-serif" font-size="13" lengthAdjust="spacing" textLength="88.8799" x="673.2324" y="468.3364">Confirm update</text></g><g class="message" data-entity-1="part4" data-entity-2="part3" id="msg14"><polygon fill="#181818" points="458.2109,499.1191,448.2109,503.1191,458.2109,507.1191,454.2109,503.1191" style="stroke:#181818;stroke-width:1;"/><line style="stroke:#181818;stroke-width:1;stroke-dasharray:2,2;" x1="452.2109" x2="655.2324" y1="503.1191" y2="503.1191"/><text fill="#000000" font-family="sans-serif" font-size="13" lengthAdjust="spacing" textLength="128.6099" x="464.2109" y="498.2627">Return success/failure</text></g><g class="message" data-entity-1="part3" data-entity-2="part2" id="msg15"><polygon fill="#181818" points="251.4175,529.0454,241.4175,533.0454,251.4175,537.0454,247.4175,533.0454" style="stroke:#181818;stroke-width:1;"/><line style="stroke:#181818;stroke-width:1;stroke-dasharray:2,2;" x1="245.4175" x2="446.2109" y1="533.0454" y2="533.0454"/><text fill="#000000" font-family="sans-serif" font-size="13" lengthAdjust="spacing" textLength="132.2407" x="257.4175" y="528.189">Return operation result</text></g><g class="message" data-entity-1="part2" data-entity-2="part1" id="msg16"><polygon fill="#181818" points="38.8413,558.9717,28.8413,562.9717,38.8413,566.9717,34.8413,562.9717" style="stroke:#181818;stroke-width:1;"/><line style="stroke:#181818;stroke-width:1;" x1="32.8413" x2="239.4175" y1="562.9717" y2="562.9717"/><text fill="#000000" font-family="sans-serif" font-size="13" lengthAdjust="spacing" textLength="188.5762" x="44.8413" y="558.1152">Display success/failure message</text></g><?plantuml-src TL5DQyCm3BtdLuZUI-uv34eQnc2mBcbs5udQ2XpRo7P76FllSvsiwzUEijxp-n1stWYi-e5rPb4yTsnHUrYiDYzGAYRj5u0EudYzRnr9QRGNenH9mhJbFQGXEN97qxwvtzTaZUFeOPmWTPObCx1yEcaMiEewSWv2n4BK8XXGuvw6Q2mxUOoujYpWkTf2VWAvh2tJOrD0JLwOZfJO3ZxP7z8V4TCaJ5t0Uo0P0PM2cLt3yeyUH4_IFNfCh5dlSgVO-QJww_cEE1jDoGfOixCAnmloRMRdUA_pcWOJpK-EBx9ktffjlgvUgsqrPyw_kF_EvsZd-1-eECeJeEu1hLNZr61tGBs_Ag6r2NSk-Qg6UEKTom0XWHwKu4AwKRv3La7eKHN6ag1deq781UN_QUJc9nZY48_z0m00?></g></svg>