<?plantuml 1.2026.2?><svg xmlns="http://www.w3.org/2000/svg" xmlns:xlink="http://www.w3.org/1999/xlink" contentStyleType="text/css" data-diagram-type="DESCRIPTION" height="443px" preserveAspectRatio="none" style="width:2641px;height:443px;background:#F9F9F9;" version="1.1" viewBox="0 0 2641 443" width="2641px" zoomAndPan="magnify"><defs/><g><rect fill="#F9F9F9" height="443" style="stroke:none;stroke-width:1;" width="2641" x="0" y="0"/><!--cluster Login Flow--><g class="cluster" data-qualified-name="Login Flow" data-source-line="35" id="ent0004"><rect fill="none" height="110" rx="2.5" ry="2.5" style="stroke:#181818;stroke-width:1;" width="2087" x="80" y="7"/><text fill="#000000" font-family="sans-serif" font-size="14" font-weight="bold" lengthAdjust="spacing" textLength="73.8691" x="1086.5654" y="23.0752">Login Flow</text></g><!--entity Login to app--><g class="entity" data-qualified-name="Login Flow.Login to app" data-source-line="36" id="ent0005"><ellipse cx="153.4956" cy="75.1278" fill="#FFFFFF" rx="57.4956" ry="15.1278" style="stroke:#000000;stroke-width:0.5;"/><text fill="#000000" font-family="sans-serif" font-size="14" lengthAdjust="spacing" textLength="77.0684" x="114.9614" y="80.2035">Login to app</text></g><!--entity Redirect to Auth0 login page--><g class="entity" data-qualified-name="Login Flow.Redirect to Auth0 login page" data-source-line="37" id="ent0007"><ellipse cx="372.194" cy="75.1388" fill="#FFFFFF" rx="101.194" ry="22.6388" style="stroke:#000000;stroke-width:0.5;"/><text fill="#000000" font-family="sans-serif" font-size="14" lengthAdjust="spacing" textLength="176.6748" x="283.8566" y="80.2145">Redirect to Auth0 login page</text></g><!--entity Submit credentials on Auth0--><g class="entity" data-qualified-name="Login Flow.Submit credentials on Auth0" data-source-line="38" id="ent0009"><ellipse cx="647.8188" cy="74.8638" fill="#B0B0B0" rx="114.8188" ry="25.3638" style="stroke:#808080;stroke-width:0.5;"/><text fill="#000000" font-family="sans-serif" font-size="14" font-style="italic" lengthAdjust="spacing" textLength="91.834" x="601.9019" y="68.1239">&#171;Vulnerability&#187;</text><text fill="#000000" font-family="sans-serif" font-size="14" lengthAdjust="spacing" textLength="175.1025" x="560.2676" y="85.2752">Submit credentials on Auth0</text></g><!--entity Auth0 validates credentials--><g class="entity" data-qualified-name="Login Flow.Auth0 validates credentials" data-source-line="39" id="ent0011"><ellipse cx="920.0097" cy="72.8019" fill="#FFFFFF" rx="97.0097" ry="21.8019" style="stroke:#000000;stroke-width:0.5;"/><text fill="#000000" font-family="sans-serif" font-size="14" lengthAdjust="spacing" textLength="167.3232" x="836.3481" y="77.8776">Auth0 validates credentials</text></g><!--entity Auth0 returns authorization code--><g class="entity" data-qualified-name="Login Flow.Auth0 returns authorization code" data-source-line="40" id="ent0013"><ellipse cx="1198.6933" cy="73.2387" fill="#B0B0B0" rx="121.6933" ry="26.7387" style="stroke:#808080;stroke-width:0.5;"/><text fill="#000000" font-family="sans-serif" font-size="14" font-style="italic" lengthAdjust="spacing" textLength="91.834" x="1152.7763" y="64.9996">&#171;Vulnerability&#187;</text><text fill="#000000" font-family="sans-serif" font-size="14" lengthAdjust="spacing" textLength="202.3506" x="1097.518" y="82.151">Auth0 returns authorization code</text></g><!--entity Exchange code + code_verifier for JWT--><g class="entity" data-qualified-name="Login Flow.Exchange code . code_verifier for JWT" data-source-line="41" id="ent0015"><ellipse cx="1513.0263" cy="72.0053" fill="#FFFFFF" rx="133.0263" ry="29.0053" style="stroke:#000000;stroke-width:0.5;"/><text fill="#000000" font-family="sans-serif" font-size="14" lengthAdjust="spacing" textLength="245.5059" x="1390.2734" y="77.0809">Exchange code + code_verifier for JWT</text></g><!--entity Auth0 issues JWT--><g class="entity" data-qualified-name="Login Flow.Auth0 issues JWT" data-source-line="42" id="ent0017"><ellipse cx="1810.8539" cy="72.1708" fill="#FFFFFF" rx="73.8539" ry="17.1708" style="stroke:#000000;stroke-width:0.5;"/><text fill="#000000" font-family="sans-serif" font-size="14" lengthAdjust="spacing" textLength="112.8135" x="1754.4472" y="77.2465">Auth0 issues JWT</text></g><!--entity Return JWT to client--><g class="entity" data-qualified-name="Login Flow.Return JWT to client" data-source-line="43" id="ent0019"><ellipse cx="2063.5082" cy="71.8593" fill="#B0B0B0" rx="87.5082" ry="25.8593" style="stroke:#808080;stroke-width:0.5;"/><text fill="#000000" font-family="sans-serif" font-size="14" font-style="italic" lengthAdjust="spacing" textLength="91.834" x="2017.5912" y="66.32">&#171;Vulnerability&#187;</text><text fill="#000000" font-family="sans-serif" font-size="14" lengthAdjust="spacing" textLength="126.8135" x="2000.1015" y="83.4714">Return JWT to client</text></g><!--entity User--><g class="entity" data-qualified-name="User" data-source-line="32" id="ent0002"><ellipse cx="20.7793" cy="45" fill="#F1F1F1" rx="8" ry="8" style="stroke:#181818;stroke-width:0.5;"/><path d="M20.7793,53 L20.7793,80 M7.7793,61 L33.7793,61 M20.7793,80 L7.7793,95 M20.7793,80 L33.7793,95" fill="none" style="stroke:#181818;stroke-width:0.5;"/><text fill="#000000" font-family="sans-serif" font-size="14" lengthAdjust="spacing" textLength="29.5586" x="6" y="110.5752">User</text></g><!--entity Attacker--><g class="entity" data-qualified-name="Attacker" data-source-line="33" id="ent0003"><ellipse cx="2534.6758" cy="207" fill="#FF0000" rx="8" ry="8" style="stroke:#181818;stroke-width:0.5;"/><path d="M2534.6758,215 L2534.6758,242 M2521.6758,223 L2547.6758,223 M2534.6758,242 L2521.6758,257 M2534.6758,242 L2547.6758,257" fill="none" style="stroke:#181818;stroke-width:0.5;"/><text fill="#000000" font-family="sans-serif" font-size="14" lengthAdjust="spacing" textLength="51.3516" x="2509" y="272.5752">Attacker</text></g><!--entity Brute-force attack--><g class="entity" data-qualified-name="Brute-force attack" data-source-line="52" id="ent0021"><ellipse cx="1198.7438" cy="223.1185" fill="#000000" rx="74.2438" ry="25.1185" style="stroke:#000000;stroke-width:0.5;"/><text fill="#FFFFFF" font-family="sans-serif" font-size="14" font-style="italic" lengthAdjust="spacing" textLength="56.0342" x="1170.7267" y="216.4335">&#171;Threat&#187;</text><text fill="#FFFFFF" font-family="sans-serif" font-size="14" lengthAdjust="spacing" textLength="110.4893" x="1143.4992" y="233.5848">Brute-force attack</text></g><!--entity Network sniffing--><g class="entity" data-qualified-name="Network sniffing" data-source-line="53" id="ent0022"><ellipse cx="1198.6869" cy="341.7801" fill="#000000" rx="67.6869" ry="25.2801" style="stroke:#000000;stroke-width:0.5;"/><text fill="#FFFFFF" font-family="sans-serif" font-size="14" font-style="italic" lengthAdjust="spacing" textLength="56.0342" x="1170.6698" y="335.3496">&#171;Threat&#187;</text><text fill="#FFFFFF" font-family="sans-serif" font-size="14" lengthAdjust="spacing" textLength="99.5928" x="1148.8905" y="352.501">Network sniffing</text></g><!--entity Intercept credentials--><g class="entity" data-qualified-name="Intercept credentials" data-source-line="54" id="ent0023"><ellipse cx="920.1991" cy="380.9579" fill="#000000" rx="83.6991" ry="24.9579" style="stroke:#000000;stroke-width:0.5;"/><text fill="#FFFFFF" font-family="sans-serif" font-size="14" font-style="italic" lengthAdjust="spacing" textLength="56.0342" x="892.182" y="374.0172">&#171;Threat&#187;</text><text fill="#FFFFFF" font-family="sans-serif" font-size="14" lengthAdjust="spacing" textLength="126.0684" x="857.1649" y="391.1685">Intercept credentials</text></g><!--entity Authorization code interception--><g class="entity" data-qualified-name="Authorization code interception" data-source-line="55" id="ent0024"><ellipse cx="1512.9001" cy="193.78" fill="#000000" rx="116.9001" ry="25.78" style="stroke:#000000;stroke-width:0.5;"/><text fill="#FFFFFF" font-family="sans-serif" font-size="14" font-style="italic" lengthAdjust="spacing" textLength="56.0342" x="1484.883" y="185.3513">&#171;Threat&#187;</text><text fill="#FFFFFF" font-family="sans-serif" font-size="14" lengthAdjust="spacing" textLength="192.2334" x="1416.7834" y="202.5026">Authorization code interception</text></g><!--entity Token replay attack--><g class="entity" data-qualified-name="Token replay attack" data-source-line="56" id="ent0025"><ellipse cx="2292.3271" cy="72.9922" fill="#000000" rx="81.3271" ry="24.9922" style="stroke:#000000;stroke-width:0.5;"/><text fill="#FFFFFF" font-family="sans-serif" font-size="14" font-style="italic" lengthAdjust="spacing" textLength="56.0342" x="2264.31" y="66.1064">&#171;Threat&#187;</text><text fill="#FFFFFF" font-family="sans-serif" font-size="14" lengthAdjust="spacing" textLength="122.1719" x="2231.2412" y="83.2578">Token replay attack</text></g><!--entity Enforce rate limit + lockout--><g class="entity" data-qualified-name="Enforce rate limit . lockout" data-source-line="70" id="ent0035"><ellipse cx="920.1317" cy="223.1263" fill="#FFFFFF" rx="96.1317" ry="21.6263" style="stroke:#000000;stroke-width:0.5;"/><text fill="#000000" font-family="sans-serif" font-size="14" lengthAdjust="spacing" textLength="165.3477" x="837.4579" y="228.202">Enforce rate limit + lockout</text></g><!--entity Use TLS / HTTPS--><g class="entity" data-qualified-name="Use TLS . HTTPS" data-source-line="71" id="ent0037"><ellipse cx="1198.5387" cy="420.1077" fill="#FFFFFF" rx="73.5387" ry="17.1077" style="stroke:#000000;stroke-width:0.5;"/><text fill="#000000" font-family="sans-serif" font-size="14" lengthAdjust="spacing" textLength="112.0205" x="1142.5284" y="425.1834">Use TLS / HTTPS</text></g><!--entity PKCE code_verifier validation--><g class="entity" data-qualified-name="PKCE code_verifier validation" data-source-line="72" id="ent0039"><ellipse cx="1811.0484" cy="227.9097" fill="#FFFFFF" rx="105.0484" ry="23.4097" style="stroke:#000000;stroke-width:0.5;"/><text fill="#000000" font-family="sans-serif" font-size="14" lengthAdjust="spacing" textLength="185.2061" x="1718.4454" y="232.9854">PKCE code_verifier validation</text></g><!--entity Short token expiry + rotation--><g class="entity" data-qualified-name="Short token expiry . rotation" data-source-line="73" id="ent0041"><ellipse cx="2534.6593" cy="73.0319" fill="#FFFFFF" rx="100.6593" ry="22.5319" style="stroke:#000000;stroke-width:0.5;"/><text fill="#000000" font-family="sans-serif" font-size="14" lengthAdjust="spacing" textLength="175.4854" x="2446.9166" y="78.1075">Short token expiry + rotation</text></g><!--link User to Login to app--><g class="link" data-entity-1="ent0002" data-entity-2="ent0005" data-link-type="dependency" data-source-line="36" id="lnk6"><path d="M36.2,75 C50.88,75 68.05,75 89.94,75" fill="none" id="User-to-Login to app" style="stroke:#181818;stroke-width:1;"/><polygon fill="#181818" points="95.94,75,86.94,71,90.94,75,86.94,79,95.94,75" style="stroke:#181818;stroke-width:1;"/></g><!--link Login to app to Redirect to Auth0 login page--><g class="link" data-entity-1="ent0005" data-entity-2="ent0007" data-link-type="dependency" data-source-line="37" id="lnk8"><path d="M211.19,75 C229.53,75 244.37,75 264.84,75" fill="none" id="Login to app-to-Redirect to Auth0 login page" style="stroke:#181818;stroke-width:1;"/><polygon fill="#181818" points="270.84,75,261.84,71,265.84,75,261.84,79,270.84,75" style="stroke:#181818;stroke-width:1;"/></g><!--link Redirect to Auth0 login page to Submit credentials on Auth0--><g class="link" data-entity-1="ent0007" data-entity-2="ent0009" data-link-type="dependency" data-source-line="38" id="lnk10"><path d="M473.21,75 C492.59,75 507.02,75 526.81,75" fill="none" id="Redirect to Auth0 login page-to-Submit credentials on Auth0" style="stroke:#181818;stroke-width:1;"/><polygon fill="#181818" points="532.81,75,523.81,71,527.81,75,523.81,79,532.81,75" style="stroke:#181818;stroke-width:1;"/></g><!--link Submit credentials on Auth0 to Auth0 validates credentials--><g class="link" data-entity-1="ent0009" data-entity-2="ent0011" data-link-type="dependency" data-source-line="39" id="lnk12"><path d="M762.96,73 C782.82,73 797.3,73 816.64,73" fill="none" id="Submit credentials on Auth0-to-Auth0 validates credentials" style="stroke:#181818;stroke-width:1;"/><polygon fill="#181818" points="822.64,73,813.64,69,817.64,73,813.64,77,822.64,73" style="stroke:#181818;stroke-width:1;"/></g><!--link Auth0 validates credentials to Auth0 returns authorization code--><g class="link" data-entity-1="ent0011" data-entity-2="ent0013" data-link-type="dependency" data-source-line="40" id="lnk14"><path d="M1017.01,73 C1036.32,73 1050.83,73 1070.84,73" fill="none" id="Auth0 validates credentials-to-Auth0 returns authorization code" style="stroke:#181818;stroke-width:1;"/><polygon fill="#181818" points="1076.84,73,1067.84,69,1071.84,73,1067.84,77,1076.84,73" style="stroke:#181818;stroke-width:1;"/></g><!--link Auth0 returns authorization code to Exchange code + code_verifier for JWT--><g class="link" data-entity-1="ent0013" data-entity-2="ent0015" data-link-type="dependency" data-source-line="41" id="lnk16"><path d="M1320.09,73 C1339.71,73 1354.11,73 1373.98,73" fill="none" id="Auth0 returns authorization code-to-Exchange code + code_verifier for JWT" style="stroke:#181818;stroke-width:1;"/><polygon fill="#181818" points="1379.98,73,1370.98,69,1374.98,73,1370.98,77,1379.98,73" style="stroke:#181818;stroke-width:1;"/></g><!--link Exchange code + code_verifier for JWT to Auth0 issues JWT--><g class="link" data-entity-1="ent0015" data-entity-2="ent0017" data-link-type="dependency" data-source-line="42" id="lnk18"><path d="M1646.31,72 C1677.3,72 1703.21,72 1730.59,72" fill="none" id="Exchange code + code_verifier for JWT-to-Auth0 issues JWT" style="stroke:#181818;stroke-width:1;"/><polygon fill="#181818" points="1736.59,72,1727.59,68,1731.59,72,1727.59,76,1736.59,72" style="stroke:#181818;stroke-width:1;"/></g><!--link Auth0 issues JWT to Return JWT to client--><g class="link" data-entity-1="ent0017" data-entity-2="ent0019" data-link-type="dependency" data-source-line="43" id="lnk20"><path d="M1885.05,72 C1913.43,72 1940.07,72 1969.62,72" fill="none" id="Auth0 issues JWT-to-Return JWT to client" style="stroke:#181818;stroke-width:1;"/><polygon fill="#181818" points="1975.62,72,1966.62,68,1970.62,72,1966.62,76,1975.62,72" style="stroke:#181818;stroke-width:1;"/></g><!--reverse link Submit credentials on Auth0 to Brute-force attack--><g class="link" data-entity-1="ent0009" data-entity-2="ent0021" data-link-type="dependency" data-source-line="59" id="lnk26"><path d="M706,103.05 C706,108.71 706,107.25 706,107.25 C706,107.25 1199,107.25 1199,107.25 C1199,107.25 1199,163.84 1199,197.88" fill="none" id="Submit credentials on Auth0-backto-Brute-force attack" style="stroke:#FF0000;stroke-width:1;"/><polygon fill="#FF0000" points="706,97.05,702,106.05,706,102.05,710,106.05,706,97.05" style="stroke:#FF0000;stroke-width:1;"/><text fill="#000000" font-family="sans-serif" font-size="13" lengthAdjust="spacing" textLength="72.9917" x="919.71" y="121.3198">&#171;Threatens&#187;</text></g><!--reverse link Submit credentials on Auth0 to Intercept credentials--><g class="link" data-entity-1="ent0009" data-entity-2="ent0023" data-link-type="dependency" data-source-line="60" id="lnk27"><path d="M591,103.5 C591,174.17 591,381 591,381 C591,381 738.65,381 836.13,381" fill="none" id="Submit credentials on Auth0-backto-Intercept credentials" style="stroke:#FF0000;stroke-width:1;"/><polygon fill="#FF0000" points="591,97.5,587,106.5,591,102.5,595,106.5,591,97.5" style="stroke:#FF0000;stroke-width:1;"/><text fill="#000000" font-family="sans-serif" font-size="13" lengthAdjust="spacing" textLength="72.9917" x="518" y="375.8798">&#171;Threatens&#187;</text></g><!--reverse link Intercept credentials to Network sniffing--><g class="link" data-entity-1="ent0023" data-entity-2="ent0022" data-link-type="dependency" data-source-line="61" id="lnk28"><path d="M979.37,361.75 C1032.44,361.75 1106.81,361.75 1155.79,361.75" fill="none" id="Intercept credentials-backto-Network sniffing" style="stroke:#181818;stroke-width:1;"/><polygon fill="#181818" points="973.37,361.75,982.37,365.75,978.37,361.75,982.37,357.75,973.37,361.75" style="stroke:#181818;stroke-width:1;"/></g><!--reverse link Network sniffing to Attacker--><g class="link" data-entity-1="ent0022" data-entity-2="ent0003" data-link-type="dependency" data-source-line="62" id="lnk29"><path d="M1272.15,342 C1543.84,342 2535,342 2535,342 C2535,342 2535,305.47 2535,275.5" fill="none" id="Network sniffing-backto-Attacker" style="stroke:#181818;stroke-width:1;"/><polygon fill="#181818" points="1266.15,342,1275.15,346,1271.15,342,1275.15,338,1266.15,342" style="stroke:#181818;stroke-width:1;"/></g><!--reverse link Brute-force attack to Attacker--><g class="link" data-entity-1="ent0021" data-entity-2="ent0003" data-link-type="dependency" data-source-line="63" id="lnk30"><path d="M1199,254.42 C1199,262.56 1199,263.5 1199,263.5 C1199,263.5 2323.18,263.5 2508.72,263.5" fill="none" id="Brute-force attack-backto-Attacker" style="stroke:#181818;stroke-width:1;"/><polygon fill="#181818" points="1199,248.42,1195,257.42,1199,253.42,1203,257.42,1199,248.42" style="stroke:#181818;stroke-width:1;"/></g><!--reverse link Auth0 returns authorization code to Authorization code interception--><g class="link" data-entity-1="ent0013" data-entity-2="ent0024" data-link-type="dependency" data-source-line="64" id="lnk31"><path d="M1297,94.76 C1297,125.18 1297,183 1297,183 C1297,183 1352.27,183 1406.9,183" fill="none" id="Auth0 returns authorization code-backto-Authorization code interception" style="stroke:#FF0000;stroke-width:1;"/><polygon fill="#FF0000" points="1297,88.76,1293,97.76,1297,93.76,1301,97.76,1297,88.76" style="stroke:#FF0000;stroke-width:1;"/><text fill="#000000" font-family="sans-serif" font-size="13" lengthAdjust="spacing" textLength="72.9917" x="1305.83" y="197.0698">&#171;Threatens&#187;</text></g><!--reverse link Authorization code interception to Attacker--><g class="link" data-entity-1="ent0024" data-entity-2="ent0003" data-link-type="dependency" data-source-line="65" id="lnk32"><path d="M1625.96,183.25 C1888.04,183.25 2535,183.25 2535,183.25 C2535,183.25 2535,189.75 2535,198.22" fill="none" id="Authorization code interception-backto-Attacker" style="stroke:#181818;stroke-width:1;"/><polygon fill="#181818" points="1619.96,183.25,1628.96,187.25,1624.96,183.25,1628.96,179.25,1619.96,183.25" style="stroke:#181818;stroke-width:1;"/></g><!--reverse link Return JWT to client to Token replay attack--><g class="link" data-entity-1="ent0019" data-entity-2="ent0025" data-link-type="dependency" data-source-line="66" id="lnk33"><path d="M2157.06,73 C2176.63,73 2191.31,73 2210.64,73" fill="none" id="Return JWT to client-backto-Token replay attack" style="stroke:#FF0000;stroke-width:1;"/><polygon fill="#FF0000" points="2151.06,73,2160.06,77,2156.06,73,2160.06,69,2151.06,73" style="stroke:#FF0000;stroke-width:1;"/><text fill="#000000" font-family="sans-serif" font-size="13" lengthAdjust="spacing" textLength="72.9917" x="2107.85" y="87.0698">&#171;Threatens&#187;</text></g><!--reverse link Token replay attack to Attacker--><g class="link" data-entity-1="ent0025" data-entity-2="ent0003" data-link-type="dependency" data-source-line="67" id="lnk34"><path d="M2293,104.25 C2293,148.17 2293,228 2293,228 C2293,228 2446.35,228 2508.66,228" fill="none" id="Token replay attack-backto-Attacker" style="stroke:#181818;stroke-width:1;"/><polygon fill="#181818" points="2293,98.25,2289,107.25,2293,103.25,2297,107.25,2293,98.25" style="stroke:#181818;stroke-width:1;"/></g><!--link Submit credentials on Auth0 to Enforce rate limit + lockout--><g class="link" data-entity-1="ent0009" data-entity-2="ent0035" data-link-type="dependency" data-source-line="70" id="lnk36"><path d="M648,100.78 C648,143.18 648,223 648,223 C648,223 739.47,223 817.72,223" fill="none" id="Submit credentials on Auth0-to-Enforce rate limit + lockout" style="stroke:#181818;stroke-width:1;"/><polygon fill="#181818" points="823.72,223,814.72,219,818.72,223,814.72,227,823.72,223" style="stroke:#181818;stroke-width:1;"/></g><!--link Intercept credentials to Use TLS / HTTPS--><g class="link" data-entity-1="ent0023" data-entity-2="ent0037" data-link-type="dependency" data-source-line="71" id="lnk38"><path d="M996.34,391.17 C1085.52,391.17 1221,391.17 1221,391.17 C1221,391.17 1221,391.09 1221,397.56" fill="none" id="Intercept credentials-to-Use TLS / HTTPS" style="stroke:#181818;stroke-width:1;"/><polygon fill="#181818" points="1221,403.56,1225,394.56,1221,398.56,1217,394.56,1221,403.56" style="stroke:#181818;stroke-width:1;"/></g><!--link Use TLS / HTTPS to Intercept credentials--><g class="link" data-entity-1="ent0037" data-entity-2="ent0023" data-link-type="dependency" data-source-line="77" id="lnk44"><path d="M1176,403.46 C1176,392.2 1176,379.33 1176,379.33 C1176,379.33 1084.18,379.33 1009.47,379.33" fill="none" id="Use TLS / HTTPS-to-Intercept credentials" style="stroke:#008000;stroke-width:1;"/><polygon fill="#008000" points="1003.47,379.33,1012.47,383.33,1008.47,379.33,1012.47,375.33,1003.47,379.33" style="stroke:#008000;stroke-width:1;"/><text fill="#000000" font-family="sans-serif" font-size="13" lengthAdjust="spacing" textLength="66.479" x="1034.8" y="393.3998">&#171;Mitigates&#187;</text></g><!--link Authorization code interception to PKCE code_verifier validation--><g class="link" data-entity-1="ent0024" data-entity-2="ent0039" data-link-type="dependency" data-source-line="72" id="lnk40"><path d="M1606.47,209.67 C1651.53,209.67 1698.5,209.67 1739.25,209.67" fill="none" id="Authorization code interception-to-PKCE code_verifier validation" style="stroke:#181818;stroke-width:1;"/><polygon fill="#181818" points="1745.25,209.67,1736.25,205.67,1740.25,209.67,1736.25,213.67,1745.25,209.67" style="stroke:#181818;stroke-width:1;"/></g><!--link PKCE code_verifier validation to Authorization code interception--><g class="link" data-entity-1="ent0039" data-entity-2="ent0024" data-link-type="dependency" data-source-line="78" id="lnk45"><path d="M1724,214.83 C1679.17,214.83 1631.21,214.83 1589.08,214.83" fill="none" id="PKCE code_verifier validation-to-Authorization code interception" style="stroke:#008000;stroke-width:1;"/><polygon fill="#008000" points="1583.08,214.83,1592.08,218.83,1588.08,214.83,1592.08,210.83,1583.08,214.83" style="stroke:#008000;stroke-width:1;"/><text fill="#000000" font-family="sans-serif" font-size="13" lengthAdjust="spacing" textLength="66.479" x="1654.54" y="211.8998">&#171;Mitigates&#187;</text></g><!--link Token replay attack to Short token expiry + rotation--><g class="link" data-entity-1="ent0025" data-entity-2="ent0041" data-link-type="dependency" data-source-line="73" id="lnk42"><path d="M2370.4,80.5 C2392.37,80.5 2410.52,80.5 2433.38,80.5" fill="none" id="Token replay attack-to-Short token expiry + rotation" style="stroke:#181818;stroke-width:1;"/><polygon fill="#181818" points="2439.38,80.5,2430.38,76.5,2434.38,80.5,2430.38,84.5,2439.38,80.5" style="stroke:#181818;stroke-width:1;"/></g><!--link Short token expiry + rotation to Token replay attack--><g class="link" data-entity-1="ent0041" data-entity-2="ent0025" data-link-type="dependency" data-source-line="79" id="lnk46"><path d="M2439.55,65.5 C2416.64,65.5 2398.43,65.5 2376.4,65.5" fill="none" id="Short token expiry + rotation-to-Token replay attack" style="stroke:#008000;stroke-width:1;"/><polygon fill="#008000" points="2370.4,65.5,2379.4,69.5,2375.4,65.5,2379.4,61.5,2370.4,65.5" style="stroke:#008000;stroke-width:1;"/><text fill="#000000" font-family="sans-serif" font-size="13" lengthAdjust="spacing" textLength="66.479" x="2405.98" y="62.5698">&#171;Mitigates&#187;</text></g><!--link Enforce rate limit + lockout to Brute-force attack--><g class="link" data-entity-1="ent0035" data-entity-2="ent0021" data-link-type="dependency" data-source-line="76" id="lnk43"><path d="M1016.23,223 C1051.61,223 1085.09,223 1118.24,223" fill="none" id="Enforce rate limit + lockout-to-Brute-force attack" style="stroke:#008000;stroke-width:1;"/><polygon fill="#008000" points="1124.24,223,1115.24,219,1119.24,223,1115.24,227,1124.24,223" style="stroke:#008000;stroke-width:1;"/><text fill="#000000" font-family="sans-serif" font-size="13" lengthAdjust="spacing" textLength="66.479" x="1003.24" y="237.0698">&#171;Mitigates&#187;</text></g><?plantuml-src ZLRVJ-9047xlNp7HXzCOSkRKd1XZKh2St24QgFfuMSjGDjJTPhjLkSlzxpVRWhPqIvi-0BFVV3FxpOyIuLo3bg1ukD0mume3pQLmaYKNCLFi1I8kKAzY1AdqGXOEaWMRoJSkGfYpAC72oJCBbg6IgPZrPIGLx0-wvd4Aa3J1W2K8Vns0tXRyQS4r6hjKCrIvhHSHY6m3ANJHygyTv-Mblr38zDLLbQbmPebSyMmTyPPh7ZAZ9ldkdvpslvzrot5B26liCiUtqtFtvBfz1jwxHYLOP7pFtFxvm2t7BvnRenVzJznkzxhRFlPZ6WbKx9b7NAyCGU_OFEK4ja6RsfIog32T7vk7Kd5OeAaJ7X9Kww-kriI0r78APuvZkfc9C4BO6ycG2nX4ycqlIzWuGQTp1GVv2Sq0Y-D3EYaRSim4yz4mLZVLYsE8Cb3CGinyTW9oZcdw_C8r19GP2irfPa2A77m8HR4DtqvmHfT7UMKHdp6DIH5QfTi9Bj0frAaI2J3w9HN_axKU17A6TPoxF39YxprOK0qmiy5Hzl7x5HMVSwh0d8hsyyclihTqA-JEaoIbgrdPgeXrMKtonc3g5aISD37EnR4pVVQ5u1ruV1YDlOdR6uw6_j2REaqLtMfSfpPS1TYc6DjEwoJzcudd-fHSJwKQEoHKWC2oiJ1UcsNc78nHlqcrX4Jm-PosUFbqA4Y-06EztLUV4BUI5l2D5rdAO5ykKT2DueYjREcKieV-tNZizVtXtRXHPNAoNjKi0BZu284YCMaqSzLSt4vNfv8XsgslvPISDkkhfdebH8iUCMaqLib-i-RYbfAfwMoJWBNozg3s9Ya6MhV9BGtW3xTDV-GhIEH2Aef4_sSC-eZsSx2KQNNSwugQCT5R0_pH5Bx2ZU_VJwlEZRfbDFU_-jxMHbllvlNWb4cjkkJl50fctZdc7DzZhbPqCoMrdQYidZS5TpAvUo89TmkKHRBEMAYG0bzyni6iZXMLCeQwoQeXQT3eO_7lRkuQyWRTCd9xuze9_mC0?></g></svg>