<?plantuml 1.2026.2?><svg xmlns="http://www.w3.org/2000/svg" xmlns:xlink="http://www.w3.org/1999/xlink" contentStyleType="text/css" data-diagram-type="DESCRIPTION" height="574px" preserveAspectRatio="none" style="width:2221px;height:574px;background:#F9F9F9;" version="1.1" viewBox="0 0 2221 574" width="2221px" zoomAndPan="magnify"><defs/><g><rect fill="#F9F9F9" height="574" style="stroke:none;stroke-width:1;" width="2221" x="0" y="0"/><!--cluster Login Flow--><g class="cluster" data-qualified-name="Login Flow" data-source-line="35" id="ent0004"><rect fill="none" height="266" rx="2.5" ry="2.5" style="stroke:#181818;stroke-width:1;" width="1667" x="80" y="7"/><text fill="#000000" font-family="sans-serif" font-size="14" font-weight="bold" lengthAdjust="spacing" textLength="73.8691" x="876.5654" y="23.0752">Login Flow</text></g><!--entity Login to app--><g class="entity" data-qualified-name="Login Flow.Login to app" data-source-line="36" id="ent0005"><ellipse cx="153.4956" cy="231.1278" fill="#FFFFFF" rx="57.4956" ry="15.1278" style="stroke:#000000;stroke-width:0.5;"/><text fill="#000000" font-family="sans-serif" font-size="14" lengthAdjust="spacing" textLength="77.0684" x="114.9614" y="236.2035">Login to app</text></g><!--entity Submit credentials--><g class="entity" data-qualified-name="Login Flow.Submit credentials" data-source-line="37" id="ent0007"><ellipse cx="351.8157" cy="231.178" fill="#B0B0B0" rx="80.8157" ry="26.178" style="stroke:#808080;stroke-width:0.5;"/><text fill="#000000" font-family="sans-serif" font-size="14" font-style="italic" lengthAdjust="spacing" textLength="91.834" x="305.8987" y="226.1166">&#171;Vulnerability&#187;</text><text fill="#000000" font-family="sans-serif" font-size="14" lengthAdjust="spacing" textLength="115.165" x="294.2332" y="243.268">Submit credentials</text></g><!--entity AuthController--><g class="entity" data-qualified-name="Login Flow.AuthController" data-source-line="38" id="ent0009"><ellipse cx="588.9729" cy="154.8946" fill="#FFFFFF" rx="64.9729" ry="15.3946" style="stroke:#000000;stroke-width:0.5;"/><text fill="#000000" font-family="sans-serif" font-size="14" lengthAdjust="spacing" textLength="89.4893" x="544.2283" y="159.9703">AuthController</text></g><!--entity Delegate to Auth0 via ROPC--><g class="entity" data-qualified-name="Login Flow.Delegate to Auth0 via ROPC" data-source-line="39" id="ent0011"><ellipse cx="862.548" cy="231.0096" fill="#B0B0B0" rx="115.548" ry="25.5096" style="stroke:#808080;stroke-width:0.5;"/><text fill="#000000" font-family="sans-serif" font-size="14" font-style="italic" lengthAdjust="spacing" textLength="91.834" x="816.631" y="224.1099">&#171;Vulnerability&#187;</text><text fill="#000000" font-family="sans-serif" font-size="14" lengthAdjust="spacing" textLength="178.2061" x="773.4449" y="241.2612">Delegate to Auth0 via ROPC</text></g><!--entity Auth0 validates credentials--><g class="entity" data-qualified-name="Login Flow.Auth0 validates credentials" data-source-line="40" id="ent0013"><ellipse cx="1137.0097" cy="230.8019" fill="#FFFFFF" rx="97.0097" ry="21.8019" style="stroke:#000000;stroke-width:0.5;"/><text fill="#000000" font-family="sans-serif" font-size="14" lengthAdjust="spacing" textLength="167.3232" x="1053.3481" y="235.8776">Auth0 validates credentials</text></g><!--entity Auth0 issues JWT--><g class="entity" data-qualified-name="Login Flow.Auth0 issues JWT" data-source-line="41" id="ent0015"><ellipse cx="1394.8539" cy="231.1708" fill="#FFFFFF" rx="73.8539" ry="17.1708" style="stroke:#000000;stroke-width:0.5;"/><text fill="#000000" font-family="sans-serif" font-size="14" lengthAdjust="spacing" textLength="112.8135" x="1338.4472" y="236.2465">Auth0 issues JWT</text></g><!--entity Return JWT to client--><g class="entity" data-qualified-name="Login Flow.Return JWT to client" data-source-line="42" id="ent0017"><ellipse cx="1643.5082" cy="230.8593" fill="#B0B0B0" rx="87.5082" ry="25.8593" style="stroke:#808080;stroke-width:0.5;"/><text fill="#000000" font-family="sans-serif" font-size="14" font-style="italic" lengthAdjust="spacing" textLength="91.834" x="1597.5912" y="225.32">&#171;Vulnerability&#187;</text><text fill="#000000" font-family="sans-serif" font-size="14" lengthAdjust="spacing" textLength="126.8135" x="1580.1015" y="242.4714">Return JWT to client</text></g><!--entity Apply Role Guard on backend--><g class="entity" data-qualified-name="Login Flow.Apply Role Guard on backend" data-source-line="43" id="ent0019"><ellipse cx="862.6353" cy="143.9271" fill="#B0B0B0" rx="117.6353" ry="25.9271" style="stroke:#808080;stroke-width:0.5;"/><text fill="#000000" font-family="sans-serif" font-size="14" font-style="italic" lengthAdjust="spacing" textLength="91.834" x="816.7183" y="136.5709">&#171;Vulnerability&#187;</text><text fill="#000000" font-family="sans-serif" font-size="14" lengthAdjust="spacing" textLength="186.7852" x="769.2427" y="153.7223">Apply Role Guard on backend</text></g><!--entity Send login email event--><g class="entity" data-qualified-name="Login Flow.Send login email event" data-source-line="44" id="ent0021"><ellipse cx="862.2923" cy="63.0585" fill="#FFFFFF" rx="85.7923" ry="19.5585" style="stroke:#000000;stroke-width:0.5;"/><text fill="#000000" font-family="sans-serif" font-size="14" lengthAdjust="spacing" textLength="141.6475" x="791.4685" y="68.1341">Send login email event</text></g><!--entity User--><g class="entity" data-qualified-name="User" data-source-line="32" id="ent0002"><ellipse cx="20.7793" cy="201" fill="#F1F1F1" rx="8" ry="8" style="stroke:#181818;stroke-width:0.5;"/><path d="M20.7793,209 L20.7793,236 M7.7793,217 L33.7793,217 M20.7793,236 L7.7793,251 M20.7793,236 L33.7793,251" fill="none" style="stroke:#181818;stroke-width:0.5;"/><text fill="#000000" font-family="sans-serif" font-size="14" lengthAdjust="spacing" textLength="29.5586" x="6" y="266.5752">User</text></g><!--entity Attacker--><g class="entity" data-qualified-name="Attacker" data-source-line="33" id="ent0003"><ellipse cx="2114.6758" cy="359" fill="#FF0000" rx="8" ry="8" style="stroke:#181818;stroke-width:0.5;"/><path d="M2114.6758,367 L2114.6758,394 M2101.6758,375 L2127.6758,375 M2114.6758,394 L2101.6758,409 M2114.6758,394 L2127.6758,409" fill="none" style="stroke:#181818;stroke-width:0.5;"/><text fill="#000000" font-family="sans-serif" font-size="14" lengthAdjust="spacing" textLength="51.3516" x="2089" y="424.5752">Attacker</text></g><!--entity Brute-force attack--><g class="entity" data-qualified-name="Brute-force attack" data-source-line="54" id="ent0023"><ellipse cx="862.7438" cy="317.1185" fill="#000000" rx="74.2438" ry="25.1185" style="stroke:#000000;stroke-width:0.5;"/><text fill="#FFFFFF" font-family="sans-serif" font-size="14" font-style="italic" lengthAdjust="spacing" textLength="56.0342" x="834.7267" y="310.4335">&#171;Threat&#187;</text><text fill="#FFFFFF" font-family="sans-serif" font-size="14" lengthAdjust="spacing" textLength="110.4893" x="807.4992" y="327.5848">Brute-force attack</text></g><!--entity Network sniffing--><g class="entity" data-qualified-name="Network sniffing" data-source-line="55" id="ent0024"><ellipse cx="862.6869" cy="472.7801" fill="#000000" rx="67.6869" ry="25.2801" style="stroke:#000000;stroke-width:0.5;"/><text fill="#FFFFFF" font-family="sans-serif" font-size="14" font-style="italic" lengthAdjust="spacing" textLength="56.0342" x="834.6698" y="466.3496">&#171;Threat&#187;</text><text fill="#FFFFFF" font-family="sans-serif" font-size="14" lengthAdjust="spacing" textLength="99.5928" x="812.8905" y="483.501">Network sniffing</text></g><!--entity Intercept credentials--><g class="entity" data-qualified-name="Intercept credentials" data-source-line="56" id="ent0025"><ellipse cx="589.1991" cy="511.9579" fill="#000000" rx="83.6991" ry="24.9579" style="stroke:#000000;stroke-width:0.5;"/><text fill="#FFFFFF" font-family="sans-serif" font-size="14" font-style="italic" lengthAdjust="spacing" textLength="56.0342" x="561.182" y="505.0172">&#171;Threat&#187;</text><text fill="#FFFFFF" font-family="sans-serif" font-size="14" lengthAdjust="spacing" textLength="126.0684" x="526.1649" y="522.1685">Intercept credentials</text></g><!--entity client_secret exposure--><g class="entity" data-qualified-name="client_secret exposure" data-source-line="57" id="ent0026"><ellipse cx="1136.7563" cy="354.8578" fill="#000000" rx="92.2563" ry="24.8578" style="stroke:#000000;stroke-width:0.5;"/><text fill="#FFFFFF" font-family="sans-serif" font-size="14" font-style="italic" lengthAdjust="spacing" textLength="56.0342" x="1108.7392" y="347.7561">&#171;Threat&#187;</text><text fill="#FFFFFF" font-family="sans-serif" font-size="14" lengthAdjust="spacing" textLength="140.0752" x="1066.7187" y="364.9075">client_secret exposure</text></g><!--entity Token replay attack--><g class="entity" data-qualified-name="Token replay attack" data-source-line="58" id="ent0027"><ellipse cx="1872.3271" cy="266.9922" fill="#000000" rx="81.3271" ry="24.9922" style="stroke:#000000;stroke-width:0.5;"/><text fill="#FFFFFF" font-family="sans-serif" font-size="14" font-style="italic" lengthAdjust="spacing" textLength="56.0342" x="1844.31" y="260.1064">&#171;Threat&#187;</text><text fill="#FFFFFF" font-family="sans-serif" font-size="14" lengthAdjust="spacing" textLength="122.1719" x="1811.2412" y="277.2578">Token replay attack</text></g><!--entity Malicious payload--><g class="entity" data-qualified-name="Malicious payload" data-source-line="59" id="ent0028"><ellipse cx="1395.223" cy="314.1086" fill="#000000" rx="74.723" ry="25.1086" style="stroke:#000000;stroke-width:0.5;"/><text fill="#FFFFFF" font-family="sans-serif" font-size="14" font-style="italic" lengthAdjust="spacing" textLength="56.0342" x="1367.2059" y="307.4079">&#171;Threat&#187;</text><text fill="#FFFFFF" font-family="sans-serif" font-size="14" lengthAdjust="spacing" textLength="111.2822" x="1339.5819" y="324.5593">Malicious payload</text></g><!--entity Enforce rate limit + lockout--><g class="entity" data-qualified-name="Enforce rate limit . lockout" data-source-line="74" id="ent0039"><ellipse cx="589.1317" cy="314.1263" fill="#FFFFFF" rx="96.1317" ry="21.6263" style="stroke:#000000;stroke-width:0.5;"/><text fill="#000000" font-family="sans-serif" font-size="14" lengthAdjust="spacing" textLength="165.3477" x="506.4579" y="319.202">Enforce rate limit + lockout</text></g><!--entity Use TLS / HTTPS--><g class="entity" data-qualified-name="Use TLS . HTTPS" data-source-line="75" id="ent0041"><ellipse cx="862.5387" cy="551.1077" fill="#FFFFFF" rx="73.5387" ry="17.1077" style="stroke:#000000;stroke-width:0.5;"/><text fill="#000000" font-family="sans-serif" font-size="14" lengthAdjust="spacing" textLength="112.0205" x="806.5284" y="556.1834">Use TLS / HTTPS</text></g><!--entity Store secret in env variables--><g class="entity" data-qualified-name="Store secret in env variables" data-source-line="76" id="ent0043"><ellipse cx="1395.1786" cy="397.1357" fill="#FFFFFF" rx="101.1786" ry="22.6357" style="stroke:#000000;stroke-width:0.5;"/><text fill="#000000" font-family="sans-serif" font-size="14" lengthAdjust="spacing" textLength="176.6406" x="1306.8583" y="402.2114">Store secret in env variables</text></g><!--entity Short token expiry + rotation--><g class="entity" data-qualified-name="Short token expiry . rotation" data-source-line="77" id="ent0045"><ellipse cx="2114.6593" cy="267.0319" fill="#FFFFFF" rx="100.6593" ry="22.5319" style="stroke:#000000;stroke-width:0.5;"/><text fill="#000000" font-family="sans-serif" font-size="14" lengthAdjust="spacing" textLength="175.4854" x="2026.9166" y="272.1075">Short token expiry + rotation</text></g><!--link User to Login to app--><g class="link" data-entity-1="ent0002" data-entity-2="ent0005" data-link-type="dependency" data-source-line="36" id="lnk6"><path d="M36.2,231 C50.88,231 68.05,231 89.94,231" fill="none" id="User-to-Login to app" style="stroke:#181818;stroke-width:1;"/><polygon fill="#181818" points="95.94,231,86.94,227,90.94,231,86.94,235,95.94,231" style="stroke:#181818;stroke-width:1;"/></g><!--link Login to app to Submit credentials--><g class="link" data-entity-1="ent0005" data-entity-2="ent0007" data-link-type="dependency" data-source-line="37" id="lnk8"><path d="M211.18,231 C229.84,231 244.89,231 264.92,231" fill="none" id="Login to app-to-Submit credentials" style="stroke:#181818;stroke-width:1;"/><polygon fill="#181818" points="270.92,231,261.92,227,265.92,231,261.92,235,270.92,231" style="stroke:#181818;stroke-width:1;"/></g><!--link Submit credentials to AuthController--><g class="link" data-entity-1="ent0007" data-entity-2="ent0009" data-link-type="dependency" data-source-line="38" id="lnk10"><path d="M417.69,215.7 C481.24,215.7 568,215.7 568,215.7 C568,215.7 568,193.66 568,175.69" fill="none" id="Submit credentials-to-AuthController" style="stroke:#181818;stroke-width:1;"/><polygon fill="#181818" points="568,169.69,564,178.69,568,174.69,572,178.69,568,169.69" style="stroke:#181818;stroke-width:1;"/></g><!--link AuthController to Delegate to Auth0 via ROPC--><g class="link" data-entity-1="ent0009" data-entity-2="ent0011" data-link-type="dependency" data-source-line="39" id="lnk12"><path d="M611,169.69 C611,190.46 611,225.9 611,225.9 C611,225.9 676.5,225.9 743.26,225.9" fill="none" id="AuthController-to-Delegate to Auth0 via ROPC" style="stroke:#181818;stroke-width:1;"/><polygon fill="#181818" points="749.26,225.9,740.26,221.9,744.26,225.9,740.26,229.9,749.26,225.9" style="stroke:#181818;stroke-width:1;"/></g><!--link Delegate to Auth0 via ROPC to Auth0 validates credentials--><g class="link" data-entity-1="ent0011" data-entity-2="ent0013" data-link-type="dependency" data-source-line="40" id="lnk14"><path d="M978.12,231 C998.63,231 1013.8,231 1033.74,231" fill="none" id="Delegate to Auth0 via ROPC-to-Auth0 validates credentials" style="stroke:#181818;stroke-width:1;"/><polygon fill="#181818" points="1039.74,231,1030.74,227,1034.74,231,1030.74,235,1039.74,231" style="stroke:#181818;stroke-width:1;"/></g><!--link Auth0 validates credentials to Auth0 issues JWT--><g class="link" data-entity-1="ent0013" data-entity-2="ent0015" data-link-type="dependency" data-source-line="41" id="lnk16"><path d="M1234.17,231 C1262.88,231 1287.84,231 1314.85,231" fill="none" id="Auth0 validates credentials-to-Auth0 issues JWT" style="stroke:#181818;stroke-width:1;"/><polygon fill="#181818" points="1320.85,231,1311.85,227,1315.85,231,1311.85,235,1320.85,231" style="stroke:#181818;stroke-width:1;"/></g><!--link Auth0 issues JWT to Return JWT to client--><g class="link" data-entity-1="ent0015" data-entity-2="ent0017" data-link-type="dependency" data-source-line="42" id="lnk18"><path d="M1469.22,231 C1496.39,231 1521.4,231 1549.65,231" fill="none" id="Auth0 issues JWT-to-Return JWT to client" style="stroke:#181818;stroke-width:1;"/><polygon fill="#181818" points="1555.65,231,1546.65,227,1550.65,231,1546.65,235,1555.65,231" style="stroke:#181818;stroke-width:1;"/></g><!--link AuthController to Apply Role Guard on backend--><g class="link" data-entity-1="ent0009" data-entity-2="ent0019" data-link-type="dependency" data-source-line="43" id="lnk20"><path d="M654.16,154.75 C684.42,154.75 715.19,154.75 749.36,154.75" fill="none" id="AuthController-to-Apply Role Guard on backend" style="stroke:#181818;stroke-width:1;"/><polygon fill="#181818" points="755.36,154.75,746.36,150.75,750.36,154.75,746.36,158.75,755.36,154.75" style="stroke:#181818;stroke-width:1;"/></g><!--link AuthController to Send login email event--><g class="link" data-entity-1="ent0009" data-entity-2="ent0021" data-link-type="dependency" data-source-line="44" id="lnk22"><path d="M589,139.39 C589,113.15 589,63 589,63 C589,63 690.17,63 770.34,63" fill="none" id="AuthController-to-Send login email event" style="stroke:#181818;stroke-width:1;"/><polygon fill="#181818" points="776.34,63,767.34,59,771.34,63,767.34,67,776.34,63" style="stroke:#181818;stroke-width:1;"/></g><!--reverse link Submit credentials to Brute-force attack--><g class="link" data-entity-1="ent0007" data-entity-2="ent0023" data-link-type="dependency" data-source-line="62" id="lnk29"><path d="M437.66,236.1 C544.52,236.1 715,236.1 715,236.1 C715,236.1 715,306.83 715,306.83 C715,306.83 756.02,306.83 794.79,306.83" fill="none" id="Submit credentials-backto-Brute-force attack" style="stroke:#FF0000;stroke-width:1;"/><polygon fill="#FF0000" points="431.66,236.1,440.66,240.1,436.66,236.1,440.66,232.1,431.66,236.1" style="stroke:#FF0000;stroke-width:1;"/><text fill="#000000" font-family="sans-serif" font-size="13" lengthAdjust="spacing" textLength="72.9917" x="575.59" y="250.1698">&#171;Threatens&#187;</text></g><!--reverse link Submit credentials to Intercept credentials--><g class="link" data-entity-1="ent0007" data-entity-2="ent0025" data-link-type="dependency" data-source-line="63" id="lnk30"><path d="M352,263.18 C352,332.94 352,512 352,512 C352,512 437.21,512 505.44,512" fill="none" id="Submit credentials-backto-Intercept credentials" style="stroke:#FF0000;stroke-width:1;"/><polygon fill="#FF0000" points="352,257.18,348,266.18,352,262.18,356,266.18,352,257.18" style="stroke:#FF0000;stroke-width:1;"/><text fill="#000000" font-family="sans-serif" font-size="13" lengthAdjust="spacing" textLength="72.9917" x="279" y="475.3798">&#171;Threatens&#187;</text></g><!--reverse link Intercept credentials to Network sniffing--><g class="link" data-entity-1="ent0025" data-entity-2="ent0024" data-link-type="dependency" data-source-line="64" id="lnk31"><path d="M648.38,492.75 C700.15,492.75 771.69,492.75 819.58,492.75" fill="none" id="Intercept credentials-backto-Network sniffing" style="stroke:#181818;stroke-width:1;"/><polygon fill="#181818" points="642.38,492.75,651.38,496.75,647.38,492.75,651.38,488.75,642.38,492.75" style="stroke:#181818;stroke-width:1;"/></g><!--reverse link Network sniffing to Attacker--><g class="link" data-entity-1="ent0024" data-entity-2="ent0003" data-link-type="dependency" data-source-line="65" id="lnk32"><path d="M936.28,473 C1197.05,473 2115,473 2115,473 C2115,473 2115,449.64 2115,427.56" fill="none" id="Network sniffing-backto-Attacker" style="stroke:#181818;stroke-width:1;"/><polygon fill="#181818" points="930.28,473,939.28,477,935.28,473,939.28,469,930.28,473" style="stroke:#181818;stroke-width:1;"/></g><!--reverse link Brute-force attack to Attacker--><g class="link" data-entity-1="ent0023" data-entity-2="ent0003" data-link-type="dependency" data-source-line="66" id="lnk33"><path d="M863,348.24 C863,379.73 863,423.5 863,423.5 C863,423.5 1910.88,423.5 2088.93,423.5" fill="none" id="Brute-force attack-backto-Attacker" style="stroke:#181818;stroke-width:1;"/><polygon fill="#181818" points="863,342.24,859,351.24,863,347.24,867,351.24,863,342.24" style="stroke:#181818;stroke-width:1;"/></g><!--reverse link Delegate to Auth0 via ROPC to client_secret exposure--><g class="link" data-entity-1="ent0011" data-entity-2="ent0026" data-link-type="dependency" data-source-line="67" id="lnk34"><path d="M958,251.6 C958,280.45 958,336 958,336 C958,336 1024.47,336 1076.4,336" fill="none" id="Delegate to Auth0 via ROPC-backto-client_secret exposure" style="stroke:#FF0000;stroke-width:1;"/><polygon fill="#FF0000" points="958,245.6,954,254.6,958,250.6,962,254.6,958,245.6" style="stroke:#FF0000;stroke-width:1;"/><text fill="#000000" font-family="sans-serif" font-size="13" lengthAdjust="spacing" textLength="72.9917" x="973" y="333.0698">&#171;Threatens&#187;</text></g><!--reverse link client_secret exposure to Malicious payload--><g class="link" data-entity-1="ent0026" data-entity-2="ent0028" data-link-type="dependency" data-source-line="68" id="lnk35"><path d="M1196.14,334.5 C1244.09,334.5 1307.71,334.5 1352.17,334.5" fill="none" id="client_secret exposure-backto-Malicious payload" style="stroke:#181818;stroke-width:1;"/><polygon fill="#181818" points="1190.14,334.5,1199.14,338.5,1195.14,334.5,1199.14,330.5,1190.14,334.5" style="stroke:#181818;stroke-width:1;"/></g><!--reverse link Malicious payload to Attacker--><g class="link" data-entity-1="ent0028" data-entity-2="ent0003" data-link-type="dependency" data-source-line="69" id="lnk36"><path d="M1475.68,315.5 C1659.86,315.5 2115,315.5 2115,315.5 C2115,315.5 2115,332.47 2115,350.1" fill="none" id="Malicious payload-backto-Attacker" style="stroke:#181818;stroke-width:1;"/><polygon fill="#181818" points="1469.68,315.5,1478.68,319.5,1474.68,315.5,1478.68,311.5,1469.68,315.5" style="stroke:#181818;stroke-width:1;"/></g><!--reverse link Return JWT to client to Token replay attack--><g class="link" data-entity-1="ent0017" data-entity-2="ent0027" data-link-type="dependency" data-source-line="70" id="lnk37"><path d="M1711.17,249.5 C1745.08,249.5 1780.91,249.5 1814.27,249.5" fill="none" id="Return JWT to client-backto-Token replay attack" style="stroke:#FF0000;stroke-width:1;"/><polygon fill="#FF0000" points="1705.17,249.5,1714.17,253.5,1710.17,249.5,1714.17,245.5,1705.17,249.5" style="stroke:#FF0000;stroke-width:1;"/><text fill="#000000" font-family="sans-serif" font-size="13" lengthAdjust="spacing" textLength="72.9917" x="1686.72" y="263.5698">&#171;Threatens&#187;</text></g><!--reverse link Token replay attack to Attacker--><g class="link" data-entity-1="ent0027" data-entity-2="ent0003" data-link-type="dependency" data-source-line="71" id="lnk38"><path d="M1873,298.09 C1873,328.15 1873,368.5 1873,368.5 C1873,368.5 2026.35,368.5 2088.66,368.5" fill="none" id="Token replay attack-backto-Attacker" style="stroke:#181818;stroke-width:1;"/><polygon fill="#181818" points="1873,292.09,1869,301.09,1873,297.09,1877,301.09,1873,292.09" style="stroke:#181818;stroke-width:1;"/></g><!--link Submit credentials to Enforce rate limit + lockout--><g class="link" data-entity-1="ent0007" data-entity-2="ent0039" data-link-type="dependency" data-source-line="74" id="lnk40"><path d="M417.67,246.3 C460.69,246.3 509,246.3 509,246.3 C509,246.3 509,276.42 509,295.9" fill="none" id="Submit credentials-to-Enforce rate limit + lockout" style="stroke:#181818;stroke-width:1;"/><polygon fill="#181818" points="509,301.9,513,292.9,509,296.9,505,292.9,509,301.9" style="stroke:#181818;stroke-width:1;"/></g><!--link Intercept credentials to Use TLS / HTTPS--><g class="link" data-entity-1="ent0025" data-entity-2="ent0041" data-link-type="dependency" data-source-line="75" id="lnk42"><path d="M672.58,510.33 C745.6,510.33 840,510.33 840,510.33 C840,510.33 840,517.2 840,528.46" fill="none" id="Intercept credentials-to-Use TLS / HTTPS" style="stroke:#181818;stroke-width:1;"/><polygon fill="#181818" points="840,534.46,844,525.46,840,529.46,836,525.46,840,534.46" style="stroke:#181818;stroke-width:1;"/></g><!--link Use TLS / HTTPS to Intercept credentials--><g class="link" data-entity-1="ent0041" data-entity-2="ent0025" data-link-type="dependency" data-source-line="81" id="lnk48"><path d="M885,534.56 C885,528.09 885,522.17 885,522.17 C885,522.17 759.32,522.17 671.61,522.17" fill="none" id="Use TLS / HTTPS-to-Intercept credentials" style="stroke:#008000;stroke-width:1;"/><polygon fill="#008000" points="665.61,522.17,674.61,526.17,670.61,522.17,674.61,518.17,665.61,522.17" style="stroke:#008000;stroke-width:1;"/><text fill="#000000" font-family="sans-serif" font-size="13" lengthAdjust="spacing" textLength="66.479" x="714.5" y="536.2398">&#171;Mitigates&#187;</text></g><!--link client_secret exposure to Store secret in env variables--><g class="link" data-entity-1="ent0026" data-entity-2="ent0043" data-link-type="dependency" data-source-line="76" id="lnk44"><path d="M1229.71,356.5 C1267.73,356.5 1303,356.5 1303,356.5 C1303,356.5 1303,369.64 1303,381.61" fill="none" id="client_secret exposure-to-Store secret in env variables" style="stroke:#181818;stroke-width:1;"/><polygon fill="#181818" points="1303,387.61,1307,378.61,1303,382.61,1299,378.61,1303,387.61" style="stroke:#181818;stroke-width:1;"/></g><!--link Store secret in env variables to client_secret exposure--><g class="link" data-entity-1="ent0043" data-entity-2="ent0026" data-link-type="dependency" data-source-line="82" id="lnk49"><path d="M1312,384.15 C1312,374.34 1312,362.5 1312,362.5 C1312,362.5 1274.76,362.5 1231.27,362.5" fill="none" id="Store secret in env variables-to-client_secret exposure" style="stroke:#008000;stroke-width:1;"/><polygon fill="#008000" points="1225.27,362.5,1234.27,366.5,1230.27,362.5,1234.27,358.5,1225.27,362.5" style="stroke:#008000;stroke-width:1;"/><text fill="#000000" font-family="sans-serif" font-size="13" lengthAdjust="spacing" textLength="66.479" x="1280.46" y="359.5698">&#171;Mitigates&#187;</text></g><!--link Token replay attack to Short token expiry + rotation--><g class="link" data-entity-1="ent0027" data-entity-2="ent0045" data-link-type="dependency" data-source-line="77" id="lnk46"><path d="M1950.4,274.5 C1972.37,274.5 1990.52,274.5 2013.38,274.5" fill="none" id="Token replay attack-to-Short token expiry + rotation" style="stroke:#181818;stroke-width:1;"/><polygon fill="#181818" points="2019.38,274.5,2010.38,270.5,2014.38,274.5,2010.38,278.5,2019.38,274.5" style="stroke:#181818;stroke-width:1;"/></g><!--link Short token expiry + rotation to Token replay attack--><g class="link" data-entity-1="ent0045" data-entity-2="ent0027" data-link-type="dependency" data-source-line="83" id="lnk50"><path d="M2019.55,259.5 C1996.64,259.5 1978.43,259.5 1956.4,259.5" fill="none" id="Short token expiry + rotation-to-Token replay attack" style="stroke:#008000;stroke-width:1;"/><polygon fill="#008000" points="1950.4,259.5,1959.4,263.5,1955.4,259.5,1959.4,255.5,1950.4,259.5" style="stroke:#008000;stroke-width:1;"/><text fill="#000000" font-family="sans-serif" font-size="13" lengthAdjust="spacing" textLength="66.479" x="1985.98" y="256.5698">&#171;Mitigates&#187;</text></g><!--link Enforce rate limit + lockout to Brute-force attack--><g class="link" data-entity-1="ent0039" data-entity-2="ent0023" data-link-type="dependency" data-source-line="80" id="lnk47"><path d="M679.69,321.17 C715.3,321.17 749.63,321.17 783.33,321.17" fill="none" id="Enforce rate limit + lockout-to-Brute-force attack" style="stroke:#008000;stroke-width:1;"/><polygon fill="#008000" points="789.33,321.17,780.33,317.17,784.33,321.17,780.33,325.17,789.33,321.17" style="stroke:#008000;stroke-width:1;"/><text fill="#000000" font-family="sans-serif" font-size="13" lengthAdjust="spacing" textLength="66.479" x="735.51" y="335.2398">&#171;Mitigates&#187;</text></g><?plantuml-src ZLPHJ-Cm37xlhx3WuK2dwT01EeOGKZS6x3Gsj1LuF6MjjqKBIPMcm7Iw_tvEEw1Tap7r1TcVFzkV7G-1CmD6WURpXO64QumDLpB8bbocJBDd45oYMQK8Ifk5gZYo1KlKAvTpc36HOSKpPV5ohbKkawuIIiF-TTj-GGMIPnYp3E5l0D3PW3yjk45hLpf1NTewWa1akrRIL2t_TkEyk8WM6fcvl6moLNoEp8t8dJFUSSFdpAf9iVl79zrVf-rwtXh2cRlEyVFaB3o-shs2tfj1BPcmiQTXz-mwhEUl-9tPg_77ORjzrTuzzsCk96esvOARbINe7DclNi0cw7qsjIeQJ6T7zgDI0XORseI73FNwpz0OOa1QEOr94DXjPd8k4FO6QiubN0lrkbSKR8EWrRg4Wz93Ru2bwI5vweOICycdpzn0JAme3QTzBv0ESuaFSxFeKfzQ2O6wm6wOIjmL2gJveirc0KVmmXcCH_VTGwZgRmcsOJ-Iaf49dX0igvUroROLNA7ZMPQJ-_TJvEEe8eh0CPfSIskmfSQ24wyDhYwpLv4mJSKAnefcTfCpdO2InJr1cUpCCI4mY6AA-Cou07nPbr2fdzRd6y5RyFWm6FR6OQS_w4VztYHmJhMnXi4Nisl0VQeqW5yei8bVTn7TZdjXHDLtT6wmDLCwHc35Sx1HxqSiE1YYULLw2PdainbTxxgtBqcW6DD6-v-GilG_zFWr6i2tL6MvnZecKbGkQ4m5MpchkAF5YxdACqZPIYYMrDordg0x6WvxtQW_6lg6GrXdt_OAmFa7CyhCvlPIU9fti_YKiaJRDNPuAUZzT7acM4DiNJrRW6z6xbQy4xLKsoVbTDTgzUozfNPkYRj4zq9L4wrtveuUyKsuPLcA2z6JfRpQYYYu1NsdYn4lLTuyLRvH5qpqEmBHO08_u3QAxYVDO9-uvQMY7os4jS-UA_b2DrbpDXMODRcSAfH42_htZ0IsVih1zOeQqieKeGsYkbQz2OJZyUY91DkkIv79-Sxc6Ydn-MSUBARM4ATWy3qp3yaN6XMKtdttSMwNg-1qRwURy3y0?></g></svg>