<?plantuml 1.2026.2?><svg xmlns="http://www.w3.org/2000/svg" xmlns:xlink="http://www.w3.org/1999/xlink" contentStyleType="text/css" data-diagram-type="SEQUENCE" height="736px" preserveAspectRatio="none" style="width:628px;height:736px;background:#FFFFFF;" version="1.1" viewBox="0 0 628 736" width="628px" zoomAndPan="magnify"><defs/><g><rect fill="none" height="313.5176" style="stroke:#000000;stroke-width:1.5;" width="611.5703" x="10" y="324.4878"/><g class="participant-lifeline" data-entity-uid="part1" data-qualified-name="User" id="part1-lifeline"><g><title>Customer.Support.Admin</title><rect fill="#000000" fill-opacity="0.00000" height="572.854" width="8" x="97.5894" y="82.1514"/><line style="stroke:#181818;stroke-width:0.5;stroke-dasharray:5,5;" x1="101" x2="101" y1="82.1514" y2="655.0054"/></g></g><g class="participant-lifeline" data-entity-uid="part2" data-qualified-name="AUTH0" id="part2-lifeline"><g><title>Auth0</title><rect fill="#000000" fill-opacity="0.00000" height="572.854" width="8" x="403.8506" y="82.1514"/><line style="stroke:#181818;stroke-width:0.5;stroke-dasharray:5,5;" x1="407.5576" x2="407.5576" y1="82.1514" y2="655.0054"/></g></g><g class="participant participant-head" data-entity-uid="part1" data-qualified-name="User" id="part1-head"><text fill="#000000" font-family="sans-serif" font-size="14" lengthAdjust="spacing" textLength="157.1787" x="20" y="79.0752">Customer/Support/Admin</text><ellipse cx="101.5894" cy="13.5" fill="#E2E2F0" rx="8" ry="8" style="stroke:#181818;stroke-width:0.5;"/><path d="M101.5894,21.5 L101.5894,48.5 M88.5894,29.5 L114.5894,29.5 M101.5894,48.5 L88.5894,63.5 M101.5894,48.5 L114.5894,63.5" fill="none" style="stroke:#181818;stroke-width:0.5;"/></g><g class="participant participant-tail" data-entity-uid="part1" data-qualified-name="User" id="part1-tail"><text fill="#000000" font-family="sans-serif" font-size="14" lengthAdjust="spacing" textLength="157.1787" x="20" y="668.0806">Customer/Support/Admin</text><ellipse cx="101.5894" cy="679.6567" fill="#E2E2F0" rx="8" ry="8" style="stroke:#181818;stroke-width:0.5;"/><path d="M101.5894,687.6567 L101.5894,714.6567 M88.5894,695.6567 L114.5894,695.6567 M101.5894,714.6567 L88.5894,729.6567 M101.5894,714.6567 L114.5894,729.6567" fill="none" style="stroke:#181818;stroke-width:0.5;"/></g><g class="participant participant-head" data-entity-uid="part2" data-qualified-name="AUTH0" id="part2-head"><rect fill="#E2E2F0" height="31.1514" rx="2.5" ry="2.5" style="stroke:#181818;stroke-width:0.5;" width="50.5859" x="382.5576" y="50"/><text fill="#000000" font-family="sans-serif" font-size="14" lengthAdjust="spacing" textLength="36.5859" x="389.5576" y="71.0752">Auth0</text></g><g class="participant participant-tail" data-entity-uid="part2" data-qualified-name="AUTH0" id="part2-tail"><rect fill="#E2E2F0" height="31.1514" rx="2.5" ry="2.5" style="stroke:#181818;stroke-width:0.5;" width="50.5859" x="382.5576" y="654.0054"/><text fill="#000000" font-family="sans-serif" font-size="14" lengthAdjust="spacing" textLength="36.5859" x="389.5576" y="675.0806">Auth0</text></g><g class="message" data-entity-1="part1" data-entity-2="part2" id="msg1"><polygon fill="#181818" points="395.8506,157.8564,405.8506,161.8564,395.8506,165.8564,399.8506,161.8564" style="stroke:#181818;stroke-width:1;"/><line style="stroke:#181818;stroke-width:1;" x1="101.5894" x2="401.8506" y1="161.8564" y2="161.8564"/><text fill="#000000" font-family="sans-serif" font-size="13" lengthAdjust="spacing" textLength="87.4263" x="108.5894" y="109.2212">GET /authorize</text><text fill="#000000" font-family="sans-serif" font-size="13" lengthAdjust="spacing" textLength="127.8989" x="108.5894" y="125.1475">{client_id, redirect_uri,</text><text fill="#000000" font-family="sans-serif" font-size="13" lengthAdjust="spacing" textLength="124.6743" x="108.5894" y="141.0737">response_type=code,</text><text fill="#000000" font-family="sans-serif" font-size="13" lengthAdjust="spacing" textLength="282.2612" x="108.5894" y="157">code_challenge, code_challenge_method=S256}</text></g><g class="message" data-entity-1="part2" data-entity-2="part2" id="msg2"><line style="stroke:#181818;stroke-width:1;" x1="407.8506" x2="449.8506" y1="191.7827" y2="191.7827"/><line style="stroke:#181818;stroke-width:1;" x1="449.8506" x2="449.8506" y1="191.7827" y2="204.7827"/><line style="stroke:#181818;stroke-width:1;" x1="408.8506" x2="449.8506" y1="204.7827" y2="204.7827"/><polygon fill="#181818" points="418.8506,200.7827,408.8506,204.7827,418.8506,208.7827,414.8506,204.7827" style="stroke:#181818;stroke-width:1;"/><text fill="#000000" font-family="sans-serif" font-size="13" lengthAdjust="spacing" textLength="106.2344" x="414.8506" y="186.9263">Display login page</text></g><g class="message" data-entity-1="part1" data-entity-2="part2" id="msg3"><polygon fill="#181818" points="395.8506,246.6353,405.8506,250.6353,395.8506,254.6353,399.8506,250.6353" style="stroke:#181818;stroke-width:1;"/><line style="stroke:#181818;stroke-width:1;" x1="101.5894" x2="401.8506" y1="250.6353" y2="250.6353"/><text fill="#000000" font-family="sans-serif" font-size="13" lengthAdjust="spacing" textLength="106.939" x="108.5894" y="229.8525">Submit credentials</text><text fill="#000000" font-family="sans-serif" font-size="13" lengthAdjust="spacing" textLength="129.3271" x="108.5894" y="245.7788">(username, password)</text></g><g class="message" data-entity-1="part2" data-entity-2="part2" id="msg4"><line style="stroke:#181818;stroke-width:1;" x1="407.8506" x2="449.8506" y1="296.4878" y2="296.4878"/><line style="stroke:#181818;stroke-width:1;" x1="449.8506" x2="449.8506" y1="296.4878" y2="309.4878"/><line style="stroke:#181818;stroke-width:1;" x1="408.8506" x2="449.8506" y1="309.4878" y2="309.4878"/><polygon fill="#181818" points="418.8506,305.4878,408.8506,309.4878,418.8506,313.4878,414.8506,309.4878" style="stroke:#181818;stroke-width:1;"/><text fill="#000000" font-family="sans-serif" font-size="13" lengthAdjust="spacing" textLength="113.458" x="414.8506" y="275.7051">Validate credentials</text><text fill="#000000" font-family="sans-serif" font-size="13" lengthAdjust="spacing" textLength="103.3335" x="414.8506" y="291.6313">against user store</text></g><path d="M10,324.4878 L70.1709,324.4878 L70.1709,332.4141 L60.1709,342.4141 L10,342.4141 L10,324.4878" fill="#EEEEEE" style="stroke:#000000;stroke-width:1.5;"/><rect fill="none" height="313.5176" style="stroke:#000000;stroke-width:1.5;" width="611.5703" x="10" y="324.4878"/><text fill="#000000" font-family="sans-serif" font-size="13" font-weight="bold" lengthAdjust="spacing" textLength="15.1709" x="25" y="338.5576">alt</text><text fill="#000000" font-family="sans-serif" font-size="11" font-weight="bold" lengthAdjust="spacing" textLength="94.7515" x="85.1709" y="337.5469">[Valid credentials]</text><g class="message" data-entity-1="part2" data-entity-2="part1" id="msg5"><polygon fill="#181818" points="112.5894,360.3403,102.5894,364.3403,112.5894,368.3403,108.5894,364.3403" style="stroke:#181818;stroke-width:1;"/><line style="stroke:#181818;stroke-width:1;stroke-dasharray:2,2;" x1="106.5894" x2="406.8506" y1="364.3403" y2="364.3403"/><text fill="#000000" font-family="sans-serif" font-size="13" lengthAdjust="spacing" textLength="188.6079" x="118.5894" y="359.4839">Redirect with authorization_code</text></g><g class="message" data-entity-1="part1" data-entity-2="part2" id="msg6"><polygon fill="#181818" points="395.8506,422.1191,405.8506,426.1191,395.8506,430.1191,399.8506,426.1191" style="stroke:#181818;stroke-width:1;"/><line style="stroke:#181818;stroke-width:1;" x1="101.5894" x2="401.8506" y1="426.1191" y2="426.1191"/><text fill="#000000" font-family="sans-serif" font-size="13" lengthAdjust="spacing" textLength="110.5635" x="108.5894" y="389.4102">POST /oauth/token</text><text fill="#000000" font-family="sans-serif" font-size="13" lengthAdjust="spacing" textLength="186.8369" x="108.5894" y="405.3364">{grant_type=authorization_code,</text><text fill="#000000" font-family="sans-serif" font-size="13" lengthAdjust="spacing" textLength="169.1016" x="108.5894" y="421.2627">code, code_verifier, client_id}</text></g><g class="message" data-entity-1="part2" data-entity-2="part2" id="msg7"><line style="stroke:#181818;stroke-width:1;" x1="407.8506" x2="449.8506" y1="487.8979" y2="487.8979"/><line style="stroke:#181818;stroke-width:1;" x1="449.8506" x2="449.8506" y1="487.8979" y2="500.8979"/><line style="stroke:#181818;stroke-width:1;" x1="408.8506" x2="449.8506" y1="500.8979" y2="500.8979"/><polygon fill="#181818" points="418.8506,496.8979,408.8506,500.8979,418.8506,504.8979,414.8506,500.8979" style="stroke:#181818;stroke-width:1;"/><text fill="#000000" font-family="sans-serif" font-size="13" lengthAdjust="spacing" textLength="111.2681" x="414.8506" y="451.189">Verify code_verifier</text><text fill="#000000" font-family="sans-serif" font-size="13" lengthAdjust="spacing" textLength="148.8652" x="414.8506" y="467.1152">and generate signed JWT</text><text fill="#000000" font-family="sans-serif" font-size="13" lengthAdjust="spacing" textLength="88.8545" x="414.8506" y="483.0415">with role claims</text></g><g class="message" data-entity-1="part2" data-entity-2="part1" id="msg8"><polygon fill="#181818" points="112.5894,553.7136,102.5894,557.7136,112.5894,561.7136,108.5894,557.7136" style="stroke:#181818;stroke-width:1;"/><line style="stroke:#181818;stroke-width:1;stroke-dasharray:2,2;" x1="106.5894" x2="406.8506" y1="557.7136" y2="557.7136"/><text fill="#000000" font-family="sans-serif" font-size="13" lengthAdjust="spacing" textLength="44.0845" x="118.5894" y="536.9309">200 OK</text><text fill="#000000" font-family="sans-serif" font-size="13" lengthAdjust="spacing" textLength="225.4814" x="118.5894" y="552.8572">{access_token, token_type, expires_in}</text></g><path d="M412,513.8979 L412,570.8979 L605,570.8979 L605,523.8979 L595,513.8979 L412,513.8979" fill="#FEFFDD" style="stroke:#181818;stroke-width:0.5;"/><path d="M595,513.8979 L595,523.8979 L605,523.8979 L595,513.8979" fill="#FEFFDD" style="stroke:#181818;stroke-width:0.5;"/><text fill="#000000" font-family="sans-serif" font-size="13" lengthAdjust="spacing" textLength="146.6499" x="418" y="531.9678">User includes this JWT in</text><text fill="#000000" font-family="sans-serif" font-size="13" lengthAdjust="spacing" textLength="165.4897" x="418" y="547.894">subsequent API requests via</text><text fill="#000000" font-family="sans-serif" font-size="13" lengthAdjust="spacing" textLength="172.7197" x="418" y="563.8203">Authorization: Bearer &lt;token&gt;</text><line style="stroke:#000000;stroke-width:1;stroke-dasharray:2,2;" x1="10" x2="621.5703" y1="577.6768" y2="577.6768"/><text fill="#000000" font-family="sans-serif" font-size="11" font-weight="bold" lengthAdjust="spacing" textLength="103.3076" x="15" y="588.7358">[Invalid credentials]</text><g class="message" data-entity-1="part2" data-entity-2="part1" id="msg10"><polygon fill="#181818" points="112.5894,626.0054,102.5894,630.0054,112.5894,634.0054,108.5894,630.0054" style="stroke:#181818;stroke-width:1;"/><line style="stroke:#181818;stroke-width:1;stroke-dasharray:2,2;" x1="106.5894" x2="406.8506" y1="630.0054" y2="630.0054"/><text fill="#000000" font-family="sans-serif" font-size="13" lengthAdjust="spacing" textLength="62.8672" x="118.5894" y="609.2227">Login error</text><text fill="#000000" font-family="sans-serif" font-size="13" lengthAdjust="spacing" textLength="111.9917" x="118.5894" y="625.1489">(invalid credentials)</text></g><?plantuml-src ZP91RzD048Nl_XMZd5h9A54bE4IqKWe82aYjI0eNIzRKEpWZrhDcPvqIKFyxOpiLITC3lgntzMRclMyNgnGYt2f5G8N9cqvJQ2XEbrtRXfYc2zUmJB8MO-AAMvG4aqMNrhD9hr_ShZxCicmeVt4nRkVm_jqAfcYY4Fat5VAdyaoIIdOvH78SgKfb5pal99AsGPJAj6tfl0gExB1VocgDtfFKbCFXlcp8EhlpvTdBLm_PC79lzblMrkCMVAXPeCMQdhfRTdSD9wZCYPbYz5h8IMSQmSQ6jQXw7w8xFMhz5JqxJ7HOYZMoQ8A-0nYyI5c6FetgVMa6zkrwMjFUrHo-x730FQSrF3B3n47AFlPGz2J0pVNI-8PUF4tX1uaHhgFTp0ZnkCaEwGxaXY9_PugsVRoMXtrl__BsmkrXaUKL1pK9nPw4SYtauEEtLI53WXYyyV78pVDvpsOpkFvaXh6gIBKS_ESmB8Fz7EXNQqYqP1bjIR11aUjrceyaM2hVEL98QzP-jfqKejsTqi_E0i7YvihUcVrhKjWm5hBOPpA7Iy9eZLuFOoyoyafm9Pl_kh7FmyEY68F1EE7ZgjECn6L_0G00?></g></svg>